<?xml version="1.0" encoding="utf-8"?>
<!-- Generator: Adobe Illustrator 16.0.0, SVG Export Plug-In . SVG Version: 6.00 Build 0)  -->
<!DOCTYPE svg PUBLIC "-//W3C//DTD SVG 1.1//EN" "http://www.w3.org/Graphics/SVG/1.1/DTD/svg11.dtd">
<svg version="1.1" id="Layer_1" xmlns="http://www.w3.org/2000/svg" xmlns:xlink="http://www.w3.org/1999/xlink" x="0px" y="0px"
	 width="21.5px" height="388.011px" viewBox="0 0 21.5 388.011" enable-background="new 0 0 21.5 388.011" xml:space="preserve">
<polygon fill="#335379" points="16.814,0 15.631,0.947 18.971,5.122 0,5.122 0,6.637 19.043,6.637 15.613,11.289 16.833,12.188 
	21.5,5.858 "/>
<polygon fill="#BA2031" points="16.814,23.489 15.631,24.436 18.971,28.61 0,28.61 0,30.125 19.043,30.125 15.613,34.778 
	16.833,35.677 21.5,29.347 "/>
<polygon fill="#C5197F" points="16.814,46.978 15.631,47.925 18.971,52.1 0,52.1 0,53.615 19.043,53.615 15.613,58.267 
	16.833,59.166 21.5,52.836 "/>
<polygon fill="#EB8B23" points="16.814,70.467 15.631,71.414 18.971,75.588 0,75.588 0,77.104 19.043,77.104 15.613,81.756 
	16.833,82.655 21.5,76.325 "/>
<polygon fill="#78BE20" points="16.814,117.445 15.631,118.393 18.971,122.567 0,122.567 0,124.082 19.043,124.082 15.613,128.734 
	16.833,129.633 21.5,123.303 "/>
<polygon fill="#00B5E2" points="16.814,140.935 15.631,141.881 18.971,146.055 0,146.055 0,147.57 19.043,147.57 15.613,152.223 
	16.833,153.122 21.5,146.793 "/>
<polygon fill="#008EAA" points="16.814,164.424 15.631,165.37 18.971,169.545 0,169.545 0,171.061 19.043,171.061 15.613,175.713 
	16.833,176.611 21.5,170.281 "/>
<polygon fill="#652667" points="16.814,187.912 15.631,188.859 18.971,193.033 0,193.033 0,194.549 19.043,194.549 15.613,199.201 
	16.833,200.101 21.5,193.771 "/>
<polygon fill="#C26E60" points="16.814,211.401 15.631,212.348 18.971,216.521 0,216.521 0,218.037 19.043,218.037 15.613,222.689 
	16.833,223.589 21.5,217.26 "/>
<polygon fill="#E6A65D" points="16.814,234.891 15.631,235.837 18.971,240.012 0,240.012 0,241.527 19.043,241.527 15.613,246.18 
	16.833,247.078 21.5,240.748 "/>
<polygon fill="#9CAF88" points="16.814,258.379 15.631,259.326 18.971,263.5 0,263.5 0,265.016 19.043,265.016 15.613,269.668 
	16.833,270.567 21.5,264.237 "/>
<polygon fill="#00573F" points="16.814,281.868 15.631,282.814 18.971,286.989 0,286.989 0,288.505 19.043,288.505 15.613,293.157 
	16.833,294.056 21.5,287.726 "/>
<polygon fill="#5B7F95" points="16.814,305.356 15.631,306.304 18.971,310.478 0,310.478 0,311.993 19.043,311.993 15.613,316.646 
	16.833,317.545 21.5,311.215 "/>
<polygon fill="#B1B3B3" points="16.814,328.845 15.631,329.792 18.971,333.966 0,333.966 0,335.481 19.043,335.481 15.613,340.134 
	16.833,341.033 21.5,334.703 "/>
<polygon fill="#ACA39A" points="16.814,352.334 15.631,353.28 18.971,357.455 0,357.455 0,358.971 19.043,358.971 15.613,363.623 
	16.833,364.521 21.5,358.191 "/>
<polygon fill="#4F2C1D" points="16.814,375.822 15.631,376.77 18.971,380.943 0,380.943 0,382.459 19.043,382.459 15.613,387.111 
	16.833,388.011 21.5,381.681 "/>
<polygon fill="#FFCD00" points="16.814,93.956 15.631,94.902 18.971,99.078 0,99.078 0,100.593 19.043,100.593 15.613,105.245 
	16.833,106.145 21.5,99.814 "/>
</svg>
