<?xml version="1.0" encoding="utf-8"?>
<!-- Generator: Adobe Illustrator 16.0.0, SVG Export Plug-In . SVG Version: 6.00 Build 0)  -->
<!DOCTYPE svg PUBLIC "-//W3C//DTD SVG 1.1//EN" "http://www.w3.org/Graphics/SVG/1.1/DTD/svg11.dtd">
<svg version="1.1" id="Layer_1" xmlns="http://www.w3.org/2000/svg" xmlns:xlink="http://www.w3.org/1999/xlink" x="0px" y="0px"
	 width="1500px" height="2573.388px" viewBox="0 0 1500 2573.388" enable-background="new 0 0 1500 2573.388" xml:space="preserve">
<g>
	<g>
		<path fill-rule="evenodd" clip-rule="evenodd" fill="none" stroke="#CDD5E0" stroke-miterlimit="10" d="M1314.844,898.783
			c0,0,100.55,70.732,241.57,307.737c0,0,171.466,187.021,451.905,168.842c0,0-163.665-68.23-198.729-212.451
			c0,0-105.481-351.694-606.202-521.208C1138.406,509.4,1047.457,438.126,962.142,400.04
			c-79.588-45.546-164.604-66.605-258.007-64.169c43.369-34.064,92.35-61.218,144.66-70.692l128.322,25.604l178.288-50.052
			l129.414,53.282c0,0,42.678,35.171-29.262,71.429l183.284,57.191l126.215-27.12l22.927-32.119l85.748,2.403l-6.649-107.703
			l-15.563-92.226c0,0-29.507-76.475-226.05-225.405l-51.785-51.722c0,0-21.902-40.622-79.324-77.902c0,0,33.867-9.97,50.881-23.788
			l-167.243-66.353l107.591-97.017l-317.223,41.178c-393-113.243-679.139,29.676-679.139,29.676
			c95.818-28.481,173.518-41.513,300.676-36.175c0,0,35.919,6.671,35.545,15.011C191.161-301.305-134.323,44.7-134.323,44.7
			l133.889-4.184c-16.655,22.937-31.598,45.428-44.822,67.307C-307.37,313.766-249.017,783.662-249.017,783.662
			C-208.609,912.167-93.418,1024.815-6,1095.529c61.961,100.152,199.917,318.958,287.354,421.616c0,0,109.727,86.023,119.585,193.16
			c0,0,3.641,93.515,107.298,122.792L858.8,2432.15c0,0,64.209,161.899,211.677,100.695l10.607-6.413
			c116.88-108.784-46.307-241.161-46.307-241.161l-53.429-64.04c-78.613-48.206-90.546-85.469-90.546-85.469
			c28.171-69.08-33.115-119.479-33.115-119.479c-65.007-51.676-230.641-287.765-230.641-287.765
			c16.323-106.309-64.219-157.077-64.219-157.077c-93.481-53.294-129.592-180.081-129.592-180.081
			c-3.939-15.438-15.485-36.746-31.532-61.229c-2.533-24.632-2.389-55.545,9.149-78.636
			c76.377-13.417,119.007-49.592,119.007-49.592c6.92,1.107,13.416,1.892,19.851,2.527c4.117,41.996,26.417,134.893,137.65,229.047
			c0,0,46.818,55.086,40.337,145.312c0,0,7.256,128.277,179.211,96.183c0,0,51.677,27.174,85.102,22.875
			c34.242-4.418,36.364,10.66,64.866-4.837c0,0,98.942-71.488,15.253-243.573c0,0-70.893-90.729-135.562-33.6l-28.252,76.775
			l-90.509-228.722c0,0,3.884-39.55-9.592-95.115c29.785,15.694,62.65,23.44,95.444,26.197
			c51.415,76.295,130.127,180.354,199.596,218.865c0,0,88.162,161.016,95.96,247.182c0,0,8.886,148.262,112.856,176.236
			c0,0,23.129,186.275,163.351,191.738c0,0,124.202-21.495,20.073-218.871c0,0-38.692-28.84-80.221-41.131
			c0,0,1.812-78.859-59.049-139.423c0,0-134.854-208.059-147.145-266.651c0,0,9.105-101.789-80.213-239.042l1.34-3.541
			c29.689,12.146,61.881,21.553,96.633,27.141c18.328,43.604,34.455,90.394,37.686,125.059c0,0,8.694,148.303,112.828,176.365
			c0,0,23.118,186.255,163.33,191.758c0,0,124.156-21.578,20.039-219.047c0,0-38.741-28.747-80.19-41.061
			c0,0,1.84-78.772-59.097-139.368c0,0-91.474-141.214-130.624-223.608c0.198-0.094,0.383-0.172,0.577-0.141
			c-7.142-17.236-12.504-32.883-16.927-47.645c0.463-14.674-0.82-63.084-26.966-130.884c-0.705-3.5-1.577-6.805-2.342-10.364
			l10.203-26.05L1314.844,898.783z"/>
		<g>
			<path fill-rule="evenodd" clip-rule="evenodd" fill="none" stroke="#CDD5E0" stroke-miterlimit="10" d="M1534.022,350.737
				l22.467-34.538l58.108,4.547c-8.522-25.182-18.321-122.56-34.227-141.782C1501.654,84.698,1388.523-3.819,1388.523-3.819
				c-17.336-10.257-32.596-23.122-45.292-35.974c11.92,42.258,14.322,70.063,14.322,70.063l-0.157-0.181
				c-0.117-0.61-10.764-35.477-37.141-96.519l0.078,0.489l-0.146-0.577c-16.242-19.756-20.603-29.1-20.603-29.1
				c-54.277-61.045-202.192-136.294-202.192-136.294l-108.533,1.691l19.181-8.491l139.575-80.287
				c-142.195,19.204-301.177,74.831-301.177,74.831c-223.084-5.537-386.807,38.785-498.775,88.391
				C168.78-63.556,47.844,69.079,52.228,64.317C6.965,114.003-30.995,162.283-60.947,203.569
				c-103.686,175.37-202.623,421.268-88.026,600.013c0,0,321.917,277.777,488.813,295.648c0,0,30.428-4.15,35.536-36.039
				c0,0,87.821,46.755,130.485-14.834c0,0,201.65-328.089,106.856-480.168l-46.236-85.871c-2.172,3.15-4.383,6.226-6.539,9.145
				c-9.083,29.911-32.447,97.98-58.518,100.692l-7.564-9.982c-0.126-0.284-0.134-0.588-0.316-0.84
				c0.102,0.121,0.11,0.172,0.167,0.358c-0.057-0.186-0.111-0.286-0.205-0.545c-0.629-1.999-1.359-4.121-1.921-6.188
				c-8.032-25.926-23.146-86.897,58.175-170.355c0,0,35.568-111.91,160.325-178.345c2.637-3.516,4.057-5.45,4.057-5.45
				l8.479-166.904c-60.294,34.982-256.46,149.896-323.539,203.12c49.533-43.601,193.451-165.196,324.693-226.541l0.759-11.925
				c11.941-65.576,146.47-120.38,146.47-120.38s-7.861,5.657-14.904,11.041C789.901-15.499,801.717,31.68,801.717,31.68
				c7.689,59.03,31.69,99.789,61.189,127.682c39.228,21.955,110.114,48.315,203.889,28.085c0,0,102.819-17.678,248.889-26.2
				c12.241-1.543,18.491-2.109,18.491-2.109c-67.675,15.155-124.279,54.364-124.279,54.364l24.197,10.237l81.565,20.791
				c53.411,18.488,47.684,45.405,47.684,45.405l0.659,41.209c29.619,8.616,56.235,32.612,66.081,42.265L1534.022,350.737z"/>
			<path fill-rule="evenodd" clip-rule="evenodd" fill="none" stroke="#CDD5E0" stroke-miterlimit="10" d="M1363.342,289.935
				c0,0,5.728-26.917-47.684-45.405l-81.565-20.791l116.654,49.807l-0.816,68.429l77.172,32.109l2.979-0.677
				c-9.846-9.652-36.462-33.648-66.081-42.265L1363.342,289.935z"/>
		</g>
		<path fill-rule="evenodd" clip-rule="evenodd" fill="none" stroke="#CDD5E0" stroke-miterlimit="10" d="M1166.835-29.861
			c0,0-112.927-98.469-326.592-146.072c104.211-17.481,331.991,11.212,417.676,82.966c0,0-21.523-44.911-158.315-114.457
			c-58.505-28.762-218.159,1.2-218.159,1.2l100.916-59.931l-170.77,39.209C632.66-208.702,332.849-140.047,110.148,105.81
			c0,0-6.177,174.018,116.656,310.592c49.235,94.516,100.789,237.052,51.505,360.349c0,0,221.101-369.469,246.378-408.383
			c25.248-38.938,53.453-70.697,75.564-98.181c22.224-27.556,73.312-77.339,81.601-175.698c0,0-274.532,131.174-461.17,314.897
			c0,0,345.205-475.279,657.871-534.627c0,0-50.549,211.089,210.475,233.243l213.615-21.748L1166.835-29.861z"/>
		<path fill-rule="evenodd" clip-rule="evenodd" fill="none" stroke="#CDD5E0" d="M525.398,927.911
			c0,0-112.185,232.969-160.646,1.722c0,0-9.168-209.318,109.914-307.823c0,0,37.902,53.048,73.788-15.647
			C548.453,606.163,603.834,705.203,525.398,927.911z"/>
		<path fill-rule="evenodd" clip-rule="evenodd" fill="none" stroke="#CDD5E0" d="M108.362,1130.615
			c0,0,230.962,120.225,317.595,348.378c0,0,30.128,84.166,64.343,93.566c0,0,95.131,50.987,71.908,146.396
			c0,0-49.094,83.463-108.771,34.313c0,0-29.372-163.548-69.604-209.577C383.832,1543.692,185.315,1369.052,108.362,1130.615z"/>
		<path fill-rule="evenodd" clip-rule="evenodd" fill="none" stroke="#CDD5E0" d="M178.447,1189.337
			c0,0,95.381,98.609,208.98,307.263C387.428,1496.6,201.685,1391.52,178.447,1189.337z"/>
		<path fill-rule="evenodd" clip-rule="evenodd" fill="none" stroke="#CDD5E0" d="M610.642,1937.152
			c0,0,125.369,234.314,173.822,253.96c0,0,56.701,92.451,54.312,131.72c0,0,37.364,141.194,123.797,147.112
			c0,0,132.103-6.694,16.167-175.971c0,0-89.733-86.138-135.838-145.021c0,0,31.84-50.567-38.159-109.301l-123.077-99.022
			C681.666,1940.627,623.187,1883.597,610.642,1937.152z"/>
		<path fill-rule="evenodd" clip-rule="evenodd" fill="none" stroke="#CDD5E0" d="M659.366,1980.641
			c0,0,75.414,198.527,152.033,190.985c0,0,23.782-23.909-30.207-84.217C781.191,2087.409,721.455,2014.357,659.366,1980.641z"/>
		<path fill-rule="evenodd" clip-rule="evenodd" fill="none" stroke="#CDD5E0" d="M811.807,2220.895
			c0,0,49.261,238.071,142.672,225.25c0,0,53.327-35.17-7.71-100.555C946.769,2345.59,830.112,2255.629,811.807,2220.895z"/>
		<path fill-rule="evenodd" clip-rule="evenodd" fill="none" stroke="#CDD5E0" d="M549.966,1157.604
			c0,0,120.413,233.476,202.521,266.487l32.308,120.198c0,0,66.11-64.811,15.544-195.855
			C800.339,1348.434,662.495,1123.903,549.966,1157.604z"/>
		<path fill-rule="evenodd" clip-rule="evenodd" fill="none" stroke="#CDD5E0" d="M256.194,817.542
			c-21.467-54.375-77.38-167.562-99.339-197.353c-37.47-50.847-60.52-73.779-76.118-85.339
			c-15.63-11.753-79.584-59.077-102.584-85.26c-61.076-69.631-52.447-120.627-49.677-131.384l0,0l0,0l-1.217,2.378
			c-97.252,210.656-30.06,442.776-30.06,442.776c10.353-188.822,93.094-258.8,93.094-258.8
			c-81.784,193.383,2.634,305.829,2.634,305.829c124.478,214.399,136.411,65.689,136.411,65.689
			c139.993,216.677,164.802,161.169,164.802,161.169C310.295,977.717,283.257,886.485,256.194,817.542z"/>
		<g>
			<path fill-rule="evenodd" clip-rule="evenodd" fill="none" stroke="#CDD5E0" stroke-miterlimit="10" d="M1022.507,220.829
				c156.568-39.868,254.719-54.683,293.177-59.582c-146.069,8.521-248.889,26.2-248.889,26.2
				c-93.774,20.23-164.661-6.13-203.889-28.085C928.926,221.861,1022.507,220.829,1022.507,220.829z"/>
		</g>
	</g>
</g>
</svg>
