<svg version="1.1" id="Layer_1" xmlns="http://www.w3.org/2000/svg" xmlns:xlink="http://www.w3.org/1999/xlink" x="0" y="0" width="945" height="63" viewBox="-18.6 -1387.2 945 63" enable-background="new -18.601 -1387.199 945 63.002" xml:space="preserve">
  <g id="vtour">
    <circle fill="#C4197F" cx="894.9" cy="-1355.7" r="31.5"/>
    <path fill="#FFFFFF" d="M886.63-1363.85c-4.53 4.53-4.53 11.87 0 16.39 4.53 4.53 11.87 4.53 16.4 0 4.53-4.53 4.53-11.87 0-16.39C898.5-1368.38 891.16-1368.38 886.63-1363.85zM901.03-1349.46c-3.42 3.42-8.97 3.42-12.39 0 -3.42-3.42-3.42-8.97 0-12.39 3.42-3.42 8.97-3.42 12.4 0C904.45-1358.43 904.45-1352.88 901.03-1349.46z"/>
    <rect x="881.17" y="-1373.31" transform="matrix(0.7071 -0.7071 0.7071 0.7071 1225.6804 223.6305)" fill="#FFFFFF" width="3.23" height="11.21"/>
    <polygon fill="#FFFFFF" points="878.92 -1365.68 875.69 -1365.68 875.59 -1374.89 878.92 -1371.75 "/>
    <polygon fill="#FFFFFF" points="884.91 -1374.91 884.91 -1371.67 878.85 -1371.67 875.59 -1374.89 "/>
    <rect x="905.45" y="-1349.3" transform="matrix(-0.7072 0.707 -0.707 -0.7072 598.4893 -2935.2498)" fill="#FFFFFF" width="3.23" height="11.21"/>
    <polygon fill="#FFFFFF" points="910.88 -1345.71 914.11 -1345.71 914.21 -1336.5 910.88 -1339.64 "/>
    <polygon fill="#FFFFFF" points="904.89 -1336.49 904.89 -1339.72 910.95 -1339.72 914.21 -1336.5 "/>
    <rect x="881.28" y="-1349.13" transform="matrix(-0.707 -0.7073 0.7073 -0.707 2457.291 -1668.9148)" fill="#FFFFFF" width="3.23" height="11.21"/>
    <polygon fill="#FFFFFF" points="884.91 -1339.72 884.91 -1336.49 875.7 -1336.39 878.85 -1339.72 "/>
    <polygon fill="#FFFFFF" points="875.69 -1345.71 878.92 -1345.71 878.92 -1339.64 875.7 -1336.39 "/>
    <rect x="905.31" y="-1373.35" transform="matrix(0.7068 0.7074 -0.7074 0.7068 -701.6489 -1042.5863)" fill="#FFFFFF" width="3.23" height="11.21"/>
    <polygon fill="#FFFFFF" points="904.89 -1371.67 904.89 -1374.91 914.1 -1375 910.95 -1371.67 "/>
    <polygon fill="#FFFFFF" points="914.11 -1365.68 910.88 -1365.68 910.88 -1371.75 914.1 -1375 "/>
  </g>
  <g id="undergrad-research">
    <circle fill="#00B4E0" cx="831.9" cy="-1355.7" r="31.5"/>
    <path fill="#FFFFFF" d="M838.96-1352.19c-1.46 2.57-4.21 4.31-7.38 4.31 -4.68 0-8.48-3.8-8.48-8.48 0-2.77 1.33-5.21 3.38-6.76l-2.21-2.63c-2.8 2.18-4.6 5.57-4.6 9.39 0 6.58 5.33 11.91 11.91 11.91 5.11 0 9.45-3.22 11.15-7.74H838.96z"/>
    <rect x="824.57" y="-1373.37" transform="matrix(0.7395 -0.6732 0.6732 0.7395 1134.7574 200.5898)" fill="#FFFFFF" width="3.91" height="15.26"/>
    <rect x="837.96" y="-1360.77" transform="matrix(-0.0025 -1 1 -0.0025 2195.1497 -516.5977)" fill="#FFFFFF" width="3.91" height="15.27"/>
    <rect x="817.05" y="-1375.99" transform="matrix(0.7394 -0.6733 0.6733 0.7394 1138.4966 193.3452)" fill="#FFFFFF" width="3.91" height="3.94"/>
    <path fill="#FFFFFF" d="M831.44-1341.63c3.19 0 5.97 1.77 7.42 4.38h3.76c-1.67-4.55-6.04-7.81-11.17-7.81 -5.11 0-9.45 3.22-11.15 7.74h3.77C825.52-1339.9 828.27-1341.63 831.44-1341.63z"/>
  </g>
  <g id="save">
    <circle fill="#EB8B23" cx="768.9" cy="-1355.7" r="31.5"/>
    <path fill="none" stroke="#FFFFFF" stroke-width="2.5" stroke-miterlimit="10" d="M780.93-1342.9v-27.35c0-2.84-2.3-5.14-5.14-5.14h-22.6c2.84 0 5.14 2.3 5.14 5.14v27.35c0 2.84 2.3 5.14 5.14 5.14"/>
    <path fill="none" stroke="#FFFFFF" stroke-width="2.5" stroke-miterlimit="10" d="M753.18-1375.39c-2.84 0-5.14 2.3-5.14 5.14h10.27"/>
    <path fill="none" stroke="#FFFFFF" stroke-width="2.5" stroke-miterlimit="10" d="M786.06-1337.76c2.84 0 5.14-2.3 5.14-5.13h-22.6c0 2.84-2.3 5.14-5.14 5.14H786.06z"/>
    <line fill="none" stroke="#FFFFFF" stroke-width="2.5" stroke-miterlimit="10" x1="762.69" y1="-1367.29" x2="776.67" y2="-1367.29"/>
    <line fill="none" stroke="#FFFFFF" stroke-width="2.5" stroke-miterlimit="10" x1="762.69" y1="-1361.42" x2="776.67" y2="-1361.42"/>
    <line fill="none" stroke="#FFFFFF" stroke-width="2.5" stroke-miterlimit="10" x1="762.69" y1="-1355.56" x2="776.67" y2="-1355.56"/>
    <line fill="none" stroke="#FFFFFF" stroke-width="2.5" stroke-miterlimit="10" x1="762.69" y1="-1349.7" x2="776.67" y2="-1349.7"/>
  </g>
  <g id="read-principles">
    <circle fill="#EB8B23" cx="705.9" cy="-1355.7" r="31.5"/>
    <path fill="#FFFFFF" d="M705.9-1336.94l-17.33-7.02v-29.35l17.22 6.78 17.44-6.77v29.34L705.9-1336.94zM691.58-1345.99l14.32 5.8 14.32-5.8v-22.92l-14.43 5.6 -14.2-5.59L691.58-1345.99 691.58-1345.99z"/>
    <rect x="704.28" y="-1364.92" fill="#FFFFFF" width="3.01" height="26.36"/>
    <polygon fill="#FFFFFF" points="701.33 -1358.31 701.33 -1361.61 694.36 -1364.28 694.34 -1361.06 "/>
    <polygon fill="#FFFFFF" points="701.33 -1351.67 701.33 -1354.96 694.36 -1357.64 694.34 -1354.41 "/>
    <polygon fill="#FFFFFF" points="701.33 -1345.02 701.33 -1348.32 694.36 -1350.99 694.34 -1347.77 "/>
    <polygon fill="#FFFFFF" points="710.04 -1358.31 710.04 -1361.61 717.01 -1364.28 717.04 -1361.06 "/>
    <polygon fill="#FFFFFF" points="710.04 -1351.67 710.04 -1354.96 717.01 -1357.64 717.04 -1354.41 "/>
    <polygon fill="#FFFFFF" points="710.04 -1345.02 710.04 -1348.32 717.01 -1350.99 717.04 -1347.77 "/>
  </g>
  <g id="orientation">
    <circle fill="#78BD43" cx="642.89" cy="-1355.7" r="31.5"/>
    <path fill="#FFFFFF" d="M637.97-1376.8c-2.48 2.48-2.48 6.51 0 8.99 2.48 2.48 6.51 2.48 8.99 0 2.49-2.48 2.49-6.51 0-8.99C644.48-1379.29 640.46-1379.29 637.97-1376.8zM645.03-1369.75c-1.41 1.41-3.7 1.41-5.11 0 -1.41-1.41-1.41-3.7 0-5.11 1.41-1.41 3.7-1.41 5.11 0C646.44-1373.45 646.44-1371.16 645.03-1369.75zM638.16-1367.81l-3.47 7.82h15.63l-3.58-7.82 -2.21 1.58 1.6 3.52 -7.16-0.06 1.65-3.51"/>
    <path fill="#FFFFFF" d="M649.23-1354.73c-2.48 2.48-2.48 6.51 0 9 2.48 2.48 6.51 2.48 8.99 0 2.48-2.48 2.48-6.51 0-9C655.74-1357.21 651.71-1357.21 649.23-1354.73zM656.29-1347.67c-1.41 1.41-3.7 1.41-5.11 0 -1.41-1.41-1.41-3.7 0-5.12 1.41-1.41 3.7-1.41 5.12 0C657.7-1351.37 657.7-1349.08 656.29-1347.67zM649.42-1345.73l-3.47 7.82h15.63l-3.58-7.82 -2.21 1.58 1.6 3.52 -7.16-0.06 1.65-3.51"/>
    <path fill="#FFFFFF" d="M626.79-1354.73c-2.48 2.48-2.48 6.51 0 9 2.48 2.48 6.51 2.48 9 0 2.48-2.48 2.48-6.51 0-9C633.31-1357.21 629.28-1357.21 626.79-1354.73zM633.85-1347.67c-1.41 1.41-3.7 1.41-5.11 0 -1.41-1.41-1.41-3.7 0-5.12 1.41-1.41 3.7-1.41 5.11 0C635.26-1351.37 635.26-1349.08 633.85-1347.67zM626.99-1345.73l-3.47 7.82h15.63l-3.58-7.82 -2.21 1.58 1.6 3.52 -7.16-0.06 1.65-3.51"/>
  </g>
  <g id="org-chart">
    <circle fill="#78BD43" cx="579.89" cy="-1355.7" r="31.5"/>
    <path fill="#FFFFFF" d="M571.51-1372.59v12.48h16.47v-12.48H571.51zM585.25-1362.52h-11.01v-7.65h11.01V-1362.52z"/>
    <path fill="#FFFFFF" d="M557.26-1354.43v12.48h16.47v-12.48H557.26zM571-1344.37h-11.01v-7.65h11.01V-1344.37z"/>
    <path fill="#FFFFFF" d="M585.81-1354.43v12.48h16.47v-12.48H585.81zM599.55-1344.37h-11.01v-7.65h11.01L599.55-1344.37 599.55-1344.37z"/>
    <rect x="578.45" y="-1360.11" fill="#FFFFFF" width="2.6" height="13.22"/>
    <rect x="571.66" y="-1349.49" fill="#FFFFFF" width="16.17" height="2.6"/>
  </g>
  <g id="menu">
    <circle fill="#EB8B23" cx="516.89" cy="-1355.7" r="31.5"/>
    <rect x="507.43" y="-1372.22" fill="#FFFFFF" width="3.01" height="38.32"/>
    <polygon fill="#FFFFFF" points="514.63 -1360.47 503.34 -1360.47 503.34 -1372.22 506.35 -1372.22 506.35 -1363.48 511.62 -1363.48 511.62 -1372.22 514.63 -1372.22 "/>
    <path fill="#FFFFFF" d="M527.01-1333.84h-8.19v-37.56l8.19-2.97V-1333.84zM521.82-1336.85h2.18v-33.23l-2.18 0.79V-1336.85z"/>
    <rect x="520.32" y="-1354.15" fill="#FFFFFF" width="5.18" height="3.01"/>
  </g>
  <g id="mailing-list">
    <circle fill="#EB8B23" cx="453.89" cy="-1355.7" r="31.5"/>
    <path fill="#FFFFFF" d="M473.2-1344.21h-38.61v-23.36l19.3 15.58 19.31-15.58L473.2-1344.21 473.2-1344.21zM436.85-1346.47h34.09v-16.36l-17.05 13.75 -17.04-13.75V-1346.47z"/>
    <rect x="434.58" y="-1367.57" fill="#FFFFFF" width="38.61" height="2.65"/>
  </g>
  <g id="jobs">
    <circle fill="#DEB209" cx="390.89" cy="-1355.7" r="31.5"/>
    <path fill="#FFFFFF" d="M396.25-1338.85c-11.68 0-21.57-6.82-24.82-12.77l-0.87-1.6 2.97-0.95c-0.35-3.93-0.57-15.61 8.43-19.6 5.77-2.55 11.97-2.28 16.58 0.74 3.67 2.4 8.03 7.61 7.98 18.81 0 0.46-0.21 0.87-0.53 1.14l1.37 1.19c0.41 0.36 3.97 3.58 3.02 7.15 -0.69 2.61-3.42 4.35-8.32 5.33C400.08-1339.03 398.14-1338.85 396.25-1338.85zM375.09-1351.52c4.23 5.57 14.92 11.42 26.37 9.14 3.51-0.7 5.65-1.81 6-3.14 0.25-0.91-0.33-2.01-0.97-2.87 -5.9 6.51-19.78 2.44-20.41 2.25 -0.8-0.24-1.25-1.08-1.01-1.87 0.24-0.79 1.08-1.25 1.87-1.01 0.14 0.04 14.35 4.2 18.1-2.48l0.86-1.53c-0.25 0.19-0.56 0.3-0.91 0.3 -0.83 0-1.5-0.68-1.5-1.51 0.03-7.79-2.25-13.42-6.61-16.27 -3.75-2.45-8.88-2.64-13.71-0.5 -8.54 3.78-6.54 17.53-6.52 17.67l0.19 1.27L375.09-1351.52z"/>
    <path fill="#FFFFFF" d="M386.78-1360.39c-0.56 0-1.1-0.31-1.36-0.85 -2.27-4.7-6.22-8.64-6.26-8.68 -0.59-0.58-0.6-1.54-0.01-2.13 0.58-0.59 1.54-0.6 2.13-0.01 0.18 0.18 4.36 4.35 6.86 9.51 0.36 0.75 0.05 1.65-0.7 2.01C387.22-1360.44 387-1360.39 386.78-1360.39z"/>
    <path fill="#FFFFFF" d="M393.32-1360.39c-0.71 0-1.34-0.5-1.47-1.22 -0.93-4.81-6.65-10.33-6.71-10.39 -0.6-0.57-0.62-1.53-0.05-2.13 0.57-0.6 1.53-0.62 2.13-0.05 0.26 0.25 6.47 6.25 7.58 11.99 0.16 0.81-0.38 1.6-1.19 1.76C393.51-1360.4 393.42-1360.39 393.32-1360.39z"/>
    <path fill="#FFFFFF" d="M398.4-1362.2c-0.71 0-1.34-0.5-1.48-1.23 -0.84-4.52-5.02-8.52-5.06-8.56 -0.6-0.57-0.63-1.52-0.06-2.13 0.57-0.6 1.52-0.63 2.13-0.06 0.2 0.19 4.93 4.7 5.96 10.2 0.15 0.82-0.39 1.6-1.2 1.75C398.58-1362.21 398.49-1362.2 398.4-1362.2z"/>
  </g>
  <g id="giving">
    <circle fill="#78BD43" cx="327.89" cy="-1355.7" r="31.5"/>
    <path fill="#FFFFFF" d="M335.95-1364.61c0 0 8.84-4.81 2.55-9.16 -5.73-3.96-9.52 9.08-9.52 9.08h-0.66c0 0-3.54-13.88-9.63-9.08 -5.31 4.19 2.86 9.08 2.86 9.08h-15.25v9.89h3.72v16.19h35.58v-16.19h3.91v-9.8L335.95-1364.61 335.95-1364.61zM337.68-1371.34c3.69 2.71-6.24 6.01-6.24 6.01S333.99-1374.05 337.68-1371.34zM319.41-1371.01c2.71-4.19 6.36 5.67 6.36 5.67S317.44-1367.96 319.41-1371.01zM326.93-1340.72h-14.57v-14.09h14.57V-1340.72zM343.43-1340.72h-14.11v-14.09h14.11V-1340.72L343.43-1340.72zM347.45-1357.05h-38.83v-5.01h38.83V-1357.05z"/>
  </g>
  <g id="get-published">
    <circle fill="#642667" cx="264.89" cy="-1355.7" r="31.5"/>
    <path fill="#FFFFFF" d="M264.87-1336.56l-17.33-7.02v-29.35l17.22 6.78 17.44-6.77v29.34L264.87-1336.56zM250.55-1345.6l14.32 5.8 14.32-5.8v-22.92l-14.44 5.6 -14.2-5.59L250.55-1345.6 250.55-1345.6z"/>
    <polygon fill="#FFFFFF" points="260.32 -1358.31 260.32 -1361.61 253.35 -1364.28 253.33 -1361.06 "/>
    <polygon fill="#FFFFFF" points="260.32 -1351.67 260.32 -1354.96 253.35 -1357.64 253.33 -1354.41 "/>
    <polygon fill="#FFFFFF" points="260.32 -1345.02 260.32 -1348.32 253.35 -1350.99 253.33 -1347.77 "/>
    <polygon fill="#FFFFFF" points="269.03 -1358.31 269.03 -1361.61 276 -1364.28 276.02 -1361.06 "/>
    <polygon fill="#FFFFFF" points="269.03 -1351.67 269.03 -1354.96 276 -1357.64 276.02 -1354.41 "/>
    <polygon fill="#FFFFFF" points="269.03 -1345.02 269.03 -1348.32 276 -1350.99 276.02 -1347.77 "/>
    <rect x="263.26" y="-1364.53" fill="#FFFFFF" width="3.01" height="26.36"/>
  </g>
  <g id="deadlines">
    <circle fill="#C4197F" cx="201.89" cy="-1355.7" r="31.5"/>
    <path fill="#FFFFFF" d="M217.14-1339.09H186.63v-31.66h30.51V-1339.09L217.14-1339.09zM189.37-1341.95h25.03v-25.95h-25.03V-1341.95z"/>
    <rect x="187.67" y="-1361.9" fill="#FFFFFF" width="28.31" height="2.86"/>
    <g enable-background="new    ">
      <path fill="#FFFFFF" d="M200.16-1353.51l-1.79 0.42 -0.56-2.27 3.1-0.88h2.13v10.67h-2.89V-1353.51z"/>
    </g>
  </g>
  <g id="contact">
    <circle fill="#EB8B23" cx="138.88" cy="-1355.7" r="31.5"/>
    <path fill="none" stroke="#FFFFFF" stroke-width="3" stroke-miterlimit="10" d="M128.63-1373.49c0 0-3.53 1.52-5.99 5.72 0 0-0.08 8.68 10.52 18.42 10.59 9.73 17.69 9.73 17.69 9.73s3.97-2.73 5.41-6.25l-8.13-6.08 -5.13 2.51 -10.64-10.5 2.35-5.04L128.63-1373.49z"/>
  </g>
  <g id="clubs-orgs">
    <circle fill="#642667" cx="75.88" cy="-1355.7" r="31.5"/>
    <path fill="#FFFFFF" d="M70.96-1376.8c-2.48 2.48-2.48 6.51 0 8.99 2.48 2.48 6.51 2.48 8.99 0s2.48-6.51 0-8.99C77.47-1379.28 73.45-1379.28 70.96-1376.8zM78.02-1369.75c-1.41 1.41-3.7 1.41-5.11 0 -1.41-1.41-1.41-3.7 0-5.11 1.41-1.41 3.7-1.41 5.11 0C79.43-1373.45 79.43-1371.16 78.02-1369.75zM71.15-1367.81l-3.47 7.82h15.63l-3.58-7.82 -2.21 1.58 1.6 3.52 -7.16-0.06 1.65-3.51"/>
    <path fill="#FFFFFF" d="M82.22-1354.73c-2.48 2.48-2.48 6.51 0 9 2.49 2.48 6.51 2.48 9 0 2.48-2.48 2.48-6.51 0-9C88.73-1357.21 84.7-1357.21 82.22-1354.73zM89.27-1347.67c-1.41 1.41-3.7 1.41-5.11 0 -1.41-1.41-1.41-3.7 0-5.12 1.41-1.41 3.7-1.41 5.12 0C90.69-1351.37 90.69-1349.08 89.27-1347.67zM82.41-1345.73l-3.47 7.82H94.57l-3.57-7.82 -2.21 1.58 1.6 3.52 -7.16-0.06 1.65-3.51"/>
    <path fill="#FFFFFF" d="M59.78-1354.73c-2.48 2.48-2.48 6.51 0 9 2.48 2.49 6.51 2.48 9 0 2.48-2.48 2.48-6.51 0-9C66.3-1357.21 62.27-1357.21 59.78-1354.73zM66.84-1347.67c-1.41 1.41-3.7 1.41-5.11 0 -1.41-1.41-1.41-3.7 0-5.12 1.41-1.41 3.7-1.41 5.12 0C68.25-1351.37 68.25-1349.08 66.84-1347.67zM59.97-1345.73l-3.47 7.82h15.63l-3.58-7.82 -2.21 1.58 1.6 3.52 -7.16-0.06 1.65-3.51"/>
  </g>
  <g id="alumni">
    <circle fill="#DEB209" cx="12.9" cy="-1355.7" r="31.5"/>
    <path fill="#FFFFFF" d="M-0.34-1340.27v-30.85H26.5v30.82l-13.6-7.34L-0.34-1340.27zM12.9-1350.72l10.67 5.76v-23.31H2.59v23.29L12.9-1350.72z"/>
  </g>
</svg>
