<?xml version="1.0" encoding="utf-8"?>
<!-- Generator: Adobe Illustrator 16.0.0, SVG Export Plug-In . SVG Version: 6.00 Build 0)  -->
<!DOCTYPE svg PUBLIC "-//W3C//DTD SVG 1.1//EN" "http://www.w3.org/Graphics/SVG/1.1/DTD/svg11.dtd">
<svg version="1.1" id="Layer_1" xmlns="http://www.w3.org/2000/svg" xmlns:xlink="http://www.w3.org/1999/xlink" x="0px" y="0px"
	 width="594px" height="71px" viewBox="0 0 594 71" enable-background="new 0 0 594 71" xml:space="preserve">
<g>
	<polygon fill="#172A53" points="67.85,56.801 49.731,47.023 32.15,56.801 32.15,16.408 67.85,16.408 	"/>
</g>
<g>
	<path fill="#018DA9" d="M177.537,31.803l2.386,21.745l-5.287,6.496l-0.473-25.742l-0.641-0.303l-5.095,2.854l1.502,9.501
		l-20.034,12.753l-20.587-12.753c0.258-2.858,0.858-6.388,1.497-9.618l-13.598-7.926l32.13-17.647l33.454,17.647l-5.313,2.974
		L177.537,31.803z"/>
</g>
<g>
	<g>
		<path fill="#78BD43" d="M260.979,24.382c-2.399-1.62-4.979-2.88-7.439-3.54v9.12c9.119,2.459,13.02,6.12,13.02,12.839v0.12
			c0,6.72-5.16,11.039-12.72,11.819v5.939h-6.24v-6.06c-5.159-0.66-10.199-2.7-14.159-5.699l4.68-6.84
			c3.24,2.46,6.24,4.14,9.78,4.859v-9.539c-8.64-2.34-12.899-5.58-12.899-12.72v-0.12c0-6.6,5.039-10.979,12.599-11.76V9.322h6.24
			v3.66c4.26,0.54,7.859,2.1,11.159,4.38L260.979,24.382z M247.9,28.461v-8.16c-2.94,0.36-4.141,1.8-4.141,3.72v0.12
			C243.76,26.062,244.601,27.262,247.9,28.461z M253.54,38.841v8.399c2.819-0.42,4.26-1.68,4.26-3.84v-0.119
			C257.8,41.301,256.779,40.041,253.54,38.841z"/>
	</g>
</g>
<g>
	<ellipse fill="#EB8B23" cx="462.659" cy="18.435" rx="4.41" ry="4.367"/>
	<ellipse fill="#EB8B23" cx="442.608" cy="9.333" rx="4.785" ry="4.736"/>
	<path fill="#EB8B23" d="M471.44,41.633l-6.221-4.021l-1.051-0.669l3.445,13.014l-1.912,0.384l3.611,15.693l-2.369,0.097
		l-5.166-14.737l-3.158-0.191l-6.412,14.067l-2.49-1.141l4.689-13.788l-1.627-0.384l2.777-8.709l-3.734-7.273l-5.582-2.391
		l-1.883-1.916l-2.584,9.079l3.639,12.358v15.503h-3.922l-0.77-14.164l-2.486-4.307l-2.029,5.934l-8.115,12.537l-2.775-2.01
		l6.029-12.059l-0.096-12.154l1.244-2.967l-4.881-9.666l6.697-11.579l4.5-2.107c1.338,1.148,3.445,1.15,3.445,1.15
		c0.668,1.627,2.775,3.159,2.775,3.159l2.389,10.144l5.457,2.583l2.105-5.55l4.783-2.488c1.533,1.052,3.445,0.86,3.445,0.86
		l2.682,3.254l2.01,8.517l4.783,4.642L471.44,41.633z"/>
</g>
<polygon fill="#C4197F" points="549.487,54.92 539.006,54.92 528.32,37.864 537.774,34.987 544.351,44.439 563.017,16.286 
	571.681,21.424 "/>
<g>
	<path fill="#DEB209" d="M361.549,17.329v-5.626h-2.34v5.626h-8.038v-5.626h-2.342v5.626h-8.037v-5.626h-2.341v5.626H327.28v41.279
		h45.44V17.329H361.549z M368.589,54.85h-37.178V27.595h37.178V54.85z"/>
	<path fill="#DEB209" d="M343.395,44.833c-1.394,0-2.509-0.622-3.581-1.716l-2.637,2.616c1.479,1.607,3.495,2.658,6.389,2.658
		c3.345,0,5.789-1.951,5.789-4.995v-0.043c0-2.573-1.737-3.752-3.881-4.224l3.58-3.087v-2.959h-10.826v3.366h5.724l-3.43,3.108
		l0.579,2.165h1.758c1.586,0,2.443,0.579,2.443,1.544v0.043C345.302,44.232,344.573,44.833,343.395,44.833z"/>
	<polygon fill="#DEB209" points="354.888,36.836 354.888,48.091 358.982,48.091 358.982,32.977 355.96,32.977 351.565,34.221 
		352.358,37.437 	"/>
</g>
</svg>
