<?xml version="1.0" encoding="UTF-8" standalone="no"?>
<svg width="680px" height="370px" viewBox="0 0 680 370" version="1.1" xmlns="http://www.w3.org/2000/svg" xmlns:xlink="http://www.w3.org/1999/xlink">
    <!-- Generator: Sketch 3.7.2 (28276) - http://www.bohemiancoding.com/sketch -->
    <title>Title Card large</title>
    <desc>Created with Sketch.</desc>
    <defs>
        <path d="M655.004951,25 C656.659071,25 658,26.343877 658,28.0085414 L658,330.991459 C658,332.65303 656.648556,334 655.004951,334 L24.9950553,334 C23.3409354,334 22.0000063,332.656123 22.0000063,330.991459 L22.0000063,28.0085414 C22.0000063,26.3469699 23.3514499,25 24.9950553,25 L655.004951,25 L655.004951,25 Z M341.000006,70 L341.000006,70 C321.851131,70 306.000006,56.7907295 306.000006,40 C306.000006,23.2092705 321.851131,10 341.000006,10 C360.148882,10 376.000006,23.2092705 376.000006,40 C376.000006,56.7907295 360.148882,70 341.000006,70 L341.000006,70 L341.000006,70 Z M303.000006,18 L303.000006,18 L379.000006,18 L384.000006,18 L384.000006,23 L384.000006,339 L384.000006,344 L379.000006,344 L303.000006,344 L298.000006,344 L298.000006,339 L298.000006,23 L298.000006,18 L303.000006,18 L303.000006,18 Z M341.000006,358 L341.000006,358 C318.418211,358 300.000006,340.605028 300.000006,319 C300.000006,297.394972 318.418211,280 341.000006,280 C363.581801,280 382.000006,297.394972 382.000006,319 C382.000006,340.605028 363.581801,358 341.000006,358 L341.000006,358 L341.000006,358 Z" id="path-1"></path>
        <filter x="-50%" y="-50%" width="200%" height="200%" filterUnits="objectBoundingBox" id="filter-2">
            <feOffset dx="0" dy="2" in="SourceAlpha" result="shadowOffsetOuter1"></feOffset>
            <feGaussianBlur stdDeviation="2.5" in="shadowOffsetOuter1" result="shadowBlurOuter1"></feGaussianBlur>
            <feColorMatrix values="0 0 0 0 0   0 0 0 0 0   0 0 0 0 0  0 0 0 0.2 0" type="matrix" in="shadowBlurOuter1"></feColorMatrix>
        </filter>
        <path d="M370.115965,339 L379.000006,339 L379.000006,329 L625.200677,329 C625.200677,313.870773 637.555086,301.544102 652.999994,301.017525 L653,58.0000005 C637.078217,57.9999869 624.171072,45.4639649 624.171072,30 L379.000006,30 L379.000006,23 L362.99655,23 C357.517727,18.0792953 349.690391,15 341.000006,15 C332.309621,15 324.482285,18.0792953 319.00347,22.9999937 L303.000006,23 L303.000006,30 L55.8289721,30 C55.8289721,45.463973 42.9218128,58 27.000025,58 L27.0000063,301.017525 C27.3417306,301.005874 27.6849741,301 28.0296303,301 C43.9514181,301 56.8585774,313.536027 56.8585774,329 L303.000006,329 L303.000006,339 L311.884048,339 C318.429829,347.485338 329.033025,353 341.000006,353 C352.966987,353 363.570184,347.485338 370.115965,339 Z" id="path-3"></path>
        <mask id="mask-4" maskContentUnits="userSpaceOnUse" maskUnits="objectBoundingBox" x="0" y="0" width="626" height="338" fill="white">
            <use xlink:href="#path-3"></use>
        </mask>
        <path d="M326.645752,304 L332.000006,304 L332.000006,294 L578.200677,294 C578.200677,281.865177 593.278774,266.818412 606.000006,266.032161 L606.000006,43.0000004 C593.078219,42.9999888 577.171072,27.4639685 577.171072,15 L332.000006,15 L332.000006,8 L322.330453,8 C317.764767,3.07929526 311.241988,0 304,0 C296.758012,0 290.235233,3.07929526 285.669553,7.99999369 L276.000006,8 L276.000006,15 L28.8289721,15 C28.8289721,27.463973 12.9218128,43 2.50182425e-05,43 L6.2547374e-06,266.026051 C0.345064285,266.008743 0.688388272,266 1.02963027,266 C13.9514181,266 29.8585774,281.536027 29.8585774,294 L276.000006,294 L276.000006,304 L281.354261,304 C286.445424,312.485338 294.692354,318 304.000006,318 C313.307658,318 321.554589,312.485338 326.645752,304 Z" id="path-5"></path>
        <radialGradient cx="49.4136065%" cy="52.4304773%" fx="49.4136065%" fy="52.4304773%" r="24.2718998%" id="radialGradient-7">
            <stop stop-color="#DFCEB7" offset="0%"></stop>
            <stop stop-color="#FFF1DF" offset="100%"></stop>
        </radialGradient>
        <path d="M363.645752,329 L369.000006,329 L369.000006,319 L615.200677,319 C615.200677,306.865177 630.278774,291.818412 643.000006,291.032161 L643.000006,68.0000004 C630.078219,67.9999888 614.171072,52.4639685 614.171072,40 L369.000006,40 L369.000006,33 L359.330453,33 C354.764767,28.0792953 348.241988,25 341,25 C333.758012,25 327.235233,28.0792953 322.669553,32.9999937 L313.000006,33 L313.000006,40 L65.8289721,40 C65.8289721,52.463973 49.9218128,68 37.000025,68 L37.0000063,291.026051 C37.3450643,291.008743 37.6883883,291 38.0296303,291 C50.9514181,291 66.8585774,306.536027 66.8585774,319 L313.000006,319 L313.000006,329 L318.354261,329 C323.445424,337.485338 331.692354,343 341.000006,343 C350.307658,343 358.554589,337.485338 363.645752,329 Z" id="path-8"></path>
        <mask id="mask-9" maskContentUnits="userSpaceOnUse" maskUnits="objectBoundingBox" x="0" y="0" width="606" height="318" fill="white">
            <use xlink:href="#path-8"></use>
        </mask>
        <circle id="path-10" cx="341" cy="41" r="8"></circle>
        <mask id="mask-11" maskContentUnits="userSpaceOnUse" maskUnits="objectBoundingBox" x="0" y="0" width="16" height="16" fill="white">
            <use xlink:href="#path-10"></use>
        </mask>
        <path d="M341,333 C349.284271,333 356,326.284271 356,318 C356,309.715729 349.284271,303 341,303 C332.715729,303 326,309.715729 326,318 C326,326.284271 332.715729,333 341,333 Z" id="path-12"></path>
        <mask id="mask-13" maskContentUnits="userSpaceOnUse" maskUnits="objectBoundingBox" x="0" y="0" width="30" height="30" fill="white">
            <use xlink:href="#path-12"></use>
        </mask>
        <circle id="path-14" cx="341" cy="318" r="8"></circle>
        <mask id="mask-15" maskContentUnits="userSpaceOnUse" maskUnits="objectBoundingBox" x="0" y="0" width="16" height="16" fill="white">
            <use xlink:href="#path-14"></use>
        </mask>
        <circle id="path-16" cx="36" cy="39" r="9"></circle>
        <mask id="mask-17" maskContentUnits="userSpaceOnUse" maskUnits="objectBoundingBox" x="0" y="0" width="18" height="18" fill="white">
            <use xlink:href="#path-16"></use>
        </mask>
        <circle id="path-18" cx="644" cy="39" r="9"></circle>
        <mask id="mask-19" maskContentUnits="userSpaceOnUse" maskUnits="objectBoundingBox" x="0" y="0" width="18" height="18" fill="white">
            <use xlink:href="#path-18"></use>
        </mask>
        <circle id="path-20" cx="36" cy="320" r="9"></circle>
        <mask id="mask-21" maskContentUnits="userSpaceOnUse" maskUnits="objectBoundingBox" x="0" y="0" width="18" height="18" fill="white">
            <use xlink:href="#path-20"></use>
        </mask>
        <circle id="path-22" cx="644" cy="320" r="9"></circle>
        <mask id="mask-23" maskContentUnits="userSpaceOnUse" maskUnits="objectBoundingBox" x="0" y="0" width="18" height="18" fill="white">
            <use xlink:href="#path-22"></use>
        </mask>
    </defs>
    <g id="UI-Elements" stroke="none" stroke-width="1" fill="none" fill-rule="evenodd">
        <g id="home" transform="translate(-46.000000, -71.000000)">
            <g id="Title-Card-large" transform="translate(46.000000, 71.000000)">
                <g id="Group-4">
                    <rect id="Rectangle-75" fill="#CBBAA5" x="0" y="0" width="680" height="370" rx="4"></rect>
                    <g id="Combined-Shape">
                        <use fill="black" fill-opacity="1" filter="url(#filter-2)" xlink:href="#path-1"></use>
                        <use fill="#F1E3D1" fill-rule="evenodd" xlink:href="#path-1"></use>
                    </g>
                    <use id="Combined-Shape" stroke="#780922" mask="url(#mask-4)" stroke-width="10" xlink:href="#path-3"></use>
                    <g id="Star-1" transform="translate(37.000000, 25.000000)">
                        <mask id="mask-6" fill="white">
                            <use xlink:href="#path-5"></use>
                        </mask>
                        <use id="Mask" fill="#E1CFB9" xlink:href="#path-5"></use>
                        <polygon fill="url(#radialGradient-7)" mask="url(#mask-6)" points="302.449643 192.511002 294.383367 350 299.72593 192.476845 278.268028 349.595597 297.008029 192.374448 262.204293 348.787655 294.301741 192.20403 246.226445 347.577898 291.612841 191.965954 230.368579 345.968907 288.947067 191.660727 214.664539 343.964116 286.310109 191.289002 199.147836 341.567803 283.707593 190.851572 183.851584 338.785082 281.145073 190.34937 168.808426 335.621893 278.628019 189.783468 154.050466 332.084984 276.161801 189.155074 139.609197 328.181904 273.751683 188.465528 125.515438 323.920982 271.402807 187.716302 111.799265 319.311312 269.120187 186.908996 98.4899494 314.362731 266.908694 186.045331 85.6158943 309.085798 264.773047 185.127151 73.2045734 303.491777 262.717804 184.156416 61.282473 297.592603 260.74735 183.135196 49.8750355 291.400867 258.865892 182.065672 39.0066049 284.929782 257.077443 180.950126 28.7003751 278.193157 255.385821 179.790938 18.97834 271.20537 253.794635 178.590583 9.86124695 263.981331 252.307282 177.351621 1.36855228 256.536458 250.926935 176.076697 -6.48162017 248.886639 249.656539 174.768531 -13.6725177 241.048198 248.498808 173.429916 -20.1887947 233.037863 247.456209 172.063708 -26.0165449 224.872729 246.53097 170.672822 -31.1433318 216.570219 245.725064 169.260226 -35.5582144 208.148054 245.040211 167.828936 -39.2517713 199.624205 244.477873 166.382006 -42.2161201 191.016863 244.039249 164.922523 -44.4449348 182.344396 243.725276 163.453603 -45.933459 173.625312 243.536624 161.978379 -46.6785161 164.878219 243.473695 160.5 -46.6785161 156.121781 243.536624 159.021621 -45.933459 147.374688 243.725276 157.546397 -44.4449348 138.655604 244.039249 156.077477 -42.2161201 129.983137 244.477873 154.617994 -39.2517713 121.375795 245.040211 153.171064 -35.5582144 112.851946 245.725064 151.739774 -31.1433318 104.429781 246.53097 150.327178 -26.0165449 96.1272715 247.456209 148.936292 -20.1887947 87.9621371 248.498808 147.570084 -13.6725177 79.9518021 249.656539 146.231469 -6.48162017 72.1133611 250.926935 144.923303 1.36855228 64.4635416 252.307282 143.648379 9.86124695 57.0186687 253.794635 142.409417 18.97834 49.7946302 255.385821 141.209062 28.7003751 42.8068426 257.077443 140.049874 39.0066049 36.0702181 258.865892 138.934328 49.8750355 29.599133 260.74735 137.864804 61.282473 23.4073969 262.717804 136.843584 73.2045734 17.5082234 264.773047 135.872849 85.6158943 11.9142016 266.908694 134.954669 98.4899494 6.63726929 269.120187 134.091004 111.799265 1.68868784 271.402807 133.283698 125.515438 -2.92098228 273.751683 132.534472 139.609197 -7.18190378 276.161801 131.844926 154.050466 -11.0849836 278.628019 131.216532 168.808426 -14.6218925 281.145073 130.65063 183.851584 -17.7850824 283.707593 130.148428 199.147836 -20.567803 286.310109 129.710998 214.664539 -22.9641158 288.947067 129.339273 230.368579 -24.9689068 291.612841 129.034046 246.226445 -26.5778979 294.301741 128.79597 262.204293 -27.7876554 297.008029 128.625552 278.268028 -28.5955975 299.72593 128.523155 294.383367 -29 302.449643 128.488998 310.515919 -29 305.173356 128.523155 326.631258 -28.5955975 307.891257 128.625552 342.694993 -27.7876554 310.597545 128.79597 358.672841 -26.5778979 313.286445 129.034046 374.530707 -24.9689068 315.952219 129.339273 390.234747 -22.9641158 318.589177 129.710998 405.75145 -20.567803 321.191693 130.148428 421.047702 -17.7850824 323.754213 130.65063 436.09086 -14.6218925 326.271267 131.216532 450.84882 -11.0849836 328.737485 131.844926 465.290089 -7.18190378 331.147603 132.534472 479.383849 -2.92098228 333.496479 133.283698 493.100021 1.68868784 335.779099 134.091004 506.409337 6.63726929 337.990592 134.954669 519.283392 11.9142016 340.126239 135.872849 531.694713 17.5082234 342.181482 136.843584 543.616813 23.4073969 344.151936 137.864804 555.024251 29.599133 346.033394 138.934328 565.892681 36.0702181 347.821843 140.049874 576.198911 42.8068426 349.513465 141.209062 585.920946 49.7946302 351.104651 142.409417 595.038039 57.0186687 352.592004 143.648379 603.530734 64.4635416 353.972352 144.923303 611.380906 72.1133611 355.242747 146.231469 618.571804 79.9518021 356.400478 147.570084 625.088081 87.9621371 357.443077 148.936292 630.915831 96.1272715 358.368316 150.327178 636.042618 104.429781 359.174222 151.739774 640.457501 112.851946 359.859075 153.171064 644.151057 121.375795 360.421413 154.617994 647.115406 129.983137 360.860037 156.077477 649.344221 138.655604 361.17401 157.546397 650.832745 147.374688 361.362662 159.021621 651.577802 156.121781 361.425591 160.5 651.577802 164.878219 361.362662 161.978379 650.832745 173.625312 361.17401 163.453603 649.344221 182.344396 360.860037 164.922523 647.115406 191.016863 360.421413 166.382006 644.151057 199.624205 359.859075 167.828936 640.457501 208.148054 359.174222 169.260226 636.042618 216.570219 358.368316 170.672822 630.915831 224.872729 357.443077 172.063708 625.088081 233.037863 356.400478 173.429916 618.571804 241.048198 355.242747 174.768531 611.380906 248.886639 353.972352 176.076697 603.530734 256.536458 352.592004 177.351621 595.038039 263.981331 351.104651 178.590583 585.920946 271.20537 349.513465 179.790938 576.198911 278.193157 347.821843 180.950126 565.892681 284.929782 346.033394 182.065672 555.024251 291.400867 344.151936 183.135196 543.616813 297.592603 342.181482 184.156416 531.694713 303.491777 340.126239 185.127151 519.283392 309.085798 337.990592 186.045331 506.409337 314.362731 335.779099 186.908996 493.100021 319.311312 333.496479 187.716302 479.383849 323.920982 331.147603 188.465528 465.290089 328.181904 328.737485 189.155074 450.84882 332.084984 326.271267 189.783468 436.09086 335.621893 323.754213 190.34937 421.047702 338.785082 321.191693 190.851572 405.75145 341.567803 318.589177 191.289002 390.234747 343.964116 315.952219 191.660727 374.530707 345.968907 313.286445 191.965954 358.672841 347.577898 310.597545 192.20403 342.694993 348.787655 307.891257 192.374448 326.631258 349.595597 305.173356 192.476845 310.515919 350"></polygon>
                    </g>
                    <use id="Combined-Shape" stroke="#780922" mask="url(#mask-9)" stroke-width="4" xlink:href="#path-8"></use>
                    <use id="Oval-24" stroke="#780922" mask="url(#mask-11)" stroke-width="4" fill="#F2E3CF" xlink:href="#path-10"></use>
                    <use id="Oval-24-Copy-4" stroke="#780922" mask="url(#mask-13)" stroke-width="4" fill="#F2E3CF" xlink:href="#path-12"></use>
                    <use id="Oval-24-Copy-4" stroke="#780922" mask="url(#mask-15)" stroke-width="4" fill="#F2E3CF" xlink:href="#path-14"></use>
                    <use id="Oval-24-Copy-2" stroke="#780922" mask="url(#mask-17)" stroke-width="4" xlink:href="#path-16"></use>
                    <use id="Oval-24-Copy-3" stroke="#780922" mask="url(#mask-19)" stroke-width="4" xlink:href="#path-18"></use>
                    <use id="Oval-24-Copy-2" stroke="#780922" mask="url(#mask-21)" stroke-width="4" xlink:href="#path-20"></use>
                    <use id="Oval-24-Copy-3" stroke="#780922" mask="url(#mask-23)" stroke-width="4" xlink:href="#path-22"></use>
                    <g id="Type" transform="translate(43.000000, 61.000000)" fill="#780922">
                        <text id="A-CROWDSOURCING-PROJ" font-family="AlverataPE-Bold, Alverata PE" font-size="26.2419597" font-weight="bold" line-spacing="17.4946398">
                            <tspan x="99" y="233">A CROWDSOURCING PROJECT</tspan>
                        </text>
                        <text id="-AT-THE-UC-DAVIS-LIB" font-family="AlverataPE-Bold, Alverata PE" font-size="17.495" font-weight="bold" line-spacing="17.45">
                            <tspan x="184" y="39"> AT THE UC DAVIS LIBRARY</tspan>
                        </text>
                        <text id="presents" font-family="AlverataPE-BoldItalic, Alverata PE" font-size="17.495" font-style="italic" font-weight="bold" line-spacing="17.45">
                            <tspan x="262" y="61">presents</tspan>
                        </text>
                        <text id="THE-MAYNARD-AMERINE-" font-family="AlverataPE-Bold, Alverata PE" font-size="17.4946398" font-weight="bold" line-spacing="17.4946398">
                            <tspan x="130.137528" y="14.4751608">THE MAYNARD AMERINE COLLECTION</tspan>
                        </text>
                        <g id="Previous" transform="translate(42.000000, 205.000000)">
                            <path d="M9.49235165,17.1290339 C7.3473633,15.8673932 6,13.5529821 6,10.9997875 C6,8.44126653 7.35303294,6.12272778 9.50515542,4.86302839 L8.49484458,3.13697161 C5.73468442,4.752573 4,7.7251045 4,10.9997875 C4,14.2676338 5.72742008,17.2348812 8.47838134,18.8529435 L9.49235165,17.1290339 L9.49235165,17.1290339 Z" id="Oval-7"></path>
                            <path d="M7.45729925,20.1280541 C4.101127,18.2435457 2,14.7980541 2,11.006137 C2,7.20628717 4.10999386,3.75460919 7.47740352,1.87295863 L6.501815,0.127041374 C2.51356125,2.35560894 0,6.46747113 0,11.006137 C0,15.5353487 2.50306075,19.6399433 6.47809479,21.8719459 L7.45729925,20.1280541 L7.45729925,20.1280541 Z" id="Oval-7-Copy"></path>
                            <polygon id="Line" points="55.2866211 12 6.37273462 12 5.37273462 12 5.37273462 14 6.37273462 14 55.2866211 14 56.2866211 14 56.2866211 12"></polygon>
                            <polygon id="Line-Copy" points="55.2866211 8 6.37273462 8 5.37273462 8 5.37273462 10 6.37273462 10 55.2866211 10 56.2866211 10 56.2866211 8"></polygon>
                        </g>
                        <g id="Next" transform="translate(524.500000, 216.000000) scale(-1, 1) translate(-524.500000, -216.000000) translate(496.000000, 205.000000)">
                            <path d="M9.49235165,17.1290339 C7.3473633,15.8673932 6,13.5529821 6,10.9997875 C6,8.44126653 7.35303294,6.12272778 9.50515542,4.86302839 L8.49484458,3.13697161 C5.73468442,4.752573 4,7.7251045 4,10.9997875 C4,14.2676338 5.72742008,17.2348812 8.47838134,18.8529435 L9.49235165,17.1290339 L9.49235165,17.1290339 Z" id="Oval-7"></path>
                            <path d="M7.45729925,20.1280541 C4.101127,18.2435457 2,14.7980541 2,11.006137 C2,7.20628717 4.10999386,3.75460919 7.47740352,1.87295863 L6.501815,0.127041374 C2.51356125,2.35560894 0,6.46747113 0,11.006137 C0,15.5353487 2.50306075,19.6399433 6.47809479,21.8719459 L7.45729925,20.1280541 L7.45729925,20.1280541 Z" id="Oval-7-Copy"></path>
                            <polygon id="Line" points="55.2866211 12 6.37273462 12 5.37273462 12 5.37273462 14 6.37273462 14 55.2866211 14 56.2866211 14 56.2866211 12"></polygon>
                            <polygon id="Line-Copy" points="55.2866211 8 6.37273462 8 5.37273462 8 5.37273462 10 6.37273462 10 55.2866211 10 56.2866211 10 56.2866211 8"></polygon>
                        </g>
                    </g>
                    <g id="Group" transform="translate(57.000000, 135.000000)">
                        <g id="S" transform="translate(500.913043, 0.000000)">
                            <path d="M0.875861781,101.384659 C0.875861781,100.979903 0.919681696,100.580984 1.00537397,100.193741 L0.389947615,99.5788216 L2.38326685,97.5832541 C2.67539962,97.2154703 5.70481639,93.1795784 5.70481639,83.6084432 C5.70384262,83.5889838 5.54414337,77.0262811 2.12326869,73.4720108 C2.08431765,73.4360108 2.00057293,73.3435784 1.91585443,73.2433622 C1.00245265,72.206173 0.5116696,70.9160108 0.5116696,69.5849838 C0.5116696,68.678173 0.738559381,67.7898486 1.16604699,66.9949297 L1.16604699,66.4831459 L2.12813757,65.6969838 C2.38910951,65.4352541 2.67637339,65.2007676 2.98603412,64.9964432 L8.30869311,60.6423892 C8.62322272,60.3154703 8.97670336,60.0303892 9.36426616,59.7890919 L9.57168043,59.6655243 C9.87257718,59.496227 11.1992755,58.0754716 14.2536233,59.0943395 C17.3079711,61.1320753 19.9480267,69.7377191 19.344203,68.2641547 C19.3297515,68.2288874 21.3804349,75.3962302 23.4166668,81.5094377 C25.4528986,87.6226453 28.9409515,90.679249 31.5615943,90.679249 C36.6521721,90.679249 39.5289213,86.8255625 39.5289213,83.6084431 C39.5289213,75.3962302 31.5615943,68.2641547 25.4528986,64.1886791 C18.3895378,59.4762894 16.4406772,57.2298879 16.2898552,57.0566036 C8.30869308,47.8867923 8.67832048,46.5862002 5.02804215,40.2770919 C3.90040968,36.8317946 3.33269834,33.2960108 3.33269834,29.6872541 C3.33269834,10.3075784 13.1220673,4.25568649 20.2686085,2.42163243 C21.735115,2.05676757 22.9338331,1.87384865 23.9679831,1.77168649 L24.4353955,1.69092973 C24.5366682,1.67536216 26.9487111,1.29687568 30.4007466,1.29687568 C32.3911445,1.29687568 34.3416176,1.42238919 36.1976344,1.66952432 C38.3779186,1.95947027 40.7062168,2.71352432 42.7608839,3.38001081 C44.0238712,3.78768649 45.7532972,4.34909189 46.292769,4.35979459 C48.200396,4.35979459 50.3874966,2.80206486 51.068166,2.20271351 L53.5659011,-9.72972971e-05 L55.434577,2.75341622 C55.6225158,3.03265946 57.2555379,5.58671351 56.5943441,9.06217297 L56.3684281,10.2443351 L55.3761505,10.9244432 C53.8726405,11.9538486 52.8005133,17.5075784 53.0965411,20.9013081 C53.6058259,28.5702811 54.8103867,31.3228216 55.0713586,31.8404432 L54.9155545,31.6692 C54.9486629,31.706173 55.0733062,31.8423892 55.0733062,31.8423892 C55.7987692,32.7939568 56.6985381,34.5540649 56.6985381,36.0076865 C56.6985381,37.3387135 56.2077551,38.6288757 55.3157764,39.6427135 L55.1327065,39.8509297 L51.5209717,42.6511459 C50.9746835,43.1230378 49.9882485,43.6795784 48.3678854,43.6795784 C45.641313,43.6795784 43.4775829,41.4660649 42.3596882,39.3946054 C41.1083862,37.0730919 40.348841,34.8547135 39.5435284,32.5059568 C38.5385917,29.5714703 37.3983001,26.2468216 34.9843097,21.9852 C33.5996004,19.3426054 31.3024631,16.8372 30.2965526,16.8372 C29.9907869,16.8245514 29.8505632,16.8206595 29.7103395,16.8206595 C27.9633856,16.8206595 27.1522302,17.448227 26.6935818,17.9201189 C25.3166627,19.3396865 24.6272294,22.3199027 24.7518727,26.3139568 C25.072245,36.6313622 30.5137046,39.5784973 39.5289217,44.4589297 L39.9671209,44.6963351 C60.4417326,56.112227 60.6764126,72.7140649 60.6764126,73.4155784 C60.6764126,106.366281 40.6409738,106.366281 31.0122778,106.366281 C25.9700663,106.366281 22.9542824,105.144227 20.5295805,104.16347 C18.7349115,103.436659 17.4388158,102.910281 15.5789039,102.910281 C14.2526211,102.910281 13.6673818,103.402605 12.6040185,104.296768 C11.2972113,105.394281 9.50741122,106.898497 6.39424972,106.898497 C3.35120008,106.898497 0.875861781,104.4252 0.875861781,101.384659 Z" id="Fill-28" fill="#F1E3D1"></path>
                            <path d="M39.5910486,5.8032 C37.5840965,5.13476757 35.3483071,4.92655135 33.2391085,4.92947027 C31.2574746,4.93238919 29.2495487,4.79811892 27.2562295,4.91292973 C23.3241225,5.13865946 19.3501431,6.16709189 16.1532369,8.46622703 C10.6923017,12.3941189 8.30070814,19.4131459 7.78655448,26.1169297 C7.20228895,33.7265514 8.74961883,41.7107676 13.3078637,47.8346595 C14.1462848,48.9613622 15.0937687,50.0423351 15.5991584,51.3529297 C16.1532373,52.9811333 17.6333762,54.7320649 18.5604109,55.3576865 C22.8411296,58.2454703 27.3319899,61.7584853 31.8736806,64.216215 C32.5231891,64.5674582 33.2916924,63.8809297 34.0220244,63.7729297 C34.618949,63.6834162 35.1233649,63.2922811 35.5693542,62.8855784 C38.5831906,60.1427676 40.3077477,56.0416865 40.1607075,51.9707676 C40.1266254,51.0386595 39.9825065,50.0647135 39.4294018,49.3116324 C39.0798163,48.8358486 38.5909808,48.4836324 38.1001978,48.1557405 C34.1554316,45.5228757 29.4413826,43.8892541 26.2649257,40.3690378 C23.5013497,37.3051459 22.2539428,33.1709838 21.5567193,29.1049297 C20.9383716,25.494227 20.7153769,21.6558486 22.1497488,18.2844973 C23.5850944,14.9131459 27.0819236,12.1917405 30.7141077,12.6918486 C33.2790334,13.0460108 35.4047861,14.8713081 37.0154114,16.8970378 C41.2182281,22.1832 42.8259321,28.9949838 44.8474909,35.4370378 C45.3655396,37.0901189 46.1572194,38.9679568 47.8350353,39.4057946 C49.6589175,39.8815784 51.3532875,38.3676324 52.5909567,36.9461189 C52.7779217,36.7301189 52.967808,36.5082811 53.0710282,36.2426595 C53.3670561,35.4779027 52.8772468,34.6586595 52.4692347,33.9464432 C50.4009347,30.3337946 50.1146446,26.0079568 49.8760695,21.8533622 C49.7377933,19.4472 49.6034123,16.998227 50.1818351,14.658227 C50.7884975,12.2073081 52.1430198,10.014227 53.0418149,7.65379459 C53.1421138,7.38914595 53.2394914,7.10601081 53.18496,6.82774054 C53.0681069,6.22936216 52.3046666,5.97055135 51.7135846,6.11941622 C51.1225027,6.26828108 50.6424311,6.68471351 50.1156184,6.99217297 C46.8320461,8.91184865 42.7606891,6.8579027 39.5910486,5.8032 Z" id="Fill-19" fill="#E5863A"></path>
                            <path d="M31.7581902,63.1921622 C31.7581902,63.1921622 25.8269213,59.2944324 25.263105,58.9928108 C20.718493,56.8191892 17.2236113,52.1041622 17.7221846,52.6392973 L15.3627256,49.5773514 C10.6126468,43.4135676 8.20449909,36.8197297 8.20449909,29.9777838 C8.20449909,15.7937838 14.1893257,7.58189189 25.0556908,6.85410811 L28.1445079,6.64686486 L28.0714747,6.51745946 C28.7589605,6.47951351 29.5457714,6.45227027 30.4056155,6.45227027 C32.1817827,6.45227027 33.9151038,6.56416216 35.5588375,6.78210811 C37.298975,7.01464865 39.4042784,7.6967027 41.2622428,8.298 C43.3626774,8.97908108 45.0210177,9.51616216 46.292769,9.51616216 C48.3922298,9.51616216 50.3621784,8.69789189 51.8257636,7.866 C48.5538766,11.0855676 47.9754538,18.4811351 48.2490848,21.6150811 C48.9219639,31.7602703 50.8276433,34.6285946 51.2035208,35.1004865 L51.2668162,35.1763784 C51.437227,35.3836216 51.793629,36.1094595 51.8374489,36.3857838 C51.8335538,36.4324865 51.802393,36.521027 51.7420189,36.6144324 L48.5412175,39.0964865 C48.5012927,39.1013514 48.4457875,39.1042703 48.3708068,39.1042703 C48.0913331,39.1042703 47.2275939,38.4494595 46.6501448,37.3782162 C45.5877553,35.4089189 44.9226664,33.4688108 44.1524096,31.2212432 C43.0783348,28.0863243 41.861115,24.534 39.2251037,19.8802703 C38.5960444,18.665027 35.0622117,12.3144324 30.3569267,12.2638378 C30.1378271,12.2521622 29.9235964,12.2472973 29.7132608,12.2472973 C27.0519313,12.2472973 24.8609356,13.1142162 23.2006477,14.8256757 C20.8324248,17.2658919 19.7184251,21.2803784 19.8878621,26.7562703 C20.2949005,39.8680541 27.7608402,43.9107568 37.2123089,49.0285946 C37.2123089,49.0285946 40.8104108,59.5727027 31.7581902,63.1921622 L31.7581902,63.1921622 Z M21.8344401,26.694973 C21.6143668,19.6234054 23.6544273,13.8449189 30.2994739,14.2088108 C34.0903834,14.2088108 37.5307336,20.8386486 37.5307336,20.8386486 C41.9730992,28.6827568 42.2691271,33.3578919 44.9353254,38.3005946 C45.5780175,39.4924865 46.9364349,41.0511892 48.3708068,41.0511892 C49.3338711,41.0511892 49.6406105,40.7077297 49.6406105,40.7077297 L53.1247806,38.0057838 C53.5279238,37.5484865 53.7801318,36.9559459 53.7801318,36.2982162 C53.7801318,35.6414595 53.1306233,34.3464324 52.7274801,33.8891351 C52.7274801,33.8891351 50.8588041,31.5413514 50.1898201,21.4467568 C49.9074251,18.2125946 50.6825507,10.8938919 53.7265741,8.80783784 C54.183275,6.41043243 53.0137702,4.6727027 53.0137702,4.6727027 C53.0137702,4.6727027 49.7847293,7.57021622 46.292769,7.57021622 C44.3140564,7.57021622 39.549371,5.34989189 35.8159143,4.85367568 C29.9031471,4.06654054 24.8989128,4.86535135 24.8989128,4.86535135 C15.4269948,5.54837838 6.25694732,11.7783243 6.25694732,29.9777838 C6.25694732,38.5769189 9.84628523,45.6076216 13.8192908,50.7643784 C17.3079707,55.0188694 17.3079707,55.0188694 21.5384123,58.6493514 C23.1801984,59.9764865 24.2718012,60.6702162 24.2718012,60.6702162 C24.2718012,60.6702162 41.756921,69.894973 41.756921,81.1182162 C41.756921,93.4000541 31.5420119,92.6868649 31.5420119,92.6868649 C24.0254359,92.6868649 21.5715206,82.782 21.5715206,82.782 C19.5782014,74.3560541 18.376562,69.8511892 15.7113374,64.9075135 C15.0686453,63.7165946 13.7092542,62.1578919 12.2748823,62.1578919 C11.811365,62.1578919 11.3829036,62.2892432 11.0060523,62.5023243 C10.7431328,62.6511892 10.5142955,62.838 10.3205141,63.0617838 L4.70474856,67.6561622 C4.48370143,67.7884865 4.28602493,67.95 4.11464037,68.1387568 C3.68715276,68.6252432 3.4349448,69.2177838 3.4349448,69.8755135 C3.4349448,70.5322703 3.68715276,71.1248108 4.09029598,71.5821081 C4.13898477,71.6365946 4.18183091,71.6910811 4.23246725,71.7397297 C8.52487135,76.2008108 8.62906537,83.898973 8.62906537,83.898973 C8.62906537,95.0648108 4.80504747,99.5502162 4.54797064,99.8401622 C4.08055822,100.343189 3.80011076,100.975622 3.80011076,101.676162 C3.80011076,103.109351 4.96279917,104.271081 6.39717104,104.271081 C10.6019353,104.271081 10.92036,100.282865 15.582799,100.282865 C20.9872551,100.282865 22.8948821,103.737892 31.0151992,103.737892 C40.5065927,103.737892 57.7580063,103.670757 57.7580063,73.7070811 C57.7580063,73.7070811 57.7580063,58.2475135 38.5775427,47.5535676 C29.0403817,42.3870811 22.213239,38.8775676 21.8344401,26.694973 Z" id="Fill-16" fill="#780922"></path>
                        </g>
                        <g id="I" transform="translate(467.315217, 0.000000)">
                            <path d="M26.9851408,106.983243 C24.177745,106.83827 20.6828633,106.657297 18.798607,106.657297 C17.0711286,106.657297 14.1829093,106.811027 11.6345378,106.947243 C9.29358057,107.071784 7.08408309,107.189514 5.81720067,107.189514 C2.77415103,107.189514 0.298812729,104.716216 0.298812729,101.675676 C0.298812729,98.6691892 2.71961958,96.2182703 5.71592797,96.1637838 C7.32850084,96.012973 7.32850084,94.464 7.32850084,93.9531892 L7.32850084,14.2092973 C7.32850084,13.7014054 7.32850084,12.167027 5.68281959,11.9987027 C2.70209161,11.9276757 0.298812729,9.48259459 0.298812729,6.48681081 C0.298812729,3.44627027 2.77415103,0.972972973 5.81720067,0.972972973 C7.08408309,0.972972973 9.29455435,1.0907027 11.6355116,1.21621622 C14.1848568,1.35243243 17.0730761,1.50616216 18.8005545,1.50616216 C20.6857846,1.50616216 24.1816401,1.32421622 26.9900097,1.17924324 C29.2150876,1.06443243 30.9717793,0.972972973 31.7848822,0.972972973 C34.826958,0.972972973 37.3022963,3.44627027 37.3022963,6.48681081 C37.3022963,9.52735135 34.826958,12.0006486 31.7848822,12.0006486 C30.3621956,12.0006486 30.2755295,13.859027 30.2726082,14.2316757 L30.2726082,66.1018378 L30.4215959,66.2701622 L30.2726082,68.5576216 L30.2726082,93.996973 C30.3329823,95.0010811 30.6475119,96.1628108 31.7790395,96.1628108 C34.8220892,96.1628108 37.2974275,98.6361081 37.2974275,101.675676 C37.2974275,104.716216 34.8220892,107.189514 31.7790395,107.189514 C30.9659367,107.189514 29.209245,107.098054 26.9851408,106.983243 Z" id="Fill-5" fill="#F1E3D1"></path>
                            <path d="M31.121139,4.31387027 C31.5943941,4.39073514 32.0949149,4.5288973 32.3967854,4.90057297 C32.9742345,5.61181622 32.4600808,6.72878919 31.6927454,7.22987027 C30.9263838,7.73095135 29.9779261,7.87008649 29.165797,8.29332973 C26.7303835,9.56403243 26.2814729,12.8001405 26.2016232,15.5439243 C25.9065691,25.5820865 26.5434186,35.6280324 26.3739816,45.6700865 C26.3301616,48.2251135 26.2308365,50.8064108 25.5579574,53.2719243 C24.5851553,56.8359243 22.448691,59.9961405 19.8944768,62.6669514 C17.3402627,65.3377622 14.3653774,67.5648973 11.4050987,69.7784108 C11.399256,67.3440324 11.3924396,64.9096541 11.3856232,62.4752757 C11.3807543,60.6402486 10.9552142,43.8983027 11.012667,41.3851135 C11.1967106,33.3415459 11.381728,25.2911676 11.0925166,17.2505189 C11.0243523,15.3473838 10.9240534,13.4140865 10.2930466,11.6179784 C9.66203984,9.82187027 8.76801602,8.49502708 7.00061279,7.78378384 C6.42218992,7.55027033 4.5710422,8.16616222 4.07928537,7.78378384 C3.58655478,7.40140546 4.16994385,5.55051892 4.55069022,5.05722162 C4.86035095,4.65732973 5.4397476,4.61549189 5.94611106,4.6116 C9.47994375,4.5863027 13.1208918,4.58046486 16.6303801,5.03581622 C19.8818177,5.45808649 23.5919039,4.63787027 26.8793712,4.34111351 C28.2913463,4.21365405 29.7218231,4.08716757 31.121139,4.31387027 Z" id="Fill-17" fill="#E5863A"></path>
                            <path d="M24.9208158,49.1759027 C24.9208158,59.3921189 11.7134935,67.2975243 11.7134935,67.2975243 L11.7134935,14.2092 C11.7134935,9.2052 7.94498082,7.23784865 5.41218975,7.13665946 C4.97593815,7.13568649 4.68477916,6.84476757 4.68477916,6.48671351 C4.68477916,6.12865946 4.97593815,5.83871351 5.33428768,5.83871351 C6.47165791,5.83871351 8.61980751,5.95255135 10.894548,6.07417297 C13.6298844,6.22011892 16.4606509,6.36995676 18.3176415,6.36995676 C20.3284887,6.36995676 23.7444945,6.19384865 26.7583309,6.03817297 C28.7409386,5.93503784 30.6144834,5.83871351 31.3009954,5.83871351 C31.6593449,5.83871351 31.9505039,6.12865946 31.9505039,6.48671351 C31.9505039,6.84476757 31.6593449,7.13568649 31.3009954,7.13568649 C26.6599795,7.13568649 24.9422389,11.3564432 24.9208158,14.1936324 L24.9208158,49.1759027 Z M26.8683676,94.0766595 L26.8683676,68.462173 L26.9443221,67.2975243 L26.8683676,14.2092 C26.8683676,14.2092 26.9082924,9.08163243 31.3009954,9.08163243 C32.7353673,9.08163243 33.8980557,7.9199027 33.8980557,6.48671351 C33.8980557,5.05352432 32.7353673,3.89179459 31.3009954,3.89179459 C29.5433299,3.89179459 21.6937225,4.42498378 18.3176415,4.42498378 C14.9415605,4.42498378 7.8894756,3.89179459 5.3333139,3.89179459 C3.8999158,3.89179459 2.73722739,5.05352432 2.73722739,6.48671351 C2.73722739,7.9199027 3.8999158,9.08163243 5.3333139,9.08163243 C5.3333139,9.08163243 9.7669155,9.25774054 9.7669155,14.2092 L9.7669155,91.754173 L9.7669155,93.9530919 C9.7669155,98.9045514 5.3333139,99.0816324 5.3333139,99.0816324 C3.8999158,99.0816324 2.73722739,100.243362 2.73722739,101.675578 C2.73722739,103.108768 3.8999158,104.270497 5.3333139,104.270497 C7.8894756,104.270497 14.9386392,103.738281 18.3147202,103.738281 C21.6908012,103.738281 29.5374873,104.270497 31.2961265,104.270497 C32.7304984,104.270497 33.8931868,103.108768 33.8931868,101.675578 C33.8931868,100.243362 32.7304984,99.0816324 31.2961265,99.0816324 C27.288065,99.0816324 26.9053711,94.8239027 26.8683676,94.0766595 Z" id="Fill-4" fill="#780922"></path>
                        </g>
                        <g id="H" transform="translate(399.101449, 0.000000)">
                            <path d="M36.5925793,45.4996216 L41.2988382,39.4632973 L41.2988382,13.9178919 C41.2988382,12.0857838 40.3172721,11.7442703 39.7057408,11.7092432 C38.2197588,11.6878378 36.8730268,11.0758378 35.8914607,10.097027 C34.8933404,11.0933514 33.5154475,11.7092432 31.9963572,11.7092432 C30.6905237,11.7092432 30.5045325,13.2903243 30.485057,13.9694595 L30.4860308,38.6625405 L36.5925793,45.4996216 Z M30.4860308,93.7075135 C30.5444573,94.7096757 30.8570394,95.8714054 31.9914883,95.8714054 C33.5125262,95.8714054 34.8904191,96.4892432 35.8895132,97.4865405 C36.8662104,96.5116216 38.206126,95.8996216 39.6862653,95.8723784 C41.2988382,95.7215676 41.2988382,94.1725946 41.2988382,93.6627568 L41.2988382,61.4855676 L38.8088933,64.6185405 L38.3882221,64.6185405 C37.8701733,64.8870811 37.2888291,65.034 36.6909307,65.034 C36.090111,65.034 35.5155832,64.8929189 35.0014295,64.6292432 L34.6732671,64.6292432 L34.0422603,63.9228649 C33.9614369,63.8401622 33.8845086,63.7535676 33.8105016,63.6621081 L30.4860308,59.8684865 L30.4860308,65.8114054 L30.6350185,65.9797297 L30.4860308,68.2671892 L30.4860308,93.7075135 Z M60.956452,106.692811 C58.1480823,106.546865 54.6532007,106.366865 52.7679706,106.366865 C51.0414659,106.366865 48.1532466,106.520595 45.6058489,106.655838 C43.2658655,106.780378 41.0544204,106.899081 39.7865642,106.899081 C38.2674739,106.899081 36.8886072,106.281243 35.8895132,105.283946 C34.8904191,106.281243 33.5125262,106.899081 31.9914883,106.899081 C31.1793592,106.899081 29.4226675,106.807622 27.1995372,106.692811 C24.3911675,106.546865 20.8962859,106.366865 19.010082,106.366865 C17.2826036,106.366865 14.3953581,106.520595 11.8479603,106.655838 C9.5079769,106.780378 7.29653186,106.899081 6.02964944,106.899081 C2.9865998,106.899081 0.511261501,104.425784 0.511261501,101.385243 C0.511261501,98.3787568 2.93304213,95.9268649 5.92935052,95.8723784 C7.54094961,95.7215676 7.54094961,94.1725946 7.54094961,93.6627568 L7.54094961,13.9178919 C7.54094961,13.410973 7.54094961,11.8756216 5.89624214,11.7082703 C2.91454038,11.6362703 0.511261501,9.19216216 0.511261501,6.19637838 C0.511261501,3.15583784 2.9865998,0.681567568 6.02964944,0.681567568 C7.29653186,0.681567568 9.5079769,0.80027027 11.8489341,0.924810811 C14.3973056,1.06102703 17.2864987,1.21475676 19.0130033,1.21475676 C20.8982334,1.21475676 24.3940888,1.03378378 27.2014847,0.887837838 C29.4265626,0.773027027 31.1832543,0.681567568 31.9963572,0.681567568 C33.5154475,0.681567568 34.8933404,1.29843243 35.8914607,2.29475676 C36.8915285,1.29843243 38.2684476,0.681567568 39.7865642,0.681567568 C41.0544204,0.681567568 43.2658655,0.80027027 45.6068227,0.924810811 C48.1551942,1.06102703 51.0434135,1.21475676 52.7708919,1.21475676 C54.656122,1.21475676 58.1519774,1.03378378 60.9593733,0.887837838 C63.1844512,0.773027027 64.9411429,0.681567568 65.7542457,0.681567568 C68.7972954,0.681567568 71.2726337,3.15583784 71.2726337,6.19637838 C71.2726337,9.23691892 68.7972954,11.7092432 65.7542457,11.7092432 C64.332533,11.7092432 64.2458669,13.5676216 64.2439193,13.9392973 L64.2439193,93.7075135 C64.3023459,94.7096757 64.614928,95.8714054 65.7493769,95.8714054 C68.7914527,95.8714054 71.266791,98.3447027 71.266791,101.385243 C71.266791,104.425784 68.7914527,106.899081 65.7493769,106.899081 C64.936274,106.899081 63.1805561,106.807622 60.956452,106.692811 Z" id="Fill-9" fill="#F1E3D1"></path>
                            <path d="M33.6967646,5.97025946 C33.4727962,6.70193514 32.0958764,7.82571887 31.3450952,7.9755567 C29.3332743,8.37739454 28.229013,9.1188 27.5541863,11.0550162 C26.8793597,12.9912324 26.8939663,15.0889622 26.9163631,17.1390162 C26.9923177,24.0821514 27.0682722,31.0252865 27.1432529,37.9684216 C27.1500693,38.5346919 27.1578596,39.1126378 27.3438507,39.647773 C27.5327633,40.1916649 27.8930603,40.6567459 28.2533574,41.1062595 C31.03154,44.5671243 33.2059806,48.1723683 36.6735966,50.9433953 C38.8879629,48.9877196 41.9047215,46.3719892 43.7149709,44.0358811 C44.422906,43.1212865 45.109418,42.1590162 45.4531609,41.0546919 C45.7725594,40.0282054 45.778402,38.9326378 45.7822971,37.8575027 C45.804694,30.5349081 45.8280646,23.2132865 45.8514352,15.8916649 C45.8601992,13.0593405 45.5339843,9.64615135 43.0070358,8.36474595 C42.1627722,7.93663784 40.1947721,8.43674589 39.3690102,7.9755567 C38.5432482,7.51339454 38.8869901,5.83793514 39.3690091,5.02452973 C39.8208412,4.26171892 40.8958897,4.23739459 41.781052,4.29674595 C48.8496912,4.77642162 55.9533862,4.74334054 63.0181303,4.19847568 C64.0152768,4.12161081 65.0708498,4.04571892 65.9647761,4.49425946 C66.8587024,4.9428 67.4604959,6.12982703 66.9268667,6.97436757 C66.3211781,7.93371892 64.9004391,7.76344865 63.8244167,8.12442162 C61.559414,8.88528649 61.1182935,11.8402054 61.0696047,14.2269081 C60.9809911,18.5264757 60.8933513,22.8270162 60.8047377,27.1265838 C60.6508811,34.6535027 60.4960507,42.1833405 60.6849632,49.7092865 C60.7229405,51.2154486 60.7716293,52.7478811 60.3850403,54.2044216 C59.9546313,55.8263676 59.0100687,57.2595568 58.0187649,58.6149081 C54.5083028,63.4145838 50.2236889,67.6479892 45.3791539,71.1010703 C45.3402029,64.1832324 45.3002781,57.2663676 45.261327,50.3485297 C42.8434415,54.0925297 39.9503533,57.5300432 36.6735975,60.5520973 C33.3335462,56.8080973 29.9730456,53.0825838 26.5940433,49.3736108 C26.778087,53.8142595 24.7506856,58.1196649 21.9033649,61.5348 C19.0560442,64.9499351 15.4248339,67.6080973 11.8306271,70.2263676 C11.2210434,67.3745838 11.6329506,64.415773 11.5345993,61.5007459 C11.4362479,58.5866919 11.2366238,42.9772865 11.3417916,40.1342595 C11.4430643,37.3729622 11.544337,34.6116649 11.6456097,31.8503676 C11.8715257,25.6856108 12.096468,19.4897189 11.3291326,13.3687459 C11.0574491,11.2009622 10.349514,8.66442162 8.27439761,7.97555676 C7.57814785,7.74398919 6.82055021,7.76831351 6.11261514,7.57274595 C5.40565385,7.37620541 4.69187613,6.83912432 4.67824327,6.10647568 C4.65584642,4.90874595 6.26841928,4.51955676 7.4671374,4.52539459 C11.5083073,4.54388108 15.6741206,4.37555676 19.6889985,4.84647568 C23.467249,5.29112432 27.5463961,4.6548 31.3450959,4.46993514 C32.4425413,4.41642162 34.0181107,4.92042162 33.6967646,5.97025946 Z" id="Fill-15" fill="#E5863A"></path>
                            <path d="M59.3766953,50.5135459 C59.3766953,59.7567892 46.169373,67.6621946 46.169373,67.6621946 L46.169373,47.8223027 L36.6507138,59.8064108 L25.6197805,47.2171135 L25.6197805,51.0000324 C25.6197805,59.2703027 12.4124582,68.6351676 12.4124582,68.6351676 L12.4124582,14.2090054 C12.4124582,9.20500541 8.64297178,7.23765405 6.1101807,7.13646486 C5.67490288,7.13549189 5.38374389,6.84457297 5.38374389,6.48651892 C5.38374389,6.12943784 5.67490288,5.83851892 6.03227863,5.83851892 C7.16964887,5.83851892 9.31779847,5.95235676 11.5925389,6.07397838 C14.3288492,6.21992432 17.1596157,6.37073514 19.0166063,6.37073514 C21.0274535,6.37073514 24.4434593,6.19365405 27.4572956,6.03797838 C29.4399033,5.93484324 31.3134481,5.83851892 31.9999601,5.83851892 C32.3583097,5.83851892 32.6494687,6.12943784 32.6494687,6.48651892 C32.6494687,6.84457297 32.3583097,7.13549189 31.9999601,7.13549189 C27.3579705,7.13549189 25.6412036,11.3572216 25.6197805,14.1944108 L25.6197805,40.8081405 L36.849364,53.3828432 L46.169373,41.4250054 L46.169373,14.2090054 C46.169373,9.20500541 42.4008604,7.23765405 39.8680693,7.13646486 C39.4318177,7.13549189 39.1406587,6.84457297 39.1406587,6.48651892 C39.1406587,6.12943784 39.4318177,5.83851892 39.7901672,5.83851892 C40.9275374,5.83851892 43.0766608,5.95235676 45.3514013,6.07397838 C48.0867377,6.21992432 50.9165305,6.37073514 52.7735211,6.37073514 C54.7853421,6.37073514 58.2013479,6.19365405 61.2151842,6.03797838 C63.1977919,5.93484324 65.0713367,5.83851892 65.7578487,5.83851892 C66.1152245,5.83851892 66.4063835,6.12943784 66.4063835,6.48651892 C66.4063835,6.84457297 66.1152245,7.13549189 65.7578487,7.13549189 C61.1158591,7.13549189 59.3981184,11.3572216 59.3766953,14.1944108 L59.3766953,50.5135459 Z M61.3242471,94.0754919 L61.3242471,14.2090054 C61.3242471,14.2090054 61.3641719,9.08143784 65.7568749,9.08143784 C67.1912468,9.08143784 68.3539352,7.91970811 68.3539352,6.48651892 C68.3539352,5.0543027 67.1912468,3.89257297 65.7568749,3.89257297 C63.9992095,3.89257297 56.1496021,4.42478919 52.7735211,4.42478919 C49.3974401,4.42478919 42.3453551,3.89257297 39.7901672,3.89257297 C38.3557953,3.89257297 37.1931069,5.0543027 37.1931069,6.48651892 C37.1931069,7.91970811 38.3557953,9.08143784 39.7901672,9.08143784 C39.7901672,9.08143784 44.222795,9.25754595 44.222795,14.2090054 L44.222795,40.756573 L36.7471176,50.3461946 L27.5673323,40.0657622 L27.5673323,14.2090054 C27.5673323,14.2090054 27.6062833,9.08143784 31.9999601,9.08143784 C33.434332,9.08143784 34.5960466,7.91970811 34.5960466,6.48651892 C34.5960466,5.0543027 33.434332,3.89257297 31.9999601,3.89257297 C30.2413209,3.89257297 22.3926873,4.42478919 19.0156325,4.42478919 C15.6395515,4.42478919 8.58844033,3.89257297 6.03227863,3.89257297 C4.59790675,3.89257297 3.43521835,5.0543027 3.43521835,6.48651892 C3.43521835,7.91970811 4.59790675,9.08143784 6.03227863,9.08143784 C6.03227863,9.08143784 10.4649065,9.25754595 10.4649065,14.2090054 L10.4649065,91.7549514 L10.4649065,93.9538703 C10.4649065,98.9053297 6.03227863,99.0814378 6.03227863,99.0814378 C4.59790675,99.0814378 3.43521835,100.243168 3.43521835,101.676357 C3.43521835,103.108573 4.59790675,104.270303 6.03227863,104.270303 C8.58844033,104.270303 15.637604,103.738086 19.0136849,103.738086 C22.3897659,103.738086 30.236452,104.270303 31.9950913,104.270303 C33.4284894,104.270303 34.5911778,103.108573 34.5911778,101.676357 C34.5911778,100.243168 33.4284894,99.0814378 31.9950913,99.0814378 C27.9841084,99.0814378 27.603362,94.8198162 27.5673323,94.0754919 L27.5673323,68.4629514 L27.6432868,67.2973297 L27.5673323,52.3933297 L35.9846511,62.0014378 C36.1453241,62.2388432 36.3955845,62.4061946 36.6935599,62.4061946 C36.9964042,62.4061946 37.2495859,62.2349514 37.3917572,61.9917081 L44.222795,53.4042486 L44.222795,91.7549514 L44.222795,93.9538703 C44.222795,98.9053297 39.7901672,99.0814378 39.7901672,99.0814378 C38.3557953,99.0814378 37.1931069,100.243168 37.1931069,101.676357 C37.1931069,103.108573 38.3557953,104.270303 39.7901672,104.270303 C42.3453551,104.270303 49.3954925,103.738086 52.7715735,103.738086 C56.1476545,103.738086 63.9943406,104.270303 65.7520061,104.270303 C67.1863779,104.270303 68.3490663,103.108573 68.3490663,101.676357 C68.3490663,100.243168 67.1863779,99.0814378 65.7520061,99.0814378 C61.741997,99.0814378 61.3612506,94.8198162 61.3242471,94.0754919 Z" id="Fill-7" fill="#780922"></path>
                        </g>
                        <g id="T" transform="translate(329.869565, 0.000000)">
                            <path d="M44.0063463,106.656324 C41.4579748,106.520108 38.5697556,106.366378 36.8422771,106.366378 C34.957047,106.366378 31.4621654,106.547351 28.6537957,106.692324 C26.4287178,106.807135 24.6720261,106.898595 23.8589233,106.898595 C20.8158736,106.898595 18.3405353,104.425297 18.3405353,101.384757 C18.3405353,98.3451892 20.8158736,95.8718919 23.8589233,95.8718919 C24.2533025,95.8718919 25.063484,95.8718919 25.3254298,94.0446486 L25.3254298,20.3905946 C24.7927743,21.8412973 24.3068602,23.7337297 24.0712064,25.4802162 C21.9512963,34.5016216 20.6737024,39.1845405 17.8867558,44.3490811 C16.7688611,46.4215135 14.6031835,48.6330811 11.8795323,48.6330811 C10.9739208,48.6330811 10.0663616,48.3985946 9.24936368,47.952973 C8.70404918,47.6464865 8.28532555,47.3215135 7.91723827,46.9401081 L2.59360551,42.5841081 C2.28589233,42.3807568 1.99960222,42.1472432 1.73960406,41.8874595 L0.79796278,41.1265946 L0.790172573,40.6148108 C0.351973425,39.8130811 0.118267213,38.9140541 0.118267213,37.9975135 C0.118267213,36.6655135 0.609050259,35.3753514 1.50102897,34.3615135 C1.60814432,34.2379459 1.69578415,34.1416216 1.79121418,34.0482162 C5.15171476,30.5542703 5.311414,23.9915676 5.31238778,23.9263784 C5.31238778,14.4982703 2.34626644,10.4497297 1.99668089,10.0060541 C0.979085095,8.87837838 0.471747859,7.57167568 0.471747859,6.19589189 C0.471747859,3.15535135 2.94708616,0.682054054 5.99013579,0.682054054 C6.75552364,0.682054054 11.4783367,0.771567568 17.4582944,0.885405405 C25.2134455,1.03135135 34.8645383,1.21524324 36.7974834,1.21524324 C38.5746244,1.21524324 46.7212335,1.05956757 53.9086733,0.921405405 C60.6150678,0.792972973 66.406113,0.682054054 67.6233328,0.682054054 C70.6654087,0.682054054 73.140747,3.15535135 73.140747,6.19589189 C73.140747,7.63881081 72.5623241,9.03502703 71.5447283,10.0644324 C71.0558928,10.6988108 68.2747889,14.7152432 68.2747889,23.9721081 C68.2757627,23.9915676 68.4354619,30.5542703 71.8563366,34.1085405 C71.8913925,34.1416216 71.9790324,34.2379459 72.0647246,34.3371892 C72.9781264,35.3753514 73.4689095,36.6655135 73.4689095,37.9975135 C73.4689095,38.9033514 73.2410459,39.7907027 72.8135583,40.5856216 L72.8135583,41.0974054 L71.8534153,41.8816216 C71.5924433,42.1433514 71.3042057,42.3788108 70.9935712,42.5841081 L65.6699384,46.9401081 C65.3524875,47.268973 64.9980331,47.555027 64.6104703,47.7953514 C63.5743727,48.384 62.6395479,48.6330811 61.7076443,48.6330811 C58.9839932,48.6330811 56.8192894,46.4215135 55.7004209,44.351027 C52.9144481,39.1845405 51.6358804,34.5016216 49.5675804,25.7614054 C49.2744738,23.7084324 48.7944023,21.8296216 48.2685634,20.3925405 L48.2695371,65.8109189 L48.2695371,68.2676757 L48.2695371,90.7433514 L48.3143308,93.6622703 C48.3143308,95.4943784 49.2949231,95.8368649 49.9064544,95.8728649 C52.9125006,95.9156757 55.3440189,98.3714595 55.3440189,101.384757 C55.3440189,104.425297 52.8686806,106.898595 49.825631,106.898595 C48.5587486,106.898595 46.3482773,106.780865 44.0063463,106.656324 Z" id="Fill-24" fill="#F1E3D1"></path>
                            <path d="M48.042454,5.83783785 C51.7418286,5.61989191 53.1080361,4.48054053 56.8064369,4.70043242 C60.1153274,4.89697296 63.2394912,5.19664865 66.5035879,4.61772973 C67.3040317,4.47567568 68.2651485,4.30832432 68.8133843,4.90767568 C69.5349523,5.69578378 68.8435714,6.91881081 68.2622272,7.81589189 C66.3653118,10.7425946 65.7878627,14.3046486 65.2522859,17.7509189 C64.8637494,20.2524324 64.474239,22.788 64.7303421,25.307027 C65.1286164,29.2300541 67.0537713,32.8154595 69.0081395,36.2422703 C69.31001,36.7725405 69.6245397,37.3757838 69.4628929,37.9634595 C69.3479873,38.376973 69.0188511,38.6902703 68.7043214,38.9811892 C67.0586402,40.499027 65.4139327,42.0178378 63.7692253,43.5356757 C63.457617,43.8236757 63.1382185,44.1165405 62.7496819,44.2877838 C61.8353064,44.6896216 60.7261756,44.3082162 60.0065552,43.6164324 C59.2869349,42.9236757 58.877949,41.9779459 58.5108355,41.0497297 C55.6547508,33.8370811 54.2437496,26.1515676 52.1929776,18.6703784 C51.8745528,17.5067027 51.5259411,16.3196757 50.8053469,15.3525405 C50.0847528,14.3854054 48.9055102,13.6683243 47.7087396,13.8278919 C46.294817,14.0176216 45.2742999,15.3681081 44.9617178,16.7594595 C44.6491358,18.1508108 44.8799207,19.5976216 45.0211182,21.0162162 C45.5820131,26.6798919 44.6715326,32.3785946 44.600447,38.0695135 C44.5546795,41.7707027 44.8623927,45.4913514 44.3998492,49.1633514 C43.1816555,58.824 36.8112137,67.0349189 29.8876671,73.8856216 C29.6140361,68.687027 29.3404051,63.4894054 29.0677479,58.2908108 C29.0434035,57.8354595 29.6150099,28.7669189 29.318982,18.7102703 C29.2839261,17.5427027 29.2284209,16.3264865 28.6646046,15.3029189 C28.1017622,14.2793514 26.8689619,13.5233514 25.7598312,13.8930811 C25.187251,14.0837838 24.7412616,14.5323243 24.3517512,14.9935135 C19.9191234,20.2572973 20.5277333,28.0060541 18.2130681,34.4850811 C16.9520283,38.016973 14.815564,41.1596757 12.7014966,44.2585946 C12.5525089,44.4775135 12.3665177,44.7178378 12.1026244,44.7314595 C11.8971577,44.7421622 11.7150616,44.6088649 11.552441,44.4823784 C9.86391364,43.164973 8.17538626,41.8475676 6.48685887,40.5301622 C5.84124546,40.0261622 5.17226143,39.492973 4.83338742,38.7476757 C3.90732656,36.7141622 5.80521575,34.6290811 7.07209818,32.7882162 C8.99920065,29.988 9.6311812,26.459027 9.47635084,23.0643243 C9.3205467,19.6696216 8.43635819,16.3556757 7.55606479,13.0728649 C6.92213669,10.7075676 6.27847083,8.31697297 5.10604467,6.1667027 C4.92200103,5.82810811 4.71750809,5.45448649 4.80222659,5.07891892 C4.95024053,4.41535135 5.81495351,4.26356757 6.49562286,4.25675676 C16.5430424,4.16335135 26.5554061,4.98162162 36.6096421,4.9572973 C39.5718683,4.95048649 42.0647329,6.01200002 45.0211165,5.83783785" id="Fill-13" fill="#E5863A"></path>
                            <path d="M65.3570642,24.2637081 C65.3570642,13.5220865 68.886028,8.97441081 69.3846013,8.38576216 C69.8968074,7.91192432 70.2230223,7.2396 70.2230223,6.48651892 C70.2230223,5.0543027 69.0603339,3.89257297 67.625962,3.89257297 C65.0707741,3.89257297 40.1761936,4.42478919 36.8001126,4.42478919 C33.4240316,4.42478919 7.75140424,3.89257297 5.99276499,3.89257297 C4.55936689,3.89257297 3.39667848,5.0543027 3.39667848,6.48651892 C3.39667848,7.18900541 3.67809971,7.82435676 4.13187927,8.29138378 C4.41330051,8.61246486 8.23634463,13.0978703 8.23634463,24.2637081 C8.23634463,24.2637081 8.13312438,31.9618703 3.83974651,36.4229514 C3.29540579,37.0378703 3.04319784,37.6304108 3.04319784,38.2881405 C3.04319784,38.9448973 3.29540579,39.5374378 3.69757523,39.9947351 C3.89427796,40.2136541 4.09195446,40.3751676 4.31202781,40.5065189 L9.92779334,45.1008973 C10.1215747,45.3246811 10.3504121,45.5114919 10.6094365,45.6584108 C10.9901828,45.8734378 11.419618,46.0047892 11.8831353,46.0047892 C13.3175072,46.0047892 14.6759245,44.4460865 15.3186166,43.2551676 C17.984815,38.3124649 19.1864544,33.8076 21.1787999,25.3816541 C21.1787999,25.3816541 22.516768,15.4758162 26.3076775,15.4758162 C26.3076775,15.4758162 28.2464653,15.1936541 28.2493866,18.0629514 L28.2493866,60.2179784 L28.2493866,94.5240324 C28.0906611,95.8560324 27.3496177,99.0814378 23.8615525,99.0814378 C22.4271806,99.0814378 21.2644922,100.243168 21.2644922,101.676357 C21.2644922,103.108573 22.4271806,104.270303 23.8615525,104.270303 C25.6201917,104.270303 33.4688253,103.738086 36.8449063,103.738086 C40.2209873,103.738086 47.2730723,104.270303 49.829234,104.270303 C51.2626321,104.270303 52.4253205,103.108573 52.4253205,101.676357 C52.4253205,100.243168 51.2626321,99.0814378 49.829234,99.0814378 C49.829234,99.0814378 45.3966061,98.9053297 45.3966061,93.9538703 L45.3508387,68.4629514 L45.427767,67.2973297 L45.3508387,17.9033838 C45.4267932,15.2121405 47.2857314,15.4758162 47.2857314,15.4758162 C51.0766409,15.4758162 52.4146089,25.3816541 52.4146089,25.3816541 C54.4069544,33.8076 55.6085938,38.3124649 58.2747922,43.2551676 C58.9174843,44.4460865 60.2759017,46.0047892 61.7102735,46.0047892 C62.1737909,46.0047892 62.603226,45.8734378 62.9800773,45.6603568 C63.2429968,45.5114919 63.4718341,45.3246811 63.6656155,45.1008973 L69.281381,40.5065189 C69.5014544,40.3751676 69.6991309,40.2136541 69.8714892,40.0239243 C70.2980031,39.5374378 70.550211,38.9448973 70.550211,38.2881405 C70.550211,37.6304108 70.2980031,37.0378703 69.8958336,36.580573 C65.4602845,31.9618703 65.3570642,24.2637081 65.3570642,24.2637081 Z M68.2803394,38.8368973 L62.3013555,43.7017622 C62.1436038,43.8837081 62.0880986,43.9284649 62.0228556,43.9664108 C61.8913958,44.0345189 61.7998609,44.0598162 61.7112473,44.0598162 C61.4327474,44.0598162 60.5670606,43.4040324 59.9896115,42.3327892 C57.4743484,37.6693297 56.3282142,33.4670595 54.3319737,25.0255459 C53.9424633,22.2204649 52.3474184,13.6553838 47.3947943,13.5318162 C47.3305251,13.5269514 47.2487279,13.5230595 47.1523241,13.5230595 C45.3469436,13.5230595 43.4889792,14.8608973 43.4042607,17.8488973 L43.4032869,48.4060865 C43.4032869,55.3793838 30.1959646,70.7037081 30.1959646,70.7037081 L30.1959646,18.0629514 C30.194017,14.4785189 27.8384532,13.5230595 26.4479012,13.5230595 C26.3466285,13.5230595 26.26191,13.5269514 26.1947195,13.5318162 C21.2450167,13.6592757 19.6499718,22.2204649 19.262409,25.0255459 C17.2642209,33.4680324 16.1180866,37.6703027 13.6037973,42.3327892 C13.0263482,43.4030595 12.1616352,44.0598162 11.8831353,44.0598162 C11.7838102,44.0598162 11.6825375,44.0286811 11.571527,43.9673838 C11.5033627,43.9284649 11.4478575,43.8827351 11.3991687,43.8253297 L5.43576518,38.9108432 C5.26438063,38.8077081 5.22153449,38.774627 5.18355723,38.7357081 C5.04722861,38.5810054 4.9907496,38.4399243 4.9907496,38.2871676 C4.9907496,38.1363568 5.04722861,37.9943027 5.15823906,37.8678162 C10.0144594,32.8132216 10.1790275,24.6363568 10.1838964,24.2899784 C10.1838964,12.7544108 6.24789427,7.76403243 5.645127,7.06835676 L5.51756236,6.92241081 C5.43576518,6.83387027 5.34423025,6.68987027 5.34423025,6.48651892 C5.34423025,6.12943784 5.63538924,5.83851892 5.99276499,5.83851892 C6.71141159,5.83851892 11.6494291,5.93192432 17.3693886,6.03992432 C25.5491061,6.1956 34.8204263,6.37073514 36.8001126,6.37073514 C38.6249686,6.37073514 46.4453628,6.2208973 54.0086801,6.07592432 C60.4102827,5.95332973 66.4564572,5.83851892 67.625962,5.83851892 C67.9843116,5.83851892 68.2754705,6.12943784 68.2754705,6.48651892 C68.2754705,6.71224865 68.1586174,6.86695135 68.0612399,6.95743784 L67.8966717,7.12965405 C67.1478381,8.01603243 63.4095125,13.0054378 63.4095125,24.2637081 C63.4143813,24.6363568 63.5789495,32.8132216 68.3504513,37.7724649 C68.5452065,37.9933297 68.6026592,38.1353838 68.6026592,38.2871676 C68.6026592,38.4399243 68.5452065,38.5819784 68.4332222,38.7094378 C68.3709006,38.7756 68.3280544,38.8086811 68.2803394,38.8368973 Z" id="Fill-14" fill="#780922"></path>
                        </g>
                        <g id="L" transform="translate(248.420290, 0.000000)">
                            <path d="M46.1136357,106.986162 C40.0733039,106.840216 32.5547803,106.657297 30.6296254,106.657297 C28.8602746,106.657297 22.5375478,106.812973 16.9597595,106.950162 C11.7422683,107.078595 7.23660728,107.189514 6.01159722,107.189514 C2.96952136,107.189514 0.494183061,104.716216 0.494183061,101.675676 C0.494183061,98.6691892 2.91498991,96.2182703 5.91129831,96.1637838 C7.52387117,96.012973 7.52387117,94.464 7.52387117,93.9531892 L7.52387117,14.2092973 C7.52387117,13.7014054 7.52387117,12.167027 5.87818993,11.9987027 C2.89746194,11.9276757 0.494183061,9.48259459 0.494183061,6.48681081 C0.494183061,3.44627027 2.96952136,0.972972973 6.01159722,0.972972973 C7.27945342,0.972972973 9.48992468,1.0907027 11.8318557,1.21621622 C14.3802272,1.35243243 17.2684464,1.50616216 18.9959249,1.50616216 C20.881155,1.50616216 24.3760366,1.32421622 27.1844063,1.17924324 C29.4094842,1.06443243 31.1671496,0.972972973 31.9792787,0.972972973 C35.0223284,0.972972973 37.4976667,3.44627027 37.4976667,6.48681081 C37.4976667,9.52735135 35.0223284,12.0006486 31.9792787,12.0006486 C30.5575659,12.0006486 30.4708999,13.859027 30.4679786,14.2316757 L30.4679786,66.1018378 L30.4679786,68.5576216 L30.4679786,89.7372973 C35.289143,89.4006486 37.2191668,82.1549189 37.2376685,82.08 C39.2972045,73.3709189 40.5757722,68.688973 43.361745,63.5224865 C44.478666,61.451027 46.6433698,59.2384865 49.3699422,59.2384865 C50.27458,59.2384865 51.1811654,59.472973 51.9991371,59.9185946 C52.5502943,60.2309189 52.9680441,60.5539459 53.3332101,60.9324324 L58.6558691,65.2874595 C58.9616347,65.4908108 59.246951,65.7233514 59.507923,65.9821622 L60.4515118,66.744973 L60.4602758,67.2577297 C60.8975012,68.0584865 61.1302336,68.9575135 61.1302336,69.875027 C61.1302336,71.207027 60.6394506,72.4971892 59.7484456,73.5100541 C59.6403565,73.6355676 59.5517429,73.7318919 59.4582604,73.8233514 C56.0977598,77.3172973 55.9380606,83.88 55.9370868,83.9451892 C55.9370868,93.9132973 59.2527937,97.8684324 59.2859021,97.9073514 L60.2947339,99.0593514 C60.5829716,100.048865 60.7660414,100.849622 60.7660414,101.675676 C60.7660414,104.716216 58.2907031,107.189514 55.2476535,107.189514 C54.5124527,107.189514 51.2980185,107.112649 46.1136357,106.986162 Z" id="Fill-37" fill="#F1E3D1"></path>
                            <path d="M25.6257806,4.48151351 C26.8313152,4.50194595 28.039771,4.52237838 29.2384891,4.39589189 C30.2960097,4.28497297 31.3944289,4.06508108 32.4013132,4.40951351 C33.4072237,4.75297297 34.2193528,5.94583784 33.7178582,6.88281081 C33.1121696,8.01243243 31.4440915,7.7292973 30.2249241,8.12821622 C28.3250874,8.74994595 27.6346803,11.0442162 27.3425475,13.0212973 C26.1126685,21.3616216 26.5127937,29.5180549 26.6705454,37.9459468 C26.7270244,40.9718927 27.1731105,44.3471351 26.6073467,47.3195676 C26.1555147,49.6994595 25.3706513,52.0054054 24.4523807,54.2471351 C21.513525,61.4286486 17.1753535,68.0351351 11.7523956,73.5878919 C11.9218326,69.5257297 11.9977871,65.4596757 11.9812329,61.3936216 C11.976364,60.2562162 11.9578623,59.0886486 11.5381649,58.031027 C10.799069,56.1697297 9.81458157,47.9189189 11.672546,49.0203243 C11.63749,43.3381622 11.6024341,37.656 11.5683519,31.9728649 C11.5527715,29.4363243 11.7572645,26.4551351 11.9471508,23.9244324 C12.0688727,22.3005405 12.1905947,20.6717838 12.133142,19.043027 C12.0308955,16.1961081 11.3823607,13.4007568 10.7357736,10.6268108 C10.6432649,10.2308108 10.5488086,9.82897297 10.3530796,9.47189189 C9.35690691,7.65535135 5.37318977,8.80443243 4.36533173,6.99372973 C4.168629,6.64054054 5.04697484,5.22486486 5.22322828,4.86097297 C5.46764603,4.35405405 6.10741678,4.20227027 6.66733792,4.14486486 C7.82515744,4.02810811 8.25361883,4.18767568 9.41728101,4.20713514 C14.8197896,4.29859459 20.223272,4.39005405 25.6257806,4.48151351 Z" id="Fill-11" fill="#E5863A"></path>
                            <path d="M25.6204248,43.197373 C25.6204248,57.1673189 12.4131025,71.4174811 12.4131025,71.4174811 L12.4131025,14.2095892 C12.4131025,9.20461622 8.64458985,7.23823784 6.110825,7.13704865 C5.67554718,7.1351027 5.38438819,6.84418378 5.38438819,6.4871027 C5.38438819,6.12904865 5.67554718,5.83812973 6.03292293,5.83812973 C7.17029316,5.83812973 9.31941654,5.95294054 11.594157,6.07358919 C14.3304672,6.21953514 17.16026,6.37034595 19.0172506,6.37034595 C21.0290715,6.37034595 24.4441036,6.19326486 27.4579399,6.03758919 C29.4415214,5.93542703 31.3140924,5.83812973 32.0006044,5.83812973 C32.358954,5.83812973 32.6501129,6.12904865 32.6501129,6.4871027 C32.6501129,6.84418378 32.358954,7.1351027 32.0006044,7.1351027 C27.3595886,7.1351027 25.6418479,11.3568324 25.6204248,14.1949946 L25.6204248,43.197373 Z M53.0185831,83.8987784 C53.0185831,83.8987784 53.1227771,76.2015892 57.4151812,71.7395351 C57.5563787,71.5838595 57.5563787,71.5828865 57.5573525,71.5819135 C57.9604957,71.1246162 58.2127037,70.5320757 58.2127037,69.8753189 C58.2127037,69.2185622 57.9604957,68.6250486 57.5573525,68.1677514 C57.3616236,67.9498054 57.1639471,67.7882919 56.9428999,67.6559676 L51.3271344,63.0615892 C51.1343268,62.8387784 50.9045157,62.6509946 50.6464651,62.5040757 C50.2657187,62.2890486 49.8362835,62.1576973 49.3727662,62.1576973 C47.9383943,62.1576973 46.5790032,63.7164 45.9372849,64.9073189 C43.2710865,69.8509946 42.0694471,74.3558595 40.0761278,82.7818054 C40.0761278,82.7818054 37.6222126,92.6866703 30.1056366,92.6866703 C30.1056366,92.6866703 27.8698471,92.697373 27.5494749,90.6113189 L27.5494749,68.4625622 L27.6264032,67.2979135 L27.5494749,14.2095892 C27.5494749,14.2095892 27.5893997,9.08104865 31.9821027,9.08104865 C33.4164746,9.08104865 34.579163,7.91931892 34.579163,6.4871027 C34.579163,5.05391351 33.4164746,3.89218378 31.9821027,3.89218378 C30.2244372,3.89218378 22.3748298,4.4244 18.9987488,4.4244 C15.6226678,4.4244 8.57058288,3.89218378 6.01539496,3.89218378 C4.58102308,3.89218378 3.41833468,5.05391351 3.41833468,6.4871027 C3.41833468,7.91931892 4.58102308,9.08104865 6.01539496,9.08104865 C6.01539496,9.08104865 10.4480228,9.25812973 10.4480228,14.2095892 L10.4480228,91.7545622 L10.4480228,93.9534811 C10.4480228,98.9049405 6.01539496,99.0810486 6.01539496,99.0810486 C4.58102308,99.0810486 3.41833468,100.242778 3.41833468,101.675968 C3.41833468,103.109157 4.58102308,104.270886 6.01539496,104.270886 C8.57058288,104.270886 27.2563683,103.737697 30.6324493,103.737697 C34.0095041,103.737697 53.492812,104.270886 55.2504774,104.270886 C56.6848493,104.270886 57.8475377,103.109157 57.8475377,101.675968 C57.8475377,100.9764 57.5670903,100.343968 57.116232,99.8769405 C56.842601,99.5500216 53.0185831,95.0646162 53.0185831,83.8987784 Z" id="Fill-21" fill="#780922"></path>
                        </g>
                        <g id="E" transform="translate(186.315217, 0.000000)">
                            <path d="M30.3404641,34.1906595 C30.6345444,33.5650378 30.9451789,32.9345514 31.2830791,32.3060108 C31.9871191,31.0002811 33.1556501,29.1710919 35.1528645,28.3800649 C35.7819237,28.1309838 36.4246158,28.0054703 37.0614652,28.0054703 C38.5084962,28.0054703 39.4491637,28.6398486 39.7870639,28.9122811 L42.6324371,31.2308757 C42.8398513,31.3748757 43.0813477,31.5587676 43.3257655,31.796173 L43.5701832,31.9936865 C43.0901117,31.0080649 42.6226993,29.9689297 42.1377589,28.8908757 C40.5466091,25.3589838 38.5717916,20.9689297 36.3603466,19.8217946 C35.3524885,19.3849297 32.6853164,18.4070919 30.3404641,18.1609297 L30.3404641,34.1906595 Z M30.3404641,89.4467676 C35.1616285,89.1091459 37.0916523,81.8643892 37.110154,81.7894703 C38.4033284,76.3194162 39.3887896,72.438227 40.6332752,69.0269838 L39.7948541,69.7100108 C39.4491637,69.9892541 38.5084962,70.6236324 37.0614652,70.6236324 C36.4246158,70.6236324 35.7819237,70.4971459 35.1518907,70.2490378 C33.1556501,69.4580108 31.9871191,67.6288216 31.2830791,66.3221189 C30.9451789,65.6945514 30.6345444,65.0630919 30.3404641,64.4384432 L30.3404641,65.8113081 L30.4894518,65.9796324 L30.3404641,68.2661189 L30.3404641,89.4467676 Z M45.9861212,106.695632 C39.9457894,106.548714 32.4272658,106.366768 30.5021109,106.366768 C28.7327601,106.366768 22.4100333,106.522443 16.8312712,106.658659 C11.6147538,106.787092 7.1090928,106.898984 5.88408273,106.898984 C2.84200687,106.898984 0.366668573,104.425686 0.366668573,101.385146 C0.366668573,98.3786595 2.78747542,95.9267676 5.78378382,95.8732541 C7.39635668,95.7214703 7.39635668,94.1724973 7.39635668,93.6626595 L7.39635668,13.9177946 C7.39635668,13.4108757 7.39635668,11.8755243 5.75067544,11.708173 C2.76994746,11.636173 0.366668573,9.19206486 0.366668573,6.19628108 C0.366668573,3.15574054 2.84200687,0.682443243 5.88408273,0.682443243 C7.15193893,0.682443243 9.36338397,0.800172973 11.7033674,0.925686486 C14.2527127,1.06092973 17.140932,1.21465946 18.8684104,1.21465946 C20.8033031,1.21465946 31.1136421,1.03174054 39.3995011,0.885794595 C45.7855234,0.770983784 50.8296824,0.682443243 51.5931227,0.682443243 C54.6351986,0.682443243 57.1105369,3.15574054 57.1105369,6.19628108 C57.1105369,7.71509189 56.4941368,9.12492973 55.4346686,10.1446054 L55.0860568,10.4540108 C54.855272,10.6408216 54.6079329,10.8120649 54.3450134,10.9628757 C53.3050207,11.7110919 53.221276,12.8767135 53.482248,16.1264432 C53.5163301,16.5506595 53.5504123,16.9777946 53.577678,17.4020108 C53.651685,17.9566054 54.3752004,22.8555243 57.1436453,26.2979027 C58.1729264,27.4644973 58.6637094,28.7556324 58.6637094,30.0876324 C58.6637094,30.9944432 58.4368197,31.8827676 58.009332,32.6767135 L58.009332,33.1719568 L57.0589268,33.9620108 C56.7804269,34.242227 56.4727137,34.4922811 56.1396823,34.7073081 L53.4725102,36.7427676 C52.9252481,37.2117405 51.9417345,37.7585514 50.3330567,37.7585514 C47.8440856,37.7585514 45.8235006,35.9137946 44.6413367,34.0155243 C44.7640325,34.4514162 44.8273279,34.9028757 44.8273279,35.3611459 C44.8273279,36.5724973 44.3803648,37.7459027 43.5701832,38.6673081 C42.7736346,39.7735784 42.415285,42.1816865 42.4444983,44.0673081 C42.441577,44.718227 42.4357343,50.5229838 42.4357343,50.5229838 L42.4464459,54.4810378 C42.3958095,56.0105514 42.7025489,58.7553081 43.5137042,59.8975784 C43.957746,60.4015784 44.2625379,60.9007135 44.474821,61.4329297 C45.6686703,60.0532541 47.3153253,58.9469838 49.241454,58.9469838 C50.1217474,58.9469838 51.0039883,59.1697946 51.8034583,59.5901189 C52.4227798,59.9394162 52.8395559,60.2634162 53.2047218,60.6419027 L58.5293284,64.9959568 C58.8409366,65.2032 59.1291743,65.4396324 59.3920938,65.7042811 L60.3239973,66.4700108 L60.3317875,66.966227 C60.7699867,67.7679568 61.0027191,68.6669838 61.0027191,69.5844973 C61.0027191,70.7724973 60.612235,71.9274162 59.8945622,72.8828757 L59.2197355,74.2100108 L58.7571919,74.2109838 C55.9692716,77.8450378 55.8095723,83.5865514 55.8085985,83.6468757 C55.8095723,93.6217946 59.1243054,97.5759568 59.1574138,97.6158486 L60.1448226,98.7503351 C60.4496144,99.7359568 60.6375532,100.547416 60.6375532,101.385146 C60.6375532,104.425686 58.1622149,106.898984 55.120139,106.898984 C54.3849382,106.898984 51.170504,106.821146 45.9861212,106.695632 Z" id="Fill-14" fill="#F1E3D1"></path>
                            <path d="M53.5471014,5.75610811 C53.6162395,6.75535135 52.5752731,7.40724324 51.8361772,8.08540541 C49.7659297,9.98659459 49.6675783,13.2022703 50.0804593,15.9820541 C50.6510919,19.8204324 50.9373821,24.5276757 52.8109269,27.9262703 C53.3825333,28.9644324 55.008739,29.1201081 54.7847706,30.2837838 C54.491664,31.8084324 52.871301,32.6364324 51.4398504,33.2425946 C51.020153,33.4206486 50.5692948,33.6016216 50.1203841,33.5179459 C49.4757445,33.3972973 49.0609159,32.7804324 48.7376223,32.2102703 C47.0374096,29.2086486 45.7851339,25.9725405 44.1034229,22.9611892 C42.421712,19.9498378 40.2200047,18.0661622 37.1818239,16.4296216 C34.8340503,15.1637838 32.0597628,13.7305946 29.4286203,14.1703784 C28.7576887,14.2822703 28.0370946,14.4895135 27.6466105,15.0460541 C27.3379235,15.4877838 26.3281179,16.0589189 26.301826,16.596973 C25.9347125,24.3389189 26.5404011,32.0905946 26.7741073,39.8374054 C26.9260163,44.8647568 27.2892347,50.1217297 25.2073019,54.7005405 C23.6083619,58.2207568 20.7240377,60.9616216 18.3996347,64.0517838 C16.2436949,66.9201081 14.4422095,70.2311351 11.394291,72.1245405 C11.394291,72.1245405 11.7867226,25.6251892 11.376763,13.9105946 C11.3017822,11.7486486 10.9414852,9.1692973 8.98711697,8.23718919 C8.14382705,7.83437838 7.16615606,7.84508108 6.26930847,7.58432432 C5.37148711,7.32356757 4.4590591,6.59578378 4.54085628,5.66562162 C4.75703452,3.19427027 9.06112393,5.34648649 10.4682301,5.46032432 C13.662215,5.71913514 16.8659376,5.84075676 20.0696603,5.87578378 C26.5686406,5.94583784 33.0646995,5.65589189 39.5578371,5.41751351 C43.2172868,5.28324324 46.8777104,5.16356757 50.5391077,5.13340541 C51.7972262,5.1227027 53.4614092,4.50194595 53.5471014,5.75610811 Z" id="Fill-9" fill="#E5863A"></path>
                            <path d="M25.4739217,47.4912 C25.4739217,58.5733622 12.2675732,68.4461189 12.2675732,68.4461189 L12.2675732,14.2096865 C12.2675732,9.20471351 8.49808672,7.23833514 5.96432187,7.13714595 C5.52904405,7.1352 5.23788506,6.84428108 5.23788506,6.4872 C5.23788506,6.12914595 5.52904405,5.83822703 5.88739357,5.83822703 C7.0247638,5.83822703 9.1729134,5.95303784 11.4476539,6.07368649 C14.1839641,6.21963243 17.0137568,6.37044324 18.8707474,6.37044324 C20.84946,6.37044324 30.751787,6.19530811 39.4885042,6.04060541 C45.5989479,5.93163243 50.8758394,5.83822703 51.5954598,5.83822703 C51.9538093,5.83822703 52.2449683,6.12914595 52.2449683,6.4872 C52.2449683,6.77422703 52.0560558,6.97076757 51.8788286,7.05930811 L51.1163621,7.44168649 L51.0550142,7.65184865 C48.0937617,10.1270919 48.3907634,13.8127135 48.6322598,16.8084973 C48.6663419,17.2336865 48.7004241,17.6588757 48.726716,18.0830919 C48.7656671,18.4528216 49.5291074,24.9678486 53.4407651,29.7461189 L53.6277301,29.9562811 C53.7406881,30.0847135 53.7981409,30.2267676 53.7981409,30.3785514 C53.7981409,30.5303351 53.7406881,30.6723892 53.6287038,30.7988757 C53.5605395,30.8708757 53.5206147,30.9010378 53.4738735,30.9292541 L50.5096997,33.1758486 C50.4697749,33.1807135 50.4123221,33.1846054 50.3363676,33.1846054 C50.0578677,33.1846054 49.1931547,32.5288216 48.6157056,31.4575784 C47.9389314,30.2043892 47.2787113,28.7381189 46.580514,27.186227 C44.4606039,22.4770378 42.2686344,17.6073081 38.4738298,15.7284973 C38.2031201,15.6068757 33.5504189,13.5616865 29.417714,13.5305514 C29.3553924,13.5266595 29.2784641,13.5237405 29.1888767,13.5237405 C27.6892618,13.5237405 25.8205859,14.4840649 25.4885283,17.1937946 L25.4739217,47.4912 Z M52.8915555,83.8988757 C52.8915555,83.8988757 52.9947757,76.2016865 57.2881536,71.7396324 C57.4283773,71.5839568 57.4283773,71.5829838 57.4293511,71.5820108 C57.8324943,71.1247135 58.0847023,70.532173 58.0847023,69.8754162 C58.0847023,69.2186595 57.8324943,68.6251459 57.4293511,68.1678486 C57.2336222,67.9499027 57.0359457,67.7883892 56.8148985,67.6560649 L51.2001068,63.0616865 C51.0063254,62.8379027 50.7774881,62.6510919 50.5184637,62.504173 C50.1377173,62.2891459 49.7082821,62.1577946 49.2447648,62.1577946 C47.8103929,62.1577946 46.4510018,63.7164973 45.8092835,64.9074162 C43.1430851,69.8510919 41.9414457,74.3559568 39.9481265,82.7819027 C39.9481265,82.7819027 37.4942112,92.6867676 29.9776352,92.6867676 C29.9776352,92.6867676 27.7418457,92.6974703 27.4214735,90.6114162 L27.4214735,68.4626595 L27.4984018,67.2980108 L27.4214735,55.0706595 C30.6544094,56.9144432 31.7752255,61.3667676 33.8581321,65.2294703 C34.3761808,66.1907676 35.1561753,67.400173 36.2321977,67.8263351 C37.3140627,68.2544432 37.9518859,67.7387676 37.9518859,67.7387676 L40.8848989,65.3491459 C41.0640736,65.2284973 41.2227991,65.1127135 41.3610753,64.9599568 C41.7057919,64.5668757 41.9093111,64.0891459 41.9093111,63.5588757 C41.9093111,63.0295784 41.7057919,62.5508757 41.3805508,62.1821189 C39.3482805,59.5920649 39.5294028,54.6639568 39.5294028,54.6639568 L39.5177175,50.8109838 C39.5186913,49.4488216 39.5225864,45.1132541 39.5264815,44.4039568 C39.5138224,43.6100108 39.5323241,39.3824432 41.266619,37.1562811 C41.7057919,36.6600649 41.9093111,36.1813622 41.9093111,35.6520649 C41.9093111,35.1217946 41.7057919,34.6440649 41.3805508,34.2753081 C41.2227991,34.098227 41.0640736,33.9824432 40.8848989,33.8617946 L37.9518859,31.472173 C37.9518859,31.472173 37.3140627,30.9564973 36.2321977,31.3846054 C35.1561753,31.8107676 34.3761808,33.020173 33.8581321,33.9814703 C31.7752255,37.844173 30.6544094,42.2964973 27.4214735,44.1402811 L27.4214735,17.430227 C27.6902356,15.2439568 29.3232578,15.4764973 29.3232578,15.4764973 C33.1141673,15.4764973 37.6091168,17.4720649 37.6091168,17.4720649 C41.926839,19.6106595 44.2346879,27.438227 46.9008863,32.3809297 C47.5435783,33.5718486 48.9019957,35.1305514 50.3363676,35.1305514 C51.2994319,35.1305514 51.6061713,34.7870919 51.6061713,34.7870919 L54.4758889,32.5979027 C54.696936,32.4655784 54.8946125,32.3040649 55.0659971,32.1153081 C55.4934847,31.6288216 55.7456926,31.0353081 55.7456926,30.3785514 C55.7456926,29.7217946 55.4934847,29.1292541 55.0903415,28.6719568 C55.0426264,28.6174703 54.9988065,28.5629838 54.9491439,28.5143351 C51.3559109,24.1252541 50.6703727,17.9634162 50.6703727,17.9634162 C50.4571158,14.4908757 49.7053608,10.8937946 52.750358,8.80871351 C53.6024119,8.37282162 54.1925201,7.50298378 54.1925201,6.4872 C54.1925201,5.05401081 53.0298317,3.89228108 51.5954598,3.89228108 C49.8377943,3.89228108 22.2468284,4.4244973 18.8707474,4.4244973 C15.4946664,4.4244973 8.44258149,3.89228108 5.88739357,3.89228108 C4.45302169,3.89228108 3.29033329,5.05401081 3.29033329,6.4872 C3.29033329,7.91941622 4.45302169,9.08114595 5.88739357,9.08114595 C5.88739357,9.08114595 10.3200214,9.25822703 10.3200214,14.2087135 L10.3200214,91.7546595 L10.3200214,93.9535784 C10.3200214,98.9050378 5.88739357,99.0811459 5.88739357,99.0811459 C4.45302169,99.0811459 3.29033329,100.242876 3.29033329,101.676065 C3.29033329,103.109254 4.45302169,104.270984 5.88739357,104.270984 C8.44258149,104.270984 27.1293407,103.737795 30.5054217,103.737795 C33.8815027,103.737795 53.3648106,104.270984 55.1224761,104.270984 C56.5568479,104.270984 57.7195363,103.109254 57.7195363,101.676065 C57.7195363,100.976497 57.4390889,100.344065 56.9882306,99.8770378 C56.7145996,99.5501189 52.8915555,95.0647135 52.8915555,83.8988757 Z" id="Fill-9" fill="#780922"></path>
                        </g>
                        <g id="B" transform="translate(120.137681, 1.018868)">
                            <path d="M30.6364138,47.5583645 L40.3089297,37.4491753 L40.4072811,37.3625807 C41.0908717,36.7661483 41.7452491,33.9056078 41.7530393,31.4760942 L41.7530393,20.1302564 C41.7530393,18.4051753 41.1950657,18.0529591 40.3585923,18.0529591 L40.1677322,18.0772834 L40.1833126,18.057824 L31.5585796,18.057824 C31.1125902,18.057824 30.7854015,18.057824 30.6364138,19.1027969 L30.6364138,47.5583645 Z M30.6364138,86.7604186 C30.7815064,87.8355537 31.1116165,87.8355537 31.5624747,87.8355537 L40.3040608,87.8355537 L40.4209139,87.8443105 C41.1989608,87.8394456 41.7569344,87.4872294 41.7569344,85.7631213 L41.7569344,61.5059321 L30.6364138,71.6569591 L30.6364138,86.7604186 Z M43.9547466,105.675986 C38.9495386,105.53004 32.7202942,105.348094 30.8019557,105.348094 C29.0326049,105.348094 22.7098781,105.50377 17.1320899,105.639986 C11.9145987,105.768419 7.40893766,105.879337 6.18490137,105.879337 C3.14185174,105.879337 0.666513439,103.40604 0.666513439,100.3655 C0.666513439,97.4271213 2.98020494,95.0180402 5.88303085,94.8613915 C6.39815829,94.6025807 7.65140786,92.9494996 7.69230644,88.0924186 L7.69230644,18.2397699 C7.72054594,13.5422564 6.67471064,11.8424726 6.22385241,11.3287429 C6.06902204,11.1526348 5.94632628,11.0689591 5.88010952,11.0329591 C2.99189025,10.890905 0.662618335,8.47501316 0.662618335,5.52593208 C0.662618335,2.48636451 3.13795663,0.0130672106 6.18100627,0.0130672106 C7.40601633,0.0130672106 11.9116773,0.12398613 17.1281948,0.252418562 C22.705983,0.389607751 29.0287098,0.545283427 30.7990344,0.545283427 C32.7163991,0.545283427 38.9466172,0.362364508 43.9518253,0.216418562 C48.2598098,0.0899320755 50.9386672,0.0130672106 51.6797107,0.0130672106 C58.3208622,0.0130672106 63.440002,3.37760775 66.0935413,9.48593208 C67.989483,13.8497159 68.010906,18.1833375 68.010906,18.3652834 L68.010906,31.4809591 C68.010906,32.1143645 67.8132295,37.8480942 60.9666113,43.9700402 L60.5956027,44.3096078 L60.9257127,44.6112294 C68.7616872,50.9413915 68.988577,56.5243105 68.988577,57.1421483 L68.988577,87.5271213 C68.988577,87.7119861 68.9652064,92.0825807 66.9173557,96.4755537 C64.9191676,100.766365 60.6530555,105.879337 51.6836058,105.879337 C50.9415886,105.879337 48.2637049,105.802473 43.9547466,105.675986 Z" id="Fill-33" fill="#F1E3D1"></path>
                            <path d="M52.0911399,4.09821387 C55.5061719,4.62167333 58.9348368,6.24556522 60.7480075,9.18491658 C61.9194599,11.0851328 63.2915101,13.3492409 63.596302,15.5598355 C63.878697,17.6059977 64.0997441,19.6599436 64.2584696,21.7187544 C64.4386181,24.0402679 64.1026683,27.8434023 63.5963049,30.1162672 C62.4453018,35.2769159 57.8529718,37.7825382 53.9043106,41.3017814 C44.3992842,49.7734571 34.3713402,57.6594031 23.8954592,64.898322 C24.4583017,63.1158355 23.5030275,61.0667544 24.2499136,59.352376 C24.5430202,58.6810247 25.0678854,58.1429706 25.5810652,57.6214571 C30.3584097,52.764376 35.1357542,47.907295 39.9130987,43.0502139 C41.5733866,41.3630787 43.2774944,39.6068625 44.1081252,37.392376 C44.7625026,35.6458895 44.8228767,33.7427544 44.8764344,31.8795112 C44.9786809,28.3262139 45.0809273,24.7729166 45.1831738,21.2196193 C45.2211511,19.898322 45.2416003,18.5040517 44.5950132,17.3510787 C43.4634856,15.3350787 40.8109201,14.8505382 38.5011237,14.7211328 C35.5437663,14.5547544 32.5747236,14.6131328 29.6261303,14.895295 C29.0048613,14.9556193 28.3319821,15.0480517 27.8898879,15.4897814 C27.5432237,15.8371328 27.4059213,16.3362679 27.2880944,16.8130247 C26.0806123,21.7070787 25.5362716,26.7645923 25.6755215,31.8026463 C25.786532,35.8336733 26.3318465,39.8491328 26.3075021,43.8811328 C26.2821839,47.9141058 25.6424131,52.0560517 23.5721656,55.5178895 C22.5419107,57.2400517 21.1883622,58.743295 19.8065743,60.1988625 C17.070264,63.0798355 14.1839923,65.8177814 11.1643133,68.4000517 C10.6151037,66.3821058 11.1623657,16.9881598 10.7037173,14.2210247 C10.5118834,13.0690247 10.2002752,11.9277274 9.66567219,10.8885923 C8.82822493,9.26080847 7.43085654,7.91615982 5.74719803,7.19518685 C5.27491673,6.99378144 4.76952705,6.83226793 4.38293802,6.49464631 C3.99537522,6.15799766 3.75972146,5.57421387 4.00121787,5.12080847 C6.59925193,4.59734901 9.23136815,4.2412409 11.8751697,4.05540306 C13.985342,3.90751117 16.2522923,4.19161928 18.3760975,4.28210577 C20.9994497,4.39399766 23.6228019,4.49421387 26.2481017,4.55356522 C31.4159303,4.67129495 36.5934967,4.6372409 41.7506138,4.24902468 C45.1968067,3.9892409 48.6751341,3.57378144 52.0911399,4.09821387 Z" id="Fill-7" fill="#E5863A"></path>
                            <path d="M27.7182023,55.1265375 L27.7182023,19.2082672 C27.8837442,17.7848078 28.6023908,15.4292402 31.5607219,15.4292402 L40.1864287,15.4292402 C40.1864287,15.4292402 44.6774831,15.0682672 44.6774831,20.4205915 L44.6774831,31.7712942 C44.6774831,31.7712942 44.6774831,37.8066456 42.3326307,39.8518348 L27.7182023,55.1265375 Z M27.1475696,62.379078 L27.3140853,58.3655645 L43.3911251,41.5613483 C46.4828635,38.7154023 46.6250348,32.9164834 46.6250348,31.7712942 L46.6250348,20.4205915 C46.6250348,15.6248078 43.4797387,13.4784294 40.3617083,13.4784294 C40.263357,13.4784294 40.1844811,13.4803753 40.1289759,13.4832942 L31.5607219,13.4832942 C28.3443402,13.4832942 26.1835315,15.5401591 25.7833096,18.9835105 L25.7706505,46.9409159 C25.7706505,55.2111861 12.5633282,66.4003753 12.5633282,66.4003753 L12.5633282,18.531078 C12.6344138,6.87291586 6.86284415,6.47302397 6.20457165,6.46524018 C5.82577283,6.46524018 5.53461384,6.17529424 5.53461384,5.81724018 C5.53461384,5.45918613 5.82577283,5.16826721 6.18314858,5.16826721 C7.34875831,5.16826721 12.0423581,5.28405099 17.0115364,5.40664559 C22.8911952,5.55064559 28.9724256,5.70048343 30.8011767,5.70048343 C32.7906008,5.70048343 38.7968505,5.52534829 44.0971126,5.36967262 C47.6338666,5.26653748 50.9748917,5.16826721 51.6828268,5.16826721 C62.9601253,5.16826721 63.1431952,18.1097807 63.1451427,18.6604834 L63.1451427,27.4902132 C63.1412476,27.6332402 62.9708368,31.6632942 57.7231586,36.3549699 L27.1475696,62.379078 Z M44.6813782,86.0534564 C44.6813782,91.4057807 40.18935,91.0448078 40.18935,91.0448078 L31.564617,91.0448078 C28.5780464,91.0448078 27.8749802,88.6474023 27.7182023,87.2278348 L27.7182023,70.661024 L44.5440758,55.3016726 C44.6794306,56.5266456 44.6813782,57.4324834 44.6813782,57.4324834 L44.6813782,86.0534564 Z M56.2673636,44.5999429 L59.0212018,42.0867537 C65.0926945,36.6575645 65.0926945,31.7712942 65.0926945,31.7712942 L65.0926945,18.6556186 C65.0926945,18.6556186 65.0926945,3.22232126 51.6828268,3.22232126 C49.9251613,3.22232126 34.1772577,3.75453748 30.8011767,3.75453748 C27.4250957,3.75453748 8.73931027,3.22232126 6.18314858,3.22232126 C4.74975048,3.22232126 3.58706207,4.38405099 3.58706207,5.81724018 C3.58706207,7.25042937 4.74975048,8.4121591 6.18314858,8.4121591 C6.18314858,8.4121591 10.6771243,8.46080775 10.6167502,18.531078 L10.6167502,88.408051 C10.5359268,98.0074023 6.18704368,98.0628618 6.18704368,98.0628618 C4.75364558,98.0628618 3.59095717,99.2245915 3.59095717,100.656808 C3.59095717,102.089997 4.75364558,103.251727 6.18704368,103.251727 C8.74320538,103.251727 27.4289908,102.71951 30.8050718,102.71951 C34.1811528,102.71951 49.9290564,103.251727 51.6867219,103.251727 C66.0703655,103.251727 66.0703655,87.8184294 66.0703655,87.8184294 L66.0703655,57.4324834 C66.0703655,57.4324834 66.0703655,52.7787537 59.0250969,47.1179969 L56.2673636,44.5999429 Z" id="Fill-19" fill="#780922"></path>
                        </g>
                        <g id="A" transform="translate(58.032609, 0.000000)">
                            <path d="M33.3615117,62.4525081 L33.8746915,61.7938054 L33.0567198,56.8442919 L32.321519,61.2878595 L33.3615117,62.4525081 Z M26.7213339,95.1531568 C26.7972884,95.3244 27.1225296,95.8721838 28.1342827,95.8721838 C30.2785372,95.8721838 32.1413705,97.1000757 33.0537985,98.889373 C33.9672003,97.1000757 35.8300335,95.8721838 37.974288,95.8721838 C38.9870149,95.8721838 39.3122561,95.3224541 39.3891844,95.1512108 L36.874895,79.9397514 L35.5778256,81.5704541 L35.1571544,81.5704541 C34.6391056,81.8389946 34.0577614,81.9859135 33.4608368,81.9859135 C32.8590433,81.9859135 32.2835418,81.8438595 31.7693881,81.5801838 L31.4441469,81.5801838 L30.8150877,80.8767243 C30.7332905,80.7940216 30.6553885,80.7064541 30.5813815,80.6149946 L29.3563714,79.2178054 L26.7213339,95.1531568 Z M54.8770898,106.642022 C52.842872,106.506778 50.7395161,106.36667 49.080202,106.36667 C47.2115261,106.36667 44.3710218,106.545697 42.0884911,106.69067 C40.2538974,106.806454 38.8029713,106.898886 37.974288,106.898886 C35.8300335,106.898886 33.9672003,105.670022 33.0537985,103.879751 C32.1413705,105.670022 30.2785372,106.898886 28.1342827,106.898886 C27.3046257,106.898886 25.8546734,106.806454 24.0191058,106.69067 C21.7365751,106.545697 18.8970447,106.36667 17.0283687,106.36667 C15.3680809,106.36667 13.264725,106.506778 11.2305071,106.642022 C9.25666342,106.774346 7.39285637,106.898886 5.92245479,106.898886 C2.87940515,106.898886 0.404066854,104.425589 0.404066854,101.385049 C0.404066854,98.3785622 2.8248737,95.9266703 5.8211821,95.8731568 C6.40057875,95.8167243 7.19225854,95.5014811 7.38214484,94.3465622 L20.7267696,13.6608324 C20.7014514,13.0332649 20.516434,11.8549946 19.086931,11.7080757 C16.106203,11.6351027 13.7038979,9.19099459 13.7038979,6.19618378 C13.7038979,3.15564324 16.1792362,0.682345946 19.2222858,0.682345946 C20.4833256,0.682345946 22.8758929,0.800075676 25.408684,0.924616216 C28.1771288,1.05985946 31.3156085,1.21553514 33.0489296,1.21553514 C34.9400024,1.21553514 38.7289643,1.03358919 41.772014,0.888616216 C44.1733453,0.772832432 46.0692869,0.682345946 46.8755734,0.682345946 C49.918623,0.682345946 52.3939613,3.15564324 52.3939613,6.19618378 C52.3939613,9.23672432 49.918623,11.7100216 46.8755734,11.7100216 C45.8200003,11.7100216 45.4752837,12.7131568 45.3856963,13.6608324 L58.7371374,94.3961838 C58.965001,95.7077514 60.0478398,95.8556432 60.2757033,95.8731568 C63.2768806,95.9198595 65.7035301,98.3746703 65.7035301,101.385049 C65.7035301,104.425589 63.2281918,106.898886 60.1851422,106.898886 C58.7157144,106.898886 56.8509335,106.774346 54.8770898,106.642022 Z" id="Fill-19" fill="#F1E3D1"></path>
                            <path d="M18.3272884,7.96602162 C20.201807,7.93099459 22.4015667,8.05553514 23.4493496,9.6084 C23.8632043,10.2223459 24.0190084,9.99758919 24.1309927,10.7292649 C25.1378769,17.2764 23.3704737,23.8848324 22.0120563,30.3677514 C20.6215044,37.0044 17.0847504,58.0673189 16.968871,58.9381297 C16.5569638,62.0166162 16.1460304,65.0941297 15.735097,68.1726162 C17.3885684,68.4839676 18.9183704,67.2745622 20.0878752,66.0651568 C22.0130301,64.0734811 23.7005837,61.8531568 25.1037948,59.4654811 C25.7104572,61.7169405 24.8574295,64.1756432 25.5030429,66.4164 C26.1905287,68.7982378 28.383472,70.3802919 30.4361915,71.7735892 C31.4839744,72.4848324 32.1894744,75.1361862 33.2362834,75.8474295 C33.5177047,76.0381322 34.1589367,75.2685081 34.4978107,75.2918595 C34.8853735,75.3191027 35.2505395,74.1398595 35.5572789,73.9014811 C36.8971945,72.8633189 37.5710474,71.1489405 37.7171138,69.4608324 C37.8631802,67.7736973 37.5437817,66.0846162 37.2263308,64.4208324 C35.8640183,65.2916432 34.6886708,66.453373 33.8025348,67.8048324 C31.7147593,65.7956432 29.8305029,63.5743459 28.1896906,61.1856973 C27.9111907,60.7809405 27.6346383,60.3596432 27.527523,59.8799676 C27.4067747,59.3370486 27.5138901,58.7727243 27.6210054,58.2278595 C29.2637654,49.8583459 30.9065253,41.4878595 32.5492852,33.1183459 C34.509496,39.2792108 36.1727053,45.5616973 36.9439358,51.9804 C37.6703726,58.0303459 37.6528446,64.3712108 40.3609153,69.8305622 C40.7513995,70.6196432 41.3366388,71.4748865 42.2159584,71.5352108 C42.6385771,71.563427 43.0504843,71.3941297 43.4205192,71.1888324 C46.5093363,69.4744541 47.440266,65.5183459 47.7859565,62.0049405 C48.5951642,53.7862378 47.9105998,45.4235351 45.7751093,37.4461297 C45.0214067,34.6332649 44.0856081,31.8466703 43.8129508,28.9481838 C43.5714544,26.3805081 43.855797,23.7748865 43.4721293,21.2247243 C43.1079371,18.8068865 42.1477941,16.4844 42.0348361,14.0412649 C41.9209043,11.5991027 42.9832938,8.82029189 45.3047755,8.04775135 C46.4927821,7.65175135 48.0907483,7.66050811 48.5669247,6.50267027 C48.9272218,5.62504865 48.2777133,5.56861622 47.4139741,5.17261622 C46.5512086,4.77758919 45.5560097,4.84667027 44.6094995,4.92742703 C36.8504533,5.59391351 28.648339,6.83542703 20.9954343,5.02667027 C19.2611395,4.61704865 17.2648989,5.12494054 18.3272884,6.99304865" id="Fill-4" fill="#E5863A"></path>
                            <path d="M33.5172184,67.2976216 L29.2150766,62.4794595 L33.0595438,39.2312432 L36.9682802,62.8705946 L33.5172184,67.2976216 Z M33.4198408,74.1084324 L28.2276678,68.7619459 L28.8635435,65.0101622 L33.6184911,70.3342703 L36.68199,66.4044324 L36.794948,70.3926486 L33.4198408,74.1084324 Z M55.8575848,95.1635676 L42.4506384,14.0925405 C42.4856943,13.3608649 42.860598,9.08172973 46.8793711,9.08172973 C48.3127692,9.08172973 49.4754576,7.92 49.4754576,6.48681081 C49.4754576,5.05362162 48.3127692,3.89189189 46.8793711,3.89189189 C45.1207319,3.89189189 36.4288083,4.42410811 33.0527273,4.42410811 C29.6756726,4.42410811 21.7812715,3.89189189 19.2251098,3.89189189 C17.7917117,3.89189189 16.6290233,5.05362162 16.6290233,6.48681081 C16.6290233,7.92 17.7917117,9.08172973 19.2251098,9.08172973 C19.2251098,9.08172973 23.6275505,9.25978378 23.65579,14.1635676 L10.269293,95.111027 C9.63925996,98.9338378 5.92527874,99.0817297 5.92527874,99.0817297 C4.49090686,99.0817297 3.32919223,100.243459 3.32919223,101.675676 C3.32919223,103.108865 4.49090686,104.270595 5.92527874,104.270595 C8.78817984,104.270595 13.6551117,103.739351 17.0311927,103.739351 C20.4072737,103.739351 26.3784674,104.270595 28.1371067,104.270595 C29.5714785,104.270595 30.7341669,103.108865 30.7341669,101.675676 C30.7341669,100.243459 29.5714785,99.0817297 28.1371067,99.0817297 C25.0950308,99.0817297 23.577888,96.66 23.8115942,95.1509189 L27.4846768,72.9389189 L32.7547519,78.9528649 C32.9154249,79.1912432 33.1647115,79.3585946 33.4636607,79.3585946 C33.7655313,79.3585946 34.018713,79.1863784 34.1608843,78.9431351 L38.6860208,73.259027 L42.3016507,95.1188108 C42.5597013,96.624973 41.0406109,99.0817297 37.977112,99.0817297 C36.5427401,99.0817297 35.3800517,100.243459 35.3800517,101.675676 C35.3800517,103.108865 36.5427401,104.270595 37.977112,104.270595 C39.7347774,104.270595 45.7069449,103.739351 49.0830259,103.739351 C52.4591069,103.739351 57.3260388,104.270595 60.1889399,104.270595 C61.622338,104.270595 62.7850264,103.108865 62.7850264,101.675676 C62.7850264,100.243459 61.622338,99.0817297 60.1889399,99.0817297 C60.1889399,99.0817297 56.5129359,98.9318919 55.8575848,95.1635676 Z M31.5579813,17.7265946 L26.1691056,53.5358919 C25.0502371,59.868973 16.8408528,68.2326486 16.8408528,68.2326486 C16.8408528,68.2326505 25.6043156,14.3182703 25.6043156,14.3182703 C25.5741285,9.19167568 21.8202225,7.23891892 19.3039856,7.13675676 C18.867734,7.13578378 18.576575,6.84486486 18.576575,6.48681081 C18.576575,6.12875676 18.867734,5.83783784 19.2251098,5.83783784 C20.3663751,5.83783784 22.7005159,5.95264865 25.1709853,6.07427027 C28.1341853,6.22021622 31.198658,6.37005405 33.0527273,6.37005405 C35.0596794,6.37005405 38.7512638,6.19394595 42.0085441,6.03827027 C44.1576675,5.93513514 46.188964,5.83783784 46.8793711,5.83783784 C47.2367469,5.83783784 47.5279058,6.12875676 47.5279058,6.48681081 C47.5279058,6.84486486 47.2367469,7.13578378 46.8793711,7.13578378 C42.7018726,7.13578378 40.6676547,10.583027 40.5060079,14.0001081 L40.4962702,14.2063784 L46.4460408,49.8103784 C47.9807116,57.347027 39.8915554,68.2326486 39.8915554,68.2326486 L31.5579813,17.7265946 Z" id="Fill-12" fill="#780922"></path>
                        </g>
                        <g id="L">
                            <path d="M46.5769641,106.695243 C40.5356585,106.549297 33.0171349,106.366378 31.09198,106.366378 C29.3226292,106.366378 22.9999024,106.522054 17.4221141,106.659243 C12.2046229,106.787676 7.69896189,106.898595 6.47395182,106.898595 C3.43187596,106.898595 0.956537664,104.425297 0.956537664,101.384757 C0.956537664,98.3782703 3.37734451,95.9273514 6.37365291,95.8728649 C7.98622577,95.7220541 7.98622577,94.1730811 7.98622577,93.6622703 L7.98622577,13.9183784 C7.98622577,13.4104865 7.98622577,11.8761081 6.34054453,11.7077838 C3.35981655,11.6367568 0.956537664,9.19167568 0.956537664,6.19589189 C0.956537664,3.15535135 3.43187596,0.682054054 6.47395182,0.682054054 C7.74180803,0.682054054 9.95325306,0.799783784 12.2942103,0.925297297 C14.8425818,1.06151351 17.730801,1.21524324 19.4582795,1.21524324 C21.3435096,1.21524324 24.8383912,1.0332973 27.6467609,0.888324324 C29.8718388,0.773513514 31.6295042,0.682054054 32.4416333,0.682054054 C35.484683,0.682054054 37.9600213,3.15535135 37.9600213,6.19589189 C37.9600213,9.23643243 35.484683,11.7097297 32.4416333,11.7097297 C31.0199205,11.7097297 30.9332545,13.5681081 30.9303332,13.9407568 L30.9303332,65.8109189 L30.9303332,68.2667027 L30.9303332,89.4463784 C35.7514976,89.1097297 37.6815214,81.864 37.7000231,81.7890811 C39.7595591,73.08 41.0381268,68.3980541 43.8240996,63.2315676 C44.9419944,61.1601081 47.1066981,58.9475676 49.8313231,58.9475676 C50.7116165,58.9475676 51.5938574,59.1694054 52.3933274,59.5907027 C53.0126489,59.939027 53.4303987,60.263027 53.7955647,60.6415135 L59.1191975,64.9965405 C59.4308057,65.2028108 59.7200172,65.4402162 59.9819629,65.7038919 L60.9138664,66.4696216 L60.9226304,66.9658378 C61.3598558,67.7675676 61.593562,68.6665946 61.593562,69.5841081 C61.593562,70.7721081 61.2021041,71.928 60.4844312,72.8824865 L59.8096046,74.2096216 L59.347061,74.2105946 C56.5591407,77.8456216 56.3994414,83.5861622 56.3994414,83.6474595 C56.3994414,93.6214054 59.7141745,97.5765405 59.7472829,97.6154595 L60.7356654,98.7499459 C61.0404573,99.7365405 61.228396,100.548 61.228396,101.384757 C61.228396,104.425297 58.7530577,106.898595 55.7100081,106.898595 C54.9748073,106.898595 51.7603731,106.82173 46.5769641,106.695243 Z" id="Fill-1" fill="#F1E3D1"></path>
                            <path d="M6.04831438,4.45475676 C5.48547192,4.73302703 4.79389606,4.1867026 5.25176571,5.98524324 C5.70963536,7.78378389 5.90731187,7.56972983 6.68341125,7.78378389 C9.17919884,8.47362172 11.3690258,10.3354054 11.8559138,12.8758378 C12.3437755,15.4172432 11.9445274,18.0306486 11.7449033,20.61 C11.4956167,23.8422162 11.563781,27.089027 11.6319453,30.330973 C11.7585362,36.3838378 12.0039277,59.453027 12.0565116,60.1963784 C12.3603297,64.5329189 12.6641477,68.8684865 12.9679658,73.205027 C18.8106211,65.8201622 24.8236872,58.0840541 26.8023998,48.8807027 C27.722618,44.6005946 27.722618,40.1803784 27.6077125,35.8039459 C27.4285377,28.9367027 26.979627,22.0636216 27.318501,15.2012432 C27.3973769,13.6240541 27.5249415,12.0137838 28.153027,10.5640541 C28.7820862,9.11432432 30.0041749,7.83389189 31.5573474,7.53810811 C32.3529223,7.38632432 33.2877472,7.45248649 33.8340355,6.85410811 C34.4962031,6.12924324 34.0453448,4.86632432 33.2049762,4.35745946 C32.3646077,3.84859459 31.0355986,4.82205406 30.0540325,4.86486487 C26.0693416,4.86486487 22.3514652,4.70237838 18.3687219,4.86486487 C14.9127912,5.00691893 11.3612356,4.25335135 7.89361969,4.19302703 C7.26553424,4.18232432 6.61115685,4.17745946 6.04831438,4.45475676 Z" id="Fill-1" fill="#E5863A"></path>
                            <path d="M26.0642777,43.197373 C26.0642777,57.1673189 12.8569554,71.4174811 12.8569554,71.4174811 L12.8569554,14.2095892 C12.8569554,9.20461622 9.0884427,7.23823784 6.55467784,7.13704865 C6.11940002,7.1351027 5.82824103,6.84418378 5.82824103,6.4871027 C5.82824103,6.12904865 6.11940002,5.83812973 6.47677577,5.83812973 C7.61414601,5.83812973 9.76326938,5.95294054 12.0380098,6.07358919 C14.7743201,6.21953514 17.6041128,6.37034595 19.4611034,6.37034595 C21.4729244,6.37034595 24.8879564,6.19326486 27.9017928,6.03758919 C29.8853743,5.93542703 31.7579453,5.83812973 32.4444573,5.83812973 C32.8028068,5.83812973 33.0939658,6.12904865 33.0939658,6.4871027 C33.0939658,6.84418378 32.8028068,7.1351027 32.4444573,7.1351027 C27.8034414,7.1351027 26.0857008,11.3568324 26.0642777,14.1949946 L26.0642777,43.197373 Z M53.4809377,83.8987784 C53.4809377,83.8987784 53.5851317,76.2015892 57.8775358,71.7395351 C58.0187333,71.5838595 58.0187333,71.5828865 58.0197071,71.5819135 C58.4218765,71.1246162 58.6750583,70.5320757 58.6750583,69.8753189 C58.6750583,69.2185622 58.4218765,68.6250486 58.0197071,68.1677514 C57.8239782,67.9498054 57.6253279,67.7882919 57.4052545,67.6559676 L51.789489,63.0615892 C51.5957076,62.8387784 51.3668703,62.6509946 51.1078459,62.5040757 C50.7270995,62.2890486 50.2986381,62.1576973 49.834147,62.1576973 C48.4007489,62.1576973 47.0413578,63.7164 46.3986657,64.9073189 C43.7334411,69.8509946 42.5308279,74.3558595 40.5384824,82.7818054 C40.5384824,82.7818054 38.0845672,92.6866703 30.5679912,92.6866703 C30.5679912,92.6866703 28.3322017,92.697373 28.0118295,90.6113189 L28.0118295,68.4625622 L28.087784,67.2979135 L28.0118295,14.2095892 C28.0118295,14.2095892 28.0517543,9.08104865 32.4444573,9.08104865 C33.8788292,9.08104865 35.0415176,7.91931892 35.0415176,6.4871027 C35.0415176,5.05391351 33.8788292,3.89218378 32.4444573,3.89218378 C30.6867918,3.89218378 22.8371844,4.4244 19.4611034,4.4244 C16.0850224,4.4244 9.03293747,3.89218378 6.47677577,3.89218378 C5.04337767,3.89218378 3.88068927,5.05391351 3.88068927,6.4871027 C3.88068927,7.91931892 5.04337767,9.08104865 6.47677577,9.08104865 C6.47677577,9.08104865 10.9103774,9.25812973 10.9103774,14.2095892 L10.9103774,91.7545622 L10.9103774,93.9534811 C10.9103774,98.9049405 6.47677577,99.0810486 6.47677577,99.0810486 C5.04337767,99.0810486 3.88068927,100.242778 3.88068927,101.675968 C3.88068927,103.109157 5.04337767,104.270886 6.47677577,104.270886 C9.03293747,104.270886 27.7187229,103.737697 31.0948039,103.737697 C34.4708849,103.737697 53.9541928,104.270886 55.712832,104.270886 C57.1472039,104.270886 58.3098923,103.109157 58.3098923,101.675968 C58.3098923,100.9764 58.0294449,100.343968 57.5785866,99.8769405 C57.3039818,99.5500216 53.4809377,95.0646162 53.4809377,83.8987784 Z" id="Fill-1" fill="#780922"></path>
                        </g>
                    </g>
                </g>
            </g>
        </g>
    </g>
</svg>