<?xml version="1.0" encoding="UTF-8" standalone="no"?>
<svg width="429px" height="114px" viewBox="0 0 429 114" version="1.1" xmlns="http://www.w3.org/2000/svg" xmlns:xlink="http://www.w3.org/1999/xlink">
    <!-- Generator: Sketch 3.8.3 (29802) - http://www.bohemiancoding.com/sketch -->
    <title>Page 1</title>
    <desc>Created with Sketch.</desc>
    <defs></defs>
    <g id="UI-Elements" stroke="none" stroke-width="1" fill="none" fill-rule="evenodd">
        <g id="blog-home" transform="translate(-170.000000, -67.000000)">
            <g id="Page-1" transform="translate(170.000000, 67.000000)">
                <polygon id="Fill-1" fill="#780822" points="69.4930111 86.5531546 67.3096671 86.7963546 67.3096671 105.297219 51.8388675 106.660701 51.8388675 28.9467978 54.9624657 28.6721708 54.9624657 26.4632411 36.6917247 28.070333 36.6861587 30.2796735 39.8755191 29.9990897 39.8755191 107.715252 36.6983216 107.995219 36.6927555 110.20456 69.4930111 107.313479 69.4930111 105.382463 69.4930111 105.382463"></polygon>
                <polygon id="Fill-2" fill="#CBBAA5" points="70.5806014 87.3076703 70.5806014 108.320643 39.62787 110.999541 39.6291069 113.809076 72.7639455 110.866643 72.7639455 108.13167 72.7639455 87.0498865"></polygon>
                <polygon id="Fill-3" fill="#CBBAA5" points="55.1111418 32.6091351 59.5973974 32.2605622 59.5973974 29.3230595 52.9284161 29.9692649 52.9284161 30.4690162 52.9277977 30.4690162 52.9277977 106.564735 55.1111418 106.37227"></polygon>
                <g id="Group-110" transform="translate(0.000000, 0.014378)">
                    <path d="M132.974168,45.3560605 L132.96386,45.3501038 L132.96386,49.8700497 C132.96386,51.7655308 131.397732,52.8658876 129.519285,53.0018659 L126.448667,53.2727957 L126.448667,22.3679092 L126.457944,22.3670876 C127.412423,22.3007416 128.593461,22.2559632 129.533303,22.33792 C131.410719,22.5016281 132.93438,24.1317254 132.974168,25.9963957 L132.974168,45.3560605 Z M132.974168,92.167747 L132.96386,92.1617903 L132.96386,96.6817362 C132.96386,98.5772173 131.397732,99.6777795 129.519285,99.8135524 L126.448667,100.084688 L126.448667,55.4730984 C127.405001,55.406547 128.590369,55.3611524 129.533303,55.4433146 C131.410719,55.6070227 132.93438,57.23712 132.974168,59.1017903 L132.974168,92.167747 Z M144.835884,50.3858227 L144.835884,45.8658768 L144.789912,27.2775092 L144.789912,22.7577686 C144.789912,20.8620822 143.240894,19.0302768 141.345337,19.025347 C139.471837,19.0204173 137.383117,19.1855632 136.748997,19.2397903 L136.557482,19.2566335 C136.55707,19.2568389 136.555627,19.2568389 136.555627,19.2568389 L136.555627,19.2568389 L131.596461,19.6939416 L131.596461,19.6906551 L111.361721,21.4741903 L111.361721,21.4774768 L111.361721,22.4574659 L111.361721,23.6829146 L114.485319,23.4076714 L114.485319,101.140266 L111.361721,101.415715 L111.361721,103.624439 L136.503059,101.408525 L136.503059,101.403596 L141.388422,100.972244 C143.267075,100.836471 144.832998,99.7359092 144.832998,97.8404281 L144.832998,93.3204822 L144.832998,61.7782227 L144.832998,57.2582768 C144.832998,55.3627957 143.290783,53.6918227 141.388422,53.5260605 L141.383062,53.5254443 C143.261509,53.3896714 144.835884,52.2813038 144.835884,50.3858227 L144.835884,50.3858227 Z" id="Fill-4" fill="#780822"></path>
                    <path d="M148.10688,50.3894173 L148.10688,45.8694714 L148.060908,30.9163686 L148.060908,26.3964227 C148.060908,24.5009416 146.750201,22.829147 144.788675,22.66852 C144.788675,22.66852 146.029703,23.1140443 146.029703,25.5702822 L146.029703,50.2774714 C146.029703,52.2822281 145.244062,52.9284335 144.835884,53.1856011 C144.606232,53.3304119 144.37493,53.2936443 144.37493,53.5048011 C144.37493,53.8205092 144.614478,53.7342389 144.835884,53.9225957 C145.2051,54.2364551 146.029703,54.8892335 146.029703,56.8814605 L146.029703,100.354693 C146.029703,100.354693 145.442173,101.805061 143.978296,101.934671 C142.514212,102.064282 114.632511,104.530996 114.632511,104.530996 L114.632511,107.263093 L139.774055,105.047179 L139.774055,105.04225 L144.659418,104.610898 C146.537865,104.475125 148.103994,103.374563 148.103994,101.479082 L148.103994,96.9591362 L148.103994,61.7820227 L148.103994,57.2620768 C148.103994,55.3663903 146.561779,53.6954173 144.659418,53.5296551 L144.835884,53.5450605 C146.714537,53.4090822 148.10688,52.2848984 148.10688,50.3894173" id="Fill-6" fill="#CBBAA5"></path>
                    <path d="M129.719581,26.115613 L132.968725,25.8631697 C132.968725,25.8631697 132.969138,24.2743589 131.462587,23.0953319 L127.536855,23.4757427 L127.536855,23.9754941 L127.536237,23.9754941 L127.536237,53.1769535 L129.719581,52.9851049 L129.719581,26.115613 Z" id="Fill-8" fill="#CBBAA5"></path>
                    <path d="M129.719581,59.2302508 L132.968725,58.9778076 C132.968725,58.9778076 132.969138,57.3889968 131.462587,56.2099697 L127.536855,56.5903805 L127.536855,57.0901319 L127.536237,57.0901319 L127.536237,99.9884346 L129.719581,99.7967914 L129.719581,59.2302508 Z" id="Fill-10" fill="#CBBAA5"></path>
                    <polygon id="Fill-12" fill="#780822" points="181.847122 25.3045286 181.847122 15.7946692 181.847122 15.7946692 181.847122 15.3359989 149.052432 18.2264638 149.046866 20.4358043 152.22963 20.1552205 152.22963 97.8235232 149.052432 98.1034908 149.046866 100.312831 181.847122 97.4219557 181.847122 95.4907341 181.847122 95.4907341 181.847122 85.9808746 179.663778 86.2240746 179.663778 95.4054908 164.192978 96.7691773 164.192978 51.8020314 177.48868 50.6069827 177.48868 56.1646368 179.672024 55.9216422 179.672024 43.239707 177.48868 43.482907 177.48868 48.398053 164.192978 49.5931016 164.192978 19.1008746 179.663778 17.7371881 179.663778 25.5477286"></polygon>
                    <polygon id="Fill-14" fill="#CBBAA5" points="182.925023 98.4463946 151.972291 101.125292 151.973528 103.934622 185.108367 100.992395 185.108367 98.2574216 185.108367 88.2726649 182.925023 88.5306541"></polygon>
                    <polygon id="Fill-16" fill="#CBBAA5" points="182.925414 44.8846346 180.74207 45.1426238 180.74207 57.8395535 182.925414 57.5866995"></polygon>
                    <polygon id="Fill-18" fill="#CBBAA5" points="182.925023 18.527773 182.925023 27.0543568 185.108367 26.880173 185.108367 18.3338703"></polygon>
                    <polygon id="Fill-20" fill="#CBBAA5" points="167.434907 22.7211243 179.654501 21.6848541 179.654501 18.7475568 165.272796 20.0950162 165.272796 22.076973 165.251563 22.0794378 165.251563 49.4979784 167.434907 49.3018162"></polygon>
                    <polygon id="Fill-22" fill="#CBBAA5" points="165.272838 55.2713903 165.272219 55.2713903 165.272219 96.6903632 167.455563 96.4981038 167.455563 55.5365686 177.488721 54.7174119 177.488721 51.78032 165.272838 52.9053254"></polygon>
                    <polygon id="Fill-24" fill="#780822" points="218.94921 73.4139049 216.765866 73.6571049 216.765866 92.1579697 201.295067 93.5214508 201.295067 15.8091914 204.418665 15.5329211 204.418665 13.3239914 186.144832 14.9405319 186.139266 17.1498724 189.331718 16.86744 189.331718 94.5760022 186.154521 94.8559697 186.148955 97.0653103 218.94921 94.1742292 218.94921 92.243213 218.94921 92.243213"></polygon>
                    <polygon id="Fill-26" fill="#CBBAA5" points="220.157275 74.1181578 220.157275 95.1311308 189.204544 97.8100281 189.205781 100.619358 222.340619 97.6771308 222.340619 94.9421578 222.340619 73.8601686"></polygon>
                    <polygon id="Fill-28" fill="#CBBAA5" points="204.687816 19.4195816 209.174071 19.0710086 209.174071 16.1337114 202.50509 16.7797114 202.50509 17.2794627 202.504471 17.2794627 202.504471 93.3751816 204.687816 93.1827168"></polygon>
                    <polygon id="Fill-30" fill="#780822" points="222.861501 11.7063416 222.860882 11.9922659 222.855935 11.9926768 222.855935 21.5027416 225.039279 21.2595416 225.039279 13.7228065 234.247008 12.9089903 234.247008 90.5972173 231.070017 90.8767741 231.064451 93.0861146 249.468984 91.4613578 249.468984 89.2524281 246.210563 89.5441038 246.210563 11.8519741 256.127451 10.9757146 256.127451 18.55312 258.310795 18.30992 258.310795 10.7826335 258.310795 8.79985514 258.310795 8.57390919"></polygon>
                    <polygon id="Fill-32" fill="#CBBAA5" points="259.24604 11.9245849 259.24604 20.4511686 261.429384 20.2769849 261.429384 11.7306822"></polygon>
                    <polygon id="Fill-34" fill="#CBBAA5" points="234.007626 96.8767481 252.92197 95.1669535 252.92197 92.4319805 234.006389 94.0674184"></polygon>
                    <polygon id="Fill-36" fill="#CBBAA5" points="247.306976 15.0189968 247.285743 15.0214616 247.285743 89.4486724 249.469087 89.2525103 249.469087 15.6604778 256.133533 15.0867805 256.133533 12.1494832 247.306976 13.03704"></polygon>
                    <polygon id="Fill-38" fill="#CBBAA5" points="234.253894 17.2585935 234.253894 14.3212962 226.126807 15.1299773 226.126807 15.132853 226.126807 17.9395124 226.126807 23.6594368 228.310151 23.485253 228.310151 17.7564962"></polygon>
                    <polygon id="Fill-40" fill="#780822" points="297.32514 7.33165838 297.32514 5.12272865 280.113602 6.65197189 280.113602 8.86069622 282.238193 8.67192865 282.238193 39.6170746 275.712693 40.1924151 275.712693 9.25178811 277.930258 9.05459892 277.930258 6.84587459 260.62554 8.38312865 260.62554 10.5920584 263.749344 10.3145557 263.749344 88.0296908 260.62554 88.3071935 260.62554 90.5159178 278.666216 88.91088 278.666216 86.7019503 275.712693 86.9667178 275.712693 42.4011395 282.238193 41.8260043 282.238193 86.3870638 279.576167 86.6220476 279.576167 88.8309773 297.32514 87.2555178 297.32514 85.0467935 294.201541 85.3242962 294.201541 7.60916108"></polygon>
                    <polygon id="Fill-42" fill="#CBBAA5" points="263.496109 94.3006768 281.259925 92.6732497 281.259925 89.9382768 263.496109 91.491347"></polygon>
                    <polygon id="Fill-44" fill="#CBBAA5" points="276.795459 44.6650768 276.794841 44.6650768 276.794841 86.8697254 278.666278 86.7019092 278.666278 46.1963741 282.218258 45.8634119 282.218258 42.9261146 276.795459 43.5624605"></polygon>
                    <polygon id="Fill-46" fill="#CBBAA5" points="295.288431 8.79346703 295.288431 9.29321838 295.287812 9.29321838 295.287812 85.2268724 297.325201 85.0413914 297.325201 11.4460724 299.480921 11.2798995 299.480921 8.34260216"></polygon>
                    <polygon id="Fill-48" fill="#CBBAA5" points="278.666278 13.1125265 280.658521 12.9442995 280.658521 10.0070022 276.795459 10.4609481 276.795459 11.9185049 276.794841 11.9187103 276.794841 40.0974562 278.666278 39.9318995"></polygon>
                    <polygon id="Fill-50" fill="#CBBAA5" points="282.352029 92.6767827 299.480901 91.1278205 299.480901 88.3928476 282.352029 89.867453"></polygon>
                    <polygon id="Fill-52" fill="#780822" points="317.75026 5.56539784 317.75026 3.35646811 299.486529 4.96623027 299.480963 7.17557081 302.66352 6.89519243 302.66352 84.6084789 299.486529 84.8886519 299.480963 87.097787 317.75026 85.4876141 317.75026 83.2788897 314.626868 83.554133 314.626868 5.84064108"></polygon>
                    <polygon id="Fill-54" fill="#CBBAA5" points="314.628786 7.12193946 314.628786 7.62169081 314.628167 7.62169081 314.628167 83.5553449 316.665556 83.3698638 316.665556 9.77454486 318.821276 9.60837189 318.821276 6.67107459"></polygon>
                    <polygon id="Fill-56" fill="#CBBAA5" points="301.692384 91.0052346 318.821256 89.4562724 318.821256 86.7212995 301.692384 88.1959049"></polygon>
                    <path d="M335.008079,35.1083849 L335.016531,8.40855784 C335.007461,4.35323892 336.656049,4.11763892 338.092096,4.01411459 C339.946011,3.88080649 341.532961,5.19293622 341.532961,7.67259027 L341.532961,21.5970227 L353.496309,20.5814984 L353.496309,0.191109189 L351.313171,0.383368649 L351.266994,4.25259027 C351.266994,2.35690378 349.745806,0.514417297 347.873338,0.686752432 C345.981491,0.860525405 326.217393,2.5970227 326.217393,2.5970227 C323.044112,2.87678486 323.044112,6.45289297 323.044112,6.45289297 L323.044112,35.1141362 C323.044112,38.2763524 326.208941,38.0795741 326.208941,38.0795741 L341.532755,36.7487524 L341.52389,76.8083524 C341.533167,80.8636714 339.884578,81.0992714 338.448531,81.2027957 C336.594616,81.3361038 335.007461,80.0239741 335.007667,77.54432 L335.007667,63.6198876 L320.860768,64.8239741 L320.860768,85.2145686 L323.044112,85.0221038 L323.09029,81.1530876 C323.09029,83.0485686 324.611477,84.8912605 326.48374,84.7189254 C328.375793,84.544947 350.323029,82.6198876 350.323029,82.6198876 C353.496309,82.3401254 353.496309,78.7640173 353.496309,78.7640173 C353.496309,78.7640173 353.496515,39.9766984 353.496515,37.3649686 C353.496515,34.7534443 352.438137,33.564147 350.230055,33.7833146 C347.221901,34.0452065 335.008079,35.1083849 335.008079,35.1083849" id="Fill-58" fill="#780822"></path>
                    <path d="M353.879461,35.7801632 C353.879461,35.7801632 353.706295,35.7647578 353.706295,35.8452768 C353.706295,36.0036443 353.83452,35.9849524 354.055926,36.1731038 C354.425143,36.4869632 354.814768,37.101947 354.814768,39.0939686 L354.814768,80.1504011 C354.814768,80.1504011 354.647373,83.4763254 351.887838,83.7912119 C351.485843,83.8372227 349.752527,83.9957957 347.455593,84.2014065 L347.453532,84.1989416 C347.453532,84.1989416 346.5978,84.2763795 345.265446,84.3965416 C339.300058,84.9258714 331.517244,85.6028876 331.517244,85.6028876 L331.525696,85.6082281 C331.178744,85.6369849 330.880856,85.6610173 330.643988,85.6792984 C328.217799,85.8662173 327.505135,85.7437957 327.082938,85.3477741 C326.829579,85.11012 326.838443,84.9603795 326.645692,84.9753741 C326.547564,84.9829741 326.585084,85.1809849 326.585084,85.1809849 C326.993675,87.3591038 329.102804,88.4826714 331.411488,88.3047903 L336.388383,87.9212984 L347.031953,86.9610281 L348.559119,86.8264876 L348.559119,86.8232011 L349.51133,86.7373416 L352.279937,86.4929092 C355.431571,86.1845957 356.891944,84.2106497 356.889058,82.0150714 L356.889058,78.7384443 L356.889058,43.5611254 L356.889058,39.4745849 C356.889058,37.5791038 355.781822,35.9459254 353.879461,35.7801632" id="Fill-60" fill="#CBBAA5"></path>
                    <path d="M338.287094,7.9692573 C338.287919,5.79237081 341.491504,6.99440324 341.491504,6.99440324 C341.491504,6.99440324 341.427185,6.26726811 341.036323,5.56252216 C339.828691,5.10960324 338.792164,5.12480324 338.287094,5.14678162 C336.115295,5.2410627 336.104369,8.10975459 336.104369,8.13851135 L336.10375,8.13974378 L336.10375,35.0314195 L338.287094,34.8395708 L338.287094,7.9692573 Z" id="Fill-62" fill="#CBBAA5"></path>
                    <path d="M336.10406,66.0309362 L336.10406,78.4951416 L336.104678,78.4963741 C336.104678,78.5091092 336.107977,79.9110011 336.846203,80.9207741 C338.699705,81.7352065 340.263566,80.7541903 340.320876,80.6656605 C340.320876,80.6656605 338.288022,80.3322876 338.287404,79.0460389 L338.287404,65.7363849 L336.10406,66.0309362 Z" id="Fill-64" fill="#CBBAA5"></path>
                    <path d="M328.515584,41.0873254 L332.554079,40.7272497 L341.532157,39.9269903 L341.532775,37.8322659 C341.532775,37.8322659 330.497518,38.8118443 327.956709,39.0384065 C325.987968,39.2138227 325.345807,38.8767524 325.003185,38.5339308 C324.797652,38.3281146 324.804868,38.1976822 324.648399,38.2116497 C324.568825,38.2188389 324.599335,38.3911741 324.599335,38.3911741 C324.930826,40.2866551 326.64229,41.25432 328.515584,41.0873254" id="Fill-66" fill="#CBBAA5"></path>
                    <polygon id="Fill-68" fill="#CBBAA5" points="354.839856 2.96644432 354.839856 21.5270822 342.641496 22.6079254 342.641496 25.3757632 357.0232 24.2708876 357.0232 21.45252 357.0232 21.3335903 357.0232 2.77254162"></polygon>
                    <path d="M81.0917611,74.800987 L84.5190196,26.0946411 L84.5922032,26.0882735 L90.8771253,73.9337654 L81.0917611,74.800987 Z M106.654884,101.847744 L96.5646222,25.0329005 L99.5587577,24.76916 L99.5587577,22.5602303 L79.3238111,24.3437654 L79.3238111,26.5524897 L82.3393863,26.2866951 L76.837219,104.479398 L73.2365876,104.796749 L73.2365876,107.005679 L82.4397817,106.194533 L82.4397817,103.985603 L79.0168524,104.287344 L80.9352926,77.0238843 L91.1640874,76.1174303 L94.6824646,102.902911 L91.5157808,103.182057 L91.5157808,105.390782 L109.834555,103.776295 L109.834555,101.567365 L106.654884,101.847744 Z" id="Fill-70" fill="#780822"></path>
                    <polygon id="Fill-72" fill="#CBBAA5" points="107.649685 101.759995 109.833029 101.56753 100.238973 28.8186865 104.412086 28.4943514 104.412086 25.5570541 97.6690962 26.1523189 98.0389309 28.9482973"></polygon>
                    <polygon id="Fill-74" fill="#CBBAA5" points="76.7355248 110.505787 85.1466872 109.76263 85.1466872 107.027657 76.7379986 107.769376"></polygon>
                    <polygon id="Fill-76" fill="#CBBAA5" points="95.3303762 106.178984 95.3303762 108.915189 112.017878 107.442638 112.017878 104.707665"></polygon>
                    <polygon id="Fill-78" fill="#CBBAA5" points="82.2056974 74.7022692 84.4214072 74.5059016 86.6944269 42.0925178 85.2589982 31.1639232"></polygon>
                    <polygon id="Fill-80" fill="#CBBAA5" points="84.2679072 77.8122097 82.0521975 78.0085773 80.140148 104.188318 82.4397611 103.985583"></polygon>
                    <path d="M375.222098,79.9721708 C377.640248,79.7866897 378.920445,78.9798573 378.920445,75.5783438 L378.920445,71.1849276 C378.920445,68.0668735 377.687456,67.3582249 375.50638,67.5256303 L372.092727,67.7877276 L372.092727,80.2124951 L375.222098,79.9721708 Z M375.364342,64.8438573 C377.592833,64.6727546 378.730786,63.9712951 378.730786,60.4752951 L378.730786,57.1210249 C378.730786,53.76696 377.640248,52.9529384 374.985024,53.1567005 L372.092727,53.3787438 L372.092727,65.0948627 L375.364342,64.8438573 Z M368.726283,50.3771546 L375.127268,49.8860303 C379.299762,49.5658032 382.09723,51.3353708 382.09723,55.6817492 L382.09723,60.6422897 C382.09723,63.5239222 381.148936,65.0611762 379.442007,65.8536303 C381.243765,66.4240411 382.286889,67.6195005 382.286889,70.6903114 L382.286889,76.4067438 C382.286889,80.80016 379.489421,82.8572951 375.316721,83.1773168 L368.726283,83.6830249 L368.726283,50.3771546 Z" id="Fill-82" fill="#CBBAA5"></path>
                    <polygon id="Fill-84" fill="#CBBAA5" points="396.653338 81.5401946 385.463468 82.3989946 385.463468 49.0927135 388.877327 48.8308216 388.877327 78.8769081 396.653338 78.2804108"></polygon>
                    <path d="M408.554532,73.6822259 L408.554532,54.2656638 C408.554532,51.5727989 406.895017,50.4245827 404.80877,50.5847989 C402.722523,50.7448097 401.110423,52.1442368 401.110423,54.8368962 L401.110423,74.2534584 C401.110423,76.9465286 402.769938,78.0945395 404.80877,77.9382259 C406.847603,77.781707 408.554532,76.3750908 408.554532,73.6822259 M397.743979,74.4173719 L397.743979,55.2368205 C397.743979,50.8904422 400.636276,47.6450368 404.80877,47.3250151 C408.981264,47.0047881 411.921182,49.8026151 411.921182,54.1489935 L411.921182,73.3293395 C411.921182,77.6284746 408.981264,80.8775773 404.80877,81.1978043 C400.636276,81.5178259 397.743979,78.716507 397.743979,74.4173719" id="Fill-86" fill="#CBBAA5"></path>
                    <path d="M428.895214,63.712053 L428.895214,72.074107 C428.895214,76.3732422 426.002917,79.5714043 421.830423,79.8916314 C417.657722,80.211653 414.765425,77.4575773 414.765425,73.1584422 L414.765425,53.930853 C414.765425,49.5844746 417.657722,46.3388638 421.830423,46.0186368 C425.908087,45.7058043 428.847799,48.4563881 428.895214,52.7520314 L425.528769,53.0102259 C425.528769,50.3173611 423.869255,49.1691449 421.830423,49.3256638 C419.744176,49.4856746 418.132076,50.8851016 418.132076,53.5307232 L418.132076,72.9945286 C418.132076,75.8763665 420.076078,76.8136314 421.830423,76.6790908 C423.869255,76.5225719 425.528769,75.119653 425.528769,72.4269935 L425.528769,66.9467773 L421.735593,67.2378368 L421.735593,64.2615124 L428.895214,63.712053 Z" id="Fill-88" fill="#CBBAA5"></path>
                    <polygon id="Fill-90" fill="#CBBAA5" points="9.39526492 33.8199384 6.39350183 34.0814195 6.39350183 52.3707168 4.31550086 52.5518843 4.31550086 34.262587 1.37187232 34.5191384 1.37187232 32.5351276 9.39526492 31.8359276"></polygon>
                    <polygon id="Fill-92" fill="#CBBAA5" points="13.5511019 51.7469827 11.473101 51.9281503 11.473101 31.6548422 13.5511019 31.4736746 13.5511019 40.5030908 17.7936872 40.1331557 17.7936872 31.1037395 19.8430332 30.9250368 19.8430332 51.1983449 17.7936872 51.3770476 17.7936872 41.9448314 13.5511019 42.3147665"></polygon>
                    <polygon id="Fill-94" fill="#CBBAA5" points="30.2326051 32.0033946 25.0664638 32.4536432 25.0664638 39.4990486 28.8472711 39.1695784 28.8472711 40.9812541 25.0664638 41.3109297 25.0664638 48.7587243 30.2326051 48.3084757 30.2326051 50.2926919 23.017324 50.9218486 23.017324 30.6483351 30.2326051 30.0193838"></polygon>
                    <polygon id="Fill-96" fill="#780822" points="8.02326891 32.5871157 5.02171197 32.8485968 5.02171197 51.1378941 2.943711 51.3190616 2.943711 33.0297643 8.24603558e-05 33.2863157 8.24603558e-05 31.3023049 8.02326891 30.6031049"></polygon>
                    <polygon id="Fill-98" fill="#780822" points="12.1791059 50.5141395 10.1011049 50.695307 10.1011049 30.4219989 12.1791059 30.2408314 12.1791059 39.2702476 16.4216912 38.9003124 16.4216912 29.8708962 18.4710372 29.6921935 18.4710372 49.9655016 16.4216912 50.1442043 16.4216912 40.7119881 12.1791059 41.0819232"></polygon>
                    <polygon id="Fill-100" fill="#780822" points="28.8606297 30.7705514 23.6944884 31.2208 23.6944884 38.2662054 27.4752957 37.9367351 27.4752957 39.7484108 23.6944884 40.0780865 23.6944884 47.5258811 28.8606297 47.0756324 28.8606297 49.0598486 21.6453486 49.6890054 21.6453486 29.4154919 28.8606297 28.7865405"></polygon>
                    <path d="M373.36674,77.6384984 C375.78489,77.4530173 377.065087,76.6461849 377.065087,73.2446714 L377.065087,68.8512551 C377.065087,65.7332011 375.832098,65.0245524 373.651022,65.1919578 L370.237369,65.4540551 L370.237369,77.8788227 L373.36674,77.6384984 Z M373.508984,62.5101849 C375.737475,62.3390822 376.875428,61.6376227 376.875428,58.1416227 L376.875428,54.7873524 C376.875428,51.4332876 375.78489,50.6192659 373.129666,50.8230281 L370.237369,51.0450714 L370.237369,62.7611903 L373.508984,62.5101849 Z M366.870925,48.0434822 L373.27191,47.5523578 C377.444404,47.2321308 380.241872,49.0016984 380.241872,53.3480768 L380.241872,58.3086173 C380.241872,61.1902497 379.293578,62.7275038 377.586649,63.5199578 C379.388407,64.0903686 380.431531,65.2858281 380.431531,68.3566389 L380.431531,74.0730714 C380.431531,78.4664876 377.634063,80.5236227 373.461363,80.8436443 L366.870925,81.3493524 L366.870925,48.0434822 Z" id="Fill-102" fill="#780822"></path>
                    <polygon id="Fill-104" fill="#780822" points="394.79798 79.2065222 383.60811 80.0653222 383.60811 46.7590411 387.021969 46.4971492 387.021969 76.5432357 394.79798 75.9467384"></polygon>
                    <path d="M406.699174,71.3485535 L406.699174,51.9319914 C406.699174,49.2391265 405.039659,48.0909103 402.953412,48.2511265 C400.867165,48.4111373 399.255065,49.8105643 399.255065,52.5032238 L399.255065,71.9197859 C399.255065,74.6128562 400.91458,75.760867 402.953412,75.6045535 C404.992245,75.4480346 406.699174,74.0414184 406.699174,71.3485535 M395.888621,72.0836995 L395.888621,52.9031481 C395.888621,48.5567697 398.780918,45.3113643 402.953412,44.9913427 C407.125906,44.6711157 410.065824,47.4689427 410.065824,51.8153211 L410.065824,70.995667 C410.065824,75.2948022 407.125906,78.5439049 402.953412,78.8641319 C398.780918,79.1841535 395.888621,76.3828346 395.888621,72.0836995" id="Fill-106" fill="#780822"></path>
                    <path d="M427.039856,61.37836 L427.039856,69.7404141 C427.039856,74.0395492 424.147559,77.2377114 419.975065,77.5579384 C415.802364,77.87796 412.910067,75.1238843 412.910067,70.8247492 L412.910067,51.59716 C412.910067,47.2507816 415.802364,44.0051708 419.975065,43.6849438 C424.052729,43.3721114 426.992441,46.1226951 427.039856,50.4183384 L423.673411,50.676533 C423.673411,47.9836681 422.013897,46.8354519 419.975065,46.9919708 C417.888818,47.1519816 416.276718,48.5514086 416.276718,51.1970303 L416.276718,70.6608357 C416.276718,73.5426735 418.22072,74.4799384 419.975065,74.3453978 C422.013897,74.1888789 423.673411,72.78596 423.673411,70.0933005 L423.673411,64.6130843 L419.880235,64.9041438 L419.880235,61.9278195 L427.039856,61.37836 Z" id="Fill-108" fill="#780822"></path>
                </g>
            </g>
        </g>
    </g>
</svg>