<svg id="Layer_1" data-name="Layer 1" xmlns="http://www.w3.org/2000/svg" viewBox="0 0 667.8 296.55"><defs><style>.cls-1{fill:#4d0717;}</style></defs><title>label-this-title-image</title><path class="cls-1" d="M448.46,608a5.3,5.3,0,0,0-1.3-1,8.18,8.18,0,0,0-4-.86h-2.34V617c0,10.47.14,10.62,0.9,12.06l0.32,0.61s-0.86-.07-3-0.07-3,.07-3,0.07l0.32-.61c0.72-1.37.9-1.62,0.9-12.42V606.2H435a8.18,8.18,0,0,0-4,.86,5,5,0,0,0-1.3,1,18,18,0,0,0,.11-2.2c0-1.3,0-1.87,0-1.87h18.61s0,0.58,0,1.87A18.78,18.78,0,0,0,448.46,608Z" transform="translate(-337.08 -504.3)"/><path class="cls-1" d="M471.29,629.74c-2.48,0-3.38-1.12-5.08-3.74l-2.59-4c-2.23-3.46-2.63-4.18-4.57-4.18a5.54,5.54,0,0,0-.61,0c0,9.14.14,9.72,0.9,11.16l0.32,0.61s-0.86-.07-3-0.07-3,.07-3,0.07L454,629c0.68-1.33.9-1.62,0.9-12.42,0-10.47-.14-10.62-0.9-12.06l-0.32-.61s1,0.07,2.52.07c1,0,2.84-.07,4.14-0.07,4.18,0,9.61.32,9.61,6.48,0,2.92-1.58,6.88-7.92,6.8,3.06,0.4,4.18,2.05,6,5.15l1.73,2.84c1.26,2.09,2.2,3.6,3.67,4.25A5.22,5.22,0,0,1,471.29,629.74Zm-11.05-23.65c-1,0-1.8.07-1.8,0.07v9.5s0.72,0.07,2.09.07c0.43,0,1.55-.07,2.16-0.14,1.87-.29,3.42-1.84,3.42-4.79C466.1,606.56,463.51,606.09,460.24,606.09Z" transform="translate(-337.08 -504.3)"/><path class="cls-1" d="M494.25,629.56c-2,0-3.42.07-3.42,0.07a2.54,2.54,0,0,0,1.15-2.27,31,31,0,0,0-1.4-6l-0.65-2.27h-8l-0.65,2.27a29,29,0,0,0-1.4,6,2.56,2.56,0,0,0,1.19,2.27s-1.26-.07-3.2-0.07-3.06.07-3.06,0.07c1.33-1.3,2-3.56,3.56-8.53l4.68-15a4.2,4.2,0,0,0,.29-1.33,1,1,0,0,0-.25-0.76h6.8a1.34,1.34,0,0,0-.22.76,4.17,4.17,0,0,0,.25,1.33l4.39,15c1.48,5,2.12,7.24,3.46,8.53C497.75,629.64,496.42,629.56,494.25,629.56Zm-7.52-21.63c-0.4-1.44-.68-2.38-0.76-2.7-0.07.25-.32,1.15-0.79,2.7l-2.59,8.78h6.69Z" transform="translate(-337.08 -504.3)"/><path class="cls-1" d="M523.7,604.55c-0.68,1.3-.86,1.62-0.86,12.42l0,12.71a18.71,18.71,0,0,0-2.2-.11,21.52,21.52,0,0,0-2.41.11l-10.65-20.27a11.42,11.42,0,0,1-.94-2.48v10c0,10.47.14,10.62,0.9,12.06l0.32,0.61s-0.9-.07-2.66-0.07-2.56.07-2.56,0.07l0.32-.61c0.68-1.29.94-1.62,0.94-12.42,0-10.47-.14-10.62-0.9-12.06l-0.32-.61s0.76,0.07,3.06.07c1.84,0,2.74-.07,2.74-0.07L519,624.06a10.29,10.29,0,0,1,1,2.56v-10c0-10.47-.14-10.62-0.9-12.06l-0.32-.61s0.83,0.07,2.59.07,2.59-.07,2.59-0.07Z" transform="translate(-337.08 -504.3)"/><path class="cls-1" d="M537,629.85a14.13,14.13,0,0,1-6.26-1.12s0.07-.83.07-2.2-0.07-2.74-.07-2.74c1.51,2.16,3,3.67,6.23,3.67,2.16,0,5.22-.36,5.22-3.82,0-2.23-1.22-3.24-2.77-4.28l-3.24-2.09c-2.45-1.58-5.29-3.24-5.29-7.23,0-3.38,2.23-6.34,8.1-6.34a13.89,13.89,0,0,1,5.76,1s-0.07.83-.07,2.3,0.07,2.56.07,2.56c-1.51-2.2-3-3.53-5.83-3.53-1.4,0-4.57.18-4.57,3.53,0,2.16,1.44,3.06,3.46,4.39l2.56,1.66c2.81,1.8,5.33,3.24,5.33,7.45C545.66,628.09,542.1,629.85,537,629.85Z" transform="translate(-337.08 -504.3)"/><path class="cls-1" d="M564.42,629.85c-11.63,0-12.71-8.5-12.71-12.74,0-8.57,4.75-13.39,13-13.39,4.54,0,6.33,1,6.33,1s-0.07.83-.07,2.34,0.07,2.52.07,2.52c-1.55-2.23-2.81-3.53-6.3-3.53-3.67,0-9.11,1.55-9.11,10.83,0,5.76,1.84,10.55,9,10.55,3.6,0,4.9-1.37,6.44-3.6,0,0-.07,1.19-0.07,2.74,0,1.37.07,2.2,0.07,2.2A18.23,18.23,0,0,1,564.42,629.85Z" transform="translate(-337.08 -504.3)"/><path class="cls-1" d="M594.87,629.74c-2.48,0-3.38-1.12-5.08-3.74l-2.59-4c-2.23-3.46-2.63-4.18-4.57-4.18a5.54,5.54,0,0,0-.61,0c0,9.14.14,9.72,0.9,11.16l0.32,0.61s-0.86-.07-3-0.07-3,.07-3,0.07l0.32-.61c0.68-1.33.9-1.62,0.9-12.42,0-10.47-.14-10.62-0.9-12.06l-0.32-.61s1,0.07,2.52.07c1,0,2.84-.07,4.14-0.07,4.18,0,9.61.32,9.61,6.48,0,2.92-1.58,6.88-7.92,6.8,3.06,0.4,4.18,2.05,6,5.15l1.73,2.84c1.26,2.09,2.2,3.6,3.67,4.25A5.22,5.22,0,0,1,594.87,629.74Zm-11.05-23.65c-1,0-1.8.07-1.8,0.07v9.5s0.72,0.07,2.09.07c0.43,0,1.55-.07,2.16-0.14,1.87-.29,3.42-1.84,3.42-4.79C589.69,606.56,587.1,606.09,583.82,606.09Z" transform="translate(-337.08 -504.3)"/><path class="cls-1" d="M604.45,629.56c-2.12,0-3,.07-3,0.07l0.32-.61c0.72-1.37.9-1.62,0.9-12.42,0-10.47-.14-10.62-0.9-12.06l-0.32-.61s0.83,0.07,3,.07,3-.07,3-0.07l-0.32.61c-0.72,1.37-.9,1.62-0.9,12.42,0,10.47.14,10.62,0.9,12.06l0.32,0.61S606.58,629.56,604.45,629.56Z" transform="translate(-337.08 -504.3)"/><path class="cls-1" d="M622.27,619.34a19.66,19.66,0,0,1-2.41-.14c0,7.74.14,8.39,0.9,9.83l0.32,0.61s-0.86-.07-3-0.07-3,.07-3,0.07l0.32-.61c0.72-1.33.9-1.62,0.9-12.42,0-10.47-.14-10.62-0.9-12.06l-0.32-.61s0.94,0.07,2.45.07,3.24-.07,4.28-0.07c3.38,0,9.72.29,9.72,7.49C631.52,618.26,626.16,619.34,622.27,619.34Zm-0.5-13.25c-1.12,0-1.91.07-1.91,0.07v10.91a12.63,12.63,0,0,0,2.16.11c5.36,0,5.62-3.71,5.62-5.8C627.63,606.67,624.29,606.09,621.77,606.09Z" transform="translate(-337.08 -504.3)"/><path class="cls-1" d="M654.7,608a5.3,5.3,0,0,0-1.3-1,8.18,8.18,0,0,0-4-.86h-2.34V617c0,10.47.14,10.62,0.9,12.06l0.32,0.61s-0.86-.07-3-0.07-3,.07-3,0.07l0.32-.61c0.72-1.37.9-1.62,0.9-12.42V606.2h-2.34a8.18,8.18,0,0,0-4,.86,5,5,0,0,0-1.3,1,18,18,0,0,0,.11-2.2c0-1.3,0-1.87,0-1.87h18.61s0,0.58,0,1.87A18.78,18.78,0,0,0,654.7,608Z" transform="translate(-337.08 -504.3)"/><path class="cls-1" d="M663,629.56c-2.12,0-3,.07-3,0.07l0.32-.61c0.72-1.37.9-1.62,0.9-12.42,0-10.47-.14-10.62-0.9-12.06l-0.32-.61s0.83,0.07,3,.07,3-.07,3-0.07l-0.32.61c-0.72,1.37-.9,1.62-0.9,12.42,0,10.47.14,10.62,0.9,12.06l0.32,0.61S665.11,629.56,663,629.56Z" transform="translate(-337.08 -504.3)"/><path class="cls-1" d="M684.33,630c-7.34,0-11.41-5.08-11.41-12.63,0-3.13.58-13.71,11.45-13.71,7.34,0,11.41,5.08,11.41,12.63C695.78,619.45,695.2,630,684.33,630Zm0-23.94c-3.85,0-7.45,2.66-7.45,10.91,0,8.06,3.49,10.62,7.49,10.62s7.45-2.66,7.45-10.91C691.82,608.65,688.33,606.09,684.33,606.09Z" transform="translate(-337.08 -504.3)"/><path class="cls-1" d="M723.79,604.55c-0.68,1.3-.86,1.62-0.86,12.42l0,12.71a18.73,18.73,0,0,0-2.2-.11,21.5,21.5,0,0,0-2.41.11l-10.66-20.27a11.42,11.42,0,0,1-.94-2.48v10c0,10.47.14,10.62,0.9,12.06l0.32,0.61s-0.9-.07-2.66-0.07-2.56.07-2.56,0.07L703,629c0.68-1.29.94-1.62,0.94-12.42,0-10.47-.14-10.62-0.9-12.06l-0.32-.61s0.76,0.07,3.06.07c1.84,0,2.74-.07,2.74-0.07l10.58,20.12a10.27,10.27,0,0,1,1,2.56v-10c0-10.47-.14-10.62-0.9-12.06l-0.32-.61s0.83,0.07,2.59.07,2.59-.07,2.59-0.07Z" transform="translate(-337.08 -504.3)"/><path class="cls-1" d="M759.57,619.34a19.66,19.66,0,0,1-2.41-.14c0,7.74.14,8.39,0.9,9.83l0.32,0.61s-0.86-.07-3-0.07-3,.07-3,0.07l0.32-.61c0.72-1.33.9-1.62,0.9-12.42,0-10.47-.14-10.62-0.9-12.06l-0.32-.61s0.94,0.07,2.45.07,3.24-.07,4.28-0.07c3.38,0,9.72.29,9.72,7.49C768.82,618.26,763.46,619.34,759.57,619.34Zm-0.5-13.25c-1.12,0-1.91.07-1.91,0.07v10.91a12.63,12.63,0,0,0,2.16.11c5.36,0,5.62-3.71,5.62-5.8C764.94,606.67,761.59,606.09,759.07,606.09Z" transform="translate(-337.08 -504.3)"/><path class="cls-1" d="M792.55,629.74c-2.48,0-3.38-1.12-5.08-3.74l-2.59-4c-2.23-3.46-2.63-4.18-4.57-4.18a5.54,5.54,0,0,0-.61,0c0,9.14.14,9.72,0.9,11.16l0.32,0.61s-0.86-.07-3-0.07-3,.07-3,0.07l0.32-.61c0.68-1.33.9-1.62,0.9-12.42,0-10.47-.14-10.62-0.9-12.06l-0.32-.61s1,0.07,2.52.07c1,0,2.84-.07,4.14-0.07,4.18,0,9.61.32,9.61,6.48,0,2.92-1.58,6.88-7.92,6.8,3.06,0.4,4.17,2.05,6,5.15l1.73,2.84c1.26,2.09,2.2,3.6,3.67,4.25A5.22,5.22,0,0,1,792.55,629.74ZM781.5,606.09c-1,0-1.8.07-1.8,0.07v9.5s0.72,0.07,2.09.07c0.43,0,1.55-.07,2.16-0.14,1.87-.29,3.42-1.84,3.42-4.79C787.36,606.56,784.77,606.09,781.5,606.09Z" transform="translate(-337.08 -504.3)"/><path class="cls-1" d="M809.83,630c-7.34,0-11.41-5.08-11.41-12.63,0-3.13.58-13.71,11.45-13.71,7.34,0,11.41,5.08,11.41,12.63C821.27,619.45,820.7,630,809.83,630Zm0-23.94c-3.85,0-7.45,2.66-7.45,10.91,0,8.06,3.49,10.62,7.49,10.62s7.45-2.66,7.45-10.91C817.31,608.65,813.82,606.09,809.83,606.09Z" transform="translate(-337.08 -504.3)"/><path class="cls-1" d="M834.27,604.55c-0.72,1.33-.9,1.66-0.9,12.45v14c0,3.06-.22,6.3-5.72,6.3h-0.72c2.77-1.37,2.88-3.74,2.88-8.75V616.64c0-10.47-.14-10.66-0.9-12.09l-0.32-.61s0.86,0.07,3,.07,3-.07,3-0.07Z" transform="translate(-337.08 -504.3)"/><path class="cls-1" d="M857.2,628.52l-0.07,1.08H844.78c-1.94,0-2.77,0-2.77,0l0.32-.61c0.72-1.37.9-1.62,0.9-12.42,0-10.47-.14-10.62-0.9-12.06l-0.32-.61s0.79,0,2.74,0h12s0,0.58,0,1.87a18.87,18.87,0,0,0,.11,2.2,5.28,5.28,0,0,0-1.3-1,8.26,8.26,0,0,0-4-.79h-4.75v9.32h3.89a8.41,8.41,0,0,0,4-.68A5.37,5.37,0,0,0,856,614s-0.11,1.08-.11,2.81,0.11,2.7.11,2.77a5.3,5.3,0,0,0-1.3-1,8.41,8.41,0,0,0-4-.68h-3.89v9.39h4.39c4.46,0,5-1,6.37-3C857.6,624.31,857.42,625.6,857.2,628.52Z" transform="translate(-337.08 -504.3)"/><path class="cls-1" d="M876.57,629.85c-11.63,0-12.71-8.5-12.71-12.74,0-8.57,4.75-13.39,13-13.39,4.54,0,6.34,1,6.34,1s-0.07.83-.07,2.34,0.07,2.52.07,2.52c-1.55-2.23-2.81-3.53-6.3-3.53-3.67,0-9.11,1.55-9.11,10.83,0,5.76,1.84,10.55,9,10.55,3.6,0,4.9-1.37,6.44-3.6,0,0-.07,1.19-0.07,2.74,0,1.37.07,2.2,0.07,2.2A18.24,18.24,0,0,1,876.57,629.85Z" transform="translate(-337.08 -504.3)"/><path class="cls-1" d="M905.84,608a5.3,5.3,0,0,0-1.3-1,8.18,8.18,0,0,0-4-.86h-2.34V617c0,10.47.14,10.62,0.9,12.06l0.32,0.61s-0.86-.07-3-0.07-3,.07-3,0.07l0.32-.61c0.72-1.37.9-1.62,0.9-12.42V606.2h-2.34a8.18,8.18,0,0,0-4,.86,5,5,0,0,0-1.3,1,18.11,18.11,0,0,0,.11-2.2c0-1.3,0-1.87,0-1.87h18.61s0,0.58,0,1.87A18.87,18.87,0,0,0,905.84,608Z" transform="translate(-337.08 -504.3)"/><path class="cls-1" d="M443,782.53a4.37,4.37,0,0,0-1.08-.81,6.82,6.82,0,0,0-3.3-.72h-1.95v9c0,8.73.12,8.85,0.75,10l0.27,0.51s-0.72-.06-2.49-0.06-2.52.06-2.52,0.06L433,800c0.6-1.14.75-1.35,0.75-10.35V781h-2a6.82,6.82,0,0,0-3.3.72,4.17,4.17,0,0,0-1.08.81,15,15,0,0,0,.09-1.83c0-1.08,0-1.56,0-1.56H443s0,0.48,0,1.56A15.7,15.7,0,0,0,443,782.53Z" transform="translate(-337.08 -504.3)"/><path class="cls-1" d="M462.22,800.46c-1.77,0-2.52.06-2.52,0.06L460,800c0.57-1.11.75-1.41,0.75-9.42h-9.93c0,8,.12,8.25.75,9.42l0.27,0.51s-0.72-.06-2.49-0.06-2.52.06-2.52,0.06l0.27-.51c0.6-1.14.75-1.35,0.75-10.35,0-8.73-.12-8.85-0.75-10l-0.27-.51s0.72,0.06,2.49.06,2.52-.06,2.52-0.06l-0.27.51c-0.57,1.08-.75,1.38-0.75,8.76h9.93c0-7.35-.15-7.62-0.75-8.76l-0.27-.51s0.72,0.06,2.49.06,2.52-.06,2.52-0.06l-0.27.51c-0.6,1.14-.75,1.35-0.75,10.35,0,8.73.12,8.85,0.75,10l0.27,0.51S464,800.46,462.22,800.46Z" transform="translate(-337.08 -504.3)"/><path class="cls-1" d="M483.13,799.59l-0.06.9H472.78c-1.62,0-2.31,0-2.31,0l0.27-.51c0.6-1.14.75-1.35,0.75-10.35,0-8.73-.12-8.85-0.75-10l-0.27-.51s0.66,0,2.28,0h10s0,0.48,0,1.56a15.69,15.69,0,0,0,.09,1.83,4.37,4.37,0,0,0-1.08-.81,6.89,6.89,0,0,0-3.3-.66h-4v7.77h3.24a7,7,0,0,0,3.3-.57,4.45,4.45,0,0,0,1.08-.78s-0.09.9-.09,2.34,0.09,2.25.09,2.31a4.38,4.38,0,0,0-1.08-.81,7,7,0,0,0-3.3-.57h-3.24v7.83h3.66c3.72,0,4.2-.87,5.31-2.49C483.46,796.08,483.31,797.16,483.13,799.59Z" transform="translate(-337.08 -504.3)"/><path class="cls-1" d="M508.09,799.59l-0.06.9h-9c-1.62,0-2.31,0-2.31,0L497,800c0.6-1.14.75-1.35,0.75-10.35,0-8.73-.12-8.85-0.75-10l-0.27-.51s0.69,0.06,2.49.06,2.55-.06,2.55-0.06l-0.27.51c-0.6,1.14-.75,1.41-0.75,10.08v8.88h2.34c3.72,0,4.2-.87,5.31-2.49C508.42,796.08,508.27,797.16,508.09,799.59Z" transform="translate(-337.08 -504.3)"/><path class="cls-1" d="M515.2,800.46c-1.77,0-2.52.06-2.52,0.06L513,800c0.6-1.14.75-1.35,0.75-10.35,0-8.73-.12-8.85-0.75-10l-0.27-.51s0.69,0.06,2.49.06,2.52-.06,2.52-0.06l-0.27.51c-0.6,1.14-.75,1.35-0.75,10.35,0,8.73.12,8.85,0.75,10l0.27,0.51S517,800.46,515.2,800.46Z" transform="translate(-337.08 -504.3)"/><path class="cls-1" d="M534.4,799.92c-1.38.57-2.67,0.6-5.28,0.6-1,0-2.25-.06-3.27-0.06-1.68,0-2.4.06-2.4,0.06l0.27-.51c0.6-1.11.75-1.35,0.75-10.35,0-8.73-.12-8.85-0.75-10l-0.27-.51s0.84,0.06,2.07.06c0.9,0,2.25-.06,3.12-0.06,4.41,0,8.37.42,8.37,5.19,0,3.21-2.16,4.77-4.53,5.22,2.16,0,5.28,1.14,5.28,5.16A5.31,5.31,0,0,1,534.4,799.92Zm-5.4-19c-0.81,0-1.62.06-1.62,0.06v7.74s0.63,0.06,1.77.06a13.21,13.21,0,0,0,1.74-.15c1.56-.21,2.91-1.53,2.91-4C533.8,781.27,531.43,780.91,529,780.91Zm0.24,9.66c-0.93,0-1.86.06-1.86,0.06v8a18.28,18.28,0,0,0,2,.06,7.7,7.7,0,0,0,3.09-.45c0.75-.36,2-1.08,2-3.75C534.52,791.17,532.18,790.56,529.24,790.56Z" transform="translate(-337.08 -504.3)"/><path class="cls-1" d="M557.44,800.61c-2.07,0-2.82-.93-4.23-3.12l-2.16-3.33c-1.86-2.88-2.19-3.48-3.81-3.48a4.58,4.58,0,0,0-.51,0c0,7.62.12,8.1,0.75,9.3l0.27,0.51s-0.72-.06-2.46-0.06-2.49.06-2.49,0.06l0.27-.51c0.57-1.11.75-1.35,0.75-10.35,0-8.73-.12-8.85-0.75-10l-0.27-.51s0.87,0.06,2.1.06c0.87,0,2.37-.06,3.45-0.06,3.48,0,8,.27,8,5.4,0,2.43-1.32,5.73-6.6,5.67,2.55,0.33,3.48,1.71,5,4.29l1.44,2.37c1.05,1.74,1.83,3,3.06,3.54A4.35,4.35,0,0,1,557.44,800.61Zm-9.21-19.71c-0.81,0-1.5.06-1.5,0.06v7.92s0.6,0.06,1.74.06c0.36,0,1.29-.06,1.8-0.12,1.56-.24,2.85-1.53,2.85-4C553.12,781.29,551,780.91,548.23,780.91Z" transform="translate(-337.08 -504.3)"/><path class="cls-1" d="M576,800.46c-1.65,0-2.85.06-2.85,0.06a2.12,2.12,0,0,0,1-1.89,25.8,25.8,0,0,0-1.17-5l-0.54-1.89h-6.69l-0.54,1.89a24.13,24.13,0,0,0-1.17,5,2.13,2.13,0,0,0,1,1.89s-1-.06-2.67-0.06-2.55.06-2.55,0.06c1.11-1.08,1.65-3,3-7.11l3.9-12.51a3.5,3.5,0,0,0,.24-1.11,0.85,0.85,0,0,0-.21-0.63h5.67a1.12,1.12,0,0,0-.18.63,3.47,3.47,0,0,0,.21,1.11L576,793.42c1.23,4.17,1.77,6,2.88,7.11C578.89,800.52,577.78,800.46,576,800.46Zm-6.27-18c-0.33-1.2-.57-2-0.63-2.25-0.06.21-.27,1-0.66,2.25l-2.16,7.32h5.58Z" transform="translate(-337.08 -504.3)"/><path class="cls-1" d="M597,800.61c-2.07,0-2.82-.93-4.23-3.12l-2.16-3.33c-1.86-2.88-2.19-3.48-3.81-3.48a4.58,4.58,0,0,0-.51,0c0,7.62.12,8.1,0.75,9.3l0.27,0.51s-0.72-.06-2.46-0.06-2.49.06-2.49,0.06l0.27-.51c0.57-1.11.75-1.35,0.75-10.35,0-8.73-.12-8.85-0.75-10l-0.27-.51s0.87,0.06,2.1.06c0.87,0,2.37-.06,3.45-0.06,3.48,0,8,.27,8,5.4,0,2.43-1.32,5.73-6.6,5.67,2.55,0.33,3.48,1.71,5,4.29l1.44,2.37c1.05,1.74,1.83,3,3.06,3.54A4.35,4.35,0,0,1,597,800.61Zm-9.21-19.71c-0.81,0-1.5.06-1.5,0.06v7.92s0.6,0.06,1.74.06c0.36,0,1.29-.06,1.8-0.12,1.56-.24,2.85-1.53,2.85-4C592.69,781.29,590.53,780.91,587.8,780.91Z" transform="translate(-337.08 -504.3)"/><path class="cls-1" d="M612.91,785.2L609.7,791c0,7.38.12,7.89,0.75,9.06l0.27,0.51s-0.72-.06-2.49-0.06-2.55.06-2.55,0.06L606,800c0.57-1,.75-1.74.75-8.34l-3.51-6.54c-2.67-5-2.88-5.22-3.93-6,0,0,.81.06,3.12,0.06s3-.06,3-0.06a1.87,1.87,0,0,0-.69,1.41c0,0.84.15,1.2,1.62,4l2.25,4.38,2.22-4.41c1.44-2.85,1.5-3.18,1.5-4a1.87,1.87,0,0,0-.69-1.41s1,0.06,2.64.06c2,0,2.73-.06,2.73-0.06C615.94,779.79,615.61,780.31,612.91,785.2Z" transform="translate(-337.08 -504.3)"/><path class="cls-1" d="M776,800.46c-1.65,0-2.85.06-2.85,0.06a2.12,2.12,0,0,0,1-1.89,25.83,25.83,0,0,0-1.17-5l-0.54-1.89h-6.69l-0.54,1.89a24.13,24.13,0,0,0-1.17,5,2.13,2.13,0,0,0,1,1.89s-1.05-.06-2.67-0.06-2.55.06-2.55,0.06c1.11-1.08,1.65-3,3-7.11l3.9-12.51a3.5,3.5,0,0,0,.24-1.11,0.85,0.85,0,0,0-.21-0.63h5.67a1.12,1.12,0,0,0-.18.63,3.49,3.49,0,0,0,.21,1.11l3.66,12.51c1.23,4.17,1.77,6,2.88,7.11C778.93,800.52,777.82,800.46,776,800.46Zm-6.27-18c-0.33-1.2-.57-2-0.63-2.25-0.06.21-.27,1-0.66,2.25l-2.16,7.32h5.58Z" transform="translate(-337.08 -504.3)"/><path class="cls-1" d="M794.84,782.53a4.4,4.4,0,0,0-1.08-.81,6.82,6.82,0,0,0-3.3-.72h-1.95v9c0,8.73.12,8.85,0.75,10l0.27,0.51s-0.72-.06-2.49-0.06-2.52.06-2.52,0.06l0.27-.51c0.6-1.14.75-1.35,0.75-10.35V781h-2a6.81,6.81,0,0,0-3.3.72,4.16,4.16,0,0,0-1.08.81,14.9,14.9,0,0,0,.09-1.83c0-1.08,0-1.56,0-1.56h15.51s0,0.48,0,1.56A15.7,15.7,0,0,0,794.84,782.53Z" transform="translate(-337.08 -504.3)"/><path class="cls-1" d="M824,779.62c-0.57,1-.75,1.38-0.75,8.82v1.89c0,3.81-.06,5.67-1,7.2-1.11,2-3.06,3.27-6.9,3.27-3,0-5.31-.72-6.69-2.64-1-1.41-1.32-2.82-1.32-6.57v-2.34c0-8-.12-8.43-0.75-9.63l-0.27-.51s0.78,0.06,2.52.06,2.55-.06,2.55-0.06l-0.27.51c-0.57,1-.75,1.38-0.75,8.82v4.17a15.08,15.08,0,0,0,.24,2.79c0.57,2.22,2.16,3.39,4.89,3.39s4.35-1.11,4.92-3.45a12.59,12.59,0,0,0,.24-2.52v-3.15c0-8.73-.12-8.85-0.75-10l-0.27-.51s0.57,0.06,2.28.06,2.34-.06,2.34-0.06Z" transform="translate(-337.08 -504.3)"/><path class="cls-1" d="M831.16,800.85a2.21,2.21,0,0,1-2.19-2.19,2.28,2.28,0,0,1,2.16-2.22,2.19,2.19,0,0,1,2.19,2.19A2.28,2.28,0,0,1,831.16,800.85Z" transform="translate(-337.08 -504.3)"/><path class="cls-1" d="M848.38,800.7c-9.69,0-10.59-7.08-10.59-10.62,0-7.14,4-11.16,10.8-11.16,3.78,0,5.28.87,5.28,0.87s-0.06.69-.06,2,0.06,2.1.06,2.1c-1.29-1.86-2.34-2.94-5.25-2.94-3.06,0-7.59,1.29-7.59,9,0,4.8,1.53,8.79,7.47,8.79,3,0,4.08-1.14,5.37-3,0,0-.06,1-0.06,2.28,0,1.14.06,1.83,0.06,1.83A15.19,15.19,0,0,1,848.38,800.7Z" transform="translate(-337.08 -504.3)"/><path class="cls-1" d="M860,800.85a2.21,2.21,0,0,1-2.19-2.19,2.28,2.28,0,0,1,2.16-2.22,2.19,2.19,0,0,1,2.19,2.19A2.28,2.28,0,0,1,860,800.85Z" transform="translate(-337.08 -504.3)"/><path class="cls-1" d="M881.38,800.55c-1.29,0-2.46-.09-3.63-0.09-1.65,0-2.46.06-2.46,0.06l0.27-.51c0.6-1.11.75-1.35,0.75-10.35,0-8.73-.12-8.85-0.75-10l-0.27-.51s0.81,0.06,2.46.06c1.2,0,2.79-.09,4.08-0.09,3.06,0,11.31.24,11.31,10.26C893.14,800.34,885.16,800.55,881.38,800.55Zm0-19.59c-1.17,0-2.07.09-2.07,0.09v17.52s1,0.09,2,.09c4,0,8.55-.81,8.55-9C889.87,782,885.61,781,881.41,781Z" transform="translate(-337.08 -504.3)"/><path class="cls-1" d="M912,800.46c-1.65,0-2.85.06-2.85,0.06a2.12,2.12,0,0,0,1-1.89,25.76,25.76,0,0,0-1.17-5l-0.54-1.89h-6.69l-0.54,1.89a24.2,24.2,0,0,0-1.17,5,2.13,2.13,0,0,0,1,1.89s-1-.06-2.67-0.06-2.55.06-2.55,0.06c1.11-1.08,1.65-3,3-7.11l3.9-12.51a3.52,3.52,0,0,0,.24-1.11,0.85,0.85,0,0,0-.21-0.63h5.67a1.12,1.12,0,0,0-.18.63,3.47,3.47,0,0,0,.21,1.11L912,793.42c1.23,4.17,1.77,6,2.88,7.11C914.86,800.52,913.75,800.46,912,800.46Zm-6.27-18c-0.33-1.2-.57-2-0.63-2.25-0.06.21-.27,1-0.66,2.25l-2.16,7.32h5.58Z" transform="translate(-337.08 -504.3)"/><path class="cls-1" d="M931.51,786.21l-4.74,14.31s-0.87-.06-1.95-0.06-2,.06-2,0.06l-4.68-14.31c-1.35-4.14-2-6-3.06-7.11,0,0,1.08.06,2.82,0.06,2,0,3.09-.06,3.09-0.06a2.12,2.12,0,0,0-1,1.89,23.81,23.81,0,0,0,1.26,5l3.51,11.34c0.21,0.75.33,1.29,0.36,1.41a8,8,0,0,1,.39-1.41L929,786a24.25,24.25,0,0,0,1.26-5,2.12,2.12,0,0,0-1-1.89s1,0.06,2.67.06,2.64-.06,2.64-0.06C933.52,780.19,932.89,782.08,931.51,786.21Z" transform="translate(-337.08 -504.3)"/><path class="cls-1" d="M940.06,800.46c-1.77,0-2.52.06-2.52,0.06l0.27-.51c0.6-1.14.75-1.35,0.75-10.35,0-8.73-.12-8.85-0.75-10l-0.27-.51s0.69,0.06,2.49.06,2.52-.06,2.52-0.06l-0.27.51c-0.6,1.14-.75,1.35-0.75,10.35,0,8.73.12,8.85,0.75,10l0.27,0.51S941.83,800.46,940.06,800.46Z" transform="translate(-337.08 -504.3)"/><path class="cls-1" d="M953,800.7a11.78,11.78,0,0,1-5.22-.93s0.06-.69.06-1.83-0.06-2.28-.06-2.28c1.26,1.8,2.52,3.06,5.19,3.06,1.8,0,4.35-.3,4.35-3.18,0-1.86-1-2.7-2.31-3.57l-2.7-1.74c-2-1.32-4.41-2.7-4.41-6,0-2.82,1.86-5.28,6.75-5.28a11.58,11.58,0,0,1,4.8.87s-0.06.69-.06,1.92,0.06,2.13.06,2.13c-1.26-1.83-2.49-2.94-4.86-2.94-1.17,0-3.81.15-3.81,2.94,0,1.8,1.2,2.55,2.88,3.66l2.13,1.38c2.34,1.5,4.44,2.7,4.44,6.21C960.19,799.23,957.22,800.7,953,800.7Z" transform="translate(-337.08 -504.3)"/><path class="cls-1" d="M431.76,743.54h0l0,0h0c-0.26-.3-4.19-4.91-4.19-16.38,0,0,.11-7.91,4.52-12.5l0.14-.16h0a2.62,2.62,0,0,0,0-3.51h0l0,0a2.66,2.66,0,0,0-.61-0.5l-5.77-4.72a2.66,2.66,0,0,0-.7-0.57h0a2.64,2.64,0,0,0-1.3-.35c-1.47,0-2.87,1.6-3.53,2.83-2.74,5.08-4,9.71-6,18.37,0,0-2.52,10.18-10.24,10.18a2.63,2.63,0,0,1-2.62-2.13V711.26l0.08-1.2-0.08-.09V655.5s0-5.27,4.55-5.27a2.67,2.67,0,0,0,0-5.33c-1.81,0-9.87.55-13.33,0.55s-10.71-.55-13.33-0.55a2.67,2.67,0,0,0,0,5.33,4.87,4.87,0,0,1,4.55,5.27v34.79l-0.65-.73a4.69,4.69,0,0,1-1.18-3c0-1-.31-2.12-1.74-2.12-2.45,0-4.68,4.75-5.29,5.58,0,0-2.77,4.91-2.46,7.26a2.19,2.19,0,0,0,1.86,1.86,4.2,4.2,0,0,0,3.16-.92c1.44-1,2.26.07,3.78,1.66l2.51,2.87v34.67a4.87,4.87,0,0,1-4.55,5.27,2.67,2.67,0,0,0,0,5.33c2.62,0,21.81-.55,25.28-0.55s23.48,0.55,25.28.55a2.66,2.66,0,0,0,1.92-4.52h0Zm-32.37-58.25c0,14.36-13.56,29-13.56,29V699l-3-3.44-0.33-.35c-1.15-1.22-2.24-2.37-3.9-2.37a3.86,3.86,0,0,0-2.16.71,1.82,1.82,0,0,0-.82,1.2,0.59,0.59,0,0,1-.43-0.17c-0.13-1,.34-1.38,1.5-3.46,0.13-.19.3-0.48,0.5-0.83,1.53-2.62,2.39-3.46,2.82-3.71v0a6.64,6.64,0,0,0,1.71,4.34l4.12,4.62v-40a6.85,6.85,0,0,0-6.47-7.27,0.69,0.69,0,0,1-.75-0.67,0.67,0.67,0,0,1,.67-0.67c1.17,0,3.37.12,5.71,0.24,2.81,0.15,5.72.3,7.62,0.3,2.07,0,5.57-.18,8.67-0.34,2-.11,4-0.21,4.67-0.21a0.67,0.67,0,0,1,0,1.33c-4.77,0-6.53,4.34-6.55,7.26v29.81Z" transform="translate(-337.08 -504.3)"/><path class="cls-1" d="M902.43,742.73c-4.12,0-4.51-4.38-4.55-5.14V711.26l0.08-1.2-0.08-.09V655.5s0-5.27,4.55-5.27a2.67,2.67,0,0,0,0-5.33c-1.81,0-9.87.55-13.33,0.55s-10.71-.55-13.33-0.55a2.67,2.67,0,0,0,0,5.33,4.87,4.87,0,0,1,4.55,5.27v34.79l-0.65-.73a4.69,4.69,0,0,1-1.18-3c0-1-.31-2.12-1.74-2.12-2.45,0-4.68,4.75-5.29,5.58,0,0-2.77,4.91-2.46,7.26a2.19,2.19,0,0,0,1.86,1.86,4.2,4.2,0,0,0,3.16-.92c1.44-1,2.26.07,3.78,1.66l2.51,2.87v34.67a4.87,4.87,0,0,1-4.55,5.27,2.67,2.67,0,0,0,0,5.33c2.62,0,9.86-.55,13.33-0.55s11.53,0.55,13.33.55A2.67,2.67,0,0,0,902.43,742.73Zm-6.55-51.29c0,10.5-13.56,18.63-13.56,18.63V699.87l-3-3.44-0.33-.36c-1.15-1.22-2.24-2.36-3.9-2.36a3.86,3.86,0,0,0-2.16.71,1.32,1.32,0,0,0-.63,1.28l-0.22,0a0.23,0.23,0,0,1-.21-0.15c-0.13-1,.15-2.35,1.31-4.44,0.13-.19.3-0.48,0.5-0.83,1.53-2.62,2.39-3.46,2.82-3.71v0a6.64,6.64,0,0,0,1.71,4.34l4.12,4.62v-40a6.85,6.85,0,0,0-6.47-7.27,0.69,0.69,0,0,1-.75-0.67,0.67,0.67,0,0,1,.67-0.67c1.17,0,3.37.12,5.71,0.24,2.81,0.15,5.72.3,7.62,0.3,2.07,0,5.57-.18,8.67-0.34,2-.11,4-0.21,4.67-0.21a0.67,0.67,0,1,1,0,1.33c-4.77,0-6.53,4.34-6.55,7.25v36Z" transform="translate(-337.08 -504.3)"/><path class="cls-1" d="M867.77,742.73c-4.12,0-4.51-4.38-4.55-5.15V655.5s0-5.27,4.55-5.27a2.67,2.67,0,0,0,0-5.33c-1.81,0-9.87.55-13.33,0.55s-10.71-.55-13.33-0.55a2.67,2.67,0,0,0,0,5.33,4.87,4.87,0,0,1,4.55,5.27v27.29L838,692.64l-9.43-10.57V655.5s0-5.27,4.55-5.27a2.67,2.67,0,0,0,0-5.33c-1.81,0-9.87.55-13.33,0.55s-10.71-.55-13.33-0.55a2.67,2.67,0,0,0,0,5.33A4.87,4.87,0,0,1,811,655.5v34.79l-0.65-.73a4.69,4.69,0,0,1-1.18-3c0-1-.31-2.12-1.74-2.12-2.45,0-4.68,4.75-5.29,5.58,0,0-2.77,4.91-2.46,7.26a2.19,2.19,0,0,0,1.86,1.86,4.2,4.2,0,0,0,3.16-.92c1.44-1,2.26.07,3.78,1.66l2.51,2.87v34.67a4.87,4.87,0,0,1-4.55,5.27,2.67,2.67,0,1,0,0,5.33c2.62,0,9.86-.55,13.33-0.55s11.53,0.55,13.33.55a2.67,2.67,0,1,0,0-5.33c-4.12,0-4.51-4.38-4.55-5.15V711.26l0.08-1.2-0.08-.09V694.74l8.64,9.87h0a0.81,0.81,0,0,0,1.43,0h0l7-8.83v41.68a4.87,4.87,0,0,1-4.55,5.27,2.67,2.67,0,1,0,0,5.33c2.62,0,9.86-.55,13.33-0.55s11.53,0.55,13.33.55A2.67,2.67,0,1,0,867.77,742.73Zm-6.55-49.92c0,9.5-13.56,17.63-13.56,17.63V690l-9.78,12.32-11.33-12.94v3.89c0,8.5-13.56,18.13-13.56,18.13V699.87l-3-3.44-0.33-.35c-1.15-1.22-2.24-2.36-3.9-2.36a3.86,3.86,0,0,0-2.16.71,1.58,1.58,0,0,0-.67,1.4l-0.22,0a0.23,0.23,0,0,1-.21-0.16c-0.13-1,.19-2.48,1.36-4.56,0.13-.19.3-0.48,0.5-0.83,1.53-2.62,2.39-3.46,2.82-3.71v0a6.64,6.64,0,0,0,1.71,4.34l4.12,4.61v-40a6.85,6.85,0,0,0-6.47-7.27,0.69,0.69,0,0,1-.75-0.67,0.67,0.67,0,0,1,.67-0.67c1.17,0,3.37.12,5.71,0.24,2.81,0.15,5.72.3,7.62,0.3,2.07,0,5.57-.18,8.67-0.34,2-.11,4-0.21,4.67-0.21a0.67,0.67,0,1,1,0,1.33c-4.77,0-6.53,4.34-6.55,7.26v27.35l11.53,12.92,9.57-12.29v-28a6.85,6.85,0,0,0-6.47-7.27,0.69,0.69,0,0,1-.75-0.67,0.67,0.67,0,0,1,.67-0.67c1.17,0,3.38.12,5.71,0.24,2.81,0.15,5.71.3,7.62,0.3,2.07,0,5.57-.18,8.67-0.34,2-.11,4-0.21,4.67-0.21a0.67,0.67,0,0,1,0,1.33c-4.77,0-6.53,4.34-6.55,7.25v37.33Z" transform="translate(-337.08 -504.3)"/><path class="cls-1" d="M628.76,743.54h0l0,0h0c-0.26-.3-4.19-4.91-4.19-16.38,0,0,.11-7.91,4.52-12.5l0.14-.16h0a2.62,2.62,0,0,0,0-3.51h0l0,0a2.66,2.66,0,0,0-.61-0.5l-5.77-4.72a2.66,2.66,0,0,0-.7-0.57h0a2.64,2.64,0,0,0-1.3-.35c-1.47,0-2.87,1.6-3.53,2.83-2.74,5.08-4,9.71-6,18.37,0,0-2.52,10.18-10.24,10.18a2.63,2.63,0,0,1-2.62-2.13V711.26l0.08-1.2-0.08-.09V697.5c3.32,1.9,4.47,6.47,6.61,10.44a5.64,5.64,0,0,0,2.44,2.67,1.79,1.79,0,0,0,1.77-.09l3-2.46a2.56,2.56,0,0,0,.49-0.4l0,0h0a2.12,2.12,0,0,0,0-2.83h0l-0.12-.13c-2-2.53-1.78-7.6-1.78-7.6v-4c0-1.4,0-5.86,0-6.59s0-5.16,1.79-7.45l0.12-.13h0a2.12,2.12,0,0,0,0-2.83h0l0,0a2.56,2.56,0,0,0-.49-0.4l-3-2.46a1.79,1.79,0,0,0-1.77-.09,5.64,5.64,0,0,0-2.44,2.67c-2.14,4-3.29,8.55-6.61,10.44V658.81c0.28-2.25,2-2,2-2a25.26,25.26,0,0,1,8.51,2.05c4.43,2.2,6.8,10.24,9.54,15.32,0.66,1.22,2.06,2.83,3.53,2.83a1.78,1.78,0,0,0,1.3-.35l2.95-2.25a2.66,2.66,0,0,0,.61-0.5l0,0h0a2.62,2.62,0,0,0,0-3.51h0l-0.14-.16c-3.69-4.51-4.39-10.84-4.39-10.84-0.22-3.57-1-7.27,2.14-9.41h0a2.66,2.66,0,0,0-1.19-5c-1.81,0-30.14.55-33.61,0.55s-10.71-.55-13.33-0.55a2.67,2.67,0,0,0,0,5.33,4.87,4.87,0,0,1,4.55,5.27v34.79l-0.65-.73a4.69,4.69,0,0,1-1.18-3c0-1-.31-2.12-1.74-2.12-2.45,0-4.68,4.75-5.29,5.58,0,0-2.77,4.91-2.46,7.26a2.19,2.19,0,0,0,1.86,1.86,4.2,4.2,0,0,0,3.16-.92c1.44-1,2.26.07,3.78,1.66l2.51,2.87v34.67a4.87,4.87,0,0,1-4.55,5.27,2.67,2.67,0,0,0,0,5.33c2.62,0,21.81-.55,25.28-0.55s23.48,0.55,25.28.55a2.66,2.66,0,0,0,1.92-4.52h0Zm-32.36-85v31.14c0,11.39-13.56,21.54-13.56,21.54V699l-3-3.44-0.33-.35c-1.15-1.22-2.24-2.37-3.9-2.37a2.28,2.28,0,0,0-1.7.42,2.56,2.56,0,0,0-.94,1.41l-0.22,0a0.23,0.23,0,0,1-.21-0.16c-0.13-1,0-1.33,1.16-3.41,0.13-.19.3-0.48,0.5-0.83,1.53-2.62,2.39-3.46,2.82-3.71v0a6.64,6.64,0,0,0,1.71,4.34l4.12,4.62v-40a6.85,6.85,0,0,0-6.47-7.27,0.69,0.69,0,0,1-.75-0.67,0.67,0.67,0,0,1,.67-0.67c1.17,0,3.37.12,5.71,0.24,2.81,0.15,5.72.3,7.62,0.3s12.2-.18,21.17-0.34c6.27-.11,11.69-0.21,12.43-0.21a0.66,0.66,0,0,1,.29,1.25l-0.78.39-0.06.22c-3,2.54-2.74,6.33-2.49,9.41,0,0.44.07,0.87,0.1,1.31s0.82,7.08,4.84,12l0.08,0.09,0.12,0.12a0.63,0.63,0,0,1,0,.87l0,0-0.13.1-0.1.06L622.1,675h-0.18a3.53,3.53,0,0,1-1.77-1.77c-0.69-1.29-1.37-2.79-2.09-4.39-2.18-4.84-4.43-9.84-8.32-11.78a27.28,27.28,0,0,0-9.3-2.26H600.2C598.66,654.79,596.74,655.78,596.4,658.57Z" transform="translate(-337.08 -504.3)"/><path class="cls-1" d="M497.16,742.73a4.81,4.81,0,0,1-4.45-4l-13.77-83.32c0-.75.42-5.15,4.55-5.15a2.67,2.67,0,0,0,0-5.33c-1.81,0-10.73.55-14.2,0.55s-11.57-.55-14.2-0.55a2.67,2.67,0,0,0,0,5.33,4.86,4.86,0,0,1,4.55,5.22l-6,36.5-2.13-2.39a4.69,4.69,0,0,1-1.18-3c0-1-.31-2.12-1.74-2.12-2.45,0-4.68,4.75-5.29,5.58,0,0-2.77,4.91-2.46,7.26a2.19,2.19,0,0,0,1.86,1.86,4.2,4.2,0,0,0,3.16-.92c1.44-1,2.26.07,3.78,1.66l2.26,2.58-6,36.16h0a4.81,4.81,0,0,1-4.46,4.08,2.67,2.67,0,1,0,0,5.33c2.94,0,7.94-.55,11.4-0.55s9.6,0.55,11.4.55a2.67,2.67,0,1,0,0-5.33c-3.12,0-4.68-2.49-4.44-4l3.77-22.83L469,722h0a0.81,0.81,0,0,0,1.43,0h0l4.64-5.84,3.71,22.47h0c0.27,1.55-1.29,4.07-4.44,4.07a2.67,2.67,0,1,0,0,5.33c1.81,0,7.94-.55,11.4-0.55s8.47,0.55,11.4.55A2.67,2.67,0,1,0,497.16,742.73Zm-27.49-25.67-5.33-5.5,0.65-3.86,4.88,5.47,3.15-4,0.12,4.1Zm0.1-7-4.42-5,3.95-23.89,4,24.3Zm6.55,1-8.56-51.91-5.53,36.8C461.08,702.43,451.6,711,451.6,711c0.58-3.12,1.92-9,2.4-12.14l-2.88-3.29-0.33-.35c-1.15-1.22-2.24-2.36-3.9-2.36a2.82,2.82,0,0,0-1.91.41,4.29,4.29,0,0,0-1.18,1.68l-0.22,0a0.23,0.23,0,0,1-.21-0.16c-0.13-1,.45-1.61,1.62-3.69,0.13-.19.3-0.48,0.5-0.83,1.53-2.62,2.39-3.45,2.82-3.69a6.64,6.64,0,0,0,1.71,4.34l4.89,5.48,6.74-40.79v-0.17a6.85,6.85,0,0,0-6.47-7.21,0.69,0.69,0,0,1-.75-0.67,0.67,0.67,0,0,1,.67-0.67c1.17,0,3.57.12,6.11,0.24,3,0.15,6.19.3,8.09,0.3,2.06,0,5.85-.18,9.2-0.34,2.21-.11,4.29-0.21,5-0.21a0.67,0.67,0,0,1,0,1.33c-4.29,0-6.38,3.54-6.54,7.06v0.21l6.11,36.59C484.63,699.84,476.32,711,476.32,711Z" transform="translate(-337.08 -504.3)"/><path class="cls-1" d="M800.93,678.49h0l-0.14-.16c-4.41-4.59-4.52-12.5-4.52-12.5,0-11,3.62-15.71,4.14-16.32a2.66,2.66,0,0,0-1.81-4.62c-2.62,0-28.19.55-31.66,0.55s-29.83-.55-31.64-0.55a2.66,2.66,0,0,0-1.91,4.52h0l0,0h0c0.26,0.3,4.19,4.91,4.19,16.38,0,0-.11,7.91-4.52,12.5l-0.14.16h0a2.62,2.62,0,0,0,0,3.51h0l0,0a2.66,2.66,0,0,0,.61.5l5.77,4.72a2.66,2.66,0,0,0,.7.57h0a2.64,2.64,0,0,0,1.3.35c1.47,0,2.87-1.6,3.53-2.83,2.74-5.08,4-9.71,6-18.37,0,0,1.37-10.18,5.27-10.18,0,0,2-.29,2,2.66v30.83l-0.65-.73a4.69,4.69,0,0,1-1.18-3c0-1-.31-2.12-1.74-2.12-2.45,0-4.68,4.75-5.29,5.58,0,0-2.77,4.91-2.46,7.26a2.19,2.19,0,0,0,1.86,1.86,4.2,4.2,0,0,0,3.16-.92c1.44-1,2.26.07,3.78,1.66l2.51,2.87V738c-0.16,1.37-.92,4.68-4.51,4.68a2.67,2.67,0,1,0,0,5.33c1.81,0,9.87-.55,13.33-0.55s10.71,0.55,13.33.55a2.67,2.67,0,0,0,0-5.33,4.87,4.87,0,0,1-4.55-5.27h0v-26.2l0.08-1.2-0.08-.09V659.3c0.08-2.77,2-2.49,2-2.49C781.6,656.8,783,667,783,667c2,8.66,3.28,13.29,6,18.37,0.66,1.22,2.06,2.83,3.53,2.83a2.64,2.64,0,0,0,1.3-.35h0a2.66,2.66,0,0,0,.7-0.57l5.77-4.72a2.66,2.66,0,0,0,.61-0.5l0,0h0A2.62,2.62,0,0,0,800.93,678.49Zm-1.5,2.19,0,0-0.13.1-0.12.08-6,4.92-0.11.13a0.65,0.65,0,0,1-.17.14l0,0a0.64,0.64,0,0,1-.29.08,3.53,3.53,0,0,1-1.77-1.77c-2.58-4.79-3.76-9.11-5.81-17.79-0.4-2.88-2-11.69-7.12-11.81h-0.25c-1.85,0-3.76,1.37-3.85,4.45v31.41c0,7.17-13.56,22.92-13.56,22.92v-14l-3-3.44-0.33-.35c-1.15-1.22-2.24-2.36-3.9-2.36a3.86,3.86,0,0,0-2.16.71,1.29,1.29,0,0,0-.56,1.37l-0.22,0a0.23,0.23,0,0,1-.21-0.16c-0.13-1,.07-2.12,1.24-4.21,0.13-.19.3-0.48,0.5-0.83,1.53-2.62,2.39-3.45,2.82-3.71v0a6.64,6.64,0,0,0,1.71,4.34l4.12,4.62V659.46c0-3.68-2.42-4.67-3.85-4.67H756c-5.08.13-6.72,8.93-7.12,11.81-2.05,8.68-3.23,13-5.81,17.79a3.53,3.53,0,0,1-1.77,1.77,0.65,0.65,0,0,1-.32-0.09,0.66,0.66,0,0,1-.18-0.15l-0.11-.13-6-4.92-0.12-.08-0.13-.1,0,0a0.62,0.62,0,0,1,0-.86l0.08-.09c4.9-5.1,5.07-13.5,5.08-13.86,0-11.86-4-17-4.66-17.7l-0.1-.12,0,0a0.65,0.65,0,0,1-.18-0.45,0.67,0.67,0,0,1,.67-0.67c0.74,0,5.81.1,11.68,0.21,8.4,0.16,17.92.34,20,.34,1.87,0,9.91-.15,17.67-0.3,6.57-.13,12.78-0.24,14-0.24a0.67,0.67,0,0,1,.67.67,0.66,0.66,0,0,1-.22.48l-0.09.08-0.08.09c-0.77.91-4.61,6-4.61,17.61,0,0.38.17,8.79,5.07,13.88l0.07,0.08a0.66,0.66,0,0,1,.19.45A0.65,0.65,0,0,1,799.42,680.68Z" transform="translate(-337.08 -504.3)"/><path class="cls-1" d="M943.37,689.77c-9.79-5.31-16.8-8.92-17.19-21.44-0.23-7.27,1.87-13.21,8.69-12.83,3.89,0,7.43,6.81,7.43,6.81,4.56,8.06,4.87,12.87,7.6,17.95,0.66,1.22,2.06,2.83,3.53,2.83a1.78,1.78,0,0,0,1.3-.35l3.58-2.78a2.65,2.65,0,0,0,.67-1.75,5.36,5.36,0,0,0-1.08-2.48s-1.92-2.41-2.61-12.79c-0.29-3.32.51-10.85,3.63-13a6.1,6.1,0,0,0-.73-4.25s-3.32,3-6.9,3c-2,0-6.93-2.28-10.76-2.79a43.14,43.14,0,0,0-11.21,0l0,0c-9.75.65-19.17,7.06-19.17,25.76a35,35,0,0,0,7.77,21.36,19.64,19.64,0,0,1-5.62-3.35,3.89,3.89,0,0,1-1-2.47c0-.85-0.26-1.76-1.44-1.76-2,0-3.88,3.94-4.39,4.63,0,0-2.3,4.07-2,6a1.82,1.82,0,0,0,1.55,1.55c0.73,0.12,1.36-.35,2.62-0.76,2.49-.81,9.94,4.67,18.23,4.25a34,34,0,0,0,2.81,2.08s18,9.48,18,21c0,12.62-10.49,11.89-10.49,11.89-7.72,0-10.24-10.18-10.24-10.18-2-8.66-3.28-13.29-6-18.37-0.66-1.22-2.06-2.83-3.53-2.83a2.64,2.64,0,0,0-1.3.35h0a2.66,2.66,0,0,0-.7.57l-5.77,4.72a2.66,2.66,0,0,0-.61.5l0,0h0a2.62,2.62,0,0,0,0,3.51h0l0.14,0.16c4.41,4.59,4.52,12.5,4.52,12.5,0,11.48-3.93,16.09-4.19,16.38h0l0,0h0a2.66,2.66,0,0,0,1.92,4.52c4.32,0,4.64-4.1,9.43-4.1,5.55,0,7.51,3.55,15.85,3.55,9.75,0,27.46-.07,27.46-30.87C963.07,716.65,963.07,700.76,943.37,689.77Zm-28.8,5.42c-2.23-.87-4-1.56-5.44-1.56a3.88,3.88,0,0,0-1.21.18c-0.48.16-.87,0.32-1.22,0.46l-0.34.14a6.11,6.11,0,0,1,.87-3.24c0.11-.16.25-0.4,0.42-0.69a14.78,14.78,0,0,1,1.75-2.55,5.91,5.91,0,0,0,1.46,3.14l0.07,0.07,0.07,0.06a21.61,21.61,0,0,0,6.27,3.74Zm21.8,10.66s-6.09-4-6.67-4.32A23.46,23.46,0,0,1,922,695l-2.42-3.15c-4.88-6.33-7.35-13.11-7.35-20.14,0-14.58,6.15-23,17.3-23.77l3.17-.21-0.08-.13c0.71,0,1.51-.07,2.4-0.07a40.3,40.3,0,0,1,5.29.34,36.44,36.44,0,0,1,5.86,1.56,19.35,19.35,0,0,0,5.17,1.25A11.8,11.8,0,0,0,957,649c-3.36,3.31-4,10.91-3.67,14.13,0.69,10.43,2.65,13.37,3,13.86L956.4,677a4.3,4.3,0,0,1,.59,1.24,0.61,0.61,0,0,1-.1.24l-3.29,2.55h-0.18a3.53,3.53,0,0,1-1.77-1.77,40.41,40.41,0,0,1-2.56-6.33A62.61,62.61,0,0,0,944,661.33c-0.65-1.25-4.27-7.78-9.11-7.83l-0.66,0a8.94,8.94,0,0,0-6.69,2.65c-2.43,2.51-3.58,6.63-3.4,12.26,0.42,13.48,8.08,17.63,17.79,22.89C942,691.29,945.66,702.12,936.37,705.84Z" transform="translate(-337.08 -504.3)"/><path class="cls-1" d="M562.88,690.37L560,687.78l2.83-2.58c6.23-5.58,6.23-10.6,6.23-10.6V661.12s0-15.86-13.77-15.86c-1.81,0-18,.55-21.44.55s-22.66-.55-25.28-0.55a2.67,2.67,0,1,0,0,5.33s4.61,0.05,4.55,10.4v29.3l-0.65-.73a4.69,4.69,0,0,1-1.18-3c0-1-.31-2.12-1.74-2.12-2.45,0-4.68,4.75-5.29,5.58,0,0-2.77,4.91-2.46,7.26a2.19,2.19,0,0,0,1.86,1.86,4.2,4.2,0,0,0,3.16-.92c1.44-1,2.26.07,3.78,1.66l2.51,2.87v30c-0.08,9.87-4.55,9.92-4.55,9.92a2.67,2.67,0,1,0,0,5.33c2.62,0,21.81-.55,25.28-0.55s19.64,0.55,21.44.55c14.77,0,14.77-15.86,14.77-15.86V701S570.12,696.19,562.88,690.37Zm-14.73,40c0,5.5-4.61,5.13-4.61,5.13h-8.86c-3.07,0-3.79-2.46-4-3.92v-17L548,698.78c0.14,1.26.14,2.19,0.14,2.19v29.42Zm-18-24.33,0.17-4.13,16.51-17.27c3.17-2.92,3.32-8.88,3.32-10.06V662.93c0-4.93-3.23-7.14-6.43-7.14h-9c-3.3,0-5.52,2.11-5.93,5.65v28.73c0,8.5-13.56,20-13.56,20V699.74l-3-3.44-0.33-.35c-1.15-1.22-2.24-2.36-3.9-2.36a2.41,2.41,0,0,0-1.73.48,3.9,3.9,0,0,0-1.12,1.75l-0.22,0a0.23,0.23,0,0,1-.21-0.16c-0.13-1,.21-2.46,1.38-4.54,0.13-.19.3-0.48,0.5-0.83,1.53-2.62,2.39-3.46,2.82-3.71v0a6.64,6.64,0,0,0,1.71,4.34l4.12,4.62V661c0.07-12-5.85-12.39-6.53-12.4a0.67,0.67,0,1,1,0-1.33c1.2,0,6,.12,11.12.24,6,0.15,12.28.3,14.16,0.3,2,0,8.21-.18,13.65-0.34,3.63-.11,7.06-0.21,7.79-0.21,11.58,0,11.77,13.3,11.77,13.87v9.08c0,0.15-.18,4.29-5.57,9.11Zm0.59-7.45V661.68c0.17-1.46.91-3.88,3.95-3.88h8.86s4.61-.37,4.61,5.13V674.6s0,6.2-2.41,8.31Z" transform="translate(-337.08 -504.3)"/><path class="cls-1" d="M694.76,743.54h0l0,0h0c-0.26-.3-4.19-4.91-4.19-16.38,0,0,.11-7.91,4.52-12.5l0.14-.16h0a2.62,2.62,0,0,0,0-3.51h0l0,0a2.66,2.66,0,0,0-.61-0.5l-5.77-4.72a2.66,2.66,0,0,0-.7-0.57h0a2.64,2.64,0,0,0-1.3-.35c-1.47,0-2.87,1.6-3.53,2.83-2.74,5.08-4,9.71-6,18.37,0,0-2.52,10.18-10.24,10.18a2.63,2.63,0,0,1-2.62-2.13V711.26l0.08-1.2-0.08-.09V655.5s0-5.27,4.55-5.27a2.67,2.67,0,1,0,0-5.33c-1.81,0-9.87.55-13.33,0.55s-10.71-.55-13.33-0.55a2.67,2.67,0,0,0,0,5.33,4.87,4.87,0,0,1,4.55,5.27v34.79l-0.65-.73a4.69,4.69,0,0,1-1.18-3c0-1-.31-2.12-1.74-2.12-2.45,0-4.68,4.75-5.29,5.58,0,0-2.77,4.91-2.46,7.26a2.19,2.19,0,0,0,1.86,1.86,4.2,4.2,0,0,0,3.16-.92c1.44-1,2.26.07,3.78,1.66l2.51,2.87v34.67a4.87,4.87,0,0,1-4.55,5.27,2.67,2.67,0,0,0,0,5.33c2.62,0,21.81-.55,25.28-0.55s23.48,0.55,25.28.55a2.66,2.66,0,0,0,1.92-4.52h0Zm-32.35-58.25c0,14.36-13.56,29-13.56,29V699l-3-3.44-0.33-.35c-1.15-1.22-2.24-2.37-3.9-2.37a3.86,3.86,0,0,0-2.16.71,1.82,1.82,0,0,0-.82,1.2,0.59,0.59,0,0,1-.43-0.17c-0.13-1,.34-1.38,1.5-3.46,0.13-.19.3-0.48,0.5-0.83,1.53-2.62,2.39-3.46,2.82-3.71v0a6.64,6.64,0,0,0,1.71,4.34l4.12,4.62v-40a6.85,6.85,0,0,0-6.47-7.27,0.69,0.69,0,0,1-.75-0.67,0.67,0.67,0,0,1,.67-0.67c1.17,0,3.37.12,5.71,0.24,2.81,0.15,5.72.3,7.62,0.3,2.07,0,5.57-.18,8.67-0.34,2-.11,4-0.21,4.67-0.21a0.67,0.67,0,1,1,0,1.33c-4.77,0-6.53,4.34-6.55,7.26v29.81Z" transform="translate(-337.08 -504.3)"/><path class="cls-1" d="M486,559.31a3,3,0,0,0-.92.17,4.61,4.61,0,0,0-1.89,1.35l-0.9,1L487,566c4.54,4.09,4.66,4.09,5.57,4.33l0.39,0.1s-0.36.34-1.18,1.24-1.13,1.31-1.13,1.31l-0.14-.38c-0.32-.84-0.36-1-5-5.24l-4.51-4.07-0.9,1a4.61,4.61,0,0,0-1.14,2,2.86,2.86,0,0,0-.08.93,10.92,10.92,0,0,0-.91-0.9c-0.56-.51-0.82-0.72-0.82-0.72l7.13-7.91s0.24,0.24.8,0.75A11.11,11.11,0,0,0,486,559.31Z" transform="translate(-337.08 -504.3)"/><path class="cls-1" d="M505.59,559.4c-1,.75-1.34,1.1-1.34,1.1l-0.07-.4c-0.17-.85-0.2-1.09-3.67-5.5l-5.36,4.21c3.48,4.42,3.63,4.49,4.48,4.87l0.37,0.17s-0.41.27-1.37,1-1.33,1.1-1.33,1.1l-0.07-.39c-0.17-.88-0.18-1.06-4.07-6s-3.89-4.82-4.75-5.21l-0.37-.17s0.42-.27,1.37-1,1.34-1.1,1.34-1.1l0.07,0.4c0.16,0.84.19,1.08,3.38,5.14l5.36-4.21c-3.18-4-3.38-4.13-4.19-4.5l-0.37-.17s0.41-.27,1.37-1,1.33-1.1,1.33-1.1l0.07,0.39c0.17,0.88.18,1.06,4.07,6s3.89,4.82,4.75,5.21l0.37,0.17S506.55,558.65,505.59,559.4Z" transform="translate(-337.08 -504.3)"/><path class="cls-1" d="M517.59,551.12l0.29,0.56-6.06,3.64c-1,.57-1.35.84-1.35,0.84l0-.4c-0.06-.9,0-1.08-3.3-6.47-3.15-5.24-3.27-5.26-4.07-5.76l-0.34-.21s0.4-.21,1.35-0.79L510,539s0.16,0.3.55,0.95a11.26,11.26,0,0,0,.71,1.07,3.05,3.05,0,0,0-.93-0.1,4.65,4.65,0,0,0-2.18.77l-2.33,1.4,2.81,4.66,1.91-1.15a4.73,4.73,0,0,0,1.74-1.51,3.07,3.07,0,0,0,.35-0.85s0.27,0.57.79,1.43,0.87,1.32.89,1.35a3,3,0,0,0-.93-0.1,4.73,4.73,0,0,0-2.15.83l-1.91,1.15,2.83,4.7,2.15-1.3c2.19-1.32,2.16-2,2.23-3.37C516.52,548.89,516.82,549.6,517.59,551.12Z" transform="translate(-337.08 -504.3)"/><path class="cls-1" d="M538.13,542c-1.11.49-1.59,0.74-1.59,0.74l0-.4c0.07-.92.08-1.09-2.43-6.85l-2.52-5.75a9.19,9.19,0,0,1,.18,1.59L532,541.94l-7.55-7.33a11.8,11.8,0,0,1-1.1-1.24l2.59,5.91c2.45,5.6,2.53,5.63,3.29,6.24l0.31,0.25s-0.49.17-1.39,0.57-1.3.62-1.3,0.62l0-.4c0-.87.07-1.06-2.45-6.84-2.45-5.6-2.54-5.65-3.27-6.25l-0.31-.25s0.75-.28,1.81-0.75,1.58-.76,1.58-0.76l5.81,5.66c0.34,0.38.5,0.52,0.51,0.55a3.21,3.21,0,0,1-.07-0.77l-0.16-8.07s0.72-.27,1.66-0.68,1.64-.79,1.64-0.79l0,0.4c-0.07.88-.09,1.07,2.43,6.84,2.45,5.6,2.56,5.64,3.29,6.24l0.31,0.25S539.24,541.49,538.13,542Z" transform="translate(-337.08 -504.3)"/><path class="cls-1" d="M552.57,536.68c-1.07.38-1.83,0.69-1.83,0.69a1.49,1.49,0,0,0,.18-1.47,18.36,18.36,0,0,0-1.93-3l-0.79-1.12-4.33,1.53,0.09,1.37a17.16,17.16,0,0,0,.41,3.58,1.5,1.5,0,0,0,1.08,1s-0.69.2-1.74,0.57-1.64.62-1.64,0.62c0.47-1,.38-2.34.26-5.37l-0.4-9.15a2.49,2.49,0,0,0-.1-0.79,0.6,0.6,0,0,0-.28-0.37l3.67-1.3a0.79,0.79,0,0,0,0,.46,2.46,2.46,0,0,0,.4.68l5.29,7.42c1.77,2.47,2.55,3.58,3.52,4C554.47,536.05,553.74,536.27,552.57,536.68Zm-8.27-10.47c-0.49-.72-0.83-1.18-0.93-1.34,0,0.15,0,.7.1,1.64l0.31,5.33,3.61-1.28Z" transform="translate(-337.08 -504.3)"/><path class="cls-1" d="M560.78,523l-1,4.49c1.48,4.95,1.66,5.27,2.31,5.93l0.28,0.29s-0.49.1-1.65,0.45-1.67.54-1.67,0.54l0.08-.4c0.16-.82.14-1.31-1.18-5.74l-3.62-3.69c-2.76-2.81-2.94-2.93-3.8-3.27,0,0,.54-0.12,2.06-0.57s1.94-.62,1.94-0.62a1.32,1.32,0,0,0-.17,1.08c0.17,0.56.34,0.78,1.88,2.4l2.36,2.49,0.57-3.39c0.37-2.19.35-2.43,0.18-3a1.32,1.32,0,0,0-.74-0.81s0.7-.17,1.75-0.48c1.3-.39,1.78-0.58,1.78-0.58C561.68,518.76,561.57,519.17,560.78,523Z" transform="translate(-337.08 -504.3)"/><path class="cls-1" d="M577.06,514.72c-0.2.83-.25,1,1.26,7.15l1.76,7.2a10.63,10.63,0,0,0-1.24.24,12.18,12.18,0,0,0-1.33.39l-8.76-10a6.72,6.72,0,0,1-.87-1.28l1.41,5.69c1.46,5.93,1.57,6,2.19,6.71l0.27,0.3s-0.51.08-1.49,0.33-1.41.39-1.41,0.39l0.09-.39c0.2-.83.29-1-1.22-7.16-1.47-5.93-1.57-6-2.19-6.71l-0.27-.3s0.43-.06,1.71-0.38c1-.25,1.51-0.42,1.51-0.42l8.7,9.94a6.07,6.07,0,0,1,.94,1.3l-1.4-5.67c-1.47-5.93-1.57-6-2.19-6.71l-0.27-.3s0.47-.07,1.45-0.32,1.43-.4,1.43-0.4Z" transform="translate(-337.08 -504.3)"/><path class="cls-1" d="M594.12,526.11c-1.11.22-1.91,0.42-1.91,0.42a1.49,1.49,0,0,0,.39-1.43,18.36,18.36,0,0,0-1.47-3.28l-0.62-1.23-4.51.9-0.1,1.37a17.18,17.18,0,0,0-.1,3.6,1.5,1.5,0,0,0,.93,1.17s-0.72.1-1.81,0.32-1.71.38-1.71,0.38c0.6-.89.7-2.26,1-5.28l0.91-9.11a2.49,2.49,0,0,0,0-.79,0.6,0.6,0,0,0-.23-0.4l3.82-.76a0.79,0.79,0,0,0,0,.46,2.47,2.47,0,0,0,.29.73l4.18,8.1c1.4,2.7,2,3.9,2.91,4.5C596.09,525.76,595.34,525.87,594.12,526.11Zm-6.69-11.54c-0.39-.78-0.65-1.28-0.73-1.46,0,0.15-.05.7-0.14,1.63l-0.45,5.32,3.76-.75Z" transform="translate(-337.08 -504.3)"/><path class="cls-1" d="M608.85,523.77c-1.4.22-2-.34-3.21-1.7L603.81,520c-1.58-1.79-1.87-2.17-3-2a3.26,3.26,0,0,0-.34.08c0.84,5.27,1,5.59,1.54,6.35l0.24,0.32s-0.49,0-1.67.22-1.68.31-1.68,0.31l0.13-.38c0.26-.83.36-1-0.63-7.24-1-6-1.06-6.1-1.62-6.87l-0.24-.32s0.6-.05,1.43-0.19c0.59-.09,1.6-0.3,2.33-0.42,2.36-.38,5.46-0.68,6,2.87,0.27,1.68-.26,4.1-3.85,4.63,1.77,0,2.55.8,3.89,2.42l1.24,1.48c0.9,1.09,1.57,1.88,2.47,2.12A2.93,2.93,0,0,1,608.85,523.77Zm-8.42-12.63c-0.55.09-1,.2-1,0.2l0.87,5.47s0.41,0,1.19-.15c0.24,0,.87-0.18,1.21-0.28,1-.33,1.76-1.37,1.49-3.07C603.79,510.88,602.28,510.85,600.43,511.15Z" transform="translate(-337.08 -504.3)"/><path class="cls-1" d="M616.77,522.69c-0.88.11-1.68,0.14-2.48,0.24-1.12.14-1.67,0.25-1.67,0.25l0.14-.38c0.32-.82.4-1-0.36-7.25-0.74-6.06-.83-6.14-1.36-6.92l-0.23-.33s0.56,0,1.68-.16c0.82-.1,1.89-0.29,2.77-0.4,2.09-.25,7.73-0.77,8.57,6.2C624.77,521.57,619.35,522.38,616.77,522.69Zm-1.63-13.61c-0.8.1-1.4,0.23-1.4,0.23l1.48,12.17s0.7,0,1.36-.1c2.7-.33,5.76-1.27,5.07-6.94C621,509.09,618,508.73,615.14,509.07Z" transform="translate(-337.08 -504.3)"/><path class="cls-1" d="M644.27,520.06c-1.13.08-1.95,0.18-1.95,0.18a1.49,1.49,0,0,0,.57-1.37,18.38,18.38,0,0,0-1-3.44l-0.46-1.29-4.58.32-0.28,1.35a17.18,17.18,0,0,0-.56,3.55,1.5,1.5,0,0,0,.77,1.27s-0.72,0-1.83.09-1.74.17-1.74,0.17c0.71-.81,1-2.15,1.69-5.11l2.06-8.92a2.5,2.5,0,0,0,.11-0.79,0.6,0.6,0,0,0-.17-0.43l3.88-.27a0.8,0.8,0,0,0-.09.45,2.46,2.46,0,0,0,.2.77l3.12,8.56c1,2.85,1.51,4.13,2.32,4.83C646.27,520,645.5,520,644.27,520.06Zm-5.18-12.29c-0.28-.82-0.49-1.36-0.54-1.54,0,0.15-.14.68-0.34,1.6l-1.12,5.22,3.82-.27Z" transform="translate(-337.08 -504.3)"/><path class="cls-1" d="M661.45,519.36c-1.22,0-1.75.1-1.75,0.1l0.17-.36c0.41-.83.48-1,0.27-7.25l-0.21-6.27a9.17,9.17,0,0,1-.42,1.55l-3.71,10-4.3-9.6a11.88,11.88,0,0,1-.57-1.56l0.22,6.44c0.2,6.11.27,6.17,0.75,7l0.2,0.35s-0.52,0-1.5,0-1.44.09-1.44,0.09l0.17-.36c0.37-.79.46-1,0.25-7.25-0.2-6.1-.27-6.19-0.73-7l-0.2-.35s0.81,0,2,0,1.75-.12,1.75-0.12l3.3,7.41c0.18,0.48.27,0.66,0.27,0.71a3.21,3.21,0,0,1,.22-0.74l2.84-7.55s0.76,0,1.79,0,1.81-.12,1.81-0.12l-0.17.36c-0.39.79-.48,1-0.27,7.26,0.2,6.1.29,6.19,0.75,7l0.2,0.35S662.66,519.32,661.45,519.36Z" transform="translate(-337.08 -504.3)"/><path class="cls-1" d="M676.26,518.7l0,0.63-7.07,0c-1.11,0-1.59,0-1.59,0l0.19-.36c0.42-.79.52-0.94,0.56-7.24,0-6.11,0-6.19-.47-7l-0.18-.36s0.45,0,1.57,0l6.88,0s0,0.34,0,1.09a11.16,11.16,0,0,0,.05,1.28,3,3,0,0,0-.74-0.57,4.65,4.65,0,0,0-2.26-.48l-2.72,0,0,5.44h2.22a4.72,4.72,0,0,0,2.27-.38,3.06,3.06,0,0,0,.75-0.54s-0.07.63-.07,1.64,0.05,1.58.05,1.62a3,3,0,0,0-.74-0.57,4.74,4.74,0,0,0-2.26-.41h-2.22l0,5.48,2.51,0c2.55,0,2.89-.59,3.66-1.72C676.5,516.25,676.39,517,676.26,518.7Z" transform="translate(-337.08 -504.3)"/><path class="cls-1" d="M690.63,519.76c-1.42,0-1.92-.71-2.84-2.27l-1.41-2.38c-1.22-2.05-1.43-2.48-2.54-2.51a3.15,3.15,0,0,0-.35,0c-0.16,5.33-.09,5.67.32,6.52l0.17,0.36s-0.49-.06-1.69-0.09-1.71,0-1.71,0l0.2-.35c0.41-.76.54-0.93,0.73-7.23,0.18-6.11.1-6.2-.31-7L681,504.4s0.6,0.06,1.44.09c0.6,0,1.63,0,2.37,0,2.39,0.07,5.49.36,5.39,3.95-0.05,1.7-1,4-4.65,3.83,1.74,0.28,2.35,1.27,3.37,3.11l0.94,1.69c0.68,1.24,1.19,2.14,2,2.54A2.94,2.94,0,0,1,690.63,519.76Zm-5.91-14c-0.56,0-1,0-1,0l-0.17,5.54s0.41,0.05,1.19.08c0.25,0,.89,0,1.24,0,1.08-.14,2-1,2-2.73C688.07,506.15,686.6,505.83,684.72,505.77Z" transform="translate(-337.08 -504.3)"/><path class="cls-1" d="M696.23,519.95c-1.21-.07-1.73-0.05-1.73-0.05l0.2-.35c0.46-.77.57-0.92,0.91-7.21,0.33-6.1.26-6.19-.13-7.05l-0.17-.37s0.47,0.07,1.7.13,1.73,0.05,1.73.05l-0.2.35c-0.45.77-.57,0.92-0.91,7.21-0.33,6.1-.26,6.19.13,7.05l0.17,0.37S697.44,520,696.23,519.95Z" transform="translate(-337.08 -504.3)"/><path class="cls-1" d="M715.63,506.73c-0.45.72-.57,0.9-1.09,7.18l-0.63,7.39a10.32,10.32,0,0,0-1.25-.17,12,12,0,0,0-1.38-.05l-5.11-12.29a6.78,6.78,0,0,1-.42-1.49l-0.48,5.84c-0.5,6.09-.43,6.18-0.06,7.06l0.16,0.37s-0.51-.08-1.52-0.17-1.46-.08-1.46-0.08l0.21-.34c0.45-.72.61-0.9,1.13-7.18,0.5-6.09.43-6.18,0.06-7.06l-0.16-.37s0.43,0.08,1.74.19c1,0.09,1.56.09,1.56,0.09l5.08,12.2a6.09,6.09,0,0,1,.47,1.54l0.48-5.82c0.5-6.09.43-6.18,0.06-7.06l-0.16-.37s0.47,0.08,1.48.16,1.48,0.08,1.48.08Z" transform="translate(-337.08 -504.3)"/><path class="cls-1" d="M727.58,522.17l-0.11.62-7-.83c-1.11-.13-1.58-0.17-1.58-0.17l0.23-.33c0.5-.74.62-0.88,1.36-7.14,0.71-6.07.64-6.16,0.31-7l-0.14-.38s0.45,0.07,1.55.2l6.83,0.81s-0.06.33-.15,1.08a11.14,11.14,0,0,0-.09,1.28,3,3,0,0,0-.67-0.65,4.65,4.65,0,0,0-2.2-.72l-2.7-.32-0.64,5.4,2.21,0.26a4.73,4.73,0,0,0,2.3-.13,3.07,3.07,0,0,0,.8-0.46s-0.13.62-.25,1.62-0.12,1.57-.13,1.61a3,3,0,0,0-.67-0.65,4.74,4.74,0,0,0-2.2-.66l-2.21-.26-0.64,5.44,2.5,0.29c2.54,0.3,2.94-.27,3.83-1.3C728.1,519.75,727.91,520.49,727.58,522.17Z" transform="translate(-337.08 -504.3)"/><path class="cls-1" d="M744.56,525.54c-6.56-1.11-6.34-6.1-5.93-8.54,0.83-4.93,4-7.25,8.61-6.47a7.76,7.76,0,0,1,3.47,1.2s-0.12.47-.27,1.34-0.2,1.46-.2,1.46A3.72,3.72,0,0,0,747,511.9c-2.07-.35-5.29,0-6.19,5.36-0.56,3.31,0,6.24,4,6.92a3.81,3.81,0,0,0,4-1.46s-0.16.68-.31,1.57-0.17,1.27-.17,1.27A10.25,10.25,0,0,1,744.56,525.54Z" transform="translate(-337.08 -504.3)"/><path class="cls-1" d="M757.87,528.23c-4.11-.88-5.77-4.26-4.84-8.57,0.38-1.79,2-7.76,8.08-6.46,4.11,0.88,5.77,4.26,4.84,8.57C765.56,523.56,763.95,529.53,757.87,528.23Zm2.92-13.66c-2.16-.46-4.49.63-5.5,5.33s0.66,6.48,2.89,7,4.49-.63,5.5-5.33S763,515,760.79,514.57Z" transform="translate(-337.08 -504.3)"/><path class="cls-1" d="M775.92,531.68l-0.2.6-6-1.55c-1.08-.28-1.54-0.38-1.54-0.38l0.27-.3c0.6-.67.74-0.79,2.31-6.88,1.53-5.92,1.47-6,1.27-6.94l-0.09-.39s0.45,0.16,1.64.47,1.71,0.4,1.71.4l-0.27.3c-0.6.67-.75,0.83-2.27,6.7l-1.56,6,1.55,0.4c2.47,0.64,2.95.13,4-.77C776.76,529.36,776.47,530.07,775.92,531.68Z" transform="translate(-337.08 -504.3)"/><path class="cls-1" d="M786.9,534.92l-0.22.59-5.9-1.78c-1.07-.32-1.53-0.44-1.53-0.44l0.28-.29c0.62-.65.77-0.76,2.58-6.79,1.76-5.85,1.7-6,1.53-6.89l-0.08-.4s0.44,0.18,1.63.53,1.69,0.46,1.69.46l-0.28.29c-0.62.65-.78,0.8-2.52,6.61l-1.79,6,1.54,0.46c2.45,0.74,2.94.25,4-.62C787.83,532.63,787.51,533.32,786.9,534.92Z" transform="translate(-337.08 -504.3)"/><path class="cls-1" d="M798.57,538.92l-0.25.58-6.67-2.34c-1-.37-1.5-0.51-1.5-0.51l0.29-.28c0.65-.62.8-0.72,2.89-6.66,2-5.76,2-5.87,1.84-6.81l-0.06-.4s0.42,0.17,1.47.54l6.49,2.28s-0.13.31-.38,1a11.06,11.06,0,0,0-.37,1.23,3,3,0,0,0-.51-0.78,4.65,4.65,0,0,0-2-1.19l-2.57-.9-1.8,5.13,2.1,0.74a4.75,4.75,0,0,0,2.27.38,3.08,3.08,0,0,0,.88-0.27s-0.27.57-.6,1.52-0.46,1.51-.48,1.55a3,3,0,0,0-.51-0.78,4.74,4.74,0,0,0-2-1.13l-2.1-.74-1.82,5.17,2.37,0.83c2.41,0.85,2.92.38,4-.43C799.6,536.68,799.25,537.36,798.57,538.92Z" transform="translate(-337.08 -504.3)"/><path class="cls-1" d="M808.56,543.8c-6.14-2.58-4.79-7.39-3.83-9.67,1.94-4.61,5.53-6.15,9.86-4.33a7.76,7.76,0,0,1,3.11,2s-0.22.43-.57,1.24-0.53,1.37-.53,1.37a3.72,3.72,0,0,0-2.53-3.29c-1.94-.81-5.16-1.19-7.25,3.81-1.3,3.1-1.41,6.08,2.35,7.66a3.82,3.82,0,0,0,4.21-.51s-0.31.62-.66,1.46-0.46,1.2-.46,1.2A10.28,10.28,0,0,1,808.56,543.8Z" transform="translate(-337.08 -504.3)"/><path class="cls-1" d="M829.36,539.67a3,3,0,0,0-.41-0.84,4.6,4.6,0,0,0-1.79-1.47l-1.2-.6-2.83,5.6c-2.76,5.45-2.72,5.57-2.71,6.51v0.4s-0.42-.26-1.51-0.81-1.56-.74-1.56-0.74l0.33-.24c0.73-.53.89-0.61,3.73-6.23l2.74-5.42-1.2-.6a4.6,4.6,0,0,0-2.25-.57,2.87,2.87,0,0,0-.92.17,10.46,10.46,0,0,0,.63-1.12c0.34-.67.47-1,0.47-1l9.51,4.8s-0.17.29-.51,1A10.91,10.91,0,0,0,829.36,539.67Z" transform="translate(-337.08 -504.3)"/><path class="cls-1" d="M827.75,553.28c-1-.62-1.51-0.84-1.51-0.84l0.34-.21c0.76-.48.92-0.55,4.12-6,3.1-5.27,3.08-5.38,3.13-6.32l0-.4s0.39,0.28,1.45.9,1.51,0.84,1.51.84l-0.34.21c-0.76.48-.92,0.55-4.12,6-3.1,5.27-3.08,5.38-3.13,6.32l0,0.4S828.8,553.9,827.75,553.28Z" transform="translate(-337.08 -504.3)"/><path class="cls-1" d="M837.7,560.1c-3.4-2.48-3.53-6.24-.93-9.8,1.08-1.48,5-6.27,10-2.61,3.4,2.48,3.53,6.24.93,9.8C846.63,559,842.73,563.77,837.7,560.1Zm8.23-11.28c-1.78-1.3-4.36-1.25-7.2,2.63s-2,6.18-.19,7.53,4.36,1.25,7.2-2.63S847.77,550.17,845.93,548.82Z" transform="translate(-337.08 -504.3)"/><path class="cls-1" d="M864.75,564.75c-0.82.24-1,.29-5.6,4.63l-5.39,5.09a10.49,10.49,0,0,0-.82-1,12.16,12.16,0,0,0-1-1L856.33,560a6.76,6.76,0,0,1,.68-1.39l-4.25,4c-4.44,4.21-4.44,4.32-4.75,5.21l-0.13.38s-0.32-.4-1-1.14-1-1-1-1l0.39-.11c0.82-.24,1.05-0.26,5.63-4.6s4.44-4.32,4.75-5.21l0.13-.38s0.27,0.34,1.17,1.3c0.72,0.76,1.11,1.11,1.11,1.11l-4.35,12.47a6.06,6.06,0,0,1-.67,1.46l4.24-4c4.44-4.21,4.44-4.32,4.75-5.21l0.13-.38s0.29,0.37,1,1.11,1.05,1,1.05,1Z" transform="translate(-337.08 -504.3)"/><path class="cls-1" d="M842.16,590.28a1.5,1.5,0,0,1-1.06-.44c-15.52-15.52-61.32-9.31-61.78-9.25a1.5,1.5,0,0,1-.51-3c15.93-3.26,21.67-12.4,23.55-16.8-5.11,1.18-7.79,1-23.4-.63-12.31-1.26-20.18,2.68-23.59,5q-1,.83-2.12,1.64a1.5,1.5,0,0,1-1.93-2.29,17.85,17.85,0,0,1,2.39-1.88c7.74-6.52,9.79-13.87,10.34-17.62-7.91,3.53-19.55,3.93-20.09,3.94a33.14,33.14,0,0,0-18,4.85,25.82,25.82,0,0,0-3.55,2.71q-1,1.18-2.2,2.35a1.5,1.5,0,0,1-2.27-1.94,18.46,18.46,0,0,1,2.35-2.56A28.69,28.69,0,0,0,727,537.94c-18.89,4.79-28.81,17.22-28.91,17.35a1.5,1.5,0,0,1-2.63-1.3c2.43-9.41.81-16.27-.19-19.17a57.29,57.29,0,0,0-17.89,18,1.5,1.5,0,0,1-2.78-.42c-2.18-10.34-5.51-22.24-7.17-23.82a1.5,1.5,0,0,1,.33-3c1.11,0,4,0,9,22.63a62.3,62.3,0,0,1,18.46-16.92,1.5,1.5,0,0,1,2.11.6c0.16,0.32,3.49,7,2.05,17.66a61.67,61.67,0,0,1,28.82-15,1.5,1.5,0,0,1,1.82,1.35,28.73,28.73,0,0,1-3.2,13.92A36.93,36.93,0,0,1,743.9,546c0.09,0,14.06-.48,21-4.79a1.5,1.5,0,0,1,2.29,1.21c0,0.43.29,8.26-5.91,16.58a42.52,42.52,0,0,1,17.95-1.73c17.73,1.81,18.2,1.81,25,0a1.5,1.5,0,0,1,1.85,1.75c-0.11.55-2.33,10.92-14.94,17.5,15.26-.82,40.6-0.23,52,11.21A1.5,1.5,0,0,1,842.16,590.28ZM667.77,528.6h0Z" transform="translate(-337.08 -504.3)"/><path class="cls-1" d="M493.39,590.28a1.5,1.5,0,0,1-1.06-2.56c7-7,20-10.84,38.63-11.37,4.87-.14,9.5,0,13.46.19-12.66-6.58-14.89-17-15-17.53a1.5,1.5,0,0,1,1.85-1.75c6.81,1.77,7.28,1.77,25,0A42.54,42.54,0,0,1,574.23,559c-6.19-8.31-5.93-16.15-5.91-16.58a1.5,1.5,0,0,1,2.29-1.21c7,4.32,20.94,4.79,21.08,4.79a36.8,36.8,0,0,1,17,3.86,28.73,28.73,0,0,1-3.2-13.91,1.5,1.5,0,0,1,1.82-1.35,61.67,61.67,0,0,1,28.82,15c-1.44-10.69,1.89-17.34,2.05-17.66a1.5,1.5,0,0,1,.92-0.76,1.48,1.48,0,0,1,1.18.16,62.29,62.29,0,0,1,18.45,16.92c5-22.63,7.9-22.63,9-22.63a1.5,1.5,0,0,1,.33,3c-1.66,1.58-5,13.47-7.17,23.82a1.5,1.5,0,0,1-2.78.42,57.28,57.28,0,0,0-17.89-18c-1,2.92-2.61,9.81-.19,19.17a1.5,1.5,0,0,1-2.63,1.3,57.21,57.21,0,0,0-28.91-17.35,28.88,28.88,0,0,0,6.74,16.44,18.41,18.41,0,0,1,2.35,2.55,1.5,1.5,0,0,1-2.27,1.94q-1.19-1.17-2.2-2.35a25.74,25.74,0,0,0-3.56-2.71,33.08,33.08,0,0,0-18-4.85c-0.59,0-12.23-.41-20.14-3.94a24.91,24.91,0,0,0,1.22,4.86,29.7,29.7,0,0,0,9.1,12.75,17.73,17.73,0,0,1,2.41,1.89,1.5,1.5,0,0,1-1.93,2.29q-1.12-.81-2.12-1.64c-3.41-2.27-11.29-6.22-23.59-5-15.64,1.6-18.3,1.81-23.43.62,1.83,4.39,7.49,13.51,23.58,16.8a1.5,1.5,0,0,1-.51,3c-0.46-.06-46.26-6.27-61.78,9.25A1.5,1.5,0,0,1,493.39,590.28ZM667.78,528.6h0Z" transform="translate(-337.08 -504.3)"/><path class="cls-1" d="M591.17,590.27a1.5,1.5,0,0,1-.74-2.8c18-10.21,46.88-16.3,77.35-16.3s58.48,5.82,76.74,16a1.5,1.5,0,0,1-1.46,2.62c-17.56-9.76-45.7-15.58-75.28-15.58-30,0-58.33,5.95-75.87,15.91A1.49,1.49,0,0,1,591.17,590.27Z" transform="translate(-337.08 -504.3)"/><path class="cls-1" d="M607,588.78c15.26-6,36.81-9.79,60.69-9.79,23.13,0,44.06,3.52,59.22,9.22Z" transform="translate(-337.08 -504.3)"/><path class="cls-1" d="M993.85,785a8.42,8.42,0,0,1-3.71-.8,7.74,7.74,0,0,1-3.92-4.76l2.85-.95a4.8,4.8,0,0,0,2.39,3,7.14,7.14,0,0,0,4.78.14c5.74-2.15,3.75-9.39,3.67-9.7-1.61-5.74-6.94-6.21-12.73-6.21H755v-3h232.2c5,0,13.26,0,15.62,8.39,1,3.5,1.17,10.82-5.53,13.33A11.11,11.11,0,0,1,993.85,785Z" transform="translate(-337.08 -504.3)"/><circle class="cls-1" cx="653.93" cy="273.36" r="5.13"/><path class="cls-1" d="M346.53,785a11.09,11.09,0,0,1-3.37-.53c-6.73-2.52-6.57-9.84-5.55-13.36,2.35-8.38,10.66-8.38,15.62-8.38H696.9v3H353.22c-5.79,0-11.12.47-12.73,6.21-0.09.32-2.08,7.55,3.69,9.72h0a7.13,7.13,0,0,0,4.76-.16,4.81,4.81,0,0,0,2.38-3l2.85,0.95a7.74,7.74,0,0,1-3.92,4.76A8.43,8.43,0,0,1,346.53,785Z" transform="translate(-337.08 -504.3)"/><circle class="cls-1" cx="12.3" cy="273.36" r="5.13"/><polygon class="cls-1" points="373.98 276.42 359.01 261.45 338.65 261.45 338.65 258.45 360.25 258.45 373.98 272.18 386.21 259.95 373.98 247.72 367.35 254.35 365.23 252.23 373.98 243.48 390.45 259.95 373.98 276.42"/><path class="cls-1" d="M738.81,777.21a9.73,9.73,0,0,1-5.24-1.57,7.47,7.47,0,0,1-2.7-7.91,6.46,6.46,0,0,1,6.14-5l-0.07,3a3.4,3.4,0,0,0-3.18,2.78,4.46,4.46,0,0,0,1.53,4.67c0.11,0.07,3.7,2.42,6.92-.23,4-3.26,3.58-8.77,3.57-8.82V764c0-.4-0.19-10-10.79-10.44-10.12-.42-15.56,5.44-15.61,5.5l-8.33,8.33-9.81-9.81,8.75-8.75,2.12,2.12-6.63,6.63,5.57,5.57,6.16-6.16c0.21-.23,6.47-6.88,17.9-6.43,12.94,0.53,13.63,12.26,13.67,13.36,0,0.68.38,7.21-4.66,11.35A8.21,8.21,0,0,1,738.81,777.21Z" transform="translate(-337.08 -504.3)"/><circle class="cls-1" cx="399.44" cy="263.24" r="4.73"/><path class="cls-1" d="M698.47,590.28H354.79c-5,0-13.26,0-15.62-8.39-1-3.5-1.17-10.82,5.53-13.33a10.13,10.13,0,0,1,7.12.27,7.75,7.75,0,0,1,3.92,4.76l-2.85.95a4.81,4.81,0,0,0-2.38-3,7.12,7.12,0,0,0-4.8-.15c-5.77,2.16-3.75,9.38-3.66,9.69,1.61,5.74,6.94,6.22,12.73,6.22H698.47v3Z" transform="translate(-337.08 -504.3)"/><circle class="cls-1" cx="13.87" cy="71.07" r="5.13"/><path class="cls-1" d="M988.74,590.28H645.06v-3H988.74c5.79,0,11.12-.47,12.73-6.21,0.09-.32,2.08-7.55-3.69-9.72h0a7.12,7.12,0,0,0-4.76.16,4.8,4.8,0,0,0-2.38,3l-2.85-.95a7.74,7.74,0,0,1,3.92-4.76,10.13,10.13,0,0,1,7.09-.28c6.73,2.52,6.57,9.84,5.55,13.36C1002,590.28,993.7,590.28,988.74,590.28Z" transform="translate(-337.08 -504.3)"/><circle class="cls-1" cx="655.5" cy="71.07" r="5.13"/></svg>