<?xml version="1.0" encoding="utf-8"?>
<!-- Generator: Adobe Illustrator 16.0.4, SVG Export Plug-In . SVG Version: 6.00 Build 0)  -->
<!DOCTYPE svg PUBLIC "-//W3C//DTD SVG 1.1//EN" "http://www.w3.org/Graphics/SVG/1.1/DTD/svg11.dtd">
<svg version="1.1" id="Layer_1" xmlns="http://www.w3.org/2000/svg" xmlns:xlink="http://www.w3.org/1999/xlink" x="0px" y="0px"
	 width="17.909px" height="17.823px" viewBox="0 0 17.909 17.823" enable-background="new 0 0 17.909 17.823" xml:space="preserve">
<g>
	<path fill="#78BE43" d="M0,6.85c-0.004,3.785,3.065,6.855,6.847,6.858c3.787,0.002,6.857-3.063,6.857-6.849
		C13.709,3.074,10.646,0.001,6.859,0C3.074-0.003,0.003,3.064,0,6.85 M11.337,6.857c-0.005,2.476-2.013,4.481-4.49,4.479
		c-2.471-0.003-4.476-2.01-4.476-4.486c0.003-2.474,2.01-4.48,4.485-4.477C9.331,2.374,11.337,4.383,11.337,6.857"/>
	<polygon fill="#78BE43" points="17.909,16.258 16.344,17.823 10.585,12.06 12.156,10.495 	"/>
</g>
</svg>
