<?xml version="1.0" encoding="utf-8"?>
<!-- Generator: Adobe Illustrator 16.0.4, SVG Export Plug-In . SVG Version: 6.00 Build 0)  -->
<!DOCTYPE svg PUBLIC "-//W3C//DTD SVG 1.1//EN" "http://www.w3.org/Graphics/SVG/1.1/DTD/svg11.dtd">
<svg version="1.1" id="Layer_1" xmlns="http://www.w3.org/2000/svg" xmlns:xlink="http://www.w3.org/1999/xlink" x="0px" y="0px"
	 width="215.124px" height="43px" viewBox="0 0 215.124 43" enable-background="new 0 0 215.124 43" xml:space="preserve">
<g>
	<path fill="#29AAE1" d="M119-188.06c0,18.226-14.775,33-33,33c-18.227,0-33-14.774-33-33s14.774-33,33-33
		C104.225-221.06,119-206.286,119-188.06"/>
	<path fill="#FFFFFF" d="M96.933-197.104c0,0-3.72-4.736-7.443-2.368c-3.724,2.368-3.045,7.782-3.045,7.782s-6.77-1.677-9.135-4.223
		c-2.37-2.541-3.768-3.461-2.934,1.067c0.887,4.8,2.255,4.735,2.255,4.735l-4.963,0.228c0,0,6.77,4.398,8.122,4.737
		c1.354,0.338-3.385-1.016-4.061,1.352c-0.678,2.372,3.946,3.272,6.656,3.272c2.706,0-5.53,2.707-8.854,3.383
		c0,0,27.465,6.091,23.403-16.58l3.385-0.676l-2.032-1.578l2.032-1.806L96.933-197.104z"/>
</g>
<g>
	<path fill="#2075BC" d="M53-188.061c0,18.226-14.775,33-33.001,33c-18.224,0-32.999-14.775-32.999-33c0-18.225,14.775-33,32.999-33
		C38.225-221.061,53-206.286,53-188.061"/>
	<path fill="#FFFFFF" d="M15.416-172.013v-14.69h-4.687v-6.251h4.687v-4.687c0,0,0.314-6.878,6.254-6.878h5.936v5.938h-4.062
		c0,0-2.189,0.625-2.189,1.874v3.752h6.252v6.251h-6.562v14.69H15.416z"/>
</g>
<g>
	<path fill="#2075BC" d="M43,21.5C43,33.374,33.374,43,21.5,43C9.626,43,0,33.374,0,21.5C0,9.626,9.626,0,21.5,0
		C33.374,0,43,9.626,43,21.5"/>
	<path fill="#FFFFFF" d="M18.514,31.956v-9.571H15.46v-4.072h3.054v-3.054c0,0,0.205-4.481,4.075-4.481h3.867v3.869h-2.646
		c0,0-1.427,0.407-1.427,1.221v2.445h4.073v4.072h-4.275v9.571H18.514z"/>
</g>
<g>
	<path fill="#603A17" d="M185-187.897c0,18.225-14.774,33-33,33c-18.226,0-33-14.774-33-33c0-18.226,14.774-33,33-33
		C170.226-220.897,185-206.123,185-187.897"/>
	<g>
		<defs>
			<path id="SVGID_1_" d="M185-187.897c0,18.225-14.774,33-33,33c-18.226,0-33-14.774-33-33c0-18.226,14.774-33,33-33
				C170.226-220.897,185-206.123,185-187.897"/>
		</defs>
		<clipPath id="SVGID_2_">
			<use xlink:href="#SVGID_1_"  overflow="visible"/>
		</clipPath>
		<g clip-path="url(#SVGID_2_)">
			<polyline fill="#EC2427" points="134.63,-227.247 134.63,-152.376 127.646,-152.376 127.646,-227.247 			"/>
			<polyline fill="#F7D73A" points="141.745,-227.247 141.745,-152.376 134.76,-152.376 134.76,-227.247 			"/>
			<polyline fill="#07B5E0" points="148.496,-227.247 148.496,-152.376 141.511,-152.376 141.511,-227.247 			"/>
			<polyline fill="#2075BC" points="155.349,-227.247 155.349,-152.376 148.365,-152.376 148.365,-227.247 			"/>
		</g>
	</g>
	<path fill="none" d="M119.001-187.897c0,18.225,14.773,33,32.999,33c18.227,0,33-14.774,33-33c0-18.226-14.774-33-33-33
		C133.774-220.897,119.001-206.123,119.001-187.897"/>
	<rect x="138.057" y="-196.828" fill="#603A17" width="27.545" height="19.382"/>
	<path fill="#FFFFFF" d="M152.001-195.898c2.439,0,4.624,1.092,6.091,2.814h7.85v-3.745c0-2.597-2.101-4.697-4.696-4.697h-18.491
		c-2.594,0-4.697,2.1-4.697,4.697v3.745h7.85C147.377-194.807,149.56-195.898,152.001-195.898 M157.865-199.204
		c0-0.276,0.27-0.502,0.597-0.502h3.827c0.332,0,0.599,0.226,0.599,0.502v3.838c0,0.279-0.267,0.502-0.599,0.502h-3.827
		c-0.327,0-0.597-0.224-0.597-0.502V-199.204z"/>
	<path fill="#FFFFFF" d="M145.607-187.894c0,3.533,2.861,6.396,6.395,6.396c3.53,0,6.392-2.863,6.392-6.396
		c0-1.424-0.467-2.737-1.253-3.8h-10.282C146.073-190.631,145.607-189.318,145.607-187.894"/>
	<path fill="#FFFFFF" d="M148.274-193.084h7.45c-1.046-0.754-2.336-1.199-3.723-1.199
		C150.611-194.284,149.325-193.839,148.274-193.084"/>
	<path fill="#FFFFFF" d="M152.001-179.886c-4.424,0-8.009-3.585-8.009-8.008c0-1.374,0.347-2.668,0.958-3.8h-6.893v13.411
		c0,2.594,2.103,4.697,4.697,4.697h18.491c2.596,0,4.696-2.103,4.696-4.697v-13.411h-6.894c0.612,1.132,0.958,2.426,0.958,3.8
		C160.006-183.471,156.424-179.886,152.001-179.886"/>
	<path fill="#FFFFFF" d="M158.526-187.895c0,3.602-2.921,6.526-6.524,6.526c-3.609,0-6.527-2.924-6.527-6.526
		c0-3.608,2.918-6.53,6.527-6.53C155.605-194.425,158.526-191.503,158.526-187.895"/>
</g>
<g>
	<path fill="#BA2032" d="M251-188.06c0,18.227-14.774,33-33.001,33c-18.226,0-32.999-14.773-32.999-33c0-18.226,14.773-33,32.999-33
		C236.226-221.06,251-206.286,251-188.06"/>
	<path fill="#FFFFFF" d="M227.926-198.453h-19.851c-2.807,0-5.084,2.274-5.084,5.083v10.895c0,2.808,2.278,5.085,5.084,5.085h19.851
		c2.809,0,5.083-2.277,5.083-5.085v-10.895C233.009-196.179,230.735-198.453,227.926-198.453 M214.073-181.923l-0.097-11.997
		l10.367,5.654L214.073-181.923z"/>
</g>
<g>
	<path fill="#EC2427" d="M317-188.061c0,18.225-14.774,33-33,33c-18.226,0-33-14.776-33-33c0-18.225,14.774-33,33-33
		C302.226-221.06,317-206.286,317-188.061"/>
	<path fill="#FFFFFF" d="M282.807-188.357c2.601-1.871,3.231-5.802,0.831-8.107c0,0-0.103-1.457,2.598-2.079
		c0,0-15.029-2.146-13.721,6.654c0,0,0.918,3.133,4.367,3.948c4.894,1.154-2.08,3.742-3.12,4.575
		c-1.039,0.831-2.911,2.457-2.495,4.658c0.415,2.204,3.741,4.073,8.522,3.449c4.783-0.623,7.486-4.365,5.619-7.484
		C283.533-185.861,280.212-186.485,282.807-188.357 M277.088-196.469c2.498-1.664,4.565,2.499,4.565,2.499s1.153,5.613-2.28,5.195
		C275.943-189.194,274.593-194.804,277.088-196.469 M278.723-177.133c-3.148,0.206-4.961-2.701-2.915-4.782
		c2.044-2.08,3.981-2.496,3.981-2.496s2.913,1.25,3.848,3.644C284.572-178.37,281.87-177.341,278.723-177.133"/>
	<rect x="291.429" y="-198.325" fill="#FFFFFF" width="1.185" height="10.329"/>
	<rect x="287.069" y="-193.709" fill="#FFFFFF" width="9.723" height="1.093"/>
</g>
<g>
	<path fill="#29AAE1" d="M86,21.5C86,33.374,76.374,43,64.5,43C52.625,43,43,33.374,43,21.5S52.625,0,64.5,0
		C76.374,0,86,9.626,86,21.5"/>
	<path fill="#FFFFFF" d="M71.623,15.608c0,0-2.423-3.085-4.849-1.543c-2.426,1.543-1.984,5.07-1.984,5.07s-4.41-1.092-5.952-2.751
		c-1.544-1.655-2.455-2.255-1.912,0.695c0.578,3.127,1.469,3.085,1.469,3.085l-3.233,0.148c0,0,4.411,2.865,5.292,3.086
		c0.882,0.22-2.206-0.662-2.646,0.88c-0.442,1.545,2.571,2.132,4.336,2.132c1.763,0-3.603,1.764-5.769,2.204
		c0,0,17.894,3.969,15.247-10.802l2.206-0.44l-1.324-1.028l1.324-1.177L71.623,15.608z"/>
</g>
<g>
	<path fill="#603A17" d="M129,21.5c0,11.874-9.625,21.5-21.5,21.5C95.625,43,86,33.375,86,21.5C86,9.626,95.625,0,107.5,0
		C119.375,0,129,9.626,129,21.5"/>
	<g>
		<defs>
			<path id="SVGID_3_" d="M129,21.5c0,11.874-9.625,21.5-21.5,21.5C95.625,43,86,33.375,86,21.5C86,9.626,95.625,0,107.5,0
				C119.375,0,129,9.626,129,21.5"/>
		</defs>
		<clipPath id="SVGID_4_">
			<use xlink:href="#SVGID_3_"  overflow="visible"/>
		</clipPath>
		<g clip-path="url(#SVGID_4_)">
			<polyline fill="#EC2427" points="96.184,-4.137 96.184,44.643 91.633,44.643 91.633,-4.137 			"/>
			<polyline fill="#F7D73A" points="100.818,-4.137 100.818,44.643 96.268,44.643 96.268,-4.137 			"/>
			<polyline fill="#07B5E0" points="105.217,-4.137 105.217,44.643 100.666,44.643 100.666,-4.137 			"/>
			<polyline fill="#2075BC" points="109.682,-4.137 109.682,44.643 105.132,44.643 105.132,-4.137 			"/>
		</g>
	</g>
	<path fill="none" d="M86,21.5C86,33.375,95.625,43,107.5,43c11.875,0,21.5-9.625,21.5-21.5C129,9.626,119.375,0,107.5,0
		C95.625,0,86,9.626,86,21.5"/>
	<rect x="98.416" y="15.682" fill="#603A17" width="17.946" height="12.627"/>
	<path fill="#FFFFFF" d="M107.501,16.287c1.589,0,3.013,0.711,3.968,1.833h5.114v-2.44c0-1.692-1.369-3.06-3.06-3.06h-12.047
		c-1.69,0-3.061,1.368-3.061,3.06v2.44h5.114C104.488,16.999,105.91,16.287,107.501,16.287 M111.321,14.134
		c0-0.18,0.176-0.327,0.389-0.327h2.493c0.216,0,0.391,0.147,0.391,0.327v2.5c0,0.182-0.174,0.327-0.391,0.327h-2.493
		c-0.213,0-0.389-0.146-0.389-0.327V14.134z"/>
	<path fill="#FFFFFF" d="M103.335,21.502c0,2.302,1.864,4.167,4.166,4.167c2.3,0,4.164-1.865,4.164-4.167
		c0-0.928-0.304-1.784-0.816-2.476h-6.699C103.638,19.719,103.335,20.575,103.335,21.502"/>
	<path fill="#FFFFFF" d="M105.073,18.121h4.854c-0.682-0.492-1.522-0.781-2.425-0.781C106.595,17.339,105.757,17.629,105.073,18.121
		"/>
	<path fill="#FFFFFF" d="M107.501,26.72c-2.882,0-5.218-2.335-5.218-5.217c0-0.896,0.226-1.738,0.624-2.476h-4.491v8.738
		c0,1.69,1.37,3.06,3.061,3.06h12.047c1.691,0,3.06-1.37,3.06-3.06v-8.738h-4.491c0.399,0.738,0.624,1.581,0.624,2.476
		C112.716,24.384,110.382,26.72,107.501,26.72"/>
	<path fill="#FFFFFF" d="M111.752,21.501c0,2.347-1.903,4.252-4.251,4.252c-2.352,0-4.253-1.905-4.253-4.252
		c0-2.351,1.901-4.254,4.253-4.254C109.849,17.247,111.752,19.151,111.752,21.501"/>
</g>
<g>
	<path fill="#BA2032" d="M172,21.5c0,11.875-9.625,21.5-21.501,21.5C138.625,43,129,33.375,129,21.5C129,9.626,138.625,0,150.499,0
		C162.375,0,172,9.626,172,21.5"/>
	<path fill="#FFFFFF" d="M156.967,14.729h-12.933c-1.829,0-3.312,1.481-3.312,3.311v7.098c0,1.83,1.484,3.313,3.312,3.313h12.933
		c1.83,0,3.312-1.483,3.312-3.313V18.04C160.279,16.21,158.797,14.729,156.967,14.729 M147.941,25.499l-0.063-7.816l6.754,3.684
		L147.941,25.499z"/>
</g>
<g>
	<path fill="#EC2427" d="M215,21.5c0,11.874-9.625,21.5-21.5,21.5c-11.874,0-21.5-9.627-21.5-21.5S181.625,0,193.5,0
		C205.375,0,215,9.626,215,21.5"/>
	<path fill="#FFFFFF" d="M192.723,21.306c1.694-1.219,2.105-3.78,0.541-5.282c0,0-0.067-0.949,1.693-1.354
		c0,0-9.792-1.398-8.939,4.335c0,0,0.598,2.042,2.845,2.572c3.188,0.752-1.355,2.438-2.033,2.981
		c-0.677,0.541-1.896,1.601-1.625,3.035c0.27,1.436,2.437,2.654,5.552,2.247c3.116-0.406,4.877-2.844,3.661-4.876
		C193.196,22.933,191.032,22.526,192.723,21.306 M188.997,16.021c1.627-1.084,2.975,1.627,2.975,1.627s0.751,3.657-1.485,3.385
		C188.25,20.761,187.371,17.106,188.997,16.021 M190.062,28.619c-2.051,0.134-3.232-1.759-1.899-3.116
		c1.332-1.355,2.594-1.626,2.594-1.626s1.898,0.814,2.507,2.374C193.873,27.813,192.112,28.484,190.062,28.619"/>
	<rect x="198.34" y="14.812" fill="#FFFFFF" width="0.772" height="6.729"/>
	<rect x="195.5" y="17.82" fill="#FFFFFF" width="6.334" height="0.712"/>
</g>
</svg>
