<?xml version="1.0" encoding="utf-8"?>
<!-- Generator: Adobe Illustrator 19.2.1, SVG Export Plug-In . SVG Version: 6.00 Build 0)  -->
<svg version="1.1" id="Layer_1" xmlns="http://www.w3.org/2000/svg" xmlns:xlink="http://www.w3.org/1999/xlink" x="0px" y="0px"
	 viewBox="0 0 132 34.1" style="enable-background:new 0 0 132 34.1;" xml:space="preserve">
<style type="text/css">
	.st0{fill:#FFFFFF;}
</style>
<g>
	<path class="st0" d="M58.9,4.9L58.9,4.9C59,5.5,60,10.3,60,10.3h-2.2L58.9,4.9z M50.5,15.9h5.8l0.4-1.9h4.1l0.6,1.9h5.8L61.8,0.4
		h-6.1L50.5,15.9z"/>
	<path class="st0" d="M36.3,0.4h5.6c5.1,0,9,2.3,9,8c0,4.6-3.2,7.5-7.6,7.5l-7,0V0.4z M41.8,11.5h0.4c1.8,0,3.2-1.1,3.2-3.1
		c0-2.2-1.2-3.4-3.2-3.4h-0.3V11.5z"/>
	<path class="st0" d="M32.9,0.9l0.3,2.5c0.1,0.6,0.4,2.1,0,1.9c-0.3-0.1-0.5-0.8-0.7-1.4c-0.1-0.3-0.7-1.7-0.8-1.8
		c-0.7-0.5-2.4-1.1-3.6-1.1c-3.5,0-5.8,2.5-5.8,7c0,3.2,1.6,7.1,5.6,7.1c1.4,0,4.2-0.4,5-2.4c0.3-0.9,0.7-1.7,0.9-1.5
		c0.2,0.2,0,0.9-0.2,1.3c-0.5,1.8-0.5,2.4-0.7,2.5c-1.8,0.9-4.1,1.2-6.2,1.2c-6.5,0-8.7-3.7-8.7-7.4c0-6.4,4-9,10.3-8.8
		C29.9,0.1,31.5,0.3,32.9,0.9"/>
	<path class="st0" d="M13.8,1.2l-1-0.4c-0.4-0.3,0.1-0.4,0.1-0.4s1.5,0.3,5.2,0c0,0,0.3,0.1,0.1,0.3l-1.2,0.5
		c-0.8,0.3-0.8,0.1-0.8,1l0,7.9c0,6.2-6.5,6-7.7,6c-0.6,0-6.5,0-6.5-5V2.8c0-1.5,0.2-1.4-0.3-1.6L0.1,0.7c0,0-0.3-0.3,0.2-0.3
		c1.2,0.1,3,0.3,7.1,0c0,0,0.4,0.1,0.1,0.3L6.3,1.1c-0.9,0.4-0.8,0.1-0.8,1l0,8.2c0,2,1.1,4.5,4.4,4.5c4.6,0,4.6-3.9,4.6-4.7l0-8.2
		C14.6,1.2,14.5,1.5,13.8,1.2"/>
	<path class="st0" d="M87.7,14.7l1.6-4.1l0.3,0.2c1,0.8,2.3,1.4,3.6,1.5c1.1,0,1.7-0.3,1.5-1.2c-0.1-0.7-0.9-0.8-1.4-0.9L92.1,10
		c-2.1-0.4-3.9-1.7-3.9-4.1c0-3.7,3.3-5.7,6.5-5.7c1.7,0,3.3,0.4,4.8,1.4l-1.4,3.6c-0.8-0.5-1.9-1.3-3.4-1.3c-0.5,0-1.6,0.2-1.2,1.3
		c0.2,0.5,0.8,0.7,1.3,0.8L96,6.2c2.3,0.5,4,1.8,4,4.4c0,3.7-3.3,5.5-6.5,5.5C91.6,16.1,89.4,15.6,87.7,14.7"/>
	<rect x="81" y="0.4" class="st0" width="5.5" height="15.5"/>
	<polygon class="st0" points="74.7,0.4 80.4,0.4 74.6,15.9 69.9,15.9 64.1,0.4 69.8,0.4 72.2,9.8 	"/>
</g>
<g>
	<path class="st0" d="M2.3,26h1.7v4.8c0,1.1,0.6,1.9,1.9,1.9s1.9-0.8,1.9-1.9V26h1.7v4.8c0,2-1.2,3.3-3.6,3.3
		c-2.4,0-3.6-1.4-3.6-3.3V26z"/>
	<path class="st0" d="M13.8,28.8V34h-1.7v-8h1.8l3.7,5v-5h1.7v8h-1.6L13.8,28.8z"/>
	<path class="st0" d="M21.8,26h1.7v8h-1.7V26z"/>
	<path class="st0" d="M25,26h1.9l2.2,6.2l2.2-6.2h1.9l-3.1,8H28L25,26z"/>
	<path class="st0" d="M34.5,26h5.7v1.5h-4v1.7h3.9v1.5h-3.9v1.8h4V34h-5.7V26z"/>
	<path class="st0" d="M44.9,31.1h-1.2V34H42v-8h3.7c1.7,0,2.7,1.1,2.7,2.6c0,1.4-0.9,2.2-1.8,2.4l1.8,3h-2L44.9,31.1z M45.5,27.5
		h-1.8v2.2h1.8c0.7,0,1.2-0.4,1.2-1.1S46.1,27.5,45.5,27.5z"/>
	<path class="st0" d="M50.3,31.6c0.6,0.6,1.4,1.1,2.5,1.1c0.9,0,1.4-0.4,1.4-0.9c0-0.6-0.7-0.8-1.6-1c-1.3-0.3-3-0.7-3-2.5
		c0-1.3,1.2-2.4,3-2.4c1.3,0,2.3,0.4,3.1,1.1l-0.9,1.2c-0.6-0.6-1.5-0.9-2.3-0.9c-0.7,0-1.1,0.3-1.1,0.8c0,0.5,0.7,0.7,1.6,0.9
		c1.3,0.3,3,0.7,3,2.5c0,1.5-1,2.6-3.2,2.6c-1.5,0-2.6-0.5-3.4-1.3L50.3,31.6z"/>
	<path class="st0" d="M56.9,26h1.7v8h-1.7V26z"/>
	<path class="st0" d="M62.5,27.5h-2.3V26h6.4v1.5h-2.3V34h-1.7V27.5z"/>
	<path class="st0" d="M70.1,30.7L67,26H69l2,3.2l2-3.2h1.9l-3.1,4.7V34h-1.7V30.7z"/>
	<path class="st0" d="M80.6,26h1.7v6.5h3.4V34h-5.1V26z"/>
	<path class="st0" d="M87.6,26h1.7v8h-1.7V26z"/>
	<path class="st0" d="M91.9,26h4.2c1.5,0,2.3,1,2.3,2c0,1-0.6,1.7-1.4,1.8c0.9,0.1,1.5,1,1.5,2c0,1.2-0.8,2.2-2.3,2.2h-4.3V26z
		 M95.7,29.2c0.6,0,0.9-0.4,0.9-0.9s-0.4-0.9-0.9-0.9h-2.1v1.7H95.7z M95.7,32.5c0.6,0,1-0.3,1-0.9c0-0.5-0.4-0.9-1-0.9h-2.2v1.9
		H95.7z"/>
	<path class="st0" d="M103.2,31.1H102V34h-1.7v-8h3.7c1.7,0,2.7,1.1,2.7,2.6c0,1.4-0.9,2.2-1.8,2.4l1.8,3h-2L103.2,31.1z
		 M103.8,27.5H102v2.2h1.8c0.7,0,1.2-0.4,1.2-1.1S104.5,27.5,103.8,27.5z"/>
	<path class="st0" d="M113.5,32.6h-3.4l-0.5,1.4h-1.9l3.1-8h2.1l3.1,8H114L113.5,32.6z M110.5,31.1h2.5l-1.2-3.4L110.5,31.1z"/>
	<path class="st0" d="M119.9,31.1h-1.2V34h-1.7v-8h3.7c1.7,0,2.7,1.1,2.7,2.6c0,1.4-0.9,2.2-1.8,2.4l1.8,3h-2L119.9,31.1z
		 M120.4,27.5h-1.8v2.2h1.8c0.7,0,1.2-0.4,1.2-1.1S121.1,27.5,120.4,27.5z"/>
	<path class="st0" d="M127.1,30.7l-3.1-4.7h1.9l2,3.2l2-3.2h1.9l-3.1,4.7V34h-1.7V30.7z"/>
</g>
<rect x="2" y="21" class="st0" width="129" height="1.2"/>
</svg>
