<?xml version="1.0" encoding="UTF-8" standalone="no"?>
<svg width="132px" height="35px" viewBox="0 0 132 35" version="1.1" xmlns="http://www.w3.org/2000/svg" xmlns:xlink="http://www.w3.org/1999/xlink">
    <!-- Generator: Sketch 3.8.3 (29802) - http://www.bohemiancoding.com/sketch -->
    <title>uc-lib-logo-labels</title>
    <desc>Created with Sketch.</desc>
    <defs></defs>
    <g id="UI-Elements" stroke="none" stroke-width="1" fill="none" fill-rule="evenodd">
        <g id="home" transform="translate(-77.000000, -1181.000000)" fill="#F1E3D1">
            <g id="Group-3" transform="translate(0.000000, 1087.000000)">
                <g id="uc-lib-logo-labels" transform="translate(77.000000, 93.000000)">
                    <path d="M58.9,5.9 L58.9,5.9 C59,6.5 60,11.3 60,11.3 L57.8,11.3 L58.9,5.9 L58.9,5.9 Z M50.5,16.9 L56.3,16.9 L56.7,15 L60.8,15 L61.4,16.9 L67.2,16.9 L61.8,1.4 L55.7,1.4 L50.5,16.9 L50.5,16.9 Z" id="Shape"></path>
                    <path d="M36.3,1.4 L41.9,1.4 C47,1.4 50.9,3.7 50.9,9.4 C50.9,14 47.7,16.9 43.3,16.9 L36.3,16.9 L36.3,1.4 L36.3,1.4 Z M41.8,12.5 L42.2,12.5 C44,12.5 45.4,11.4 45.4,9.4 C45.4,7.2 44.2,6 42.2,6 L41.9,6 L41.9,12.5 L41.8,12.5 Z" id="Shape"></path>
                    <path d="M32.9,1.9 L33.2,4.4 C33.3,5 33.6,6.5 33.2,6.3 C32.9,6.2 32.7,5.5 32.5,4.9 C32.4,4.6 31.8,3.2 31.7,3.1 C31,2.6 29.3,2 28.1,2 C24.6,2 22.3,4.5 22.3,9 C22.3,12.2 23.9,16.1 27.9,16.1 C29.3,16.1 32.1,15.7 32.9,13.7 C33.2,12.8 33.6,12 33.8,12.2 C34,12.4 33.8,13.1 33.6,13.5 C33.1,15.3 33.1,15.9 32.9,16 C31.1,16.9 28.8,17.2 26.7,17.2 C20.2,17.2 18,13.5 18,9.8 C18,3.4 22,0.8 28.3,1 C29.9,1.1 31.5,1.3 32.9,1.9" id="Shape"></path>
                    <path d="M13.8,2.2 L12.8,1.8 C12.4,1.5 12.9,1.4 12.9,1.4 C12.9,1.4 14.4,1.7 18.1,1.4 C18.1,1.4 18.4,1.5 18.2,1.7 L17,2.2 C16.2,2.5 16.2,2.3 16.2,3.2 L16.2,11.1 C16.2,17.3 9.7,17.1 8.5,17.1 C7.9,17.1 2,17.1 2,12.1 L2,3.8 C2,2.3 2.2,2.4 1.7,2.2 L0.1,1.7 C0.1,1.7 -0.2,1.4 0.3,1.4 C1.5,1.5 3.3,1.7 7.4,1.4 C7.4,1.4 7.8,1.5 7.5,1.7 L6.3,2.1 C5.4,2.5 5.5,2.2 5.5,3.1 L5.5,11.3 C5.5,13.3 6.6,15.8 9.9,15.8 C14.5,15.8 14.5,11.9 14.5,11.1 L14.5,2.9 C14.6,2.2 14.5,2.5 13.8,2.2" id="Shape"></path>
                    <path d="M87.7,15.7 L89.3,11.6 L89.6,11.8 C90.6,12.6 91.9,13.2 93.2,13.3 C94.3,13.3 94.9,13 94.7,12.1 C94.6,11.4 93.8,11.3 93.3,11.2 L92.1,11 C90,10.6 88.2,9.3 88.2,6.9 C88.2,3.2 91.5,1.2 94.7,1.2 C96.4,1.2 98,1.6 99.5,2.6 L98.1,6.2 C97.3,5.7 96.2,4.9 94.7,4.9 C94.2,4.9 93.1,5.1 93.5,6.2 C93.7,6.7 94.3,6.9 94.8,7 L96,7.2 C98.3,7.7 100,9 100,11.6 C100,15.3 96.7,17.1 93.5,17.1 C91.6,17.1 89.4,16.6 87.7,15.7" id="Shape"></path>
                    <rect id="Rectangle-path" x="81" y="1.4" width="5.5" height="15.5"></rect>
                    <polygon id="Shape" points="74.7 1.4 80.4 1.4 74.6 16.9 69.9 16.9 64.1 1.4 69.8 1.4 72.2 10.8"></polygon>
                    <path d="M2.3,27 L4,27 L4,31.8 C4,32.9 4.6,33.7 5.9,33.7 C7.2,33.7 7.8,32.9 7.8,31.8 L7.8,27 L9.5,27 L9.5,31.8 C9.5,33.8 8.3,35.1 5.9,35.1 C3.5,35.1 2.3,33.7 2.3,31.8 L2.3,27 L2.3,27 Z" id="Shape"></path>
                    <polygon id="Shape" points="13.8 29.8 13.8 35 12.1 35 12.1 27 13.9 27 17.6 32 17.6 27 19.3 27 19.3 35 17.7 35"></polygon>
                    <polygon id="Shape" points="21.8 27 23.5 27 23.5 35 21.8 35"></polygon>
                    <polygon id="Shape" points="25 27 26.9 27 29.1 33.2 31.3 27 33.2 27 30.1 35 28 35"></polygon>
                    <polygon id="Shape" points="34.5 27 40.2 27 40.2 28.5 36.2 28.5 36.2 30.2 40.1 30.2 40.1 31.7 36.2 31.7 36.2 33.5 40.2 33.5 40.2 35 34.5 35"></polygon>
                    <path d="M44.9,32.1 L43.7,32.1 L43.7,35 L42,35 L42,27 L45.7,27 C47.4,27 48.4,28.1 48.4,29.6 C48.4,31 47.5,31.8 46.6,32 L48.4,35 L46.4,35 L44.9,32.1 L44.9,32.1 Z M45.5,28.5 L43.7,28.5 L43.7,30.7 L45.5,30.7 C46.2,30.7 46.7,30.3 46.7,29.6 C46.7,28.9 46.1,28.5 45.5,28.5 L45.5,28.5 Z" id="Shape"></path>
                    <path d="M50.3,32.6 C50.9,33.2 51.7,33.7 52.8,33.7 C53.7,33.7 54.2,33.3 54.2,32.8 C54.2,32.2 53.5,32 52.6,31.8 C51.3,31.5 49.6,31.1 49.6,29.3 C49.6,28 50.8,26.9 52.6,26.9 C53.9,26.9 54.9,27.3 55.7,28 L54.8,29.2 C54.2,28.6 53.3,28.3 52.5,28.3 C51.8,28.3 51.4,28.6 51.4,29.1 C51.4,29.6 52.1,29.8 53,30 C54.3,30.3 56,30.7 56,32.5 C56,34 55,35.1 52.8,35.1 C51.3,35.1 50.2,34.6 49.4,33.8 L50.3,32.6 L50.3,32.6 Z" id="Shape"></path>
                    <polygon id="Shape" points="56.9 27 58.6 27 58.6 35 56.9 35"></polygon>
                    <polygon id="Shape" points="62.5 28.5 60.2 28.5 60.2 27 66.6 27 66.6 28.5 64.3 28.5 64.3 35 62.6 35 62.6 28.5"></polygon>
                    <polygon id="Shape" points="70.1 31.7 67 27 69 27 71 30.2 73 27 74.9 27 71.8 31.7 71.8 35 70.1 35 70.1 31.7"></polygon>
                    <polygon id="Shape" points="80.6 27 82.3 27 82.3 33.5 85.7 33.5 85.7 35 80.6 35 80.6 27"></polygon>
                    <polygon id="Shape" points="87.6 27 89.3 27 89.3 35 87.6 35"></polygon>
                    <path d="M91.9,27 L96.1,27 C97.6,27 98.4,28 98.4,29 C98.4,30 97.8,30.7 97,30.8 C97.9,30.9 98.5,31.8 98.5,32.8 C98.5,34 97.7,35 96.2,35 L91.9,35 L91.9,27 L91.9,27 Z M95.7,30.2 C96.3,30.2 96.6,29.8 96.6,29.3 C96.6,28.8 96.2,28.4 95.7,28.4 L93.6,28.4 L93.6,30.1 L95.7,30.1 L95.7,30.2 Z M95.7,33.5 C96.3,33.5 96.7,33.2 96.7,32.6 C96.7,32.1 96.3,31.7 95.7,31.7 L93.5,31.7 L93.5,33.6 L95.7,33.6 L95.7,33.5 Z" id="Shape"></path>
                    <path d="M103.2,32.1 L102,32.1 L102,35 L100.3,35 L100.3,27 L104,27 C105.7,27 106.7,28.1 106.7,29.6 C106.7,31 105.8,31.8 104.9,32 L106.7,35 L104.7,35 L103.2,32.1 L103.2,32.1 Z M103.8,28.5 L102,28.5 L102,30.7 L103.8,30.7 C104.5,30.7 105,30.3 105,29.6 C105,28.9 104.5,28.5 103.8,28.5 L103.8,28.5 Z" id="Shape"></path>
                    <path d="M113.5,33.6 L110.1,33.6 L109.6,35 L107.7,35 L110.8,27 L112.9,27 L116,35 L114,35 L113.5,33.6 L113.5,33.6 Z M110.5,32.1 L113,32.1 L111.8,28.7 L110.5,32.1 L110.5,32.1 Z" id="Shape"></path>
                    <path d="M119.9,32.1 L118.7,32.1 L118.7,35 L117,35 L117,27 L120.7,27 C122.4,27 123.4,28.1 123.4,29.6 C123.4,31 122.5,31.8 121.6,32 L123.4,35 L121.4,35 L119.9,32.1 L119.9,32.1 Z M120.4,28.5 L118.6,28.5 L118.6,30.7 L120.4,30.7 C121.1,30.7 121.6,30.3 121.6,29.6 C121.6,28.9 121.1,28.5 120.4,28.5 L120.4,28.5 Z" id="Shape"></path>
                    <polygon id="Shape" points="127.1 31.7 124 27 125.9 27 127.9 30.2 129.9 27 131.8 27 128.7 31.7 128.7 35 127 35 127 31.7"></polygon>
                    <rect id="Rectangle-path" x="2" y="22" width="129" height="1.2"></rect>
                </g>
            </g>
        </g>
    </g>
</svg>