<?xml version="1.0" encoding="UTF-8" standalone="no"?>
<svg width="28px" height="27px" viewBox="0 0 28 27" version="1.1" xmlns="http://www.w3.org/2000/svg" xmlns:xlink="http://www.w3.org/1999/xlink">
    <!-- Generator: Sketch 3.7.1 (28215) - http://www.bohemiancoding.com/sketch -->
    <title>Zoom Button</title>
    <desc>Created with Sketch.</desc>
    <defs>
        <path d="M11.5,23 C17.8512746,23 23,17.8512746 23,11.5 C23,5.14872538 17.8512746,0 11.5,0 C5.14872538,0 0,5.14872538 0,11.5 C0,17.8512746 5.14872538,23 11.5,23 Z" id="path-1"></path>
        <mask id="mask-2" maskContentUnits="userSpaceOnUse" maskUnits="objectBoundingBox" x="0" y="0" width="23" height="23" fill="white">
            <use xlink:href="#path-1"></use>
        </mask>
    </defs>
    <g id="Symbols" stroke="none" stroke-width="1" fill="none" fill-rule="evenodd">
        <g id="Toolbar" transform="translate(-26.000000, -12.000000)">
            <g id="Zoom-Button" transform="translate(26.000000, 12.000000)">
                <rect id="Rectangle-14" fill="#4D0717" fill-rule="evenodd" transform="translate(23.302112, 22.789023) rotate(-50.000000) translate(-23.302112, -22.789023) " x="21.8021125" y="17.1262562" width="3" height="11.3255337" rx="4"></rect>
                <use id="Oval-1" stroke="#4D0717" mask="url(#mask-2)" stroke-width="4" xlink:href="#path-1"></use>
                <path d="M13,10 L13,5 L10,5 L10,10 L5,10 L5,13 L10,13 L10,18 L13,18 L13,13 L18,13 L18,10 L13,10 Z" id="Combined-Shape" fill="#4D0717" fill-rule="evenodd"></path>
            </g>
        </g>
    </g>
</svg>