<?xml version="1.0" encoding="UTF-8" standalone="no"?>
<svg width="31px" height="25px" viewBox="0 0 31 25" version="1.1" xmlns="http://www.w3.org/2000/svg" xmlns:xlink="http://www.w3.org/1999/xlink">
    <!-- Generator: Sketch 3.8.3 (29802) - http://www.bohemiancoding.com/sketch -->
    <title>Shape</title>
    <desc>Created with Sketch.</desc>
    <defs></defs>
    <g id="Symbols" stroke="none" stroke-width="1" fill="none" fill-rule="evenodd">
        <g id="Social-icons" transform="translate(-5.000000, -8.000000)" fill="#CBBAA5">
            <path d="M35.452,10.929 C34.332,11.426 33.129,11.762 31.864,11.913 C33.155,11.139 34.144,9.915 34.611,8.456 C33.405,9.172 32.068,9.692 30.643,9.972 C29.504,8.758 27.88,8 26.083,8 C22.634,8 19.837,10.796 19.837,14.247 C19.837,14.737 19.892,15.213 19.998,15.671 C14.806,15.41 10.203,12.922 7.122,9.143 C6.584,10.066 6.276,11.139 6.276,12.284 C6.276,14.451 7.379,16.364 9.055,17.483 C8.031,17.451 7.068,17.17 6.225,16.702 L6.225,16.781 C6.225,19.807 8.378,22.332 11.236,22.906 C10.711,23.049 10.16,23.125 9.59,23.125 C9.187,23.125 8.796,23.087 8.414,23.015 C9.209,25.495 11.516,27.302 14.249,27.353 C12.111,29.028 9.417,30.028 6.491,30.028 C5.987,30.028 5.489,29.998 5,29.939 C7.765,31.712 11.048,32.747 14.576,32.747 C26.066,32.747 32.35,23.228 32.35,14.973 C32.35,14.702 32.344,14.433 32.331,14.164 C33.555,13.282 34.615,12.182 35.452,10.929 L35.452,10.929 Z" id="Shape"></path>
        </g>
    </g>
</svg>