<?xml version="1.0" encoding="UTF-8" standalone="no"?>
<svg width="40px" height="40px" viewBox="0 0 40 40" version="1.1" xmlns="http://www.w3.org/2000/svg" xmlns:xlink="http://www.w3.org/1999/xlink">
    <!-- Generator: Sketch 3.8.3 (29802) - http://www.bohemiancoding.com/sketch -->
    <title>webicon-pinterest</title>
    <desc>Created with Sketch.</desc>
    <defs>
        <rect id="path-1" x="0" y="0" width="40" height="40" rx="3"></rect>
        <mask id="mask-2" maskContentUnits="userSpaceOnUse" maskUnits="objectBoundingBox" x="0" y="0" width="40" height="40" fill="white">
            <use xlink:href="#path-1"></use>
        </mask>
    </defs>
    <g id="Symbols" stroke="none" stroke-width="1" fill="none" fill-rule="evenodd">
        <g id="Social-icons" transform="translate(-65.000000, 0.000000)">
            <g id="webicon-pinterest" transform="translate(65.000000, 0.000000)">
                <use id="Rectangle-33-Copy" stroke="#CBBAA5" mask="url(#mask-2)" stroke-width="2" fill="#F1E3D1" xlink:href="#path-1"></use>
                <path d="M14.0888258,34.3247139 C6.79182584,31.3687139 3.08782584,22.3927139 5.99182584,14.8847139 C9.02082584,7.05671392 17.7368258,3.06971392 25.5838258,5.92071392 C33.5608258,8.81971392 37.6298258,17.3727139 34.8798258,25.4597139 C32.3168258,33.0007139 23.6338258,37.4787139 16.3358258,35.1247139 C17.1388258,32.6917139 17.9408258,30.2597139 18.7308258,27.8677139 C21.0758258,30.0047139 24.1858258,30.0777139 26.9078258,27.9917139 C30.2728258,25.4127139 31.7688258,19.4237139 29.9718258,15.5717139 C28.5248258,12.4707139 25.9928258,10.7247139 22.6708258,10.2907139 C18.2868258,9.71771392 14.4128258,10.8237139 11.6968258,14.5487139 C9.74182584,17.2307139 9.33382584,20.2037139 10.7028258,23.3097139 C11.1378258,24.2967139 11.8758258,25.0317139 12.8458258,25.5217139 C13.4138258,25.8097139 13.7688258,25.6807139 13.9698258,25.0417139 C14.2388258,24.1827139 14.2248258,23.4827139 13.6718258,22.6397139 C12.5228258,20.8877139 12.8428258,18.9667139 13.6048258,17.1457139 C15.4078258,12.8377139 21.6088258,11.3167139 25.0788258,14.2937139 C26.2198258,15.2727139 26.7898258,16.5507139 26.8868258,18.0047139 C27.0328258,20.2077139 26.6918258,22.3397139 25.6308258,24.3107139 C25.0008258,25.4807139 24.1358258,26.3967139 22.7888258,26.7237139 C20.7418258,27.2187139 19.2218258,25.7367139 19.7188258,23.6957139 C20.0528258,22.3247139 20.4788258,20.9767139 20.8438258,19.6137139 C20.9378258,19.2637139 20.9878258,18.8937139 21.0028258,18.5307139 C21.0478258,17.4837139 20.5568258,16.5987139 19.7728258,16.2567139 C18.9288258,15.8887139 17.8238258,16.1297139 17.1138258,16.9047139 C15.8178258,18.3207139 15.7538258,19.9877139 16.1328258,21.7677139 C16.2578258,22.3497139 16.2748258,23.0037139 16.1498258,23.5837139 C15.5678258,26.2937139 14.8898258,28.9817139 14.3108258,31.6927139 C14.1308258,32.5227139 14.1608258,33.3977139 14.0888258,34.3247139 L14.0888258,34.3247139 Z" id="Shape" fill="#CBBAA5"></path>
            </g>
        </g>
    </g>
</svg>