<?xml version="1.0" encoding="UTF-8" standalone="no"?>
<svg width="40px" height="40px" viewBox="0 0 40 40" version="1.1" xmlns="http://www.w3.org/2000/svg" xmlns:xlink="http://www.w3.org/1999/xlink">
    <!-- Generator: Sketch 3.8.3 (29802) - http://www.bohemiancoding.com/sketch -->
    <title>webicon-facebook</title>
    <desc>Created with Sketch.</desc>
    <defs>
        <rect id="path-1" x="0" y="0" width="40" height="40" rx="3"></rect>
        <mask id="mask-2" maskContentUnits="userSpaceOnUse" maskUnits="objectBoundingBox" x="0" y="0" width="40" height="40" fill="white">
            <use xlink:href="#path-1"></use>
        </mask>
    </defs>
    <g id="Symbols" stroke="none" stroke-width="1" fill="none" fill-rule="evenodd">
        <g id="Social-icons" transform="translate(-130.000000, 0.000000)">
            <g id="webicon-facebook" transform="translate(130.000000, 0.000000)">
                <use id="Rectangle-33-Copy-2" stroke="#CBBAA5" mask="url(#mask-2)" stroke-width="2" fill="#F1E3D1" xlink:href="#path-1"></use>
                <path d="M25.966,6.001 C22.304,6.001 18.234,7.536 18.234,12.836 C18.253,14.681 18.234,16.449 18.234,18.439 L14,18.439 L14,25.167 L18.366,25.167 L18.366,39 L26.387,39 L26.387,25.038 L31.682,25.038 L32.161,18.42 L26.248,18.42 C26.248,18.42 26.264,15.474 26.248,14.62 C26.248,12.527 28.432,12.646 28.56,12.646 C29.602,12.646 31.619,12.649 32.138,12.646 L32.138,6 C32.132,6.001 28.425,6.001 25.966,6.001 Z" id="Shape" fill="#CBBAA5"></path>
            </g>
        </g>
    </g>
</svg>