<?xml version="1.0" encoding="utf-8"?>
<!-- Generator: Adobe Illustrator 16.0.0, SVG Export Plug-In . SVG Version: 6.00 Build 0)  -->
<!DOCTYPE svg PUBLIC "-//W3C//DTD SVG 1.1//EN" "http://www.w3.org/Graphics/SVG/1.1/DTD/svg11.dtd">
<svg version="1.1" xmlns="http://www.w3.org/2000/svg" xmlns:xlink="http://www.w3.org/1999/xlink" x="0px" y="0px"
	 width="62.799px" height="62.8px" viewBox="0 0 62.799 62.8" enable-background="new 0 0 62.799 62.8" xml:space="preserve">
<g id="menu" display="none">
	<circle display="inline" fill="#EB8B23" cx="31.4" cy="31.401" r="31.4"/>
	<g display="inline">
		<rect x="21.969" y="14.928" fill="#FFFFFF" width="3" height="38.193"/>
	</g>
	<g display="inline">
		<polygon fill="#FFFFFF" points="29.143,26.639 17.891,26.639 17.891,14.928 20.891,14.928 20.891,23.639 26.143,23.639 
			26.143,14.928 29.143,14.928 		"/>
	</g>
	<g display="inline">
		<path fill="#FFFFFF" d="M41.481,53.189h-8.168V15.753l8.168-2.965V53.189z M36.313,50.189h2.168V17.068l-2.168,0.787V50.189z"/>
	</g>
	<g display="inline">
		<rect x="34.813" y="32.944" fill="#FFFFFF" width="5.168" height="3"/>
	</g>
</g>
<g id="vtour" display="none">
	<circle display="inline" fill="#C4197F" cx="31.4" cy="31.401" r="31.4"/>
	<g display="inline">
		<path fill="#FFFFFF" d="M23.158,23.27c-4.512,4.512-4.512,11.828,0,16.341c4.514,4.513,11.83,4.513,16.342,0.001
			c4.513-4.514,4.513-11.83,0-16.342C34.988,18.756,27.671,18.756,23.158,23.27z M37.506,37.616c-3.41,3.411-8.941,3.411-12.352,0
			c-3.412-3.411-3.412-8.942-0.002-12.353c3.412-3.411,8.942-3.411,12.354,0C40.916,28.675,40.916,34.205,37.506,37.616z"/>
		<g>
			
				<rect x="17.717" y="13.854" transform="matrix(0.7071 -0.7071 0.7071 0.7071 -8.0841 19.3613)" fill="#FFFFFF" width="3.223" height="11.169"/>
			<polygon fill="#FFFFFF" points="15.473,21.447 12.25,21.447 12.154,12.265 15.473,15.397 			"/>
			<polygon fill="#FFFFFF" points="21.445,12.25 21.445,15.475 15.396,15.474 12.154,12.265 			"/>
		</g>
		<g>
			
				<rect x="41.858" y="37.777" transform="matrix(-0.7073 0.707 -0.707 -0.7073 104.8689 43.2987)" fill="#FFFFFF" width="3.224" height="11.169"/>
			<polygon fill="#FFFFFF" points="47.326,41.354 50.55,41.354 50.644,50.536 47.326,47.403 			"/>
			<polygon fill="#FFFFFF" points="41.354,50.551 41.354,47.327 47.402,47.327 50.644,50.536 			"/>
		</g>
		<g>
			
				<rect x="17.827" y="37.887" transform="matrix(-0.707 -0.7073 0.7073 -0.707 2.4352 87.9514)" fill="#FFFFFF" width="3.223" height="11.169"/>
			<polygon fill="#FFFFFF" points="21.445,47.328 21.445,50.551 12.264,50.646 15.396,47.327 			"/>
			<polygon fill="#FFFFFF" points="12.249,41.354 15.473,41.355 15.473,47.403 12.264,50.646 			"/>
		</g>
		<g>
			
				<rect x="41.749" y="13.745" transform="matrix(0.707 0.7073 -0.7073 0.707 26.3779 -25.0024)" fill="#FFFFFF" width="3.223" height="11.169"/>
			<polygon fill="#FFFFFF" points="41.354,15.474 41.354,12.25 50.535,12.156 47.402,15.474 			"/>
			<polygon fill="#FFFFFF" points="50.551,21.447 47.327,21.446 47.326,15.398 50.535,12.156 			"/>
		</g>
	</g>
</g>
<g id="orientation" display="none">
	<circle display="inline" fill="#78BD43" cx="31.399" cy="31.4" r="31.399"/>
	<g display="inline">
		<path fill="#FFFFFF" d="M26.494,10.364c-2.477,2.476-2.477,6.489,0,8.966c2.477,2.476,6.49,2.476,8.967,0s2.477-6.49,0-8.966
			C32.984,7.887,28.971,7.887,26.494,10.364z M33.525,17.396c-1.406,1.408-3.689,1.408-5.096,0c-1.41-1.408-1.41-3.691-0.002-5.099
			c1.408-1.408,3.689-1.408,5.098,0S34.934,15.988,33.525,17.396z M26.684,19.33l-3.459,7.792h15.582L35.24,19.33l-2.205,1.574
			l1.592,3.506l-7.135-0.063l1.643-3.5"/>
	</g>
	<g display="inline">
		<path fill="#FFFFFF" d="M37.717,32.367c-2.477,2.477-2.477,6.49,0,8.967c2.477,2.475,6.49,2.475,8.967,0
			c2.475-2.477,2.475-6.49,0-8.967C44.207,29.891,40.191,29.891,37.717,32.367z M44.748,39.4c-1.408,1.406-3.691,1.406-5.096,0
			c-1.41-1.408-1.41-3.691-0.002-5.1c1.406-1.408,3.689-1.408,5.098,0S46.156,37.992,44.748,39.4z M37.906,41.334l-3.459,7.791
			h15.582l-3.566-7.791l-2.207,1.574l1.594,3.506l-7.135-0.064l1.643-3.5"/>
	</g>
	<g display="inline">
		<path fill="#FFFFFF" d="M15.352,32.367c-2.477,2.477-2.477,6.49,0,8.967c2.477,2.475,6.49,2.475,8.967,0
			c2.475-2.477,2.475-6.49,0-8.967C21.842,29.891,17.826,29.891,15.352,32.367z M22.383,39.4c-1.408,1.406-3.691,1.406-5.096,0
			c-1.41-1.408-1.41-3.691-0.002-5.1c1.406-1.408,3.689-1.408,5.098,0S23.791,37.992,22.383,39.4z M15.541,41.334l-3.459,7.791
			h15.582l-3.566-7.791l-2.207,1.574l1.594,3.506l-7.137-0.064l1.645-3.5"/>
	</g>
</g>
<g id="clubs-orgs">
	<circle fill="#642667" cx="31.4" cy="31.4" r="31.4"/>
	<g>
		<path fill="#FFFFFF" d="M26.495,10.364c-2.477,2.476-2.477,6.49,0,8.966c2.477,2.476,6.49,2.476,8.967,0
			c2.476-2.476,2.476-6.49,0-8.966C32.985,7.888,28.971,7.888,26.495,10.364z M33.526,17.396c-1.407,1.408-3.69,1.408-5.097,0
			c-1.409-1.408-1.409-3.691-0.001-5.099c1.407-1.408,3.689-1.408,5.098,0C34.935,13.706,34.935,15.988,33.526,17.396z
			 M26.685,19.33l-3.459,7.792h15.582l-3.566-7.792l-2.206,1.574l1.593,3.506l-7.136-0.064l1.644-3.5"/>
	</g>
	<g>
		<path fill="#FFFFFF" d="M37.717,32.367c-2.476,2.477-2.476,6.49,0,8.967c2.477,2.476,6.491,2.476,8.967,0
			c2.476-2.477,2.476-6.49,0-8.967C44.208,29.892,40.192,29.892,37.717,32.367z M44.749,39.4c-1.408,1.407-3.691,1.407-5.097,0
			c-1.409-1.408-1.409-3.691-0.002-5.1c1.407-1.407,3.689-1.407,5.099,0C46.156,35.709,46.156,37.992,44.749,39.4z M37.906,41.334
			l-3.459,7.792h15.582l-3.565-7.792l-2.207,1.574l1.593,3.506l-7.135-0.064l1.644-3.5"/>
	</g>
	<g>
		<path fill="#FFFFFF" d="M15.352,32.367c-2.476,2.477-2.476,6.49,0,8.967c2.477,2.476,6.491,2.476,8.967,0
			c2.476-2.477,2.476-6.49,0-8.967C21.843,29.892,17.827,29.892,15.352,32.367z M22.384,39.4c-1.408,1.407-3.691,1.407-5.097,0
			c-1.409-1.408-1.409-3.691-0.002-5.1c1.407-1.407,3.689-1.407,5.099,0C23.791,35.709,23.791,37.992,22.384,39.4z M15.541,41.334
			l-3.459,7.792h15.582l-3.566-7.792l-2.206,1.574l1.593,3.506l-7.136-0.064l1.644-3.5"/>
	</g>
</g>
<g id="mailing-list" display="none">
	<circle display="inline" fill="#EB8B23" cx="31.399" cy="31.4" r="31.399"/>
	<g display="inline">
		<g>
			<path fill="#FFFFFF" d="M50.643,42.851H12.154V19.566l19.242,15.528l19.246-15.528V42.851z M14.41,40.594h33.979V24.285
				L31.396,37.992L14.41,24.286V40.594z"/>
		</g>
		<rect x="12.154" y="19.566" fill="#FFFFFF" width="38.488" height="2.641"/>
	</g>
</g>
<g id="org-chart" display="none">
	<circle display="inline" fill="#78BD43" cx="31.4" cy="31.4" r="31.4"/>
	<path display="inline" fill="#FFFFFF" d="M23.045,14.562v12.443h16.418V14.562H23.045z M36.743,24.595H25.768v-7.623h10.975V24.595
		z"/>
	<path display="inline" fill="#FFFFFF" d="M8.838,32.66v12.444h16.417V32.66H8.838z M22.534,42.693H11.559v-7.622h10.975V42.693z"/>
	<path display="inline" fill="#FFFFFF" d="M37.298,32.66v12.444h16.418V32.66H37.298z M50.995,42.693H40.021v-7.622h10.975V42.693z"
		/>
	<rect x="29.958" y="27.005" display="inline" fill="#FFFFFF" width="2.594" height="13.175"/>
	<rect x="23.196" y="37.585" display="inline" fill="#FFFFFF" width="16.12" height="2.595"/>
</g>
<g id="read-principles" display="none">
	<circle display="inline" fill="#EB8B23" cx="31.4" cy="31.4" r="31.4"/>
	<g display="inline">
		<g>
			<path fill="#FFFFFF" d="M31.399,50.852l-17.274-6.996v-29.26l17.167,6.756l17.381-6.746v29.249L31.399,50.852z M17.125,41.834
				l14.273,5.78l14.274-5.78V18.989l-14.389,5.584L17.125,19V41.834z"/>
		</g>
		<g>
			<rect x="29.788" y="22.963" fill="#FFFFFF" width="3" height="26.271"/>
		</g>
	</g>
	<g display="inline">
		<g>
			<polygon fill="#FFFFFF" points="26.846,29.551 26.846,26.263 19.903,23.597 19.877,26.811 			"/>
			<polygon fill="#FFFFFF" points="26.846,36.176 26.846,32.888 19.903,30.222 19.877,33.436 			"/>
			<polygon fill="#FFFFFF" points="26.846,42.801 26.846,39.513 19.903,36.847 19.877,40.061 			"/>
		</g>
	</g>
	<g display="inline">
		<g>
			<polygon fill="#FFFFFF" points="35.534,29.551 35.534,26.263 42.478,23.597 42.503,26.811 			"/>
			<polygon fill="#FFFFFF" points="35.534,36.176 35.534,32.888 42.478,30.222 42.503,33.436 			"/>
			<polygon fill="#FFFFFF" points="35.534,42.801 35.534,39.513 42.478,36.847 42.503,40.061 			"/>
		</g>
	</g>
</g>
<g id="jobs" display="none">
	<circle display="inline" fill="#DEB209" cx="31.4" cy="31.399" r="31.4"/>
	<g display="inline">
		<g>
			<path fill="#FFFFFF" d="M36.741,48.189c-11.647,0-21.5-6.797-24.737-12.729l-0.869-1.592l2.957-0.95
				c-0.348-3.918-0.57-15.564,8.4-19.534c5.756-2.546,11.932-2.27,16.526,0.736c3.654,2.392,8.002,7.585,7.951,18.745
				c-0.002,0.455-0.207,0.862-0.529,1.136l1.365,1.185c0.408,0.354,3.959,3.564,3.014,7.127c-0.689,2.601-3.404,4.338-8.299,5.31
				C40.562,48.011,38.628,48.189,36.741,48.189z M15.649,35.568c4.215,5.548,14.869,11.378,26.288,9.11
				c3.502-0.695,5.627-1.809,5.982-3.133c0.244-0.908-0.326-2.005-0.963-2.858c-5.875,6.489-19.713,2.433-20.342,2.244
				c-0.793-0.238-1.242-1.074-1.006-1.867c0.238-0.793,1.074-1.244,1.867-1.006c0.143,0.042,14.303,4.189,18.038-2.475l0.855-1.525
				c-0.252,0.189-0.561,0.297-0.906,0.299c-0.828-0.004-1.496-0.678-1.492-1.507c0.035-7.766-2.244-13.375-6.594-16.22
				c-3.74-2.447-8.85-2.636-13.668-0.503c-8.518,3.768-6.523,17.476-6.502,17.614l0.193,1.264L15.649,35.568z"/>
		</g>
		<g>
			<path fill="#FFFFFF" d="M27.305,26.721c-0.559,0-1.094-0.312-1.352-0.848c-2.264-4.688-6.203-8.612-6.244-8.651
				c-0.588-0.583-0.594-1.532-0.012-2.121c0.582-0.589,1.533-0.595,2.121-0.012c0.178,0.174,4.35,4.332,6.836,9.48
				c0.359,0.746,0.047,1.643-0.699,2.003C27.745,26.673,27.524,26.721,27.305,26.721z"/>
		</g>
		<g>
			<path fill="#FFFFFF" d="M33.821,26.721c-0.703,0-1.332-0.499-1.471-1.216c-0.926-4.794-6.627-10.297-6.684-10.353
				c-0.6-0.573-0.619-1.522-0.047-2.121c0.572-0.599,1.523-0.619,2.121-0.046c0.262,0.252,6.45,6.229,7.555,11.951
				c0.158,0.813-0.375,1.6-1.188,1.757C34.013,26.712,33.917,26.721,33.821,26.721z"/>
		</g>
		<g>
			<path fill="#FFFFFF" d="M38.882,24.919c-0.709,0-1.338-0.504-1.473-1.226c-0.84-4.504-5.004-8.495-5.047-8.535
				c-0.6-0.569-0.627-1.519-0.059-2.12c0.568-0.602,1.518-0.628,2.119-0.062c0.199,0.189,4.914,4.688,5.936,10.167
				c0.15,0.814-0.387,1.598-1.201,1.749C39.065,24.911,38.974,24.919,38.882,24.919z"/>
		</g>
	</g>
</g>
<g id="undergrad-research" display="none">
	<circle display="inline" fill="#00B4E0" cx="31.4" cy="31.4" r="31.4"/>
	<g display="inline">
		<path fill="#FFFFFF" d="M38.44,34.893c-1.451,2.562-4.197,4.293-7.352,4.293c-4.668,0-8.453-3.783-8.453-8.451
			c0-2.757,1.326-5.198,3.369-6.74l-2.201-2.623c-2.789,2.173-4.59,5.554-4.59,9.363c0,6.558,5.316,11.874,11.875,11.874
			c5.092,0,9.422-3.212,11.112-7.716H38.44z"/>
		
			<rect x="24.129" y="13.734" transform="matrix(0.7394 -0.6733 0.6733 0.7394 -7.572 23.12)" fill="#FFFFFF" width="3.9" height="15.214"/>
		
			<rect x="37.439" y="26.347" transform="matrix(-0.0025 -1 1 -0.0025 5.5326 73.4279)" fill="#FFFFFF" width="3.899" height="15.215"/>
		
			<rect x="16.611" y="11.123" transform="matrix(0.7393 -0.6733 0.6733 0.7393 -3.9717 15.9084)" fill="#FFFFFF" width="3.899" height="3.923"/>
		<path fill="#FFFFFF" d="M30.938,45.418c3.184,0,5.952,1.762,7.393,4.361h3.742c-1.668-4.54-6.018-7.783-11.135-7.783
			c-5.092,0-9.424,3.212-11.111,7.716h3.758C25.038,47.149,27.784,45.418,30.938,45.418z"/>
	</g>
</g>
<g id="get-published" display="none">
	<circle display="inline" fill="#642667" cx="31.4" cy="31.4" r="31.4"/>
	<g display="inline">
		<g>
			<path fill="#FFFFFF" d="M31.385,51.236L14.112,44.24V14.98l17.166,6.757l17.381-6.746V44.24L31.385,51.236z M17.112,42.219
				L31.385,48l14.274-5.781V19.374L31.27,24.958l-14.158-5.573V42.219z"/>
		</g>
		<g>
			<g>
				<polygon fill="#FFFFFF" points="26.846,29.551 26.846,26.263 19.903,23.597 19.877,26.811 				"/>
				<polygon fill="#FFFFFF" points="26.846,36.176 26.846,32.888 19.903,30.222 19.877,33.436 				"/>
				<polygon fill="#FFFFFF" points="26.846,42.801 26.846,39.513 19.903,36.847 19.877,40.061 				"/>
			</g>
		</g>
		<g>
			<g>
				<polygon fill="#FFFFFF" points="35.534,29.551 35.534,26.263 42.478,23.597 42.503,26.811 				"/>
				<polygon fill="#FFFFFF" points="35.534,36.176 35.534,32.888 42.478,30.222 42.503,33.436 				"/>
				<polygon fill="#FFFFFF" points="35.534,42.801 35.534,39.513 42.478,36.847 42.503,40.061 				"/>
			</g>
		</g>
		<g>
			<rect x="29.774" y="23.348" fill="#FFFFFF" width="3" height="26.271"/>
		</g>
	</g>
</g>
<g id="deadlines" display="none">
	<circle display="inline" fill="#C4197F" cx="31.4" cy="31.399" r="31.4"/>
	<g display="inline">
		<g>
			<g>
				<path fill="#FFFFFF" d="M46.606,47.95H16.194V16.396h30.413V47.95z M18.924,45.104h24.952V19.241H18.924V45.104z"/>
			</g>
			<g>
				<rect x="17.231" y="25.218" fill="#FFFFFF" width="28.215" height="2.846"/>
			</g>
		</g>
		<text transform="matrix(1 0 0 1 27.2197 41.5039)" fill="#FFFFFF" font-family="'Gotham-Black'" font-size="15.082">1</text>
	</g>
</g>
<g id="contact" display="none">
	<circle display="inline" fill="#EB8B23" cx="31.4" cy="31.4" r="31.4"/>
	<path display="inline" fill="none" stroke="#FFFFFF" stroke-width="3" stroke-miterlimit="10" d="M21.182,13.669
		c0,0-3.516,1.516-5.974,5.702c0,0-0.081,8.655,10.482,18.362c10.557,9.703,17.629,9.703,17.629,9.703s3.953-2.722,5.389-6.227
		l-8.1-6.059l-5.113,2.497l-10.61-10.471l2.336-5.021L21.182,13.669z"/>
</g>
</svg>
