<svg xmlns="http://www.w3.org/2000/svg" viewBox="0 0 1430 467.85"><defs><style>.cls-1{fill:#cbbaa5;}.cls-2{fill:#f1e3d1;stroke:#780922;stroke-miterlimit:10;stroke-width:4px;}.cls-3{fill:#780922;}</style></defs><title>Asset 1</title><g id="Layer_2" data-name="Layer 2"><g id="Layer_2-2" data-name="Layer 2"><path class="cls-1" d="M35,467.68C18.07,466.2,0,454.08,0,424.47V133.87c0-12.32,4.71-33.4,36.23-36.25L1386.82.2a45.76,45.76,0,0,1,8.13,0c16.17,1.41,35,13.59,35,43.24V333.75c0,20.42-13.91,34.31-36.29,36.26L43,467.7A48.88,48.88,0,0,1,35,467.68Z"/><path class="cls-2" d="M1389.27,349.91,38.73,447.59C24.61,448.68,19,440.73,19,426.14V135.54c0-9.29,3.54-16.54,19.73-18L1389.27,20.11C1401.94,18.94,1409,26,1409,41.57V331.91C1409,342.8,1401.77,348.82,1389.27,349.91Z"/><path class="cls-1" d="M204.66,353V190.83l31.63-2.21c20.32-1.42,34.4,10.47,34.4,33.93v44.62c0,23.46-14.08,36.86-34.4,38.28l-15,1v45.31Zm16.62-147.44v85.33l13.16-.92c10.85-.76,20.09-6.92,20.09-21.87V223.68c0-15.18-9-19.84-20.09-19.06Z"/><path class="cls-1" d="M332.57,307.7l-34.63,2.42L291,346.94l-16.62,1.16,32.32-164.64L324,182.25,355.89,342.4l-16.62,1.16Zm-32.32-12,30.25-2.12-15-80.83Z"/><path class="cls-1" d="M435.54,262.08v40.71c0,20.93-14.08,36.4-34.4,37.83s-34.4-12.08-34.4-33V214c0-21.16,14.08-36.86,34.4-38.29,19.86-1.39,34.17,12.1,34.4,33l-16.39,1.15c0-13.11-8.08-18.75-18-18.06-10.16.71-18,7.47-18,20.35v94.76c0,14,9.47,18.66,18,18.06,9.93-.69,18-7.47,18-20.58V277.72L400.68,279V264.52Z"/><path class="cls-1" d="M515.42,185l-41.33,2.89v56.35l30.25-2.12v14.49l-30.25,2.12v59.57l41.33-2.89v15.87l-57.72,4V173.14l57.72-4Z"/><path class="cls-1" d="M638.47,322.64l-15.24,1.07L585.6,213.64v112.7l-16.39,1.15V165.34l15-1,37.86,111.89V161.64l16.39-1.15Z"/><path class="cls-1" d="M661.79,286.74V193.37c0-21.16,14.08-36.87,34.4-38.29s34.63,12.3,34.63,33.46v93.38c0,20.93-14.31,36.65-34.63,38.07S661.79,307.67,661.79,286.74Zm52.64-3.22V189c0-13.11-8.08-18.75-18.24-18s-18,7.47-18,20.58v94.53c0,13.11,8.08,18.75,18,18.06S714.43,296.63,714.43,283.52Z"/><path class="cls-1" d="M807.25,164.56l-24,1.68V312.52l-16.62,1.16V167.41l-23.55,1.65V153.18l64.19-4.49Z"/><path class="cls-1" d="M911.37,157.28,872.12,160v56.35l27.94-2v14.49l-27.94,2v75.44l-16.39,1.15V145.3l55.64-3.89Z"/><path class="cls-1" d="M923.83,268.42V175c0-21.16,14.08-36.86,34.4-38.29s34.63,12.3,34.63,33.46v93.38c0,20.93-14.31,36.65-34.63,38.07S923.83,289.35,923.83,268.42Zm52.64-3.22V170.67c0-13.11-8.08-18.75-18.24-18s-18,7.47-18,20.58v94.53c0,13.11,8.08,18.76,18,18.06S976.47,278.31,976.47,265.2Z"/><path class="cls-1" d="M1067,130.53l16.39-1.15V257.26c0,20.93-14.31,36.65-34.4,38.06-20.32,1.42-34.63-12.3-34.63-33.23V134.21l16.39-1.15V261.64c0,14,9.7,18.41,18.24,17.81,9.7-.68,18-7.24,18-20.35Z"/><path class="cls-1" d="M1176.87,285l-15.24,1.07L1124,176v112.7l-16.39,1.15V127.69l15-1,37.86,111.89V124l16.39-1.15Z"/><path class="cls-1" d="M1270.15,154.27v86c0,25.07-14.08,39.17-34.4,40.59l-33.25,2.32V121.06l33.25-2.32C1256.06,117.54,1270.15,129.66,1270.15,154.27Zm-36.25-19.54-15,1V266.42l15-1c10.85-.76,20.09-7.38,20.09-23.94v-86C1254,139.31,1244.75,134,1233.9,134.73Z"/><path class="cls-3" d="M194.66,343V180.83l31.63-2.21c20.32-1.42,34.4,10.47,34.4,33.93v44.62c0,23.46-14.08,36.86-34.4,38.28l-15,1v45.31Zm16.62-147.44v85.33l13.16-.92c10.85-.76,20.09-6.92,20.09-21.87V213.68c0-15.18-9-19.84-20.09-19.06Z"/><path class="cls-3" d="M322.57,297.7l-34.63,2.42L281,336.94l-16.62,1.16,32.32-164.64L314,172.25,345.89,332.4l-16.62,1.16Zm-32.32-12,30.25-2.12-15-80.83Z"/><path class="cls-3" d="M425.54,252.08v40.71c0,20.93-14.08,36.4-34.4,37.83s-34.4-12.08-34.4-33V204c0-21.16,14.08-36.86,34.4-38.29,19.86-1.39,34.17,12.1,34.4,33l-16.39,1.15c0-13.11-8.08-18.75-18-18.06-10.16.71-18,7.47-18,20.35v94.76c0,14,9.47,18.66,18,18.06,9.93-.69,18-7.47,18-20.58V267.72L390.68,269V254.52Z"/><path class="cls-3" d="M505.42,175l-41.33,2.89v56.35l30.25-2.12v14.49l-30.25,2.12v59.57l41.33-2.89v15.87l-57.72,4V163.14l57.72-4Z"/><path class="cls-3" d="M628.47,312.64l-15.24,1.07L575.6,203.64v112.7l-16.39,1.15V155.34l15-1,37.86,111.89V151.64l16.39-1.15Z"/><path class="cls-3" d="M651.79,276.74V183.37c0-21.16,14.08-36.87,34.4-38.29s34.63,12.3,34.63,33.46v93.38c0,20.93-14.31,36.65-34.63,38.07S651.79,297.67,651.79,276.74Zm52.64-3.22V179c0-13.11-8.08-18.75-18.24-18s-18,7.47-18,20.58v94.53c0,13.11,8.08,18.75,18,18.06S704.43,286.63,704.43,273.52Z"/><path class="cls-3" d="M797.25,154.56l-24,1.68V302.52l-16.62,1.16V157.41l-23.55,1.65V143.18l64.19-4.49Z"/><path class="cls-3" d="M901.37,147.28,862.12,150v56.35l27.94-2v14.49l-27.94,2v75.44l-16.39,1.15V135.3l55.64-3.89Z"/><path class="cls-3" d="M913.83,258.42V165c0-21.16,14.08-36.86,34.4-38.29s34.63,12.3,34.63,33.46v93.38c0,20.93-14.31,36.65-34.63,38.07S913.83,279.35,913.83,258.42Zm52.64-3.22V160.67c0-13.11-8.08-18.75-18.24-18s-18,7.47-18,20.58v94.53c0,13.11,8.08,18.76,18,18.06S966.47,268.31,966.47,255.2Z"/><path class="cls-3" d="M1057,120.53l16.39-1.15V247.26c0,20.93-14.31,36.65-34.4,38.06-20.32,1.42-34.63-12.3-34.63-33.23V124.21l16.39-1.15V251.64c0,14,9.7,18.41,18.24,17.81,9.7-.68,18-7.24,18-20.35Z"/><path class="cls-3" d="M1166.87,275l-15.24,1.07L1114,166v112.7l-16.39,1.15V117.69l15-1,37.86,111.89V114l16.39-1.15Z"/><path class="cls-3" d="M1260.15,144.27v86c0,25.07-14.08,39.17-34.4,40.59l-33.25,2.32V111.06l33.25-2.32C1246.06,107.54,1260.15,119.66,1260.15,144.27Zm-36.25-19.54-15,1V256.42l15-1c10.85-.76,20.09-7.38,20.09-23.94v-86C1244,129.31,1234.75,124,1223.9,124.73Z"/></g></g></svg>