<?xml version="1.0" encoding="utf-8"?>
<!-- Generator: Adobe Illustrator 19.2.1, SVG Export Plug-In . SVG Version: 6.00 Build 0)  -->
<svg version="1.1" id="Layer_1" xmlns="http://www.w3.org/2000/svg" xmlns:xlink="http://www.w3.org/1999/xlink" x="0px" y="0px"
	 viewBox="0 0 1466 119" style="enable-background:new 0 0 1466 119;" xml:space="preserve">
<style type="text/css">
	.st0{fill:url(#SVGID_1_);}
	.st1{fill:url(#SVGID_2_);}
	.st2{fill:url(#SVGID_3_);}
	.st3{fill:#DDC063;}
	.st4{fill:#DFB848;}
	.st5{fill:url(#SVGID_4_);}
	.st6{fill:url(#SVGID_5_);}
	.st7{fill:url(#SVGID_6_);}
	.st8{fill:url(#SVGID_7_);}
	.st9{fill:url(#SVGID_8_);}
	.st10{fill:url(#SVGID_9_);}
	.st11{fill:#D9B337;}
	.st12{fill:url(#SVGID_10_);}
	.st13{fill:url(#SVGID_11_);}
	.st14{fill:url(#SVGID_12_);}
	.st15{fill:url(#SVGID_13_);}
	.st16{fill:url(#SVGID_14_);}
	.st17{fill:#D9AB28;}
	.st18{fill:#FFFFFF;}
	.st19{fill:url(#SVGID_15_);}
</style>
<g id="Layer_1_1_">
	
		<linearGradient id="SVGID_1_" gradientUnits="userSpaceOnUse" x1="1585.7328" y1="-587.6865" x2="2383.8621" y2="-587.6865" gradientTransform="matrix(1 0 0 -1 0 120)">
		<stop  offset="0" style="stop-color:#A4B354"/>
		<stop  offset="0.17" style="stop-color:#B7B44C"/>
		<stop  offset="0.53" style="stop-color:#D7B33C"/>
		<stop  offset="0.59" style="stop-color:#D8B542"/>
		<stop  offset="0.85" style="stop-color:#DBBD5D"/>
		<stop  offset="1" style="stop-color:#DCC167"/>
	</linearGradient>
	<path class="st0" d="M2383.9,768.2L2188.6,606h-602.9c47.7,94.2,153.9,184.7,381.6,203.5L2383.9,768.2z"/>
	
		<linearGradient id="SVGID_2_" gradientUnits="userSpaceOnUse" x1="1107.2236" y1="-683.7806" x2="1239.2966" y2="-683.7806" gradientTransform="matrix(1 0 0 -1 0 120)">
		<stop  offset="0" style="stop-color:#49929F"/>
		<stop  offset="1" style="stop-color:#50A8B0"/>
	</linearGradient>
	<path class="st1" d="M1230.4,835.3c3.9-19.8,7-40.8,8.9-63c0,0-54.4,22.3-132.1,63H1230.4z"/>
	
		<linearGradient id="SVGID_3_" gradientUnits="userSpaceOnUse" x1="1075.8214" y1="-648.0135" x2="1309.6335" y2="-648.0135" gradientTransform="matrix(1 0 0 -1 0 120)">
		<stop  offset="0" style="stop-color:#408596"/>
		<stop  offset="0.3" style="stop-color:#418798"/>
		<stop  offset="0.56" style="stop-color:#438E9D"/>
		<stop  offset="0.81" style="stop-color:#489AA6"/>
		<stop  offset="1" style="stop-color:#4DA9B1"/>
	</linearGradient>
	<path class="st2" d="M1232.4,781.8c-1.7,19.3-2.5,33.8-5.9,51h76.5l6.6-129.5c-43.8,24.7-141.9,75.7-233.8,129.5h49.4
		C1192.6,797.4,1232.4,781.8,1232.4,781.8z"/>
	<path class="st3" d="M2301.8,613.1c28.6,18.1,60.9,31.2,88.6,14.2l65.4,41c0,0-6-19.3-19.6-55.3
		C2436.3,613.1,2301.8,613.1,2301.8,613.1z"/>
	<path class="st4" d="M2506,605.1c30.2,23.6,117.9,93.5,212.8,182.2l3.1-52c-56.9-56-105.7-98.1-145-130.2L2506,605.1L2506,605.1z"
		/>
	
		<linearGradient id="SVGID_4_" gradientUnits="userSpaceOnUse" x1="358.0789" y1="-420.0363" x2="951.7949" y2="-776.7889" gradientTransform="matrix(1 0 0 -1 0 120)">
		<stop  offset="0" style="stop-color:#172C52"/>
		<stop  offset="0.18" style="stop-color:#182F54"/>
		<stop  offset="0.39" style="stop-color:#1C385A"/>
		<stop  offset="0.6" style="stop-color:#244765"/>
		<stop  offset="0.83" style="stop-color:#2F5B76"/>
		<stop  offset="1" style="stop-color:#3B7086"/>
	</linearGradient>
	<path class="st5" d="M855.4,832.8c82.7-76.5,172.6-152.3,266.5-219.2H405.7c-70.1,54.1-138.1,115.2-202.6,184.3
		c0,0-0.5,12.7,0.7,34.8H855.4z"/>
	
		<linearGradient id="SVGID_5_" gradientUnits="userSpaceOnUse" x1="9.9548" y1="-598.8476" x2="220.1187" y2="-598.8476" gradientTransform="matrix(1 0 0 -1 0 120)">
		<stop  offset="0" style="stop-color:#183357"/>
		<stop  offset="0.34" style="stop-color:#18375A"/>
		<stop  offset="1" style="stop-color:#17395C"/>
	</linearGradient>
	<path class="st6" d="M10,613.1v211.4c27.6-32.4,57.1-65.6,88.7-99.3c3.1-3.3,46.8-48.6,121.5-111.6L10,613.1z"/>
	
		<linearGradient id="SVGID_6_" gradientUnits="userSpaceOnUse" x1="8.1131" y1="-603.1849" x2="407.5736" y2="-603.1849" gradientTransform="matrix(1 0 0 -1 0 120)">
		<stop  offset="0" style="stop-color:#182E54"/>
		<stop  offset="0.44" style="stop-color:#193457"/>
		<stop  offset="1" style="stop-color:#193659"/>
	</linearGradient>
	<path class="st7" d="M205.6,832.8c-1.1-22.2-0.7-34.8-0.7-34.8c64.5-69.1,132.5-130.2,202.6-184.3H216.4
		c-74.7,63.1-114.7,104.7-117.8,108C66.4,756,36.2,790,8.1,823v9.7H205.6z"/>
	
		<linearGradient id="SVGID_7_" gradientUnits="userSpaceOnUse" x1="851.7523" y1="-603.1849" x2="1324.3678" y2="-603.1849" gradientTransform="matrix(1 0 0 -1 0 120)">
		<stop  offset="0" style="stop-color:#32627B"/>
		<stop  offset="0.65" style="stop-color:#498F9E"/>
		<stop  offset="1" style="stop-color:#55A9B2"/>
	</linearGradient>
	<path class="st8" d="M1025.2,832.8c90.7-62.2,190.5-123.2,286.5-166.9l1.4-20.9c2-10.7,5.9-21.1,11.3-31.4h-206.1
		c-93.9,66.9-183.9,142.6-266.5,219.2H1025.2z"/>
	
		<linearGradient id="SVGID_8_" gradientUnits="userSpaceOnUse" x1="1023.3127" y1="-603.1849" x2="1510.073" y2="-603.1849" gradientTransform="matrix(1 0 0 -1 0 120)">
		<stop  offset="0" style="stop-color:#32607A"/>
		<stop  offset="0.2" style="stop-color:#377288"/>
		<stop  offset="0.6" style="stop-color:#43A2B0"/>
		<stop  offset="1" style="stop-color:#60A79C"/>
	</linearGradient>
	<path class="st9" d="M1088.7,832.8c91.9-53.8,175.3-101.1,219-125.8l-6.6,125.8h208.9c-28.9-43-50.6-97-59.7-164.8
		c0,0-5-19.4,3.4-54.4h-131.3c-5.4,10.3-9.3,20.8-11.3,31.4l-1.4,20.9c-96,43.6-195.9,104.6-286.5,166.9H1088.7z"/>
	<path class="st4" d="M2695.5,844.6c-36.6-35.1-81.6-72.4-131.7-106.2l-120.5-77.1l137.7,183.3L2695.5,844.6L2695.5,844.6z"/>
	
		<linearGradient id="SVGID_9_" gradientUnits="userSpaceOnUse" x1="1492.7271" y1="-392.7563" x2="2651.9465" y2="-861.1113" gradientTransform="matrix(1 0 0 -1 0 120)">
		<stop  offset="0" style="stop-color:#69AFA1"/>
		<stop  offset="0.2" style="stop-color:#92B56D"/>
		<stop  offset="0.21" style="stop-color:#95B56B"/>
		<stop  offset="0.41" style="stop-color:#B7B54F"/>
		<stop  offset="0.61" style="stop-color:#CDB439"/>
		<stop  offset="0.78" style="stop-color:#D9B32B"/>
		<stop  offset="0.92" style="stop-color:#DEB326"/>
	</linearGradient>
	<path class="st10" d="M2434.2,613.6c12.8,33.8,18.4,51.9,18.4,51.9l-61.4-43.7c-26.1,15.9-54.6,8.9-81.5-8.2h-136.5l180.6,150
		l-385.3,38.1c-210.6-17.3-308.7-101-352.9-188.1H1452c-8.4,35-3.4,54.4-3.4,54.4c9.1,67.8,30.8,121.8,59.7,164.8h1075l-119.9-156
		l99.4,65.3c43.6,29.5,81,60.1,112.8,90.7h36.3v-53.9c-86-80.5-165.6-143.9-193-165.3H2434.2z"/>
	<path class="st11" d="M2578.5,613.6c35.6,29.1,81.7,69.1,133.3,119.9V613.6H2578.5z"/>
	<g>
		
			<linearGradient id="SVGID_10_" gradientUnits="userSpaceOnUse" x1="-1413.8147" y1="-1949.4916" x2="2753.876" y2="-1949.4916" gradientTransform="matrix(1 0 0 -1 1009.2842 120)">
			<stop  offset="0" style="stop-color:#172A53"/>
			<stop  offset="6.000000e-02" style="stop-color:#172C55"/>
			<stop  offset="0.12" style="stop-color:#183258"/>
			<stop  offset="0.18" style="stop-color:#1B3C5F"/>
			<stop  offset="0.23" style="stop-color:#204969"/>
			<stop  offset="0.29" style="stop-color:#285B76"/>
			<stop  offset="0.35" style="stop-color:#30728A"/>
			<stop  offset="0.41" style="stop-color:#3A90A3"/>
			<stop  offset="0.44" style="stop-color:#40A3B2"/>
			<stop  offset="0.46" style="stop-color:#56A5A1"/>
			<stop  offset="0.51" style="stop-color:#73AB81"/>
			<stop  offset="0.56" style="stop-color:#88B063"/>
			<stop  offset="0.6" style="stop-color:#96B349"/>
			<stop  offset="0.63" style="stop-color:#9EB639"/>
			<stop  offset="0.65" style="stop-color:#A1B734"/>
			<stop  offset="0.66" style="stop-color:#A7B731"/>
			<stop  offset="0.68" style="stop-color:#B9B628"/>
			<stop  offset="0.7" style="stop-color:#C7B51F"/>
			<stop  offset="0.72" style="stop-color:#D1B317"/>
			<stop  offset="0.75" style="stop-color:#D7B211"/>
			<stop  offset="0.78" style="stop-color:#DBB20B"/>
			<stop  offset="0.88" style="stop-color:#DEB209"/>
		</linearGradient>
		<path class="st12" d="M2485.9,1728.5c0,0,185.2,130.3,444.9,566.8c0,0,315.8,344.4,832.3,311c0,0-301.4-125.7-366-391.3
			c0,0-194.3-647.7-1116.5-959.9C2161,1011.3,1993.5,880,1836.3,809.9c-146.6-83.9-303.2-122.7-475.2-118.2
			C1441,629,1531.2,579,1627.6,561.5l236.3,47.1l328.4-92.2l238.3,98.1c0,0,78.6,64.8-53.9,131.6l337.6,105.3l232.4-49.9l42.2-59.2
			l157.9,4.4l-12.2-198.4L3106,378.6c0,0-54.4-140.9-416.3-415.2l-95.4-95.3c0,0-40.3-74.8-146.1-143.5c0,0,62.4-18.4,93.7-43.8
			l-308-122.2L2432-620l-584.2,75.8C1124-752.7,597-489.5,597-489.5c176.5-52.5,319.6-76.5,553.8-66.6c0,0,66.2,12.3,65.5,27.6
			C416.4-481.8-183.1,155.5-183.1,155.5l246.6-7.7c-30.7,42.2-58.2,83.7-82.6,124C-501.8,651-394.3,1516.5-394.3,1516.5
			c74.4,236.7,286.6,444.1,447.6,574.4c114.1,184.5,368.2,587.4,529.2,776.5c0,0,202.1,158.4,220.2,355.8c0,0,6.7,172.2,197.6,226.2
			L1646,4552.6c0,0,118.3,298.2,389.9,185.4l19.5-11.8c215.3-200.3-85.3-444.2-85.3-444.2l-98.4-117.9
			c-144.8-88.8-166.8-157.4-166.8-157.4c51.9-127.2-61-220.1-61-220.1c-119.7-95.2-424.8-530-424.8-530
			c30.1-195.8-118.3-289.3-118.3-289.3c-172.2-98.1-238.7-331.7-238.7-331.7c-7.3-28.4-28.5-67.7-58.1-112.8
			c-4.7-45.4-4.4-102.3,16.9-144.8c140.7-24.7,219.2-91.3,219.2-91.3c12.7,2,24.7,3.5,36.6,4.7c7.6,77.4,48.7,248.4,253.5,421.9
			c0,0,86.2,101.5,74.3,267.6c0,0,13.4,236.3,330.1,177.1c0,0,95.2,50,156.7,42.1c63.1-8.1,67,19.6,119.5-8.9
			c0,0,182.2-131.7,28.1-448.6c0,0-130.6-167.1-249.7-61.9l-52,141.4l-166.7-421.2c0,0,7.1-72.8-17.7-175.2
			c54.9,28.9,115.4,43.2,175.8,48.3c94.7,140.5,239.7,332.2,367.6,403.1c0,0,162.4,296.6,176.7,455.2c0,0,16.4,273.1,207.9,324.6
			c0,0,42.6,343.1,300.9,353.1c0,0,228.7-39.6,37-403.1c0,0-71.3-53.1-147.7-75.8c0,0,3.3-145.2-108.8-256.8
			c0,0-248.4-383.2-271-491.1c0,0,16.8-187.5-147.7-440.3l2.5-6.5c54.7,22.4,114,39.7,178,50c33.8,80.3,63.5,166.5,69.4,230.3
			c0,0,16,273.1,207.8,324.8c0,0,42.6,343,300.8,353.2c0,0,228.7-39.7,36.9-403.4c0,0-71.3-53-147.7-75.6c0,0,3.4-145.1-108.8-256.7
			c0,0-168.5-260.1-240.6-411.8c0.4-0.2,0.7-0.3,1.1-0.3c-13.2-31.8-23-60.6-31.2-87.8c0.8-27-1.5-116.2-49.7-241.1
			c-1.3-6.4-2.9-12.5-4.3-19.1l18.8-48L2485.9,1728.5z"/>
		
			<linearGradient id="SVGID_11_" gradientUnits="userSpaceOnUse" x1="-1049.7357" y1="97.5979" x2="1470.0022" y2="-1256.505" gradientTransform="matrix(1 0 0 -1 1009.2842 120)">
			<stop  offset="0" style="stop-color:#172A53"/>
			<stop  offset="7.000000e-02" style="stop-color:#172C55;stop-opacity:0.97"/>
			<stop  offset="0.13" style="stop-color:#193258;stop-opacity:0.94"/>
			<stop  offset="0.19" style="stop-color:#1D3B5F;stop-opacity:0.92"/>
			<stop  offset="0.25" style="stop-color:#244868;stop-opacity:0.89"/>
			<stop  offset="0.31" style="stop-color:#2D5975;stop-opacity:0.87"/>
			<stop  offset="0.36" style="stop-color:#387088;stop-opacity:0.84"/>
			<stop  offset="0.42" style="stop-color:#458EA0;stop-opacity:0.82"/>
			<stop  offset="0.46" style="stop-color:#53AEB9;stop-opacity:0.8"/>
			<stop  offset="0.58" style="stop-color:#92B56C;stop-opacity:0.84"/>
			<stop  offset="0.59" style="stop-color:#97B568;stop-opacity:0.84"/>
			<stop  offset="0.66" style="stop-color:#B4B44D;stop-opacity:0.87"/>
			<stop  offset="0.73" style="stop-color:#C7B336;stop-opacity:0.91"/>
			<stop  offset="0.79" style="stop-color:#D3B221;stop-opacity:0.94"/>
			<stop  offset="0.86" style="stop-color:#DAB212;stop-opacity:0.97"/>
			<stop  offset="0.92" style="stop-color:#DEB209"/>
		</linearGradient>
		<path class="st13" d="M2889.6,719.1l41.4-63.6l107,8.4c-15.7-46.4-33.7-225.7-63-261.1c-145-173.6-353.3-336.6-353.3-336.6
			c-31.9-18.9-60-42.6-83.4-66.2c22,77.8,26.4,129,26.4,129l-0.3-0.3c-0.2-1.1-19.8-65.3-68.4-177.8l0.1,0.9l-0.3-1.1
			c-29.9-36.4-37.9-53.6-37.9-53.6c-100-112.4-372.4-251-372.4-251l-199.9,3.1l35.3-15.6L2178-514.4
			c-261.9,35.4-554.7,137.8-554.7,137.8c-410.9-10.2-712.4,71.4-918.6,162.8C375.2-43.9,152.4,200.4,160.5,191.6
			C77.1,283.1,7.2,372-48,448.1c-191,323-373.2,775.9-162.1,1105.1c0,0,592.9,511.6,900.3,544.5c0,0,56-7.6,65.5-66.4
			c0,0,161.7,86.1,240.3-27.3c0,0,371.4-604.3,196.8-884.4l-85.2-158.2c-4,5.8-8.1,11.5-12,16.8c-16.7,55.1-59.8,180.5-107.8,185.4
			l-13.9-18.4c-0.2-0.5-0.2-1.1-0.6-1.5c0.2,0.2,0.2,0.3,0.3,0.7c-0.1-0.3-0.2-0.5-0.4-1c-1.2-3.7-2.5-7.6-3.5-11.4
			c-14.8-47.8-42.6-160,107.2-313.8c0,0,65.5-206.1,295.3-328.5c4.9-6.5,7.5-10,7.5-10l15.6-307.4
			c-111,64.4-472.3,276.1-595.9,374.1c91.2-80.3,356.3-304.3,598-417.2l1.4-22c22-120.8,269.8-221.7,269.8-221.7S1654-104,1641.1-94
			c-121.9,138.6-100.2,225.5-100.2,225.5c14.2,108.7,58.4,183.8,112.7,235.2c72.3,40.4,202.8,89,375.5,51.7
			c0,0,189.4-32.6,458.4-48.3c22.5-2.8,34.1-3.9,34.1-3.9c-124.6,27.9-228.9,100.1-228.9,100.1l44.6,18.9l150.2,38.3
			c98.4,34.1,87.8,83.6,87.8,83.6l1.2,75.9c54.6,15.9,103.6,60.1,121.7,77.8L2889.6,719.1z"/>
		
			<linearGradient id="SVGID_12_" gradientUnits="userSpaceOnUse" x1="1327.9257" y1="-503.6652" x2="1688.8751" y2="-503.6652" gradientTransform="matrix(1 0 0 -1 1009.2842 120)">
			<stop  offset="0" style="stop-color:#FFFFFF;stop-opacity:0.35"/>
			<stop  offset="1" style="stop-color:#FFFFFF;stop-opacity:0.1"/>
		</linearGradient>
		<path class="st14" d="M2575.3,607.1c0,0,10.6-49.6-87.8-83.6l-150.2-38.3l214.8,91.7l-1.5,126l142.1,59.1l5.5-1.3
			c-18.1-17.8-67.2-62-121.7-77.8L2575.3,607.1z"/>
		
			<linearGradient id="SVGID_13_" gradientUnits="userSpaceOnUse" x1="-940.129" y1="291.4683" x2="1402.2471" y2="-1127.778" gradientTransform="matrix(1 0 0 -1 1009.2842 120)">
			<stop  offset="0.12" style="stop-color:#172A53"/>
			<stop  offset="0.2" style="stop-color:#172C54;stop-opacity:0.86"/>
			<stop  offset="0.25" style="stop-color:#193157;stop-opacity:0.77"/>
			<stop  offset="0.29" style="stop-color:#1C395D;stop-opacity:0.7"/>
			<stop  offset="0.32" style="stop-color:#234465;stop-opacity:0.64"/>
			<stop  offset="0.35" style="stop-color:#2A536F;stop-opacity:0.58"/>
			<stop  offset="0.38" style="stop-color:#35667D;stop-opacity:0.53"/>
			<stop  offset="0.41" style="stop-color:#428090;stop-opacity:0.48"/>
			<stop  offset="0.44" style="stop-color:#52A0A8;stop-opacity:0.43"/>
			<stop  offset="0.46" style="stop-color:#63C4C1;stop-opacity:0.4"/>
			<stop  offset="0.47" style="stop-color:#6AC1B8;stop-opacity:0.42"/>
			<stop  offset="0.48" style="stop-color:#7ABEA2;stop-opacity:0.46"/>
			<stop  offset="0.51" style="stop-color:#8FBB81;stop-opacity:0.51"/>
			<stop  offset="0.53" style="stop-color:#A5B74F;stop-opacity:0.56"/>
			<stop  offset="0.55" style="stop-color:#B1B320;stop-opacity:0.6"/>
			<stop  offset="0.65" style="stop-color:#CEB313;stop-opacity:0.53"/>
			<stop  offset="0.69" style="stop-color:#DEB209;stop-opacity:0.5"/>
			<stop  offset="0.69" style="stop-color:#DEB311;stop-opacity:0.5"/>
			<stop  offset="0.72" style="stop-color:#E5C04D;stop-opacity:0.48"/>
			<stop  offset="0.74" style="stop-color:#EBCC77;stop-opacity:0.47"/>
			<stop  offset="0.77" style="stop-color:#F0D897;stop-opacity:0.45"/>
			<stop  offset="0.8" style="stop-color:#F4E2B4;stop-opacity:0.43"/>
			<stop  offset="0.83" style="stop-color:#F7EACC;stop-opacity:0.41"/>
			<stop  offset="0.86" style="stop-color:#FAF2DF;stop-opacity:0.39"/>
			<stop  offset="0.9" style="stop-color:#FDF8EF;stop-opacity:0.37"/>
			<stop  offset="0.94" style="stop-color:#FFFDFA;stop-opacity:0.34"/>
			<stop  offset="1" style="stop-color:#FFFFFF;stop-opacity:0.3"/>
		</linearGradient>
		<path class="st15" d="M2213.3,18.1c0,0-208-181.4-601.5-269c191.9-32.2,611.4,20.6,769.3,152.8c0,0-39.6-82.7-291.6-210.8
			c-107.7-53-401.8,2.2-401.8,2.2l185.9-110.4l-314.5,72.2c-329.5,33.6-881.7,160-1291.9,612.9c0,0-11.4,320.5,214.9,572
			c90.7,174.1,185.6,436.6,94.9,663.7c0,0,407.2-680.5,453.8-752.1c46.5-71.7,98.4-130.2,139.2-180.8
			c40.9-50.8,135-142.4,150.3-323.6c0,0-505.6,241.6-849.4,580c0,0,635.8-875.4,1211.6-984.7c0,0-93.1,388.8,387.6,429.6l393.4-40.1
			L2213.3,18.1z"/>
		
			<linearGradient id="SVGID_14_" gradientUnits="userSpaceOnUse" x1="1306.8562" y1="-289.4324" x2="1934.8612" y2="-289.4324" gradientTransform="matrix(1 0 0 -1 1009.2842 120)">
			<stop  offset="0" style="stop-color:#DEB209;stop-opacity:0.35"/>
			<stop  offset="0.1" style="stop-color:#DEB312;stop-opacity:0.33"/>
			<stop  offset="0.22" style="stop-color:#E1B728;stop-opacity:0.29"/>
			<stop  offset="0.36" style="stop-color:#E4BE44;stop-opacity:0.26"/>
			<stop  offset="0.51" style="stop-color:#E9C767;stop-opacity:0.22"/>
			<stop  offset="0.67" style="stop-color:#EFD48D;stop-opacity:0.18"/>
			<stop  offset="0.83" style="stop-color:#F5E5BD;stop-opacity:0.14"/>
			<stop  offset="1" style="stop-color:#FFFFFF;stop-opacity:0.1"/>
		</linearGradient>
		<path class="st16" d="M2849.8,544.7l94.3,3.4c-22.2-90-100-222.4-267.4-338.8l-101.5-68.6l229.4,307.1l-153.5-70.3l-302.4,55.4
			c-12.7,6.8-23.8,13.2-32.6,18.4l105.6,3.5c271.8,73.4,225.5,207.1,225.5,207.1s113.6,24.7,157.9,13.3
			c43.7-11.3,128.1-56.7,93.4-70.1l-233.8-8.6C2664.9,596.4,2809.6,533.8,2849.8,544.7z"/>
		<path class="st17" d="M282.2,1042.8C152.8,945.5,75.4,932.7-67.4,659.2c-5.1,19.8-21,113.7,91.5,242
			c42.4,48.2,160.1,135.4,188.9,157c28.7,21.3,71.2,63.5,140.2,157.2c40.4,54.9,143.4,263.3,182.9,363.6
			C536.1,1579,411.4,1140.3,282.2,1042.8z"/>
		<path class="st18" d="M536.1,1578.9c-39.5-100.2-142.5-308.6-183-363.5c-69-93.7-111.5-135.9-140.2-157.2
			c-28.8-21.6-146.6-108.8-188.9-157C-88.4,772.9-72.5,679-67.4,659.2l0,0l0,0l-2.2,4.4c-179.1,388-55.4,815.5-55.4,815.5
			c19.1-347.8,171.4-476.6,171.4-476.6c-150.6,356.2,4.8,563.3,4.8,563.3c229.3,394.9,251.2,121,251.2,121
			c257.9,399,303.6,296.8,303.6,296.8C635.8,1873.9,586,1705.8,536.1,1578.9z"/>
		
			<linearGradient id="SVGID_15_" gradientUnits="userSpaceOnUse" x1="876.2694" y1="-14.0132" x2="2032.5668" y2="-14.0132" gradientTransform="matrix(1 0 0 -1 1009.2842 120)">
			<stop  offset="0" style="stop-color:#FFFFFF;stop-opacity:0.1"/>
			<stop  offset="1" style="stop-color:#FFFFFF;stop-opacity:0.15"/>
		</linearGradient>
		<path class="st19" d="M3041.5,641.1l-23.7-222.5c-200.2-265.1-401.3-404.1-401.3-404.1l-87.8-77.1c0,0-72.9-104.5-91.4-118.8
			C2311.2-277.8,2095-396.2,2095-396.2l-21,5.5l-153.2,24.2l-35.3,15.6l199.9-3.1c0,0,272.4,138.6,372.4,251c0,0,8,17.2,37.9,53.6
			l0.3,1.1l-0.1-0.9c48.6,112.4,68.2,176.6,68.4,177.8l0.3,0.3c0,0-4.4-51.2-26.4-129c23.4,23.7,51.5,47.4,83.4,66.2
			c0,0,208.4,163,353.3,336.6c29.3,35.4,47.3,214.7,63,261.1l3.8,0.4L3041.5,641.1z"/>
	</g>
</g>
<g id="Layer_2">
</g>
</svg>
