<?xml version="1.0" encoding="utf-8"?>
<!-- Generator: Adobe Illustrator 16.0.0, SVG Export Plug-In . SVG Version: 6.00 Build 0)  -->
<!DOCTYPE svg PUBLIC "-//W3C//DTD SVG 1.1//EN" "http://www.w3.org/Graphics/SVG/1.1/DTD/svg11.dtd">
<svg version="1.1" id="Layer_1" xmlns="http://www.w3.org/2000/svg" xmlns:xlink="http://www.w3.org/1999/xlink" x="0px" y="0px"
	 width="751px" height="150px" viewBox="0 0 751 150" enable-background="new 0 0 751 150" xml:space="preserve">
<g>
	<path fill="#D8DFE7" d="M74.988,8.56c-37.563,0-68.013,30.45-68.013,68.012c0,37.563,30.45,68.013,68.013,68.013
		c37.563,0,68.01-30.449,68.01-68.013C142.998,39.01,112.551,8.56,74.988,8.56z M74.988,135.499
		c-32.547,0-58.932-26.381-58.932-58.928c0-32.545,26.385-58.928,58.932-58.928c32.542,0,58.925,26.383,58.925,58.928
		C133.913,109.118,107.53,135.499,74.988,135.499z"/>
	<circle fill="#1B75BB" cx="75.002" cy="73.155" r="66.357"/>
	<path fill="#FFFFFF" d="M74.988,5C37.424,5,6.975,35.449,6.975,73.012s30.45,68.012,68.013,68.012
		c37.563,0,68.01-30.449,68.01-68.012S112.551,5,74.988,5z M74.988,131.938c-32.547,0-58.932-26.38-58.932-58.927
		c0-32.546,26.385-58.928,58.932-58.928c32.542,0,58.925,26.382,58.925,58.928C133.913,105.559,107.53,131.938,74.988,131.938z"/>
	<path fill="#FFFFFF" d="M65.784,105.426v-29.54h-9.427V63.316h9.427v-9.425c0,0,0.633-13.829,12.574-13.829
		c11.94,0,11.94,0,11.94,0v11.94h-8.172c0,0-4.4,1.257-4.4,3.769c0,2.52,0,7.544,0,7.544h12.572v12.569H77.101v29.54H65.784z"/>
</g>
<g>
	<path fill="#D8DFE7" d="M224.8,9.199c-37.564,0-68.014,30.45-68.014,68.012c0,37.563,30.45,68.013,68.014,68.013
		c37.562,0,68.011-30.449,68.011-68.013C292.811,39.649,262.362,9.199,224.8,9.199z M224.8,136.138
		c-32.547,0-58.931-26.381-58.931-58.928c0-32.545,26.384-58.928,58.931-58.928c32.543,0,58.926,26.383,58.926,58.928
		C283.726,109.757,257.343,136.138,224.8,136.138z"/>
	<circle fill="#26A9E0" cx="224.814" cy="73.794" r="66.357"/>
	<path fill="#FFFFFF" d="M224.8,5.639c-37.564,0-68.014,30.449-68.014,68.012s30.45,68.012,68.014,68.012
		c37.562,0,68.011-30.449,68.011-68.012S262.362,5.639,224.8,5.639z M224.8,132.578c-32.547,0-58.931-26.38-58.931-58.927
		c0-32.546,26.384-58.928,58.931-58.928c32.543,0,58.926,26.382,58.926,58.928C283.726,106.198,257.343,132.578,224.8,132.578z"/>
	<path fill="#FFFFFF" d="M246.796,55.61c0,0-7.479-9.523-14.966-4.763c-7.485,4.763-6.125,15.65-6.125,15.65
		s-13.61-3.373-18.368-8.493c-4.767-5.11-7.577-6.961-5.901,2.145c1.785,9.652,4.535,9.521,4.535,9.521l-9.978,0.458
		c0,0,13.611,8.845,16.333,9.526c2.719,0.681-6.806-2.043-8.165,2.718c-1.366,4.77,7.934,6.579,13.381,6.579
		c5.442,0-11.12,5.442-17.803,6.804c0,0,55.226,12.248,47.057-33.34l6.808-1.358l-4.086-3.174l4.086-3.631L246.796,55.61z"/>
</g>
<g>
	<path fill="#D8DFE7" d="M374.749,8.758c-37.564,0-68.014,30.45-68.014,68.012c0,37.563,30.449,68.013,68.014,68.013
		c37.562,0,68.01-30.449,68.01-68.013C442.759,39.208,412.311,8.758,374.749,8.758z M374.749,135.697
		c-32.549,0-58.932-26.381-58.932-58.928c0-32.545,26.383-58.928,58.932-58.928c32.542,0,58.924,26.383,58.924,58.928
		C433.673,109.316,407.291,135.697,374.749,135.697z"/>
	<circle fill="#603813" cx="374.762" cy="73.354" r="66.358"/>
	<g>
		<defs>
			<circle id="SVGID_1_" cx="374.762" cy="73.354" r="66.358"/>
		</defs>
		<clipPath id="SVGID_2_">
			<use xlink:href="#SVGID_1_"  overflow="visible"/>
		</clipPath>
		<g clip-path="url(#SVGID_2_)">
			<rect x="325.791" y="-5.77" fill="#EC1C24" width="14.044" height="150.552"/>
			<rect x="340.096" y="-5.77" fill="#F7D637" width="14.044" height="150.552"/>
			<rect x="353.673" y="-5.77" fill="#00B4E0" width="14.045" height="150.552"/>
			<rect x="367.452" y="-5.77" fill="#1B75BB" width="14.044" height="150.552"/>
		</g>
	</g>
	<path fill="#FFFFFF" d="M374.749,5.198c-37.564,0-68.014,30.449-68.014,68.012s30.449,68.012,68.014,68.012
		c37.562,0,68.01-30.449,68.01-68.012S412.311,5.198,374.749,5.198z M374.749,132.137c-32.549,0-58.932-26.38-58.932-58.927
		c0-32.546,26.383-58.928,58.932-58.928c32.542,0,58.924,26.382,58.924,58.928C433.673,105.757,407.291,132.137,374.749,132.137z"/>
	<g>
		<rect x="346.727" y="55.395" fill="#603813" width="55.389" height="38.976"/>
		<g>
			<path fill="#FFFFFF" d="M374.767,57.267c4.903,0,9.296,2.193,12.246,5.659h15.782v-7.531c0-5.223-4.223-9.445-9.443-9.445H356.17
				c-5.217,0-9.443,4.223-9.443,9.445v7.531h15.783C365.466,59.46,369.855,57.267,374.767,57.267z M386.557,50.619
				c0-0.556,0.544-1.008,1.199-1.008h7.696c0.666,0,1.202,0.452,1.202,1.008v7.718c0,0.562-0.536,1.012-1.202,1.012h-7.696
				c-0.655,0-1.199-0.45-1.199-1.012V50.619z"/>
			<path fill="#FFFFFF" d="M361.906,73.362c0,7.104,5.753,12.859,12.86,12.859c7.096,0,12.85-5.755,12.85-12.859
				c0-2.864-0.938-5.505-2.52-7.641h-20.673C362.844,67.857,361.906,70.498,361.906,73.362z"/>
			<path fill="#FFFFFF" d="M367.27,62.926h14.98c-2.103-1.518-4.695-2.415-7.483-2.415C371.97,60.511,369.382,61.408,367.27,62.926z
				"/>
			<path fill="#FFFFFF" d="M374.767,89.464c-8.897,0-16.106-7.208-16.106-16.102c0-2.763,0.697-5.367,1.928-7.641h-13.861v26.966
				c0,5.219,4.227,9.445,9.443,9.445h37.182c5.221,0,9.443-4.227,9.443-9.445V65.721h-13.86c1.231,2.274,1.927,4.878,1.927,7.641
				C390.861,82.256,383.656,89.464,374.767,89.464z"/>
			<path fill="#FFFFFF" d="M387.013,62.926"/>
		</g>
		<path fill="#FFFFFF" d="M387.887,73.36c0,7.241-5.876,13.12-13.12,13.12c-7.255,0-13.128-5.879-13.128-13.12
			c0-7.257,5.873-13.133,13.128-13.133C382.011,60.228,387.887,66.104,387.887,73.36z"/>
	</g>
</g>
<g>
	<path fill="#D8DFE7" d="M524.993,8.318c-37.563,0-68.013,30.45-68.013,68.013s30.449,68.012,68.013,68.012
		c37.562,0,68.011-30.449,68.011-68.012S562.556,8.318,524.993,8.318z M524.993,135.257c-32.547,0-58.932-26.381-58.932-58.927
		c0-32.547,26.385-58.929,58.932-58.929c32.542,0,58.926,26.382,58.926,58.929C583.919,108.876,557.535,135.257,524.993,135.257z"/>
	<circle fill="#B92031" cx="525.007" cy="72.914" r="66.357"/>
	<path fill="#FFFFFF" d="M543.587,52.015h-39.914c-5.646,0-10.225,4.575-10.225,10.222v21.907c0,5.646,4.578,10.225,10.225,10.225
		h39.914c5.648,0,10.224-4.578,10.224-10.225V62.237C553.811,56.59,549.235,52.015,543.587,52.015z M515.731,85.256l-0.196-24.128
		L536.384,72.5L515.731,85.256z"/>
	<path fill="#FFFFFF" d="M524.993,4.758c-37.563,0-68.013,30.45-68.013,68.012s30.449,68.013,68.013,68.013
		c37.562,0,68.011-30.45,68.011-68.013S562.556,4.758,524.993,4.758z M524.993,131.697c-32.547,0-58.932-26.38-58.932-58.927
		c0-32.546,26.385-58.928,58.932-58.928c32.542,0,58.926,26.382,58.926,58.928C583.919,105.317,557.535,131.697,524.993,131.697z"/>
</g>
<g>
	<path fill="#D8DFE7" d="M674.989,9.098c-37.564,0-68.015,30.449-68.015,68.012s30.45,68.013,68.015,68.013
		c37.562,0,68.01-30.45,68.01-68.013S712.551,9.098,674.989,9.098z M674.989,136.037c-32.548,0-58.933-26.38-58.933-58.927
		c0-32.546,26.385-58.928,58.933-58.928c32.541,0,58.923,26.382,58.923,58.928C733.912,109.657,707.53,136.037,674.989,136.037z"/>
	<circle fill="#EC1C24" cx="675.003" cy="73.694" r="66.357"/>
	<path fill="#FFFFFF" d="M674.989,5.538c-37.564,0-68.015,30.45-68.015,68.013s30.45,68.012,68.015,68.012
		c37.562,0,68.01-30.449,68.01-68.012S712.551,5.538,674.989,5.538z M674.989,132.477c-32.548,0-58.933-26.38-58.933-58.927
		s26.385-58.929,58.933-58.929c32.541,0,58.923,26.382,58.923,58.929S707.53,132.477,674.989,132.477z"/>
	<g>
		<path fill="#FFFFFF" d="M672.603,73.099c5.23-3.763,6.498-11.669,1.674-16.305c0,0-0.206-2.928,5.223-4.181
			c0,0-30.223-4.313-27.591,13.38c0,0,1.845,6.304,8.78,7.94c9.844,2.32-4.182,7.525-6.274,9.2
			c-2.087,1.671-5.851,4.941-5.015,9.366c0.833,4.432,7.521,8.19,17.138,6.937c9.616-1.256,15.051-8.778,11.296-15.05
			C674.064,78.118,667.385,76.861,672.603,73.099z M661.104,56.785c5.02-3.345,9.179,5.025,9.179,5.025s2.319,11.289-4.582,10.447
			C658.802,71.416,656.087,60.134,661.104,56.785z M664.391,95.668c-6.329,0.415-9.977-5.433-5.862-9.617
			c4.11-4.183,8.009-5.016,8.009-5.016s5.855,2.51,7.739,7.324C676.153,93.181,670.718,95.249,664.391,95.668z"/>
		<rect x="689.942" y="53.053" fill="#FFFFFF" width="2.383" height="20.77"/>
		<rect x="681.175" y="62.335" fill="#FFFFFF" width="19.55" height="2.198"/>
	</g>
</g>
</svg>
