<?xml version="1.0" encoding="UTF-8" standalone="no"?>
<svg width="310px" height="458px" viewBox="0 0 310 458" version="1.1" xmlns="http://www.w3.org/2000/svg" xmlns:xlink="http://www.w3.org/1999/xlink">
    <!-- Generator: Sketch 3.7.2 (28276) - http://www.bohemiancoding.com/sketch -->
    <title>Title Card small</title>
    <desc>Created with Sketch.</desc>
    <defs>
        <path d="M297.006507,15 C298.659767,15 300,16.3420609 300,17.9994947 L300,421.000505 C300,422.65708 298.662472,424 297.006507,424 L2.99349319,424 C1.34023255,424 0,422.657939 0,421.000505 L0,17.9994947 C0,16.3429195 1.33752823,15 2.99349319,15 L297.006507,15 Z M150,60 L150,60 C130.851125,60 115,46.7907295 115,30 C115,13.2092705 130.851125,0 150,0 C169.148875,0 185,13.2092705 185,30 C185,46.7907295 169.148875,60 150,60 L150,60 Z M112,8 L112,8 L188,8 L193,8 L193,14.5337423 L193,427.466258 L193,434 L188,434 L112,434 L107,434 L107,427.466258 L107,14.5337423 L107,8 L112,8 Z M150,448 L150,448 C127.418205,448 109,430.605028 109,409 C109,387.394972 127.418205,370 150,370 C172.581795,370 191,387.394972 191,409 C191,430.605028 172.581795,448 150,448 L150,448 Z" id="path-1"></path>
        <filter x="-50%" y="-50%" width="200%" height="200%" filterUnits="objectBoundingBox" id="filter-2">
            <feOffset dx="0" dy="2" in="SourceAlpha" result="shadowOffsetOuter1"></feOffset>
            <feGaussianBlur stdDeviation="2.5" in="shadowOffsetOuter1" result="shadowBlurOuter1"></feGaussianBlur>
            <feColorMatrix values="0 0 0 0 0   0 0 0 0 0   0 0 0 0 0  0 0 0 0.2 0" type="matrix" in="shadowBlurOuter1"></feColorMatrix>
        </filter>
        <path d="M116.354261,412 L111.000006,412 L111.000006,401 L6.2547374e-06,401 L6.2547374e-06,15 L111.000006,15 L111.000006,8 L120.669547,8 C125.235233,3.07929526 131.758012,0 139,0 C146.241988,0 152.764767,3.07929526 157.330447,7.99999369 L167.000006,8 L167.000006,15 L278.000006,15 L278.000006,401 L167.000006,401 L167.000006,412 L161.645752,412 C156.554589,420.485338 148.307658,426 139.000006,426 C129.692354,426 121.445424,420.485338 116.354261,412 Z" id="path-3"></path>
        <radialGradient cx="49.4136065%" cy="52.4304773%" fx="49.4136065%" fy="52.4304773%" r="24.2718998%" id="radialGradient-5">
            <stop stop-color="#DFCEB7" offset="0%"></stop>
            <stop stop-color="#FFF1DF" offset="100%"></stop>
        </radialGradient>
        <path d="M127.354255,424 L122,424 L122,414 L10,414 L10,25 L122,25 L122,18 L131.669541,18 C136.235226,13.0792953 142.758006,10 149.999994,10 C157.241981,10 163.764761,13.0792953 168.330441,17.9999937 L178,18 L178,25 L290,25 L290,414 L178,414 L178,424 L172.645745,424 C167.554583,432.485338 159.307652,438 150,438 C140.692348,438 132.445417,432.485338 127.354255,424 Z" id="path-6"></path>
        <mask id="mask-7" maskContentUnits="userSpaceOnUse" maskUnits="objectBoundingBox" x="0" y="0" width="280" height="428" fill="white">
            <use xlink:href="#path-6"></use>
        </mask>
        <circle id="path-8" cx="150" cy="32" r="8"></circle>
        <mask id="mask-9" maskContentUnits="userSpaceOnUse" maskUnits="objectBoundingBox" x="0" y="0" width="16" height="16" fill="white">
            <use xlink:href="#path-8"></use>
        </mask>
        <path d="M150,429 C158.284271,429 165,422.284271 165,414 C165,405.715729 158.284271,399 150,399 C141.715729,399 135,405.715729 135,414 C135,422.284271 141.715729,429 150,429 Z" id="path-10"></path>
        <mask id="mask-11" maskContentUnits="userSpaceOnUse" maskUnits="objectBoundingBox" x="0" y="0" width="30" height="30" fill="white">
            <use xlink:href="#path-10"></use>
        </mask>
        <circle id="path-12" cx="150" cy="414" r="8"></circle>
        <mask id="mask-13" maskContentUnits="userSpaceOnUse" maskUnits="objectBoundingBox" x="0" y="0" width="16" height="16" fill="white">
            <use xlink:href="#path-12"></use>
        </mask>
        <circle id="path-14" cx="286" cy="29" r="9"></circle>
        <mask id="mask-15" maskContentUnits="userSpaceOnUse" maskUnits="objectBoundingBox" x="0" y="0" width="18" height="18" fill="white">
            <use xlink:href="#path-14"></use>
        </mask>
        <circle id="path-16" cx="286" cy="410" r="9"></circle>
        <mask id="mask-17" maskContentUnits="userSpaceOnUse" maskUnits="objectBoundingBox" x="0" y="0" width="18" height="18" fill="white">
            <use xlink:href="#path-16"></use>
        </mask>
        <circle id="path-18" cx="14" cy="29" r="9"></circle>
        <mask id="mask-19" maskContentUnits="userSpaceOnUse" maskUnits="objectBoundingBox" x="0" y="0" width="18" height="18" fill="white">
            <use xlink:href="#path-18"></use>
        </mask>
        <circle id="path-20" cx="14" cy="410" r="9"></circle>
        <mask id="mask-21" maskContentUnits="userSpaceOnUse" maskUnits="objectBoundingBox" x="0" y="0" width="18" height="18" fill="white">
            <use xlink:href="#path-20"></use>
        </mask>
    </defs>
    <g id="UI-Elements" stroke="none" stroke-width="1" fill="none" fill-rule="evenodd">
        <g id="iPhone-SE" transform="translate(-5.000000, -55.000000)">
            <g id="Title-Card-small" transform="translate(5.000000, 53.000000)">
                <g id="Group-3" transform="translate(5.000000, 5.000000)">
                    <g id="Combined-Shape">
                        <use fill="black" fill-opacity="1" filter="url(#filter-2)" xlink:href="#path-1"></use>
                        <use fill="#F1E3D1" fill-rule="evenodd" xlink:href="#path-1"></use>
                    </g>
                    <g id="Star-1" transform="translate(11.000000, 11.000000)">
                        <mask id="mask-4" fill="white">
                            <use xlink:href="#path-3"></use>
                        </mask>
                        <use id="Mask" fill="#E1CFB9" xlink:href="#path-3"></use>
                        <polygon fill="url(#radialGradient-5)" mask="url(#mask-4)" points="139.311208 254.852403 133.597316 446 137.381816 254.810947 122.181726 445.509168 135.456543 254.686666 110.802691 444.528553 133.539495 254.479825 99.4844945 443.060246 131.634764 254.190867 88.2512904 441.10738 129.746415 253.820408 77.1270508 438.674125 127.878478 253.369238 66.1355153 435.765671 126.034939 252.83832 55.3001404 432.388227 124.219733 252.228787 44.6440494 428.548999 122.436732 251.54194 34.1899828 424.256181 120.689742 250.779245 23.9602503 419.518933 118.982492 249.942329 13.9766825 414.347366 117.318623 249.032979 4.26058488 408.752516 115.701689 248.053135 -5.16730789 402.746322 114.135138 247.004887 -14.2868762 396.341602 112.622314 245.890474 -23.0786585 389.552024 111.166445 244.712272 -31.5238926 382.392078 109.770639 243.472798 -39.6045561 374.877042 108.437874 242.174695 -47.3034042 367.022954 107.170994 240.820734 -54.6040074 358.846576 105.972703 239.413804 -61.4907857 350.365356 104.845558 237.956908 -67.9490425 341.597394 103.791964 236.453155 -73.9649954 332.561401 102.814171 234.905753 -79.5258062 323.276659 101.914264 233.318006 -84.6196078 313.762984 101.094163 231.693302 -89.2355297 304.040678 100.35562 230.035107 -93.3637213 294.130488 99.7002104 228.34696 -96.995373 284.053565 99.1293324 226.632465 -100.122734 273.831411 98.6442045 224.895279 -102.739132 263.485842 98.245862 223.13911 -104.838982 253.038936 97.9351551 221.367706 -106.417803 242.512987 97.7127467 219.584848 -107.472225 231.930458 97.5791115 217.794338 -108 221.313933 97.5345348 216 -108 210.686067 97.5791115 214.205662 -107.472225 200.069542 97.7127467 212.415152 -106.417803 189.487013 97.9351551 210.632294 -104.838982 178.961064 98.245862 208.86089 -102.739132 168.514158 98.6442045 207.104721 -100.122734 158.168589 99.1293324 205.367535 -96.995373 147.946435 99.7002104 203.65304 -93.3637213 137.869512 100.35562 201.964893 -89.2355297 127.959322 101.094163 200.306698 -84.6196078 118.237016 101.914264 198.681994 -79.5258062 108.723341 102.814171 197.094247 -73.9649954 99.4385993 103.791964 195.546845 -67.9490425 90.4026058 104.845558 194.043092 -61.4907857 81.6346435 105.972703 192.586196 -54.6040074 73.1534237 107.170994 191.179266 -47.3034042 64.9770457 108.437874 189.825305 -39.6045561 57.1229582 109.770639 188.527202 -31.5238926 49.6079224 111.166445 187.287728 -23.0786585 42.4479757 112.622314 186.109526 -14.2868762 35.6583977 114.135138 184.995113 -5.16730789 29.2536778 115.701689 183.946865 4.26058488 23.2474839 117.318623 182.967021 13.9766825 17.6526336 118.982492 182.057671 23.9602503 12.4810667 120.689742 181.220755 34.1899828 7.74381932 122.436732 180.45806 44.6440494 3.45100117 124.219733 179.771213 55.3001404 -0.3882267 126.034939 179.16168 66.1355153 -3.76567119 127.878478 178.630762 77.1270508 -6.67412467 129.746415 178.179592 88.2512904 -9.10738034 131.634764 177.809133 99.4844945 -11.0602455 133.539495 177.520175 110.802691 -12.5285527 135.456543 177.313334 122.181726 -13.5091684 137.381816 177.189053 133.597316 -14 139.311208 177.147597 145.0251 -14 141.240599 177.189053 156.44069 -13.5091684 143.165873 177.313334 167.819724 -12.5285527 145.08292 177.520175 179.137921 -11.0602455 146.987651 177.809133 190.371125 -9.10738034 148.876 178.179592 201.495364 -6.67412467 150.743937 178.630762 212.4869 -3.76567119 152.587476 179.16168 223.322275 -0.3882267 154.402682 179.771213 233.978366 3.45100117 156.185683 180.45806 244.432432 7.74381932 157.932673 181.220755 254.662165 12.4810667 159.639924 182.057671 264.645733 17.6526336 161.303792 182.967021 274.36183 23.2474839 162.920727 183.946865 283.789723 29.2536778 164.487278 184.995113 292.909291 35.6583977 166.000102 186.109526 301.701074 42.4479757 167.45597 187.287728 310.146308 49.6079224 168.851776 188.527202 318.226971 57.1229582 170.184541 189.825305 325.925819 64.9770457 171.451421 191.179266 333.226423 73.1534237 172.649712 192.586196 340.113201 81.6346435 173.776857 194.043092 346.571458 90.4026058 174.830451 195.546845 352.587411 99.4385993 175.808244 197.094247 358.148221 108.723341 176.708152 198.681994 363.242023 118.237016 177.528252 200.306698 367.857945 127.959322 178.266795 201.964893 371.986137 137.869512 178.922205 203.65304 375.617788 147.946435 179.493083 205.367535 378.74515 158.168589 179.978211 207.104721 381.361547 168.514158 180.376553 208.86089 383.461397 178.961064 180.68726 210.632294 385.040218 189.487013 180.909668 212.415152 386.094641 200.069542 181.043304 214.205662 386.622415 210.686067 181.08788 216 386.622415 221.313933 181.043304 217.794338 386.094641 231.930458 180.909668 219.584848 385.040218 242.512987 180.68726 221.367706 383.461397 253.038936 180.376553 223.13911 381.361547 263.485842 179.978211 224.895279 378.74515 273.831411 179.493083 226.632465 375.617788 284.053565 178.922205 228.34696 371.986137 294.130488 178.266795 230.035107 367.857945 304.040678 177.528252 231.693302 363.242023 313.762984 176.708152 233.318006 358.148221 323.276659 175.808244 234.905753 352.587411 332.561401 174.830451 236.453155 346.571458 341.597394 173.776857 237.956908 340.113201 350.365356 172.649712 239.413804 333.226423 358.846576 171.451421 240.820734 325.925819 367.022954 170.184541 242.174695 318.226971 374.877042 168.851776 243.472798 310.146308 382.392078 167.45597 244.712272 301.701074 389.552024 166.000102 245.890474 292.909291 396.341602 164.487278 247.004887 283.789723 402.746322 162.920727 248.053135 274.36183 408.752516 161.303792 249.032979 264.645733 414.347366 159.639924 249.942329 254.662165 419.518933 157.932673 250.779245 244.432432 424.256181 156.185683 251.54194 233.978366 428.548999 154.402682 252.228787 223.322275 432.388227 152.587476 252.83832 212.4869 435.765671 150.743937 253.369238 201.495364 438.674125 148.876 253.820408 190.371125 441.10738 146.987651 254.190867 179.137921 443.060246 145.08292 254.479825 167.819724 444.528553 143.165873 254.686666 156.44069 445.509168 141.240599 254.810947 145.0251 446"></polygon>
                    </g>
                    <use id="Combined-Shape" stroke="#780922" mask="url(#mask-7)" stroke-width="4" xlink:href="#path-6"></use>
                    <use id="Oval-24" stroke="#780922" mask="url(#mask-9)" stroke-width="4" fill="#F2E3CF" xlink:href="#path-8"></use>
                    <use id="Oval-24-Copy-4" stroke="#780922" mask="url(#mask-11)" stroke-width="4" fill="#F2E3CF" xlink:href="#path-10"></use>
                    <use id="Oval-24-Copy-4" stroke="#780922" mask="url(#mask-13)" stroke-width="4" fill="#F2E3CF" xlink:href="#path-12"></use>
                    <use id="Oval-24-Copy-3" stroke="#780922" mask="url(#mask-15)" stroke-width="4" fill="#F1E3D1" xlink:href="#path-14"></use>
                    <use id="Oval-24-Copy-3" stroke="#780922" mask="url(#mask-17)" stroke-width="4" fill="#F1E3D1" xlink:href="#path-16"></use>
                    <use id="Oval-24-Copy-3" stroke="#780922" mask="url(#mask-19)" stroke-width="4" fill="#F1E3D1" xlink:href="#path-18"></use>
                    <use id="Oval-24-Copy-3" stroke="#780922" mask="url(#mask-21)" stroke-width="4" fill="#F1E3D1" xlink:href="#path-20"></use>
                    <g id="Type" transform="translate(12.000000, 48.000000)">
                        <text id="A-" font-family="AlverataPE-Bold, Alverata PE" font-size="26.2419597" font-weight="bold" line-spacing="27.4899998" fill="#780922">
                            <tspan x="116.636239" y="276.460781">A </tspan>
                            <tspan x="7.32535618" y="303.950781">CROWDSOURCING </tspan>
                            <tspan x="70.8440196" y="331.440781">PROJECT</tspan>
                        </text>
                        <text id="-AT-THE-UC-DAVIS-LIB" font-family="AlverataPE-Bold, Alverata PE" font-size="14" font-weight="bold" line-spacing="17.45" fill="#780922">
                            <tspan x="46.091" y="34"> AT THE UC DAVIS LIBRARY</tspan>
                        </text>
                        <text id="presents" font-family="AlverataPE-BoldItalic, Alverata PE" font-size="14" font-style="italic" font-weight="bold" line-spacing="17.45" fill="#780922">
                            <tspan x="108.265" y="57">presents</tspan>
                        </text>
                        <text id="THE-MAYNARD-AMERINE-" font-family="AlverataPE-Bold, Alverata PE" font-size="14" font-weight="bold" line-spacing="17.4946398" fill="#780922">
                            <tspan x="9.033" y="13.5053602">THE MAYNARD AMERINE COLLECTION</tspan>
                        </text>
                        <g id="Previous" transform="translate(18.000000, 260.000000)" stroke="#780922" stroke-width="2">
                            <path d="M4.0146335,16.9909887 C6.39824498,15.5889945 8,12.9830098 8,9.99978749 C8,7.01046443 6.39168699,4.39992341 4,3" id="Oval-7" transform="translate(6.000000, 9.995494) scale(-1, 1) translate(-6.000000, -9.995494) "></path>
                            <path d="M0.0219122411,20 C3.59113758,17.9958611 5.98960926,14.270628 5.98960926,10.006137 C5.98960926,5.73292498 3.58131764,2.00117867 0,0" id="Oval-7-Copy" transform="translate(2.994805, 10.000000) scale(-1, 1) translate(-2.994805, -10.000000) "></path>
                            <path d="M100.215125,12 L5.37273462,12" id="Line" stroke-linecap="square"></path>
                            <path d="M100.215125,8 L5.37273462,8" id="Line-Copy" stroke-linecap="square"></path>
                        </g>
                        <g id="Next" transform="translate(206.000000, 270.000000) scale(-1, 1) translate(-206.000000, -270.000000) translate(156.000000, 260.000000)" stroke="#780922" stroke-width="2">
                            <path d="M4.0146335,16.9909887 C6.39824498,15.5889945 8,12.9830098 8,9.99978749 C8,7.01046443 6.39168699,4.39992341 4,3" id="Oval-7" transform="translate(6.000000, 9.995494) scale(-1, 1) translate(-6.000000, -9.995494) "></path>
                            <path d="M0.0219122411,20 C3.59113758,17.9958611 5.98960926,14.270628 5.98960926,10.006137 C5.98960926,5.73292498 3.58131764,2.00117867 0,0" id="Oval-7-Copy" transform="translate(2.994805, 10.000000) scale(-1, 1) translate(-2.994805, -10.000000) "></path>
                            <path d="M99.9208253,12 L5.37273462,12" id="Line" stroke-linecap="square"></path>
                            <path d="M99.9208253,8 L5.37273462,8" id="Line-Copy" stroke-linecap="square"></path>
                        </g>
                    </g>
                    <g id="Group-2" transform="translate(28.000000, 118.000000)">
                        <g id="S" transform="translate(165.967742, 89.479638)">
                            <path d="M0.692213343,80.2819702 C0.692213343,79.9614614 0.726845211,79.6455754 0.794569753,79.3389348 L0.308184405,78.8520081 L1.88354961,77.2718075 C2.11442873,76.980576 4.50864521,73.784734 4.50864521,66.2057808 C4.50787562,66.1903718 4.3816617,60.9936615 1.67806719,58.1791941 C1.64728331,58.1506873 1.58109796,58.0774942 1.51414301,57.9981375 C0.792260962,57.1768338 0.404384039,56.1552122 0.404384039,55.1012315 C0.404384039,54.3831686 0.583700156,53.6797444 0.92155327,53.0502837 L0.92155327,52.6450251 L1.68191517,52.0224985 C1.88816719,51.8152464 2.11519833,51.6295671 2.35993019,51.4677718 L6.56654778,48.0199914 C6.81512763,47.761119 7.09449137,47.5353761 7.400791,47.3443035 L7.56471518,47.2464559 C7.80252067,47.112397 8.85104028,45.9873644 11.2649603,46.7941602 C13.6788804,48.407752 15.7653759,55.2221758 15.2881604,54.0553261 C15.2767391,54.0273995 16.8974405,59.7028972 18.5067205,64.5436724 C20.1160005,69.3844476 22.8726875,71.8048352 24.9438407,71.8048352 C28.9670392,71.8048352 31.2405991,68.7532735 31.2405991,66.2057807 C31.2405991,59.7028972 24.9438407,54.0553261 20.1160005,50.8281396 C14.5336669,47.0966092 12.9934384,45.3177845 12.8742404,45.1805685 C6.56654776,37.9194057 6.85867264,36.889525 3.97377525,31.8936248 C3.08258184,29.1654482 2.63390675,26.3656194 2.63390675,23.5080066 C2.63390675,8.16210958 10.3706661,3.36988749 16.018739,1.91758224 C17.1777522,1.6286621 18.1251262,1.4838168 18.9424383,1.40291916 L19.3118449,1.33897151 C19.3918829,1.32664425 21.2981749,1.02693775 24.0263965,1.02693775 C25.5994529,1.02693775 27.1409558,1.12632628 28.6078079,1.32202152 C30.3309357,1.55161673 32.1710423,2.14871836 33.7948921,2.67647915 C34.7930595,2.99929925 36.1598639,3.44385105 36.5862207,3.45232604 C38.0938613,3.45232604 39.8223764,2.21882964 40.3603247,1.74423016 L42.3343412,-7.70453712e-05 L43.811198,2.18030696 C43.9597302,2.40142717 45.2503445,4.42386817 44.7277881,7.17592882 L44.5492416,8.11203008 L43.7650221,8.65057723 C42.5767643,9.46571726 41.7294379,13.863467 41.9633954,16.5508096 C42.3658947,22.6235257 43.3178862,24.8031393 43.5241383,25.2130207 L43.4010027,25.0774208 C43.427169,25.1066981 43.5256775,25.2145616 43.5256775,25.2145616 C44.0990273,25.9680653 44.810135,27.3618161 44.810135,28.5128739 C44.810135,29.5668546 44.422258,30.5884762 43.7173071,31.391289 L43.5726229,31.5561661 L40.7181873,33.7735319 C40.2864434,34.1472019 39.5068416,34.5879014 38.226232,34.5879014 C36.0713602,34.5879014 34.3613156,32.8351192 33.4778181,31.1948233 C32.4888859,29.3565207 31.8886002,27.5998863 31.2521434,25.740011 C30.4579192,23.4163226 29.556721,20.7836823 27.6488899,17.409095 C26.5545229,15.3165427 24.7390434,13.3326244 23.9440496,13.3326244 C23.7023961,13.3226085 23.5915742,13.3195267 23.4807522,13.3195267 C22.100095,13.3195267 21.4590207,13.8164694 21.0965405,14.1901394 C20.0083302,15.3142314 19.4634555,17.6741311 19.5619639,20.8368436 C19.8151613,29.0067347 24.1156698,31.340439 31.2405994,35.2050349 L31.5869181,35.3930256 C47.7684661,44.432759 47.953939,57.5790106 47.953939,58.1345078 C47.953939,84.2266932 32.1194793,84.2266932 24.5097035,84.2266932 C20.5247298,84.2266932 18.1412877,83.2590033 16.224991,82.482386 C14.8066236,81.906857 13.7822899,81.4900416 12.3123595,81.4900416 C11.2641683,81.4900416 10.8016405,81.8798912 9.96124045,82.5879381 C8.92844118,83.4570099 7.51392177,84.6481313 5.05351994,84.6481313 C2.64852909,84.6481313 0.692213343,82.689638 0.692213343,80.2819702 Z" id="Fill-28" fill="#F1E3D1"></path>
                            <path d="M31.2896997,4.59529412 C29.7035602,4.06599242 27.9365653,3.90111532 26.269618,3.90342668 C24.703488,3.90573805 23.1165788,3.79941543 21.5412136,3.89032897 C18.4335807,4.06907423 15.292855,4.88344381 12.7662679,6.70402593 C8.45036748,9.81434756 6.56023708,15.3724006 6.15388983,20.6808267 C5.69213159,26.7065452 6.91502133,33.0288883 10.5175052,37.878124 C11.1801283,38.7703094 11.9289462,39.6262835 12.3283671,40.6640846 C12.7662682,41.9533861 13.9360554,43.3398704 14.6687118,43.8352721 C18.0518605,46.1219787 21.6010888,48.9037779 25.1904895,50.849944 C25.7038108,51.1280778 26.3111763,50.5844466 26.8883741,50.4989263 C27.3601371,50.4280445 27.7587884,50.1183221 28.1112638,49.7962725 C30.4931668,47.6243635 31.8561232,44.3769011 31.739914,41.1533227 C31.7129781,40.4152281 31.5990777,39.6440039 31.1619466,39.0476727 C30.8856613,38.6709209 30.4993235,38.3920166 30.1114466,38.1323737 C26.9938089,36.047526 23.2681895,34.7539342 20.7577638,31.9664327 C18.5736473,29.5402739 17.5877935,26.2666161 17.036762,23.0468901 C16.5480679,20.1877363 16.3718301,17.1482964 17.5054466,14.4786743 C18.6398327,11.8090522 21.4034558,9.65409319 24.2740528,10.0501064 C26.3011715,10.3305515 27.9812019,11.7759227 29.2541155,13.3800073 C32.5756964,17.5658824 33.8463012,22.9598288 35.4439847,28.0610028 C35.8534103,29.3700037 36.4790928,30.8569793 37.8051085,31.2036835 C39.2465638,31.5804354 40.5856627,30.3816094 41.5638206,29.2559765 C41.7115832,29.0849358 41.8616547,28.9092723 41.943232,28.6989385 C42.1771895,28.0933619 41.7900821,27.4446398 41.467621,26.8806677 C39.8329968,24.0199731 39.6067353,20.5945359 39.418184,17.3046985 C39.3089012,15.3993665 39.2026968,13.4601345 39.6598375,11.6071933 C40.1392964,9.66642045 41.209806,7.92981778 41.9201441,6.06069708 C41.9994125,5.85113367 42.0763723,5.62693164 42.0332748,5.40658188 C41.9409232,4.93275284 41.3375591,4.72781216 40.8704136,4.84569157 C40.4032682,4.96357099 40.0238569,5.29332518 39.6075049,5.53678855 C37.0124235,7.05689373 33.7947382,5.43046594 31.2896997,4.59529412 Z" id="Fill-19" fill="#E5863A"></path>
                            <path d="M25.0992148,50.0390424 C25.0992148,50.0390424 20.4115991,46.9526049 19.9660024,46.7137642 C16.3742928,44.9925706 13.612209,41.2589519 14.0062427,41.6827015 L12.141509,39.2580836 C8.38741444,34.3772594 6.48420089,29.1558946 6.48420089,23.7380641 C6.48420089,12.5063899 11.2141445,6.00376055 19.8020782,5.42746117 L22.2432401,5.26335453 L22.1855203,5.16088419 C22.7288558,5.13083649 23.3506903,5.10926379 24.0302445,5.10926379 C25.4339895,5.10926379 26.8038723,5.19786597 28.1029522,5.3704476 C29.4782221,5.55458603 31.142091,6.09467409 32.6104822,6.57081448 C34.2705031,7.11013208 35.5811269,7.53542253 36.5862207,7.53542253 C38.245472,7.53542253 39.8023668,6.88747096 40.9590712,6.22873303 C38.3732251,8.77816436 37.9160844,14.634383 38.1323412,17.1160144 C38.6641328,25.1495353 40.1702342,27.4208328 40.4672987,27.7945029 L40.5173225,27.8545983 C40.652002,28.0187049 40.9336745,28.5934634 40.9683064,28.8122722 C40.965228,28.849254 40.9406009,28.9193653 40.8928859,28.9933288 L38.3632203,30.9587563 C38.3316668,30.9626085 38.2877998,30.9649199 38.2285408,30.9649199 C38.0076665,30.9649199 37.3250339,30.4464045 36.8686628,29.598135 C36.0290324,28.0387367 35.5033976,26.502452 34.8946463,24.7227039 C34.0457808,22.2403021 33.0837844,19.4273756 31.0004851,15.7422955 C30.5033254,14.7799988 27.7104577,9.7512474 23.9917646,9.71118381 C23.8186053,9.70193836 23.6492939,9.6980861 23.483061,9.6980861 C21.3797522,9.6980861 19.6481588,10.3845604 18.3359958,11.7397884 C16.4643357,13.6720863 15.5839166,16.8509784 15.7178265,21.1870918 C16.0395181,31.5697261 21.9400188,34.7709612 29.409728,38.8235478 C29.409728,38.8235478 32.2533892,47.1729546 25.0992148,50.0390424 L25.0992148,50.0390424 Z M17.2562511,21.1385533 C17.0823221,15.5388957 18.694628,10.9631711 23.9463584,11.2513208 C26.9423998,11.2513208 29.6613862,16.5011924 29.6613862,16.5011924 C33.1722881,22.7125902 33.4062456,26.4146203 35.5134024,30.3285251 C36.0213364,31.2723309 37.0949243,32.5065978 38.2285408,32.5065978 C38.9896723,32.5065978 39.2320954,32.2346276 39.2320954,32.2346276 L41.9857137,30.0950777 C42.3043269,29.7329644 42.5036525,29.2637581 42.5036525,28.7429314 C42.5036525,28.2228751 41.9903313,27.1974012 41.6717181,26.835288 C41.6717181,26.835288 40.1948613,24.9761832 39.6661482,16.9827259 C39.442965,14.4217378 40.0555643,8.62638498 42.4613247,6.97453222 C42.8222657,5.07613428 41.8979797,3.70010395 41.8979797,3.70010395 C41.8979797,3.70010395 39.3459958,5.9945151 36.5862207,5.9945151 C35.0223994,5.9945151 31.256761,4.23633973 28.3061258,3.84340834 C23.6331324,3.22011129 19.6781731,3.85265379 19.6781731,3.85265379 C12.1923024,4.39351229 4.94500675,9.32672741 4.94500675,23.7380641 C4.94500675,30.547334 7.78174155,36.1146325 10.9216976,40.1980372 C13.6788801,43.566978 13.6788801,43.566978 17.0222936,46.4417941 C18.3198342,47.4926929 19.1825525,48.0420264 19.1825525,48.0420264 C19.1825525,48.0420264 33.0014375,55.3466981 33.0014375,64.2338816 C33.0014375,73.9593188 24.9283643,73.3945763 24.9283643,73.3945763 C18.9878445,73.3945763 17.0484599,65.5513575 17.0484599,65.5513575 C15.4730947,58.8792283 14.5234119,55.3120276 12.4170247,51.3973523 C11.9090906,50.454317 10.8347331,49.2200501 9.70111664,49.2200501 C9.33478844,49.2200501 8.99616573,49.3240614 8.69833166,49.4927908 C8.49054045,49.6106702 8.30968514,49.7585973 8.15653532,49.9358016 L3.71826902,53.5738841 C3.54357049,53.6786658 3.38734228,53.8065611 3.2518932,53.9560291 C2.91404008,54.341256 2.71471444,54.8104623 2.71471444,55.331289 C2.71471444,55.8513452 2.91404008,56.3205515 3.23265327,56.6826648 C3.27113312,56.7258102 3.3049954,56.7689556 3.34501444,56.8074783 C6.73739833,60.3400086 6.81974521,66.4358383 6.81974521,66.4358383 C6.81974521,75.2775651 3.79753752,78.8293567 3.59436389,79.0589519 C3.2249573,79.4572765 3.00331334,79.9580714 3.00331334,80.5127981 C3.00331334,81.6476764 3.92221225,82.5675981 5.05582873,82.5675981 C8.37894888,82.5675981 8.63060712,79.4095084 12.3154379,79.4095084 C16.5867016,79.4095084 18.0943423,82.1453895 24.5120123,82.1453895 C32.0132749,82.1453895 45.6474566,82.0922282 45.6474566,58.3653357 C45.6474566,58.3653357 45.6474566,46.1235967 30.4887031,37.6555399 C22.9512694,33.5644307 17.5556243,30.7854042 17.2562511,21.1385533 Z" id="Fill-16" fill="#780922"></path>
                        </g>
                        <g id="H" transform="translate(85.354839, 89.479638)">
                            <path d="M28.9199417,36.0291121 L32.6394044,31.2492173 L32.6394044,11.0209551 C32.6394044,9.57019078 31.8636505,9.29976153 31.3803436,9.27202519 C30.2059384,9.25507521 29.1415857,8.77045983 28.3658318,7.99538339 C27.5769949,8.78432799 26.488015,9.27202519 25.2874436,9.27202519 C24.2554139,9.27202519 24.1084209,10.5240125 24.0930289,11.0617892 L24.0937985,30.6151339 L28.9199417,36.0291121 Z M24.0937985,74.2027822 C24.1399743,74.9963495 24.387015,75.9162712 25.2835956,75.9162712 C26.4857062,75.9162712 27.5746861,76.4055094 28.3642927,77.1952244 C29.1361985,76.4232298 30.1951641,75.9386144 31.3649516,75.9170417 C32.6394044,75.7976214 32.6394044,74.5710591 32.6394044,74.1673413 L32.6394044,48.6876666 L30.6715447,51.1685276 L30.3390787,51.1685276 C29.9296531,51.3811728 29.4702036,51.4975113 28.997671,51.4975113 C28.5228296,51.4975113 28.0687674,51.3857955 27.6624201,51.1770026 L27.4030659,51.1770026 L26.904367,50.6176532 C26.8404905,50.5521646 26.7796923,50.4835942 26.7212029,50.4111716 L24.0937985,47.4071726 L24.0937985,52.1131038 L24.2115469,52.2463923 L24.0937985,54.057729 L24.0937985,74.2027822 Z M48.1752604,84.4852574 C45.9557425,84.3696894 43.1936586,84.2271554 41.7037187,84.2271554 C40.3392231,84.2271554 38.0565981,84.3488871 36.0433322,84.4559802 C34.1939905,84.5545983 32.4462355,84.6485936 31.4442201,84.6485936 C30.2436487,84.6485936 29.1538992,84.1593555 28.3642927,83.3696405 C27.5746861,84.1593555 26.4857062,84.6485936 25.2835956,84.6485936 C24.6417516,84.6485936 23.2533985,84.576171 21.4964084,84.4852574 C19.2768905,84.3696894 16.5148066,84.2271554 15.024097,84.2271554 C13.6588318,84.2271554 11.3769765,84.3488871 9.3637106,84.4559802 C7.51436884,84.5545983 5.76661389,84.6485936 4.7653681,84.6485936 C2.36037726,84.6485936 0.404061509,82.6901003 0.404061509,80.2824324 C0.404061509,77.9017305 2.31804942,75.9601871 4.68609961,75.9170417 C5.95978276,75.7976214 5.95978276,74.5710591 5.95978276,74.1673413 L5.95978276,11.0209551 C5.95978276,10.6195487 5.95978276,9.40377278 4.65993331,9.27125474 C2.30342708,9.21424116 0.404061509,7.27886144 0.404061509,4.90663446 C0.404061509,2.49896661 2.36037726,0.539702825 4.7653681,0.539702825 C5.76661389,0.539702825 7.51436884,0.633698178 9.36448019,0.732316253 C11.3785157,0.840179773 13.6619102,0.961911459 15.0264058,0.961911459 C16.5163458,0.961911459 19.2791992,0.818607069 21.4979476,0.703039012 C23.2564769,0.612125474 24.64483,0.539702825 25.2874436,0.539702825 C26.488015,0.539702825 27.5769949,1.02817048 28.3658318,1.81711508 C29.156208,1.02817048 30.2444183,0.539702825 31.4442201,0.539702825 C32.4462355,0.539702825 34.1939905,0.633698178 36.0441018,0.732316253 C38.0581373,0.840179773 40.3407623,0.961911459 41.7060275,0.961911459 C43.1959674,0.961911459 45.9588209,0.818607069 48.1775692,0.703039012 C49.9360985,0.612125474 51.3244516,0.539702825 51.9670652,0.539702825 C54.372056,0.539702825 56.3283718,2.49896661 56.3283718,4.90663446 C56.3283718,7.31430231 54.372056,9.27202519 51.9670652,9.27202519 C50.8434535,9.27202519 50.7749593,10.7435918 50.7734201,11.0379051 L50.7734201,74.2027822 C50.819596,74.9963495 51.0666366,75.9162712 51.9632172,75.9162712 C54.3674384,75.9162712 56.3237542,77.8747646 56.3237542,80.2824324 C56.3237542,82.6901003 54.3674384,84.6485936 51.9632172,84.6485936 C51.3206036,84.6485936 49.9330201,84.576171 48.1752604,84.4852574 Z" id="Fill-9" fill="#F1E3D1"></path>
                            <path d="M26.631314,4.72758102 C26.4543066,5.30696221 25.3660959,6.19683621 24.7727366,6.31548608 C23.182749,6.63368346 22.3100264,7.22076923 21.7766957,8.75397212 C21.2433649,10.287175 21.2549088,11.9482732 21.2726096,13.5716192 C21.3326381,19.0695769 21.3926667,24.5675345 21.4519257,30.0654922 C21.4573129,30.5138963 21.4634696,30.9715458 21.6104627,31.3952953 C21.7597645,31.825979 22.0445154,32.1942558 22.3292664,32.5502055 C24.5249268,35.2907093 26.2434363,38.1455405 28.9839715,40.3397926 C30.7340352,38.7911807 33.1182477,36.7199009 34.5489286,34.8700416 C35.1084257,34.1458151 35.6509916,33.3838364 35.9226594,32.5093714 C36.1750872,31.6965427 36.1797048,30.8290119 36.1827832,29.9776605 C36.2004839,24.1792259 36.2189543,18.3815617 36.2374246,12.5838975 C36.244351,10.3411068 35.986536,7.63835514 33.9894316,6.6236676 C33.3221909,6.28466797 31.766836,6.68068114 31.1142177,6.31548608 C30.4615994,5.94952056 30.7332664,4.62279932 31.1142169,3.97870001 C31.4713099,3.3746643 32.3209451,3.35540296 33.0205088,3.40240064 C38.607014,3.78223432 44.2212246,3.75603889 49.8046513,3.32458481 C50.5927187,3.26371897 51.426962,3.20362358 52.1334521,3.55880274 C52.8399422,3.9139819 53.3155532,4.85393543 52.893814,5.52268925 C52.4151246,6.28235661 51.2922825,6.14752721 50.4418777,6.43336554 C48.6517949,7.03586034 48.3031675,9.37572826 48.2646876,11.2656512 C48.1946543,14.6702862 48.1253905,18.0756916 48.0553572,21.4803265 C47.9337609,27.4405564 47.8113949,33.4030977 47.9606968,39.3625572 C47.990711,40.5552195 48.0291909,41.7686841 47.7236609,42.9220533 C47.383499,44.2063997 46.6369898,45.341278 45.85354,46.41452 C43.0791425,50.2151682 39.6929154,53.5674123 35.86417,56.3017525 C35.8333861,50.8238266 35.8018327,45.3466712 35.7710488,39.8687453 C33.8601392,42.8334511 31.5736664,45.5554641 28.9839722,47.9484933 C26.3442543,44.9837875 23.6883748,42.0337202 21.0178729,39.0967506 C21.1633268,42.6131014 19.5610257,46.0223591 17.3107239,48.7266516 C15.060422,51.4309441 12.1905946,53.5358237 9.35001177,55.6091146 C8.868244,53.3509148 9.19378356,51.007965 9.11605426,48.6996857 C9.03832495,46.3921768 8.88055756,34.0317879 8.96367404,31.7805222 C9.04371213,29.5939746 9.12375023,27.4074269 9.20378832,25.2208793 C9.38233484,20.3392846 9.56011177,15.4330353 8.95366928,10.586111 C8.73895169,8.86954017 8.17945462,6.86096735 6.53944327,6.31548612 C5.98918136,6.13211814 5.39043484,6.15137948 4.83093777,5.99651828 C4.2722103,5.84088663 3.70809565,5.41559618 3.69732129,4.83544454 C3.67962056,3.88701602 4.95407331,3.57883454 5.9014473,3.58345726 C9.09527514,3.59809588 12.3876114,3.46480739 15.5606601,3.83770698 C18.5466968,4.18980433 21.7705389,3.6859276 24.772737,3.5395414 C25.6400729,3.49716644 26.885281,3.89626147 26.631314,4.72758102 Z" id="Fill-15" fill="#E5863A"></path>
                            <path d="M46.9267431,39.9994142 C46.9267431,47.3187245 36.488698,53.5786609 36.488698,53.5786609 L36.488698,37.8683392 L28.9658867,47.3580176 L20.2478911,37.389117 L20.2478911,40.3846411 C20.2478911,46.9334976 9.80984602,54.3491146 9.80984602,54.3491146 L9.80984602,11.2514749 C9.80984602,7.28903143 6.83073576,5.73117402 4.82901378,5.65104684 C4.48500389,5.65027638 4.25489437,5.41991073 4.25489437,5.13638376 C4.25489437,4.85362725 4.48500389,4.62326159 4.76744602,4.62326159 C5.66633539,4.62326159 7.36406653,4.71340467 9.16184528,4.80971139 C11.3244131,4.92527944 13.5616317,5.04469977 15.0292533,5.04469977 C16.6184713,5.04469977 19.3182178,4.90447719 21.7001207,4.7812046 C23.2670204,4.6995365 24.7477251,4.62326159 25.2902911,4.62326159 C25.5735028,4.62326159 25.8036123,4.85362725 25.8036123,5.13638376 C25.8036123,5.41991073 25.5735028,5.65027638 25.2902911,5.65027638 C21.6216218,5.65027638 20.2648222,8.99327504 20.2478911,11.2399181 L20.2478911,32.3141384 L29.1228845,42.2714822 L36.488698,32.8026061 L36.488698,11.2514749 C36.488698,7.28903143 33.5103574,5.73117402 31.5086354,5.65104684 C31.1638559,5.65027638 30.9337464,5.41991073 30.9337464,5.13638376 C30.9337464,4.85362725 31.1638559,4.62326159 31.4470676,4.62326159 C32.345957,4.62326159 34.0444577,4.71340467 35.8422365,4.80971139 C38.0040347,4.92527944 40.2404838,5.04469977 41.7081054,5.04469977 C43.2980929,5.04469977 45.9978394,4.90447719 48.3797424,4.7812046 C49.946642,4.6995365 51.4273468,4.62326159 51.9699127,4.62326159 C52.2523548,4.62326159 52.4824643,4.85362725 52.4824643,5.13638376 C52.4824643,5.41991073 52.2523548,5.65027638 51.9699127,5.65027638 C48.3012435,5.65027638 46.9436742,8.99327504 46.9267431,11.2399181 L46.9267431,39.9994142 Z M48.4659372,74.4941678 L48.4659372,11.2514749 C48.4659372,11.2514749 48.4974907,7.19118381 51.9691431,7.19118381 C53.1027596,7.19118381 54.0216585,6.27126208 54.0216585,5.13638376 C54.0216585,4.0022759 53.1027596,3.08235416 51.9691431,3.08235416 C50.5800204,3.08235416 44.3762984,3.50379234 41.7081054,3.50379234 C39.0399123,3.50379234 33.4664903,3.08235416 31.4470676,3.08235416 C30.3134512,3.08235416 29.3945522,4.0022759 29.3945522,5.13638376 C29.3945522,6.27126208 30.3134512,7.19118381 31.4470676,7.19118381 C31.4470676,7.19118381 34.9502735,7.33063593 34.9502735,11.2514749 L34.9502735,32.2733044 L29.0420768,39.8668962 L21.7870852,31.7262823 L21.7870852,11.2514749 C21.7870852,11.2514749 21.8178691,7.19118381 25.2902911,7.19118381 C26.4239076,7.19118381 27.3420369,6.27126208 27.3420369,5.13638376 C27.3420369,4.0022759 26.4239076,3.08235416 25.2902911,3.08235416 C23.9003988,3.08235416 17.6974464,3.50379234 15.0284837,3.50379234 C12.3602907,3.50379234 6.78763832,3.08235416 4.76744602,3.08235416 C3.63382953,3.08235416 2.71493063,4.0022759 2.71493063,5.13638376 C2.71493063,6.27126208 3.63382953,7.19118381 4.76744602,7.19118381 C4.76744602,7.19118381 8.27065188,7.33063593 8.27065188,11.2514749 L8.27065188,72.6566357 L8.27065188,74.3978611 C8.27065188,78.3187 4.76744602,78.4581521 4.76744602,78.4581521 C3.63382953,78.4581521 2.71493063,79.3780739 2.71493063,80.5129522 C2.71493063,81.64706 3.63382953,82.5669818 4.76744602,82.5669818 C6.78763832,82.5669818 12.3587515,82.1455436 15.0269446,82.1455436 C17.6951376,82.1455436 23.8965508,82.5669818 25.2864431,82.5669818 C26.41929,82.5669818 27.3381889,81.64706 27.3381889,80.5129522 C27.3381889,79.3780739 26.41929,78.4581521 25.2864431,78.4581521 C22.1164728,78.4581521 21.8155603,75.0835649 21.7870852,74.4941678 L21.7870852,54.2127443 L21.8471138,53.2897407 L21.7870852,41.4879308 L28.4394823,49.0961612 C28.5664658,49.2841519 28.7642522,49.4166699 28.999749,49.4166699 C29.2390936,49.4166699 29.4391889,49.2810701 29.5515501,49.0884566 L34.9502735,42.2884322 L34.9502735,72.6566357 L34.9502735,74.3978611 C34.9502735,78.3187 31.4470676,78.4581521 31.4470676,78.4581521 C30.3134512,78.4581521 29.3945522,79.3780739 29.3945522,80.5129522 C29.3945522,81.64706 30.3134512,82.5669818 31.4470676,82.5669818 C33.4664903,82.5669818 39.0383731,82.1455436 41.7065662,82.1455436 C44.3747592,82.1455436 50.5761724,82.5669818 51.9652951,82.5669818 C53.0989116,82.5669818 54.0178105,81.64706 54.0178105,80.5129522 C54.0178105,79.3780739 53.0989116,78.4581521 51.9652951,78.4581521 C48.7960944,78.4581521 48.4951819,75.0835649 48.4659372,74.4941678 Z" id="Fill-7" fill="#780922"></path>
                        </g>
                        <g id="I" transform="translate(139.096774, 89.479638)">
                            <path d="M21.3269661,84.7152379 C19.1082178,84.6004403 16.3461339,84.4571359 14.8569636,84.4571359 C13.4916984,84.4571359 11.2090735,84.5788676 9.19503794,84.6867311 C7.34492658,84.7853492 5.59871083,84.878574 4.59746504,84.878574 C2.1924742,84.878574 0.236158447,82.9200807 0.236158447,80.5124129 C0.236158447,78.1317109 2.14937676,76.190938 4.51742695,76.1477926 C5.79187969,76.0283723 5.79187969,74.80181 5.79187969,74.3973218 L5.79187969,11.251706 C5.79187969,10.8495292 5.79187969,9.63452366 4.49126065,9.50123517 C2.13552402,9.44499205 0.236158447,7.50884187 0.236158447,5.1366149 C0.236158447,2.72894705 2.1924742,0.770453712 4.59746504,0.770453712 C5.59871083,0.770453712 7.34569618,0.863678611 9.19580753,0.96306714 C11.2106127,1.07093066 13.4932376,1.19266235 14.8585028,1.19266235 C16.3484427,1.19266235 19.1112962,1.0485875 21.3308141,0.933789898 C23.0893434,0.842876361 24.4776965,0.770453712 25.1203101,0.770453712 C27.5245313,0.770453712 29.4808471,2.72894705 29.4808471,5.1366149 C29.4808471,7.54428274 27.5245313,9.50277608 25.1203101,9.50277608 C23.9959288,9.50277608 23.9274346,10.9743427 23.9251259,11.2694264 L23.9251259,52.3430843 L24.0428742,52.4763728 L23.9251259,54.2877094 L23.9251259,74.4319922 C23.9728409,75.2271004 24.2214207,76.1470221 25.1156925,76.1470221 C27.5206834,76.1470221 29.4769991,78.1055155 29.4769991,80.5124129 C29.4769991,82.9200807 27.5206834,84.878574 25.1156925,84.878574 C24.473079,84.878574 23.0847259,84.8061514 21.3269661,84.7152379 Z" id="Fill-5" fill="#F1E3D1"></path>
                            <path d="M24.5957389,3.41596062 C24.9697631,3.47682646 25.365336,3.58623089 25.603911,3.88054421 C26.0602821,4.44374587 25.6539349,5.32822673 25.0474924,5.7250104 C24.4418195,6.12179406 23.6922319,6.23196894 23.050388,6.5671163 C21.1256257,7.57332885 20.7708414,10.1358579 20.7077345,12.3085374 C20.4745466,20.2573083 20.9778631,28.2122429 20.8439532,36.1640956 C20.8093213,38.1873071 20.7308224,40.2313208 20.1990308,42.1836505 C19.4302034,45.0058224 17.7417074,47.5082561 15.7230543,49.6231515 C13.7044012,51.738047 11.3532821,53.5016155 9.01370701,55.2543977 C9.00908943,53.3267225 9.00370225,51.3990473 8.99831507,49.4713721 C8.99446709,48.0182964 8.65815317,34.7610994 8.70355939,32.7710175 C8.84901324,26.4016767 8.99523668,20.0269426 8.76666635,13.6599132 C8.71279456,12.1529057 8.63352606,10.6220142 8.13482716,9.19975663 C7.63612826,7.77749908 6.92956105,6.7268314 5.53274237,6.16362974 C5.07560171,5.97872085 3.61259786,6.46641805 3.22395134,6.16362974 C2.83453523,5.86084143 3.29560078,4.39520729 3.59651324,4.00458726 C3.84124511,3.68793078 4.29915536,3.65480127 4.69934584,3.65171946 C7.49221361,3.63168766 10.3697371,3.62706494 13.1433649,3.98763728 C15.7130495,4.32201419 18.6452143,3.67252171 21.243374,3.43753333 C22.3592898,3.33660389 23.4898279,3.23644491 24.5957389,3.41596062 Z" id="Fill-17" fill="#E5863A"></path>
                            <path d="M19.6954835,38.9401944 C19.6954835,47.0299584 9.25743841,53.2898948 9.25743841,53.2898948 L9.25743841,11.251629 C9.25743841,7.28918552 6.27909775,5.73132812 4.27737577,5.65120093 C3.93259628,5.65043048 3.70248676,5.42006482 3.70248676,5.13653785 C3.70248676,4.85301088 3.93259628,4.62341568 4.215808,4.62341568 C5.11469738,4.62341568 6.81242851,4.71355876 8.61020727,4.80986548 C10.7720054,4.92543353 13.0092241,5.0440834 14.4768457,5.0440834 C16.0660637,5.0440834 18.7658102,4.90463128 21.1477131,4.78135869 C22.7146128,4.6996906 24.1953175,4.62341568 24.7378835,4.62341568 C25.0210952,4.62341568 25.2512047,4.85301088 25.2512047,5.13653785 C25.2512047,5.42006482 25.0210952,5.65043048 24.7378835,5.65043048 C21.0699838,5.65043048 19.7124146,8.99265868 19.6954835,11.2393017 L19.6954835,38.9401944 Z M21.2346776,74.4950923 L21.2346776,54.2121279 L21.2947062,53.2898948 L21.2346776,11.251629 C21.2346776,11.251629 21.2662311,7.1913379 24.7378835,7.1913379 C25.8714999,7.1913379 26.7903989,6.27141617 26.7903989,5.13653785 C26.7903989,4.00165953 25.8714999,3.0817378 24.7378835,3.0817378 C23.3487608,3.0817378 17.1450388,3.50394644 14.4768457,3.50394644 C11.8086527,3.50394644 6.23523071,3.0817378 4.2150384,3.0817378 C3.08219152,3.0817378 2.16329262,4.00165953 2.16329262,5.13653785 C2.16329262,6.27141617 3.08219152,7.1913379 4.2150384,7.1913379 C4.2150384,7.1913379 7.71901386,7.33079002 7.71901386,11.251629 L7.71901386,72.6560193 L7.71901386,74.3972447 C7.71901386,78.3180836 4.2150384,78.4583062 4.2150384,78.4583062 C3.08219152,78.4583062 2.16329262,79.378228 2.16329262,80.5123358 C2.16329262,81.6472141 3.08219152,82.5671359 4.2150384,82.5671359 C6.23523071,82.5671359 11.8063439,82.1456977 14.4745369,82.1456977 C17.14273,82.1456977 23.3441432,82.5671359 24.7340355,82.5671359 C25.867652,82.5671359 26.7865509,81.6472141 26.7865509,80.5123358 C26.7865509,79.378228 25.867652,78.4583062 24.7340355,78.4583062 C21.5663739,78.4583062 21.2639223,75.0868008 21.2346776,74.4950923 Z" id="Fill-4" fill="#780922"></path>
                        </g>
                        <g id="T" transform="translate(30.822581, 89.479638)">
                            <path d="M34.7792092,84.4563654 C32.7651737,84.3485019 30.4825487,84.2267702 29.1172835,84.2267702 C27.6273436,84.2267702 24.8652597,84.3700746 22.6457418,84.4848722 C20.8872125,84.5757857 19.4988594,84.6482084 18.8562458,84.6482084 C16.451255,84.6482084 14.4949392,82.6897151 14.4949392,80.2820472 C14.4949392,77.8751498 16.451255,75.9166565 18.8562458,75.9166565 C19.1679326,75.9166565 19.8082374,75.9166565 20.015259,74.4697444 L20.015259,16.1463984 C19.5942894,17.2951449 19.2102605,18.7936774 19.024018,20.1766418 C17.3486052,27.3202886 16.3388938,31.0284823 14.136307,35.1180506 C13.2528095,36.759117 11.5412257,38.5103583 9.38866266,38.5103583 C8.67293738,38.5103583 7.95567291,38.324679 7.30998097,37.9718112 C6.87900661,37.7291183 6.54807987,37.4717867 6.25717218,37.1697689 L2.049785,33.7204476 C1.80659233,33.5594228 1.58033079,33.3745139 1.37484837,33.1688027 L0.630648004,32.5663079 L0.624491227,32.1610493 C0.278172546,31.5261954 0.0934692489,30.8142962 0.0934692489,30.0885288 C0.0934692489,29.0337777 0.481346172,28.012156 1.18629709,27.2093433 C1.27095277,27.1114957 1.3402165,27.0352207 1.41563701,26.9612572 C4.0715165,24.1945579 4.19773042,18.9978476 4.19850002,18.9462272 C4.19850002,11.4805308 1.85430734,8.27467286 1.578022,7.92334597 C0.773793059,7.03039012 0.372832985,5.99567078 0.372832985,4.90624924 C0.372832985,2.49858139 2.32914874,0.540088052 4.73413958,0.540088052 C5.33904288,0.540088052 9.07158867,0.610969793 13.7976843,0.701112878 C19.9267553,0.816680934 27.5542319,0.962296686 29.0818821,0.962296686 C30.4863967,0.962296686 36.9248458,0.839024092 42.6052418,0.729619665 C47.9054568,0.627919775 52.4822506,0.540088052 53.4442469,0.540088052 C55.8484682,0.540088052 57.8047839,2.49858139 57.8047839,4.90624924 C57.8047839,6.04883209 57.3476433,7.15443317 56.5434143,7.96957319 C56.1570766,8.47190901 53.9591074,11.6523419 53.9591074,18.9824385 C53.959877,18.9978476 54.0860909,24.1945579 56.7896854,27.0090253 C56.8173909,27.0352207 56.8866546,27.1114957 56.9543792,27.1900819 C57.6762612,28.012156 58.0641381,29.0337777 58.0641381,30.0885288 C58.0641381,30.8058212 57.8840524,31.508475 57.5461993,32.1379357 L57.5461993,32.5431943 L56.7873766,33.16418 C56.5811246,33.3714321 56.3533238,33.5578819 56.1078224,33.7204476 L51.9004352,37.1697689 C51.6495466,37.4301822 51.3694132,37.6566956 51.0631136,37.8469977 C50.2442623,38.3131222 49.5054491,38.5103583 48.7689447,38.5103583 C46.6163817,38.5103583 44.9055674,36.759117 44.0213004,35.1195915 C41.8194832,31.0284823 40.8090022,27.3202886 39.1743781,20.3993029 C38.9427293,18.7736456 38.563318,17.2858995 38.1477356,16.1479393 L38.1485052,52.1127186 L38.1485052,54.0581142 L38.1485052,71.855595 L38.1839066,74.1669561 C38.1839066,75.6177204 38.9588909,75.8889201 39.4421978,75.9174269 C41.817944,75.9513269 43.7396279,77.8959521 43.7396279,80.2820472 C43.7396279,82.6897151 41.7833121,84.6482084 39.3783213,84.6482084 C38.3770755,84.6482084 36.6300901,84.5549835 34.7792092,84.4563654 Z" id="Fill-24" fill="#F1E3D1"></path>
                            <path d="M37.9690362,4.62272228 C40.8927355,4.45014065 41.9724802,3.54793933 44.8954098,3.72206187 C47.5105007,3.87769352 49.9795979,4.11499327 52.5592872,3.65657332 C53.191896,3.54408707 53.9514883,3.41156904 54.3847715,3.88616852 C54.9550429,4.51023603 54.408629,5.47869634 53.9491796,6.18905467 C52.4500045,8.50657943 51.9936334,11.3272105 51.570355,14.0561575 C51.2632858,16.036994 50.955447,18.0447964 51.157851,20.039501 C51.4726162,23.1459704 52.9941096,25.9850923 54.5386909,28.6986303 C54.777266,29.1185276 55.0258459,29.5962089 54.8980927,30.0615629 C54.8072803,30.3890057 54.5471565,30.6370918 54.2985766,30.8674575 C52.9979576,32.0693653 51.6981081,33.2720435 50.3982587,34.4739513 C50.1519876,34.7020056 49.8995598,34.9339122 49.5924905,35.069512 C48.8698389,35.3877094 47.9932678,35.0856916 47.4245356,34.537899 C46.8558034,33.9893359 46.5325726,33.2404549 46.2424345,32.5054421 C43.9852063,26.7940687 42.8700601,20.7082549 41.2492887,14.7842363 C40.9976305,13.8627736 40.7221147,12.9228201 40.1526129,12.1569891 C39.5831111,11.3911581 38.651129,10.8233337 37.7052942,10.9496881 C36.5878393,11.0999266 35.7813015,12.1693164 35.5342609,13.2710652 C35.2872202,14.372814 35.4696147,15.5184787 35.5812063,16.6418002 C36.0244942,21.1266112 35.3049209,25.6391586 35.2487404,30.1455424 C35.2125693,33.0763483 35.455762,36.0225633 35.0902034,38.9302556 C34.1274374,46.5800905 29.0927334,53.0819494 23.6208982,58.506714 C23.4046415,54.3901798 23.1883847,50.274416 22.9728975,46.1578819 C22.9536576,45.7973095 23.4054111,22.7792344 23.1714535,14.8158249 C23.143748,13.8912804 23.099881,12.9282133 22.6542843,12.117696 C22.2094572,11.3071787 21.2351473,10.7085361 20.3585763,11.0013085 C19.9060532,11.1523175 19.5535777,11.5074966 19.2457389,11.8726917 C15.742533,16.0408463 16.2235312,22.1767396 14.394199,27.3071909 C13.3975708,30.1039379 11.7090748,32.5925034 10.0382795,35.0463984 C9.92053119,35.2197505 9.77353815,35.4100526 9.56497735,35.4208389 C9.40259237,35.4293139 9.25867771,35.3237618 9.130155,35.2236028 C7.79567368,34.1804085 6.46119236,33.1372141 5.12671105,32.0940198 C4.61646819,31.6949248 4.087755,31.2727162 3.81993522,30.6825486 C3.08804841,29.0723004 4.5879931,27.4212181 5.58923888,25.9635196 C7.11227149,23.7461538 7.61173998,20.9517182 7.48937405,18.2636052 C7.36623852,15.5754922 6.66744438,12.9513269 5.97172863,10.3518161 C5.47072094,8.4788431 4.96201727,6.58583833 4.0354224,4.88313562 C3.88996855,4.61501773 3.72835317,4.31916351 3.79530811,4.02176837 C3.91228687,3.49631894 4.59568907,3.37612816 5.13363742,3.37073499 C13.07434,3.29677143 20.9873371,3.944723 28.9334268,3.92546166 C31.2745411,3.92006848 33.2447083,4.7606335 35.581205,4.62272228" id="Fill-13" fill="#E5863A"></path>
                            <path d="M51.6531637,19.2133435 C51.6531637,10.7075345 54.4421834,7.1064339 54.8362171,6.6403094 C55.2410252,6.26509845 55.4988402,5.73271493 55.4988402,5.13638376 C55.4988402,4.0022759 54.5799413,3.08235416 53.4463248,3.08235416 C51.4269021,3.08235416 31.752153,3.50379234 29.08396,3.50379234 C26.4157669,3.50379234 6.1261098,3.08235416 4.73621749,3.08235416 C3.60337061,3.08235416 2.6844717,4.0022759 2.6844717,5.13638376 C2.6844717,5.69265134 2.90688526,6.19575761 3.26551749,6.56557539 C3.48793104,6.81982512 6.50936914,10.3716167 6.50936914,19.2133435 C6.50936914,19.2133435 6.42779185,25.3091733 3.03463837,28.8417036 C2.60443361,29.3286303 2.40510797,29.7978366 2.40510797,30.3186633 C2.40510797,30.8387196 2.60443361,31.3079259 2.9222772,31.6700391 C3.07773581,31.8433912 3.23396401,31.9712865 3.40789295,32.0752978 L7.84615925,35.7133802 C7.99930907,35.8905846 8.18016438,36.0385117 8.3848772,36.1548502 C8.68578965,36.3251205 9.02518196,36.4291317 9.39151017,36.4291317 C10.5251267,36.4291317 11.5987146,35.1948649 12.1066486,34.2518295 C14.2138054,30.3379247 15.1634882,26.770724 16.7380838,20.0985948 C16.7380838,20.0985948 17.7955102,12.2546056 20.7915516,12.2546056 C20.7915516,12.2546056 22.3238193,12.031174 22.3261281,14.303242 L22.3261281,47.6839195 L22.3261281,74.8493469 C22.2006838,75.9040981 21.6150204,78.4581521 18.8583237,78.4581521 C17.7247072,78.4581521 16.8058083,79.3780739 16.8058083,80.5129522 C16.8058083,81.64706 17.7247072,82.5669818 18.8583237,82.5669818 C20.248216,82.5669818 26.4511684,82.1455436 29.1193615,82.1455436 C31.7875545,82.1455436 37.3609765,82.5669818 39.3811688,82.5669818 C40.5140157,82.5669818 41.4329146,81.64706 41.4329146,80.5129522 C41.4329146,79.3780739 40.5140157,78.4581521 39.3811688,78.4581521 C39.3811688,78.4581521 35.8779629,78.3187 35.8779629,74.3978611 L35.8417919,54.2127443 L35.90259,53.2897407 L35.8417919,14.1768876 C35.9018204,12.0458126 37.3709812,12.2546056 37.3709812,12.2546056 C40.3670226,12.2546056 41.424449,20.0985948 41.424449,20.0985948 C42.9990446,26.770724 43.9487274,30.3379247 46.0558842,34.2518295 C46.5638182,35.1948649 47.6374061,36.4291317 48.7710226,36.4291317 C49.1373508,36.4291317 49.4767431,36.3251205 49.7745772,36.1563911 C49.9823684,36.0385117 50.1632237,35.8905846 50.3163735,35.7133802 L54.7546399,32.0752978 C54.9285688,31.9712865 55.084797,31.8433912 55.2210157,31.6931527 C55.5580992,31.3079259 55.7574248,30.8387196 55.7574248,30.3186633 C55.7574248,29.7978366 55.5580992,29.3286303 55.2402556,28.9665171 C51.7347409,25.3091733 51.6531637,19.2133435 51.6531637,19.2133435 Z M53.9634941,30.7531992 L49.2381681,34.6054678 C49.1134933,34.7495426 49.0696263,34.7849835 49.0180633,34.8150312 C48.9141677,34.8689629 48.8418256,34.8889947 48.7717922,34.8889947 C48.5516875,34.8889947 47.8675157,34.3697089 47.4111446,33.5214394 C45.4232754,29.8286548 44.5174596,26.5010652 42.9397856,19.8166088 C42.6319468,17.5953907 41.3713468,10.8130867 37.4571761,10.7152391 C37.4063827,10.7113868 37.3417365,10.708305 37.2655464,10.708305 C35.8387135,10.708305 34.3703223,11.7676789 34.3033673,14.1337422 L34.3025977,38.3306115 C34.3025977,43.8524532 23.8645527,55.9870992 23.8645527,55.9870992 L23.8645527,14.303242 C23.8630135,11.4648905 22.0013582,10.708305 20.9023735,10.708305 C20.8223354,10.708305 20.7553805,10.7113868 20.7022783,10.7152391 C16.7904164,10.8161685 15.5298164,17.5953907 15.2235168,19.8166088 C13.6443036,26.5018356 12.7384878,29.8294252 10.7513882,33.5214394 C10.2950171,34.3689385 9.61161493,34.8889947 9.39151017,34.8889947 C9.31301127,34.8889947 9.23297317,34.8643402 9.1452391,34.8158016 C9.09136731,34.7849835 9.04750028,34.7487722 9.00902042,34.7033154 L4.29600797,30.8117537 C4.16055888,30.7300856 4.12669661,30.7038902 4.09668233,30.673072 C3.98893874,30.5505699 3.94430211,30.4388541 3.94430211,30.3178929 C3.94430211,30.1984725 3.98893874,30.0859863 4.0766728,29.9858273 C7.91465339,25.9833203 8.0447153,19.5084273 8.04856328,19.2341458 C8.04856328,10.0996466 4.93785192,6.14798948 4.46147134,5.59711508 L4.36065412,5.48154702 C4.29600797,5.41143573 4.22366584,5.29740859 4.22366584,5.13638376 C4.22366584,4.85362725 4.45377537,4.62326159 4.73621749,4.62326159 C5.30418013,4.62326159 9.20680687,4.69722514 13.7274201,4.78274551 C20.1920354,4.9060181 27.5193691,5.04469977 29.08396,5.04469977 C30.5261849,5.04469977 36.706819,4.9260499 42.6842794,4.81125229 C47.7436105,4.71417513 52.5220388,4.62326159 53.4463248,4.62326159 C53.7295366,4.62326159 53.9596461,4.85362725 53.9596461,5.13638376 C53.9596461,5.31512902 53.8672944,5.43763116 53.7903347,5.50928336 L53.6602728,5.64565366 C53.0684527,6.34753699 50.1139695,10.2984236 50.1139695,19.2133435 C50.1178175,19.5084273 50.2478794,25.9833203 54.0189051,29.9103229 C54.1728245,30.0852158 54.2182307,30.1977021 54.2182307,30.3178929 C54.2182307,30.4388541 54.1728245,30.5513403 54.0843208,30.6522698 C54.0350666,30.7046606 54.0012043,30.7308561 53.9634941,30.7531992 Z" id="Fill-14" fill="#780922"></path>
                        </g>
                        <g id="L" transform="translate(196.000000, 0.000000)">
                            <path d="M36.4446476,84.7175492 C31.6708369,84.6019812 25.728778,84.4571359 24.2072846,84.4571359 C22.8089267,84.4571359 17.8119329,84.5804085 13.4036809,84.6890424 C9.28017979,84.7907423 5.71925414,84.878574 4.75110103,84.878574 C2.34687978,84.878574 0.390564032,82.9200807 0.390564032,80.5124129 C0.390564032,78.1317109 2.30378235,76.190938 4.67183253,76.1477926 C5.94628528,76.0283723 5.94628528,74.80181 5.94628528,74.3973218 L5.94628528,11.251706 C5.94628528,10.8495292 5.94628528,9.63452366 4.64566623,9.50123517 C2.2899296,9.44499205 0.390564032,7.50884187 0.390564032,5.1366149 C0.390564032,2.72894705 2.34687978,0.770453712 4.75110103,0.770453712 C5.75311641,0.770453712 7.50010176,0.863678611 9.35098272,0.96306714 C11.3650182,1.07093066 13.6476432,1.19266235 15.0129084,1.19266235 C16.5028483,1.19266235 19.2649322,1.0485875 21.4844501,0.933789898 C23.2429794,0.842876361 24.6321021,0.770453712 25.2739461,0.770453712 C27.6789369,0.770453712 29.6352527,2.72894705 29.6352527,5.1366149 C29.6352527,7.54428274 27.6789369,9.50277608 25.2739461,9.50277608 C24.1503344,9.50277608 24.0818402,10.9743427 24.0795314,11.2694264 L24.0795314,52.3430843 L24.0795314,54.2877094 L24.0795314,71.0589458 C27.8898065,70.7923688 29.4151479,65.0548 29.4297703,64.9954751 C31.0574681,58.0991439 32.067949,54.3917207 34.2697662,50.3006115 C35.1524941,48.6603155 36.8633084,46.9083038 39.0181802,46.9083038 C39.7331358,46.9083038 40.4496307,47.0939831 41.0960922,47.4468509 C41.5316842,47.6941666 41.8618413,47.9499572 42.1504402,48.2496637 L46.3570578,51.6982145 C46.5987113,51.8592393 46.8242032,52.0433778 47.0304553,52.2483185 L47.7761948,52.8523542 L47.7831212,53.2583833 C48.1286703,53.8924667 48.312604,54.6043659 48.312604,55.3309038 C48.312604,56.3856549 47.924727,57.4072765 47.2205457,58.2093188 C47.1351205,58.3087073 47.0650871,58.3849823 46.9912058,58.4574049 C44.3353263,61.2241042 44.2091124,66.4208145 44.2083428,66.4724349 C44.2083428,74.3657332 46.8288208,77.4976275 46.8549871,77.5284456 L47.6522897,78.4406628 C47.8800904,79.2242143 48.0247747,79.8582977 48.0247747,80.5124129 C48.0247747,82.9200807 46.0684589,84.878574 43.6634681,84.878574 C43.0824223,84.878574 40.5419824,84.8177082 36.4446476,84.7175492 Z" id="Fill-37" fill="#F1E3D1"></path>
                            <path d="M20.2526331,3.5487098 C21.2053942,3.56488932 22.1604642,3.58106885 23.1078382,3.48090987 C23.9436206,3.39307815 24.8117261,3.21895561 25.6074895,3.49169622 C26.4024832,3.76366638 27.0443272,4.70824263 26.6479847,5.45018956 C26.1692953,6.34468632 24.8509756,6.12048429 23.88744,6.43637031 C22.3859561,6.92869023 21.8403118,8.74542008 21.6094327,10.310982 C20.6374316,16.9153112 20.9536595,23.3740254 21.0783342,30.0476954 C21.1229709,32.4438064 21.4755228,35.1165097 21.0283869,37.4702458 C20.6712939,39.3547756 20.0509986,41.1807509 19.3252686,42.9558762 C17.0026246,48.6425951 13.5740697,53.8739758 9.28818361,58.2709551 C9.4220935,55.0543109 9.48212207,51.8345848 9.46903892,48.6148588 C9.46519093,47.7141984 9.45056859,46.7896539 9.11887225,45.9521707 C8.53474808,44.4782928 7.75668544,37.9448453 9.22507665,38.8169989 C9.19737115,34.3175492 9.16966566,29.8180995 9.14272976,25.3178794 C9.13041621,23.3093066 9.29203159,20.9486364 9.44210302,18.9446863 C9.53830265,17.6587991 9.63450229,16.3690596 9.58909606,15.07932 C9.50828837,12.8249725 8.99573672,10.611459 8.48472427,8.41489544 C8.41161254,8.10132078 8.33696163,7.78312339 8.18227262,7.50036688 C7.39497481,6.0619298 4.2465532,6.97183564 3.45002023,5.53802128 C3.29456163,5.25834658 3.98873818,4.13733643 4.12803525,3.84918674 C4.32120412,3.44778036 4.82682939,3.32758958 5.26934771,3.28213281 C6.18439862,3.18967837 6.52302133,3.31603277 7.44268983,3.33144185 C11.7124144,3.4038645 15.9829085,3.47628715 20.2526331,3.5487098 Z" id="Fill-11" fill="#E5863A"></path>
                            <path d="M20.2484003,34.2060646 C20.2484003,45.268239 9.81035522,56.552304 9.81035522,56.552304 L9.81035522,11.2519371 C9.81035522,7.28872325 6.83201456,5.7316363 4.82952298,5.65150911 C4.48551309,5.6499682 4.25540357,5.41960254 4.25540357,5.13684603 C4.25540357,4.85331907 4.48551309,4.62295341 4.76795522,4.62295341 C5.66684459,4.62295341 7.36534533,4.71386694 9.16312408,4.8094032 C11.3256918,4.92497126 13.5621409,5.04439159 15.0297625,5.04439159 C16.6197501,5.04439159 19.318727,4.90416901 21.7006299,4.78089642 C23.2682992,4.69999878 24.7482343,4.62295341 25.2908003,4.62295341 C25.574012,4.62295341 25.8041215,4.85331907 25.8041215,5.13684603 C25.8041215,5.41960254 25.574012,5.6499682 25.2908003,5.6499682 C21.6229006,5.6499682 20.2653314,8.99296686 20.2484003,11.2403803 L20.2484003,34.2060646 Z M41.9017834,66.4356842 C41.9017834,66.4356842 41.9841303,60.3406249 45.3765142,56.8073242 C45.4881058,56.6840516 45.4881058,56.6832812 45.4888754,56.6825107 C45.8074886,56.3203975 46.0068142,55.8511911 46.0068142,55.3311349 C46.0068142,54.8110786 45.8074886,54.3411019 45.4888754,53.9789886 C45.3341864,53.806407 45.1779582,53.6785117 45.0032596,53.57373 L40.5649933,49.9356475 C40.4126131,49.7592136 40.2309882,49.6105161 40.027045,49.4941776 C39.7261325,49.3239073 39.3867402,49.219896 39.020412,49.219896 C37.8867955,49.219896 36.812438,50.4541629 36.3052735,51.3971982 C34.1981168,55.3118735 33.248434,58.8790742 31.6730688,65.5512034 C31.6730688,65.5512034 29.7336842,73.3944222 23.7931644,73.3944222 C23.7931644,73.3944222 22.0261695,73.4028972 21.7729721,71.7510444 L21.7729721,54.2124361 L21.8337702,53.290203 L21.7729721,11.2519371 C21.7729721,11.2519371 21.8045256,7.19087563 25.2761779,7.19087563 C26.4097944,7.19087563 27.3286933,6.2709539 27.3286933,5.13684603 C27.3286933,4.00196771 26.4097944,3.08204598 25.2761779,3.08204598 C23.8870552,3.08204598 17.6833332,3.50348416 15.0151402,3.50348416 C12.3469472,3.50348416 6.77352518,3.08204598 4.75410247,3.08204598 C3.62048599,3.08204598 2.70158708,4.00196771 2.70158708,5.13684603 C2.70158708,6.2709539 3.62048599,7.19087563 4.75410247,7.19087563 C4.75410247,7.19087563 8.25730833,7.3310982 8.25730833,11.2519371 L8.25730833,72.6563275 L8.25730833,74.3975529 C8.25730833,78.3183918 4.75410247,78.457844 4.75410247,78.457844 C3.62048599,78.457844 2.70158708,79.3777657 2.70158708,80.512644 C2.70158708,81.6475223 3.62048599,82.5674441 4.75410247,82.5674441 C6.77352518,82.5674441 21.5413234,82.1452354 24.2095164,82.1452354 C26.878479,82.1452354 42.2765772,82.5674441 43.6656999,82.5674441 C44.7993164,82.5674441 45.7182153,81.6475223 45.7182153,80.512644 C45.7182153,79.9586878 45.4965713,79.4578929 45.1402479,79.0880751 C44.9239911,78.8292026 41.9017834,75.277411 41.9017834,66.4356842 Z" id="Fill-21" fill="#780922"></path>
                        </g>
                        <g id="E" transform="translate(147.000000, 0.000000)">
                            <path d="M23.9787539,27.0740516 C24.2111722,26.5786499 24.4566736,26.0793959 24.7237238,25.5816828 C25.2801425,24.5477339 26.203659,23.0992809 27.7821026,22.472902 C28.2792623,22.2756659 28.7871964,22.1762774 29.2905128,22.1762774 C30.4341341,22.1762774 31.1775648,22.6786132 31.444615,22.8943402 L33.6933777,24.7303314 C33.8573018,24.8443586 34.0481619,24.9899743 34.2413308,25.177965 L34.4344996,25.3343671 C34.0550883,24.5538975 33.6856817,23.731053 33.3024224,22.8773902 C32.0449007,20.0806433 30.4841579,16.6043561 28.7364029,15.6959912 C27.93987,15.3500575 25.8319436,14.5757515 23.9787539,14.3808267 L23.9787539,27.0740516 Z M23.9787539,70.8288883 C27.789029,70.5615409 29.3143703,64.8247426 29.3289927,64.7654176 C30.3510176,60.4339269 31.1298498,57.360587 32.1133949,54.6593763 L31.4507718,55.2002348 C31.1775648,55.421355 30.4341341,55.9236908 29.2905128,55.9236908 C28.7871964,55.9236908 28.2792623,55.8235319 27.781333,55.6270662 C26.203659,55.0006873 25.2801425,53.5522343 24.7237238,52.517515 C24.4566736,52.0205723 24.2111722,51.5205479 23.9787539,51.0259166 L23.9787539,52.1130268 L24.0965022,52.2463153 L23.9787539,54.0568815 L23.9787539,70.8288883 Z M36.34387,84.4874917 C31.5700594,84.3711532 25.6280004,84.2270784 24.106507,84.2270784 C22.7081491,84.2270784 17.7111553,84.350351 13.3021337,84.4582145 C9.17940221,84.5599144 5.61847656,84.6485166 4.65032345,84.6485166 C2.2461022,84.6485166 0.289786453,82.6900232 0.289786453,80.2823554 C0.289786453,77.9016534 2.20300477,75.9601101 4.57105495,75.9177351 C5.8455077,75.7975443 5.8455077,74.570982 5.8455077,74.1672643 L5.8455077,11.0208781 C5.8455077,10.6194717 5.8455077,9.40369573 4.54488865,9.27117769 C2.18915202,9.21416412 0.289786453,7.2787844 0.289786453,4.90655742 C0.289786453,2.49888957 2.2461022,0.540396233 4.65032345,0.540396233 C5.65233884,0.540396233 7.40009378,0.633621132 9.24943554,0.733009661 C11.2642407,0.840102727 13.5468656,0.961834414 14.9121308,0.961834414 C16.4413202,0.961834414 24.5898139,0.816989116 31.1383154,0.701421059 C36.185333,0.610507521 40.1718458,0.540396233 40.7752099,0.540396233 C43.1794312,0.540396233 45.1357469,2.49888957 45.1357469,4.90655742 C45.1357469,6.10923566 44.648592,7.22562309 43.8112703,8.03305858 L43.5357546,8.27806286 C43.3533601,8.42598997 43.1578824,8.56158983 42.9500912,8.68101015 C42.1281616,9.27348905 42.0619762,10.1964926 42.2682282,12.769808 C42.2951641,13.1057258 42.3221,13.443955 42.3436487,13.7798728 C42.4021381,14.2190314 42.9739487,18.0982659 45.1619132,20.8241311 C45.9753773,21.7479051 46.3632542,22.7702972 46.3632542,23.8250483 C46.3632542,24.5431112 46.1839381,25.2465354 45.846085,25.8752256 L45.846085,26.2673866 L45.0949583,26.892995 C44.8748535,27.1148857 44.6316608,27.3128923 44.3684586,27.4831625 L42.2605323,29.0949517 C41.8280187,29.4663104 41.0507257,29.8993054 39.7793513,29.8993054 C37.8122612,29.8993054 36.2153473,28.4385251 35.2810564,26.9353699 C35.3780257,27.2805332 35.4280495,27.6380237 35.4280495,28.0009074 C35.4280495,28.9601223 35.0748044,29.8892895 34.4344996,30.6189091 C33.8049692,31.494915 33.5217575,33.4017879 33.5448454,34.8949272 C33.5425366,35.4103608 33.5379191,40.0068876 33.5379191,40.0068876 L33.5463846,43.1410933 C33.5063656,44.3522465 33.7487887,46.5256965 34.389863,47.4302091 C34.7407993,47.8293041 34.9816832,48.2245469 35.1494553,48.6459851 C36.0929813,47.5534817 37.39437,46.6774758 38.916633,46.6774758 C39.6123487,46.6774758 40.3096037,46.8539097 40.9414429,47.1867458 C41.4309066,47.4633386 41.7602942,47.7198997 42.0488931,48.0196062 L46.2570498,51.4673866 C46.5033209,51.6314932 46.7311216,51.8187135 46.9389128,52.0282769 L47.6754172,52.6346239 L47.681574,53.0275553 C48.0278927,53.6624092 48.2118264,54.3743084 48.2118264,55.1008463 C48.2118264,56.0415703 47.903218,56.9560988 47.3360249,57.7126844 L46.8026942,58.7635832 L46.4371355,58.7643537 C44.2337791,61.6419983 44.1075652,66.1884456 44.1067956,66.2362138 C44.1075652,74.1349052 46.7272736,77.2660291 46.7534399,77.2976177 L47.5338114,78.1959667 C47.7746953,78.9764363 47.9232275,79.6189947 47.9232275,80.2823554 C47.9232275,82.6900232 45.9669117,84.6485166 43.5626905,84.6485166 C42.9816447,84.6485166 40.4412048,84.5868803 36.34387,84.4874917 Z" id="Fill-14" fill="#F1E3D1"></path>
                            <path d="M42.3194834,4.55800416 C42.3741248,5.34926012 41.5514255,5.86546411 40.9673013,6.40247034 C39.331138,7.9079369 39.2534087,10.4542864 39.5797178,12.6554727 C40.0307017,15.6949126 40.2569632,19.4223676 41.737668,22.1135624 C42.1894215,22.9356365 43.4746486,23.0589091 43.2976413,23.9803718 C43.0659925,25.1876727 41.785383,25.8433288 40.6540753,26.3233215 C40.322379,26.4643145 39.9660555,26.6076189 39.6112713,26.5413599 C39.101798,26.4458237 38.7739497,25.957356 38.5184435,25.5058701 C37.174727,23.1290204 36.1850251,20.5664914 34.855931,18.1819371 C33.5268369,15.7973829 31.7867779,14.3057845 29.385635,13.0098814 C27.5301365,12.0075211 25.3375544,10.8726428 23.2581032,11.2208879 C22.7278508,11.30949 22.1583489,11.4735967 21.8497405,11.9142962 C21.6057783,12.2640822 20.8077061,12.7163385 20.786927,13.1423994 C20.4967889,19.2728996 20.9754783,25.4111043 21.1601816,31.5454568 C21.2802387,35.5263911 21.5672984,39.6891525 19.9218999,43.3149077 C18.6582215,46.1024092 16.378675,48.2727773 14.5416467,50.7197383 C12.8377588,52.9910358 11.4140043,55.6128898 9.00516543,57.1121927 C9.00516543,57.1121927 9.31531305,20.2914394 8.99131268,11.0151767 C8.93205371,9.30322857 8.64730279,7.26075578 7.10272147,6.52266112 C6.43625041,6.20369329 5.66357495,6.21216828 4.95477605,6.00568668 C4.24520755,5.79920509 3.5240951,5.22290571 3.58874125,4.48635196 C3.7595918,2.52939954 7.16121085,4.23364315 8.27327862,4.32378623 C10.797557,4.52872692 13.3295314,4.62503363 15.8615057,4.65276996 C20.9977966,4.70824263 26.1317786,4.47864743 31.2634519,4.28988627 C34.1555977,4.18356365 37.0485131,4.08879785 39.942198,4.06491378 C40.9365175,4.05643879 42.2517588,3.56488932 42.3194834,4.55800416 Z" id="Fill-9" fill="#E5863A"></path>
                            <path d="M20.1326155,37.6061538 C20.1326155,46.3816216 9.69534008,54.1994154 9.69534008,54.1994154 L9.69534008,11.2520142 C9.69534008,7.28880029 6.71622982,5.73171334 4.71373825,5.65158616 C4.36972836,5.65004525 4.13961883,5.41967959 4.13961883,5.13692308 C4.13961883,4.85339611 4.36972836,4.62303045 4.65294008,4.62303045 C5.55182946,4.62303045 7.24956059,4.71394399 9.04733935,4.80948025 C11.2099071,4.92504831 13.4463562,5.04446863 14.9139778,5.04446863 C16.4777991,5.04446863 24.3038317,4.90578696 31.2086566,4.78328482 C36.0378782,4.69699401 40.2083247,4.62303045 40.7770569,4.62303045 C41.0602687,4.62303045 41.2903782,4.85339611 41.2903782,5.13692308 C41.2903782,5.36420692 41.1410764,5.51983857 41.0010097,5.58994986 L40.3984152,5.89273817 L40.3499306,6.05915617 C38.0095859,8.01919041 38.244313,10.9376691 38.4351731,13.309896 C38.462109,13.6465843 38.4890449,13.9832726 38.509824,14.3191904 C38.5406079,14.6119628 39.143972,19.7709209 42.2354434,23.5546191 L42.383206,23.7210371 C42.4724793,23.8227369 42.5178855,23.9352232 42.5178855,24.055414 C42.5178855,24.1756047 42.4724793,24.288091 42.3839756,24.38825 C42.3301038,24.4452635 42.2985503,24.4691476 42.2616097,24.4914908 L39.9189562,26.2704684 C39.8874027,26.2743207 39.8419965,26.2774025 39.7819679,26.2774025 C39.5618632,26.2774025 38.878461,25.7581167 38.4220899,24.9098471 C37.8872199,23.9175028 37.3654331,22.756429 36.813632,21.5275553 C35.1382192,17.7985594 33.4058562,13.9424385 30.4067364,12.4546924 C30.1927884,12.3583857 26.5156536,10.738892 23.2494837,10.7142375 C23.2002295,10.7111557 23.1394313,10.7088443 23.0686284,10.7088443 C21.8834489,10.7088443 20.4065921,11.4692821 20.1441595,13.6149957 L20.1326155,37.6061538 Z M41.8013906,66.4357613 C41.8013906,66.4357613 41.8829679,60.340702 45.2761214,56.8074012 C45.3869434,56.6841287 45.3869434,56.6833582 45.387713,56.6825877 C45.7063262,56.3204745 45.9056518,55.8512682 45.9056518,55.3312119 C45.9056518,54.8111557 45.7063262,54.3411789 45.387713,53.9790657 C45.233024,53.806484 45.0767958,53.6785887 44.9020972,53.573807 L40.4646005,49.9357246 C40.3114507,49.7585202 40.1305954,49.6105931 39.9258826,49.4942546 C39.6249701,49.3239843 39.2855778,49.2199731 38.9192496,49.2199731 C37.7856331,49.2199731 36.7112756,50.4542399 36.2041112,51.3972753 C34.0969544,55.3119506 33.1472716,58.8791513 31.5719064,65.5512804 C31.5719064,65.5512804 29.6325218,73.3944992 23.692002,73.3944992 C23.692002,73.3944992 21.9250071,73.4029742 21.6718097,71.7511214 L21.6718097,54.2125131 L21.7326079,53.2902801 L21.6718097,43.6079883 C24.226872,45.067998 25.1126782,48.5935942 26.7588463,51.6522955 C27.168272,52.4135037 27.7847192,53.3711777 28.635124,53.7086364 C29.4901463,54.0476361 29.9942324,53.6392956 29.9942324,53.6392956 L32.3122588,51.7470613 C32.4538646,51.651525 32.579309,51.559841 32.6885917,51.4388798 C32.9610291,51.1276165 33.1218749,50.7493237 33.1218749,50.3294264 C33.1218749,49.9102996 32.9610291,49.5312364 32.7039837,49.2392344 C31.0978346,47.1882867 31.2409796,43.2859386 31.2409796,43.2859386 L31.2317445,40.2349419 C31.2325141,39.1563067 31.2355925,35.723165 31.2386709,35.1615042 C31.2286661,34.532814 31.2432884,31.1851926 32.6139408,29.4223945 C32.9610291,29.0294631 33.1218749,28.6503999 33.1218749,28.2312731 C33.1218749,27.8113758 32.9610291,27.433083 32.7039837,27.1410811 C32.579309,27.0008585 32.4538646,26.9091745 32.3122588,26.8136383 L29.9942324,24.9214039 C29.9942324,24.9214039 29.4901463,24.5130635 28.635124,24.8520631 C27.7847192,25.1895218 27.168272,26.1471958 26.7588463,26.9084041 C25.1126782,29.9671053 24.226872,33.4927015 21.6718097,34.9527113 L21.6718097,13.802216 C21.8842185,12.0710065 23.1748328,12.2551449 23.1748328,12.2551449 C26.1708742,12.2551449 29.7233342,13.8353455 29.7233342,13.8353455 C33.1357276,15.5288027 34.9596727,21.7271028 37.0668295,25.6410077 C37.5747635,26.584043 38.6483514,27.8183099 39.7819679,27.8183099 C40.5430994,27.8183099 40.7855225,27.5463397 40.7855225,27.5463397 L43.0535251,25.8128189 C43.2282236,25.7080372 43.3844518,25.5801419 43.5199009,25.4306738 C43.857754,25.045447 44.0570797,24.5754702 44.0570797,24.055414 C44.0570797,23.5353577 43.857754,23.0661514 43.5391408,22.7040382 C43.5014306,22.6608927 43.4667987,22.6177473 43.4275492,22.5792247 C40.5877361,19.103708 40.0459397,14.2244246 40.0459397,14.2244246 C39.877398,11.4746753 39.283269,8.62630794 41.6897991,6.97522563 C42.3631965,6.63006237 42.8295723,5.94127675 42.8295723,5.13692308 C42.8295723,4.00204476 41.9106734,3.08212303 40.7770569,3.08212303 C39.3879342,3.08212303 17.5821709,3.50356121 14.9139778,3.50356121 C12.2457848,3.50356121 6.67236279,3.08212303 4.65294008,3.08212303 C3.5193236,3.08212303 2.6004247,4.00204476 2.6004247,5.13692308 C2.6004247,6.27103094 3.5193236,7.19095267 4.65294008,7.19095267 C4.65294008,7.19095267 8.15614594,7.33117525 8.15614594,11.2512437 L8.15614594,72.6564045 L8.15614594,74.3976299 C8.15614594,78.3184689 4.65294008,78.457921 4.65294008,78.457921 C3.5193236,78.457921 2.6004247,79.3778427 2.6004247,80.512721 C2.6004247,81.6475994 3.5193236,82.5675211 4.65294008,82.5675211 C6.67236279,82.5675211 21.4409306,82.1453125 24.1091236,82.1453125 C26.7773166,82.1453125 42.1754148,82.5675211 43.5645375,82.5675211 C44.698154,82.5675211 45.6170529,81.6475994 45.6170529,80.512721 C45.6170529,79.9587648 45.395409,79.4579699 45.0390855,79.0881521 C44.8228287,78.8292797 41.8013906,75.2774881 41.8013906,66.4357613 Z" id="Fill-9" fill="#780922"></path>
                        </g>
                        <g id="B" transform="translate(94.838710, 0.791855)">
                            <path d="M24.2126496,37.6593384 L31.8570573,29.6543243 L31.9347866,29.585754 C32.4750438,29.1134658 32.992213,26.8483319 32.9983698,24.924509 L32.9983698,15.9402483 C32.9983698,14.5742338 32.5573907,14.2953296 31.8963068,14.2953296 L31.7454658,14.3145909 L31.7577793,14.2991819 L24.9414581,14.2991819 C24.5889826,14.2991819 24.330398,14.2991819 24.2126496,15.1266492 L24.2126496,37.6593384 Z M24.2126496,68.7016889 C24.3273196,69.5530403 24.588213,69.5530403 24.9445365,69.5530403 L31.8532093,69.5530403 L31.945561,69.5599743 C32.5604691,69.5561221 33.0014482,69.2772178 33.0014482,67.9119739 L33.0014482,48.7037924 L24.2126496,56.7419359 L24.2126496,68.7016889 Z M34.7384288,83.6800795 C30.7826998,83.5645115 25.8595874,83.4204366 24.3434811,83.4204366 C22.9451233,83.4204366 17.9481295,83.5437092 13.5398775,83.6515727 C9.41637637,83.7532726 5.85545073,83.8411043 4.88806722,83.8411043 C2.48307637,83.8411043 0.526760621,81.882611 0.526760621,79.4749432 C0.526760621,77.1481729 2.35532326,75.2405296 4.64949212,75.1164865 C5.05660897,74.9115458 6.0470804,73.602545 6.07940348,69.75644 L6.07940348,14.4432567 C6.10172179,10.7235062 5.27517454,9.37752356 4.9188511,8.970724 C4.79648516,8.83127188 4.69951593,8.76501286 4.64718333,8.73650608 C2.36455842,8.62401983 0.523682233,6.71098327 0.523682233,4.37573807 C0.523682233,1.96884067 2.47999798,0.0103473387 4.88498883,0.0103473387 C5.85314194,0.0103473387 9.41406758,0.0981790618 13.5367991,0.199878952 C17.9450511,0.308512925 22.9420449,0.431785519 24.3411723,0.431785519 C25.856509,0.431785519 30.780391,0.286940221 34.73612,0.171372164 C38.1408174,0.0712131819 40.2579789,0.0103473387 40.8436423,0.0103473387 C46.0922943,0.0103473387 50.1380661,2.67457627 52.2352181,7.51148468 C53.7336236,10.9669696 53.7505548,14.3985704 53.7505548,14.5426452 L53.7505548,24.9283613 C53.7505548,25.4299266 53.5943266,29.9702104 48.1832896,34.8179051 L47.8900731,35.0867935 L48.1509665,35.3256341 C54.3439141,40.338206 54.5232302,44.7590694 54.5232302,45.2483075 L54.5232302,69.3088064 C54.5232302,69.4551926 54.5047599,72.9160707 52.8862973,76.3946692 C51.3070841,79.7923701 47.9354793,83.8411043 40.8467207,83.8411043 C40.2602877,83.8411043 38.1438958,83.7802385 34.7384288,83.6800795 Z" id="Fill-33" fill="#F1E3D1"></path>
                            <path d="M41.1688041,3.24519198 C43.8677811,3.65969608 46.5775323,4.94558332 48.0105221,7.27312399 C48.9363474,8.77782008 50.0207096,10.5706659 50.2615935,12.3211367 C50.4847767,13.9414009 50.6594752,15.5678286 50.7849195,17.1981087 C50.927295,19.0364113 50.6617863,22.047943 50.2615958,23.8477229 C49.3519321,27.9342094 45.72251,29.9182995 42.6017939,32.7050306 C35.0897569,39.413371 27.1644462,45.6578984 18.885121,51.390074 C19.3299481,49.9786028 18.5749734,48.3560273 19.1652543,46.9984878 C19.396903,46.4668747 19.8117158,46.0408138 20.2172935,45.6278507 C23.9929367,41.7817457 27.7685799,37.9356408 31.5442232,34.0895359 C32.8563862,32.7535691 34.2031811,31.3629002 34.8596474,29.6093475 C35.3768166,28.2263831 35.4245316,26.7193757 35.4668594,25.2439568 C35.5476671,22.4302599 35.6284748,19.6165629 35.7092825,16.8028659 C35.7392968,15.7565898 35.7554583,14.6525296 35.2444459,13.739542 C34.3501741,12.1431619 32.2537917,11.7594759 30.4283074,11.6570056 C28.0910411,11.525258 25.7445397,11.5714852 23.4141997,11.7949168 C22.9231968,11.8426849 22.3914052,11.9158781 22.0420082,12.265664 C21.7680316,12.540716 21.6595184,12.9359588 21.5663972,13.3134811 C20.6120968,17.1888633 20.181892,21.1936816 20.2919444,25.183091 C20.3796785,28.3750807 20.8106528,31.5547432 20.7914129,34.7475033 C20.7714034,37.941034 20.2657781,41.2208554 18.6296147,43.9621297 C17.815381,45.3258328 16.7456411,46.5161838 15.6535829,47.6687825 C13.4910151,49.950096 11.2099294,52.1181527 8.82340888,54.1629369 C8.38935613,52.5650159 8.82186969,13.4521628 8.45938947,11.2609924 C8.30777885,10.3487752 8.06150778,9.445033 7.63899899,8.62218843 C6.97714551,7.33321937 5.87277372,6.26845235 4.54214038,5.69754615 C4.1688858,5.53806223 3.76946492,5.41016691 3.46393489,5.14281947 C3.15763525,4.87624249 2.97139276,4.41397026 3.16225284,4.05493883 C5.21553782,3.64043474 7.2957587,3.35844868 9.38521474,3.21129202 C11.0529316,3.09418305 12.8445536,3.31915554 14.5230448,3.39080773 C16.5963393,3.47940991 18.6696338,3.55876664 20.7444675,3.60576432 C24.8287191,3.69898922 28.9206668,3.67202334 32.9964528,3.36461231 C35.7200569,3.15890117 38.4690576,2.82991743 41.1688041,3.24519198 Z" id="Fill-7" fill="#E5863A"></path>
                            <path d="M21.9063211,43.6522356 L21.9063211,15.2101663 C22.0371526,14.0829926 22.6051153,12.2177241 24.9431512,12.2177241 L31.760242,12.2177241 C31.760242,12.2177241 35.3096237,11.9318858 35.3096237,16.1701517 L35.3096237,25.1582647 C35.3096237,25.1582647 35.3096237,29.937389 33.456434,31.5568827 L21.9063211,43.6522356 Z M21.4553373,49.3951975 L21.5869384,46.217076 L34.292986,32.9105699 C36.7364567,30.6569928 36.8488178,26.0650887 36.8488178,25.1582647 L36.8488178,16.1701517 C36.8488178,12.3725853 34.3630193,10.6729644 31.8987695,10.6729644 C31.8210402,10.6729644 31.7587028,10.6745053 31.7148358,10.6768167 L24.9431512,10.6768167 C22.4011721,10.6768167 20.6934362,12.3055559 20.3771318,15.0321915 L20.367127,37.1704085 C20.367127,43.719265 9.92908194,52.5794827 9.92908194,52.5794827 L9.92908194,14.6739306 C9.98526253,5.44235419 5.4238607,5.12569771 4.90361308,5.11953408 C4.60423982,5.11953408 4.37413029,4.88993888 4.37413029,4.60641191 C4.37413029,4.32288494 4.60423982,4.09251928 4.88668194,4.09251928 C5.80788963,4.09251928 9.51734751,4.18420328 13.4446014,4.28128044 C18.0914285,4.39530759 22.8975622,4.51395746 24.3428655,4.51395746 C25.9151523,4.51395746 30.662027,4.3752758 34.8509439,4.2520032 C37.6461204,4.17033511 40.286608,4.09251928 40.846105,4.09251928 C49.7588087,4.09251928 49.9034929,14.3403241 49.9050321,14.7764009 L49.9050321,21.7682683 C49.9019537,21.881525 49.7672743,25.0727443 45.6199157,28.7878721 L21.4553373,49.3951975 Z M35.3127021,68.1418772 C35.3127021,72.3801431 31.7625508,72.0943048 31.7625508,72.0943048 L24.9462296,72.0943048 C22.5858754,72.0943048 22.0302263,70.1959068 21.9063211,69.0718149 L21.9063211,55.9532995 L35.2041889,43.7909172 C35.3111629,44.7609185 35.3127021,45.4782109 35.3127021,45.4782109 L35.3127021,68.1418772 Z M44.469368,35.3166969 L46.6457885,33.3266149 C51.4442263,29.0274832 51.4442263,25.1582647 51.4442263,25.1582647 L51.4442263,14.7725486 C51.4442263,14.7725486 51.4442263,2.55161186 40.846105,2.55161186 C39.4569823,2.55161186 27.0110585,2.97305004 24.3428655,2.97305004 C21.6746724,2.97305004 6.90687425,2.55161186 4.88668194,2.55161186 C3.75383505,2.55161186 2.83493615,3.47153359 2.83493615,4.60641191 C2.83493615,5.74129023 3.75383505,6.66121196 4.88668194,6.66121196 C4.88668194,6.66121196 8.43837242,6.69973464 8.3906574,14.6739306 L8.3906574,70.0063752 C8.32678084,77.6076715 4.88976033,77.6515874 4.88976033,77.6515874 C3.75691344,77.6515874 2.83801454,78.5715091 2.83801454,79.705617 C2.83801454,80.8404953 3.75691344,81.760417 4.88976033,81.760417 C6.90995264,81.760417 21.6777508,81.3389789 24.3459439,81.3389789 C27.0141369,81.3389789 39.4600607,81.760417 40.8491834,81.760417 C52.2169017,81.760417 52.2169017,69.5394803 52.2169017,69.5394803 L52.2169017,45.4782109 C52.2169017,45.4782109 52.2169017,41.7931308 46.6488669,37.3106311 L44.469368,35.3166969 Z" id="Fill-19" fill="#780922"></path>
                        </g>
                        <g id="A" transform="translate(45.838710, 0.000000)">
                            <path d="M26.366356,49.4533435 L26.7719336,48.9317464 L26.1254721,45.0124483 L25.5444263,48.5311104 L26.366356,49.4533435 Z M21.1184736,75.3475223 C21.1785021,75.4831222 21.4355476,75.9168876 22.2351589,75.9168876 C23.9298117,75.9168876 25.4020509,76.8892002 26.1231633,78.3060646 C26.8450454,76.8892002 28.3172846,75.9168876 30.0119373,75.9168876 C30.8123183,75.9168876 31.0693637,75.4815813 31.1301618,75.3459814 L29.1430622,63.3007081 L28.1179589,64.5919885 L27.785493,64.5919885 C27.3760673,64.8046337 26.9166179,64.9209722 26.4448549,64.9209722 C25.9692439,64.9209722 25.514412,64.808486 25.1080648,64.599693 L24.8510194,64.599693 L24.3538596,64.042655 C24.2892135,63.9771664 24.2276457,63.9078256 24.1691564,63.835403 L23.2010032,62.7290314 L21.1184736,75.3475223 Z M43.3706032,84.4450397 C41.762915,84.3379467 40.1005853,84.2270013 38.7891919,84.2270013 C37.3123351,84.2270013 35.0674205,84.3687648 33.2634849,84.4835624 C31.813564,84.5752464 30.6668644,84.6484395 30.0119373,84.6484395 C28.3172846,84.6484395 26.8450454,83.6753565 26.1231633,82.2577217 C25.4020509,83.6753565 23.9298117,84.6484395 22.2351589,84.6484395 C21.5794622,84.6484395 20.4335322,84.5752464 18.9828417,84.4835624 C17.1789062,84.3687648 14.9347611,84.2270013 13.4579043,84.2270013 C12.1457413,84.2270013 10.4834117,84.3379467 8.87572338,84.4450397 C7.31575012,84.5498215 5.84274133,84.6484395 4.68064975,84.6484395 C2.27565891,84.6484395 0.319343158,82.6899462 0.319343158,80.2822783 C0.319343158,77.9015764 2.23256147,75.960033 4.60061166,75.9176581 C5.05852191,75.8729718 5.68420433,75.6233447 5.83427576,74.7088162 L16.380834,10.8174012 C16.3608245,10.3204586 16.214601,9.38743916 15.0848325,9.27110065 C12.7290959,9.21331662 10.8304999,7.2779369 10.8304999,4.90648037 C10.8304999,2.49881252 12.7868157,0.540319188 15.1918065,0.540319188 C16.1884347,0.540319188 18.0793347,0.633544087 20.0810567,0.732162162 C22.2690212,0.839255228 24.7494325,0.962527822 26.1193153,0.962527822 C27.6138728,0.962527822 30.608375,0.818452978 33.0133659,0.703655375 C34.9111923,0.611971383 36.4095977,0.540319188 37.0468241,0.540319188 C39.451815,0.540319188 41.4081307,2.49881252 41.4081307,4.90648037 C41.4081307,7.31414822 39.451815,9.27264156 37.0468241,9.27264156 C36.2125809,9.27264156 35.9401435,10.0669793 35.8693406,10.8174012 L46.421286,74.7481093 C46.6013717,75.7866809 47.4571637,75.9037899 47.6372494,75.9176581 C50.0091476,75.9546398 51.9269835,77.8984946 51.9269835,80.2822783 C51.9269835,82.6899462 49.9706677,84.6484395 47.5656769,84.6484395 C46.4043549,84.6484395 44.9305765,84.5498215 43.3706032,84.4450397 Z" id="Fill-19" fill="#F1E3D1"></path>
                            <path d="M14.4844699,6.30793567 C15.9659442,6.28019934 17.704464,6.37881741 18.5325505,7.60846154 C18.8596292,8.09461783 18.9827647,7.91664302 19.0712684,8.49602421 C19.8670318,13.6804072 18.4702131,18.9133288 17.3966252,24.0468619 C16.2976406,29.3021267 13.502464,45.9809086 13.410882,46.6704647 C13.0853424,49.1081803 12.7605724,51.5451254 12.4358025,53.9828409 C13.7425783,54.2293861 14.9516153,53.2717121 15.8759014,52.3140382 C17.3973948,50.7369194 18.7311065,48.978744 19.8400959,47.0880506 C20.3195548,48.8708805 19.6453878,50.817817 20.1556307,52.5921719 C20.6989662,54.4782426 22.4320988,55.7310004 24.0544094,56.8342901 C24.8824959,57.3974917 25.4400685,59.49698 26.2673853,60.0601817 C26.4897989,60.2111906 26.996579,59.6017598 27.2643988,59.6202507 C27.5706984,59.6418234 27.8592973,58.7080335 28.1017204,58.5192723 C29.160686,57.6971982 29.6932472,56.3396588 29.8086867,55.0029216 C29.9241263,53.6669549 29.6716984,52.3294472 29.4208098,51.0119714 C28.3441435,51.7015275 27.4152398,52.6214492 26.7149065,53.6916094 C25.0648904,52.1006225 23.5757201,50.3416767 22.278949,48.4502128 C22.0588442,48.129704 21.8402787,47.7960976 21.755623,47.4162639 C21.6601929,46.9863507 21.7448486,46.5394876 21.8295043,46.1080335 C23.1278146,39.4805907 24.4261248,32.8523774 25.7244351,26.2249346 C27.273634,31.1034475 28.5881058,36.0782671 29.1976266,41.1609502 C29.7717461,45.9516314 29.7578933,50.9726782 31.8981428,55.295694 C32.2067512,55.920532 32.669279,56.5977608 33.3642252,56.6455289 C33.6982303,56.6678721 34.0237699,56.5338131 34.3162168,56.3712474 C36.7573787,55.013708 37.4931135,51.8810432 37.7663204,49.0989348 C38.4058556,42.5909123 37.8648288,35.9688627 36.1771025,29.6519127 C35.5814343,27.424531 34.8418516,25.2179516 34.6263644,22.92277 C34.4355043,20.8895426 34.6602266,18.8262676 34.3570054,16.8069084 C34.0691761,14.8923309 33.3103534,13.0532579 33.2210801,11.1186486 C33.1310373,9.18480983 33.9706677,6.98439403 35.8053871,6.37265379 C36.7442955,6.05907912 38.0072043,6.06601321 38.3835373,5.14917329 C38.6682882,4.45422404 38.1549669,4.40953773 37.4723343,4.09596307 C36.7904713,3.78315886 36.0039431,3.83786107 35.2558948,3.90180873 C29.1237453,4.42956952 22.6414292,5.41266846 16.5931658,3.98039501 C15.2225135,3.656034 13.6448395,4.05821084 14.4844699,5.53748196" id="Fill-4" fill="#E5863A"></path>
                            <path d="M26.4894146,53.2899719 L23.0893347,49.4746851 L26.1277039,31.0654641 L29.2168666,49.7844075 L26.4894146,53.2899719 Z M26.4124549,58.6831479 L22.3089633,54.4495047 L22.8115102,51.4786352 L26.5694527,55.6945579 L28.990605,52.5826954 L29.0798783,55.7407851 L26.4124549,58.6831479 Z M44.1455105,75.3557662 L33.5496981,11.1592516 C33.5774036,10.5798704 33.8736984,7.19141494 37.0498255,7.19141494 C38.1826724,7.19141494 39.1015713,6.27149321 39.1015713,5.1366149 C39.1015713,4.00173658 38.1826724,3.08181485 37.0498255,3.08181485 C35.6599332,3.08181485 28.7905098,3.50325303 26.1223168,3.50325303 C23.4533541,3.50325303 17.2142307,3.08181485 15.1940384,3.08181485 C14.0611915,3.08181485 13.1422926,4.00173658 13.1422926,5.1366149 C13.1422926,6.27149321 14.0611915,7.19141494 15.1940384,7.19141494 C15.1940384,7.19141494 18.6733867,7.33240797 18.695705,11.2154947 L8.11605411,75.3141617 C7.61812481,78.3412743 4.68288158,78.4583833 4.68288158,78.4583833 C3.5492651,78.4583833 2.6311358,79.378305 2.6311358,80.5124129 C2.6311358,81.6472912 3.5492651,82.5672129 4.68288158,82.5672129 C6.94549697,82.5672129 10.7919431,82.1465452 13.4601362,82.1465452 C16.1283292,82.1465452 20.8474984,82.5672129 22.2373907,82.5672129 C23.3710072,82.5672129 24.2899061,81.6472912 24.2899061,80.5124129 C24.2899061,79.378305 23.3710072,78.4583833 22.2373907,78.4583833 C19.8331695,78.4583833 18.6341373,76.540724 18.8188406,75.3457503 L21.7217607,57.7570625 L25.8868201,62.5192369 C26.0138036,62.707998 26.2108204,62.8405161 26.4470867,62.8405161 C26.6856618,62.8405161 26.885757,62.7041458 26.9981182,62.5115323 L30.5744358,58.0105418 L33.4319497,75.3203253 C33.6358929,76.5129876 32.4353215,78.4583833 30.0141691,78.4583833 C28.8805527,78.4583833 27.9616538,79.378305 27.9616538,80.5124129 C27.9616538,81.6472912 28.8805527,82.5672129 30.0141691,82.5672129 C31.4032918,82.5672129 36.1232307,82.1465452 38.7914237,82.1465452 C41.4596168,82.1465452 45.3060629,82.5672129 47.5686783,82.5672129 C48.7015252,82.5672129 49.6204241,81.6472912 49.6204241,80.5124129 C49.6204241,79.378305 48.7015252,78.4583833 47.5686783,78.4583833 C47.5686783,78.4583833 44.6634494,78.3397334 44.1455105,75.3557662 Z M24.9409853,14.0368962 L20.6820351,42.3926746 C19.797768,47.4075578 13.3097062,54.0303779 13.3097062,54.0303779 C13.3097062,54.0303794 20.2356688,11.3379968 20.2356688,11.3379968 C20.2118113,7.27847621 17.2450146,5.73217561 15.2563757,5.65127797 C14.9115962,5.65050752 14.6814867,5.42014186 14.6814867,5.1366149 C14.6814867,4.85308793 14.9115962,4.62272227 15.1940384,4.62272227 C16.0960061,4.62272227 17.9407303,4.71363581 19.8931981,4.80994252 C22.235082,4.92551058 24.6570039,5.04416045 26.1223168,5.04416045 C27.7084563,5.04416045 30.6259988,4.90470833 33.200301,4.78143573 C34.8988017,4.69976764 36.5041812,4.62272227 37.0498255,4.62272227 C37.3322677,4.62272227 37.5623772,4.85308793 37.5623772,5.1366149 C37.5623772,5.42014186 37.3322677,5.65050752 37.0498255,5.65050752 C33.7482541,5.65050752 32.1405658,8.38022502 32.0128127,11.0860585 L32.0051168,11.2493946 L36.7073549,39.4426073 C37.9202398,45.4105418 31.527197,54.0303779 31.527197,54.0303779 L24.9409853,14.0368962 Z" id="Fill-12" fill="#780922"></path>
                        </g>
                        <g id="L">
                            <path d="M36.8108264,84.4871836 C32.0362462,84.3716155 26.0941872,84.2267702 24.5726938,84.2267702 C23.174336,84.2267702 18.1773422,84.3500428 13.7690902,84.4586768 C9.64558907,84.5603767 6.08466343,84.6482084 5.11651031,84.6482084 C2.71228907,84.6482084 0.755973315,82.6897151 0.755973315,80.2820472 C0.755973315,77.9013452 2.66919163,75.9605723 5.03724181,75.9174269 C6.31169456,75.7980066 6.31169456,74.5714443 6.31169456,74.1669561 L6.31169456,11.0213403 C6.31169456,10.6191635 6.31169456,9.404158 5.01107551,9.27086951 C2.65533888,9.21462639 0.755973315,7.27847621 0.755973315,4.90624924 C0.755973315,2.49858139 2.71228907,0.540088052 5.11651031,0.540088052 C6.1185257,0.540088052 7.86628064,0.633312951 9.716392,0.73270148 C11.7304275,0.840564999 14.0130524,0.962296686 15.3783176,0.962296686 C16.8682576,0.962296686 19.6303415,0.818221842 21.8498594,0.703424239 C23.6083887,0.612510701 24.9975114,0.540088052 25.6393554,0.540088052 C28.0443462,0.540088052 30.000662,2.49858139 30.000662,4.90624924 C30.000662,7.31391708 28.0443462,9.27241042 25.6393554,9.27241042 C24.5157437,9.27241042 24.4472495,10.743977 24.4449407,11.0390608 L24.4449407,52.1127186 L24.4449407,54.0573438 L24.4449407,70.8285802 C28.2552158,70.5620032 29.7805572,64.8244344 29.7951795,64.7651095 C31.4228774,57.8687783 32.4333583,54.161355 34.6351755,50.0702458 C35.518673,48.4299499 37.2294872,46.6779381 39.3828198,46.6779381 C40.0785356,46.6779381 40.7757905,46.8536016 41.4076297,47.187208 C41.8970935,47.4630305 42.2272506,47.7195915 42.5158495,48.019298 L46.7232367,51.4678488 C46.9695078,51.631185 47.1980781,51.8191757 47.4050997,52.0279687 L48.1416041,52.6343158 L48.1485305,53.0272472 C48.4940796,53.662101 48.6787829,54.3740002 48.6787829,55.1005381 C48.6787829,56.0412621 48.3694048,56.9565611 47.8022118,57.7123762 L47.268881,58.763275 L46.9033224,58.7640455 C44.699966,61.6424606 44.5737521,66.1881375 44.5737521,66.236676 C44.5737521,74.134597 47.1934605,77.2664914 47.2196268,77.2973095 L48.0007678,78.1956586 C48.2416517,78.9768986 48.390184,79.619457 48.390184,80.2820472 C48.390184,82.6897151 46.4338682,84.6482084 44.0288774,84.6482084 C43.4478316,84.6482084 40.9073916,84.5873425 36.8108264,84.4871836 Z" id="Fill-1" fill="#F1E3D1"></path>
                            <path d="M4.78011943,3.52752232 C4.33529233,3.74787208 3.7887243,3.31526224 4.15058903,4.73944601 C4.51245376,6.16362977 4.66868196,5.99412996 5.28205083,6.16362977 C7.25452812,6.70988145 8.98519782,8.18414455 9.36999636,10.1957992 C9.75556449,12.2082243 9.44002969,14.277663 9.28226229,16.3201357 C9.08524544,18.879583 9.13911724,21.450587 9.19298903,24.0177388 C9.29303665,28.8107313 9.48697511,47.0781888 9.52853335,47.6668155 C9.76864764,51.1007277 10.0087619,54.5338694 10.2488762,57.9677816 C14.8664586,52.1200379 19.6187205,45.9941605 21.1825418,38.7064388 C21.909811,35.3172129 21.909811,31.8170417 21.8189986,28.3515409 C21.6773927,22.9136786 21.3226084,17.4711936 21.5904282,12.0371836 C21.6527656,10.7882781 21.7535828,9.5131772 22.2499729,8.36520117 C22.7471326,7.21722514 23.7129769,6.20330806 24.9404843,5.96909013 C25.5692451,5.84889935 26.3080583,5.9012902 26.7398022,5.42746117 C27.2631282,4.85347316 26.9068048,3.85342424 26.2426425,3.45047695 C25.5784802,3.04752966 24.5281343,3.8183686 23.7523805,3.85226856 C20.6031893,3.85226856 17.6648677,3.72360279 14.5172157,3.85226856 C11.7859157,3.9647548 8.97904105,3.3680384 6.23850588,3.32027027 C5.74211577,3.31179528 5.22494654,3.30794301 4.78011943,3.52752232 Z" id="Fill-1" fill="#E5863A"></path>
                            <path d="M20.5991872,34.2060646 C20.5991872,45.268239 10.1611421,56.552304 10.1611421,56.552304 L10.1611421,11.2519371 C10.1611421,7.28872325 7.18280149,5.7316363 5.18030991,5.65150911 C4.83630002,5.6499682 4.6061905,5.41960254 4.6061905,5.13684603 C4.6061905,4.85331907 4.83630002,4.62295341 5.11874214,4.62295341 C6.01763152,4.62295341 7.71613225,4.71386694 9.51391101,4.8094032 C11.6764788,4.92497126 13.9129279,5.04439159 15.3805495,5.04439159 C16.970537,5.04439159 19.6695139,4.90416901 22.0514169,4.78089642 C23.6190861,4.69999878 25.0990213,4.62295341 25.6415872,4.62295341 C25.9247989,4.62295341 26.1549085,4.85331907 26.1549085,5.13684603 C26.1549085,5.41960254 25.9247989,5.6499682 25.6415872,5.6499682 C21.9736876,5.6499682 20.6161183,8.99296686 20.5991872,11.2403803 L20.5991872,34.2060646 Z M42.2671927,66.4356842 C42.2671927,66.4356842 42.3495396,60.3406249 45.7419235,56.8073242 C45.853515,56.6840516 45.853515,56.6832812 45.8542846,56.6825107 C46.1721282,56.3203975 46.3722235,55.8511911 46.3722235,55.3311349 C46.3722235,54.8110786 46.1721282,54.3411019 45.8542846,53.9789886 C45.6995956,53.806407 45.5425978,53.6785117 45.3686689,53.57373 L40.9304026,49.9356475 C40.7772528,49.7592136 40.5963975,49.6105161 40.3916846,49.4941776 C40.0907722,49.3239073 39.7521495,49.219896 39.3850517,49.219896 C38.2522048,49.219896 37.1778473,50.4541629 36.6699132,51.3971982 C34.563526,55.3118735 33.6130737,58.8790742 32.038478,65.5512034 C32.038478,65.5512034 30.0990934,73.3944222 24.1585737,73.3944222 C24.1585737,73.3944222 22.3915788,73.4028972 22.1383813,71.7510444 L22.1383813,54.2124361 L22.1984099,53.290203 L22.1383813,11.2519371 C22.1383813,11.2519371 22.1699348,7.19087563 25.6415872,7.19087563 C26.7752037,7.19087563 27.6941026,6.2709539 27.6941026,5.13684603 C27.6941026,4.00196771 26.7752037,3.08204598 25.6415872,3.08204598 C24.2524645,3.08204598 18.0487425,3.50348416 15.3805495,3.50348416 C12.7123564,3.50348416 7.13893445,3.08204598 5.11874214,3.08204598 C3.98589526,3.08204598 3.06699636,4.00196771 3.06699636,5.13684603 C3.06699636,6.2709539 3.98589526,7.19087563 5.11874214,7.19087563 C5.11874214,7.19087563 8.6227176,7.3310982 8.6227176,11.2519371 L8.6227176,72.6563275 L8.6227176,74.3975529 C8.6227176,78.3183918 5.11874214,78.457844 5.11874214,78.457844 C3.98589526,78.457844 3.06699636,79.3777657 3.06699636,80.512644 C3.06699636,81.6475223 3.98589526,82.5674441 5.11874214,82.5674441 C7.13893445,82.5674441 21.9067326,82.1452354 24.5749257,82.1452354 C27.2431187,82.1452354 42.6412169,82.5674441 44.0311092,82.5674441 C45.1647257,82.5674441 46.0836246,81.6475223 46.0836246,80.512644 C46.0836246,79.9586878 45.8619806,79.4578929 45.5056572,79.0880751 C45.2886308,78.8292026 42.2671927,75.277411 42.2671927,66.4356842 Z" id="Fill-1" fill="#780922"></path>
                        </g>
                    </g>
                </g>
            </g>
        </g>
    </g>
</svg>