<?xml version="1.0" encoding="UTF-8" standalone="no"?>
<svg width="632px" height="633px" viewBox="0 0 632 633" version="1.1" xmlns="http://www.w3.org/2000/svg" xmlns:xlink="http://www.w3.org/1999/xlink">
    <!-- Generator: Sketch 3.8.3 (29802) - http://www.bohemiancoding.com/sketch -->
    <title>pie-chart-placeholder</title>
    <desc>Created with Sketch.</desc>
    <defs></defs>
    <g id="Page-1" stroke="none" stroke-width="1" fill="none" fill-rule="evenodd">
        <g id="pie-chart-placeholder">
            <g id="Page-1">
                <g id="Group">
                    <path d="M241.093078,212.897067 L130.857947,61.1228554 C187.196233,20.1811308 246.499502,0.904236623 316.135067,0.904236623 L316.135067,187.866308 C288.086573,188.219642 262.1782,197.457898 241.093078,212.897067 L241.093078,212.897067 Z" id="Combined-Shape" fill="#039317"></path>
                    <path d="M239.496319,421.734524 L130.857947,571.310282 C-9.980544,468.950552 -41.201344,271.763386 61.1248731,130.878768 C81.5908389,102.704012 102.692416,81.5955239 130.857947,61.1228554 L241.093078,212.897067 C208.779689,236.557915 187.794286,274.782353 187.794286,317.9098 C187.794286,360.322699 208.090066,397.993712 239.496319,421.734524 L239.496319,421.734524 Z" id="Combined-Shape" fill="#921377"></path>
                    <path d="M440.814183,275.69299 L615.916142,218.780828 C669.711982,384.397383 579.10485,562.285979 413.538907,616.095825 C314.199342,648.385345 215.361765,632.724675 130.857947,571.310282 L239.496319,421.734524 C261.277001,438.199114 288.401398,447.963808 317.805714,447.963808 C389.609044,447.963808 447.817143,389.736645 447.817143,317.9098 C447.817143,303.13234 445.35332,288.930525 440.814183,275.69299 L440.814183,275.69299 Z" id="Combined-Shape" fill="#CBBAA5"></path>
                    <path d="M316.135067,187.866308 L316.135067,0.904236623 C455.402587,0.904236623 572.882359,86.2846935 615.916142,218.780828 L440.814183,275.69299 C423.290534,224.588587 374.836422,187.855791 317.805714,187.855791 C317.248005,187.855791 316.691116,187.859303 316.135067,187.866308 L316.135067,187.866308 Z" id="Combined-Shape" fill="#214BB5"></path>
                </g>
            </g>
        </g>
    </g>
</svg>